<?xml version="1.0" encoding="UTF-8" standalone="no"?>
<!DOCTYPE svg PUBLIC "-//W3C//DTD SVG 1.1//EN"
 "http://www.w3.org/Graphics/SVG/1.1/DTD/svg11.dtd">
<!-- Generated by graphviz version 2.50.0 (20211204.2007)
 -->
<!-- Title: src/ReactESP.cpp Pages: 1 -->
<svg width="345pt" height="140pt"
 viewBox="0.00 0.00 344.50 140.00" xmlns="http://www.w3.org/2000/svg" xmlns:xlink="http://www.w3.org/1999/xlink">
<g id="graph0" class="graph" transform="scale(1 1) rotate(0) translate(4 136)">
<title>src/ReactESP.cpp</title>
<!-- Node1 -->
<g id="node1" class="node">
<title>Node1</title>
<g id="a_node1"><a xlink:title=" ">
<polygon fill="#bfbfbf" stroke="black" points="114.5,-112.5 114.5,-131.5 211.5,-131.5 211.5,-112.5 114.5,-112.5"/>
<text text-anchor="middle" x="163" y="-119.5" font-family="Helvetica,sans-Serif" font-size="10.00">src/ReactESP.cpp</text>
</a>
</g>
</g>
<!-- Node2 -->
<g id="node2" class="node">
<title>Node2</title>
<g id="a_node2"><a xlink:href="_react_e_s_p_8h.html" target="_top" xlink:title=" ">
<polygon fill="none" stroke="black" points="75,-56.5 75,-75.5 145,-75.5 145,-56.5 75,-56.5"/>
<text text-anchor="middle" x="110" y="-63.5" font-family="Helvetica,sans-Serif" font-size="10.00">ReactESP.h</text>
</a>
</g>
</g>
<!-- Node1&#45;&gt;Node2 -->
<g id="edge1" class="edge">
<title>Node1&#45;&gt;Node2</title>
<path fill="none" stroke="midnightblue" d="M154.25,-112.08C146.53,-104.22 135.1,-92.57 125.78,-83.08"/>
<polygon fill="midnightblue" stroke="midnightblue" points="128.09,-80.44 118.59,-75.75 123.1,-85.34 128.09,-80.44"/>
</g>
<!-- Node3 -->
<g id="node3" class="node">
<title>Node3</title>
<g id="a_node3"><a xlink:title=" ">
<polygon fill="none" stroke="#bfbfbf" points="0,-0.5 0,-19.5 58,-19.5 58,-0.5 0,-0.5"/>
<text text-anchor="middle" x="29" y="-7.5" font-family="Helvetica,sans-Serif" font-size="10.00">Arduino.h</text>
</a>
</g>
</g>
<!-- Node1&#45;&gt;Node3 -->
<g id="edge6" class="edge">
<title>Node1&#45;&gt;Node3</title>
<path fill="none" stroke="midnightblue" d="M133.08,-112.49C112.34,-105.41 85.13,-93.6 66,-76 51.99,-63.11 41.89,-43.66 35.82,-29.4"/>
<polygon fill="midnightblue" stroke="midnightblue" points="38.91,-27.69 31.96,-19.69 32.4,-30.28 38.91,-27.69"/>
</g>
<!-- Node7 -->
<g id="node7" class="node">
<title>Node7</title>
<g id="a_node7"><a xlink:title=" ">
<polygon fill="none" stroke="#bfbfbf" points="163,-56.5 163,-75.5 269,-75.5 269,-56.5 163,-56.5"/>
<text text-anchor="middle" x="216" y="-63.5" font-family="Helvetica,sans-Serif" font-size="10.00">FunctionalInterrupt.h</text>
</a>
</g>
</g>
<!-- Node1&#45;&gt;Node7 -->
<g id="edge7" class="edge">
<title>Node1&#45;&gt;Node7</title>
<path fill="none" stroke="midnightblue" d="M171.75,-112.08C179.47,-104.22 190.9,-92.57 200.22,-83.08"/>
<polygon fill="midnightblue" stroke="midnightblue" points="202.9,-85.34 207.41,-75.75 197.91,-80.44 202.9,-85.34"/>
</g>
<!-- Node8 -->
<g id="node8" class="node">
<title>Node8</title>
<g id="a_node8"><a xlink:title=" ">
<polygon fill="none" stroke="#bfbfbf" points="287.5,-56.5 287.5,-75.5 336.5,-75.5 336.5,-56.5 287.5,-56.5"/>
<text text-anchor="middle" x="312" y="-63.5" font-family="Helvetica,sans-Serif" font-size="10.00">string.h</text>
</a>
</g>
</g>
<!-- Node1&#45;&gt;Node8 -->
<g id="edge8" class="edge">
<title>Node1&#45;&gt;Node8</title>
<path fill="none" stroke="midnightblue" d="M186.61,-112.44C211.46,-103.44 250.77,-89.19 278.75,-79.05"/>
<polygon fill="midnightblue" stroke="midnightblue" points="280.29,-82.21 288.5,-75.52 277.91,-75.63 280.29,-82.21"/>
</g>
<!-- Node2&#45;&gt;Node3 -->
<g id="edge2" class="edge">
<title>Node2&#45;&gt;Node3</title>
<path fill="none" stroke="midnightblue" d="M96.99,-56.32C84.47,-47.98 65.32,-35.21 50.53,-25.35"/>
<polygon fill="midnightblue" stroke="midnightblue" points="52.24,-22.29 41.98,-19.65 48.36,-28.11 52.24,-22.29"/>
</g>
<!-- Node4 -->
<g id="node4" class="node">
<title>Node4</title>
<g id="a_node4"><a xlink:title=" ">
<polygon fill="none" stroke="#bfbfbf" points="76.5,-0.5 76.5,-19.5 143.5,-19.5 143.5,-0.5 76.5,-0.5"/>
<text text-anchor="middle" x="110" y="-7.5" font-family="Helvetica,sans-Serif" font-size="10.00">forward_list</text>
</a>
</g>
</g>
<!-- Node2&#45;&gt;Node4 -->
<g id="edge3" class="edge">
<title>Node2&#45;&gt;Node4</title>
<path fill="none" stroke="midnightblue" d="M110,-56.08C110,-49.01 110,-38.86 110,-29.99"/>
<polygon fill="midnightblue" stroke="midnightblue" points="113.5,-29.75 110,-19.75 106.5,-29.75 113.5,-29.75"/>
</g>
<!-- Node5 -->
<g id="node5" class="node">
<title>Node5</title>
<g id="a_node5"><a xlink:title=" ">
<polygon fill="none" stroke="#bfbfbf" points="161.5,-0.5 161.5,-19.5 220.5,-19.5 220.5,-0.5 161.5,-0.5"/>
<text text-anchor="middle" x="191" y="-7.5" font-family="Helvetica,sans-Serif" font-size="10.00">functional</text>
</a>
</g>
</g>
<!-- Node2&#45;&gt;Node5 -->
<g id="edge4" class="edge">
<title>Node2&#45;&gt;Node5</title>
<path fill="none" stroke="midnightblue" d="M123.01,-56.32C135.53,-47.98 154.68,-35.21 169.47,-25.35"/>
<polygon fill="midnightblue" stroke="midnightblue" points="171.64,-28.11 178.02,-19.65 167.76,-22.29 171.64,-28.11"/>
</g>
<!-- Node6 -->
<g id="node6" class="node">
<title>Node6</title>
<g id="a_node6"><a xlink:title=" ">
<polygon fill="none" stroke="#bfbfbf" points="238.5,-0.5 238.5,-19.5 281.5,-19.5 281.5,-0.5 238.5,-0.5"/>
<text text-anchor="middle" x="260" y="-7.5" font-family="Helvetica,sans-Serif" font-size="10.00">queue</text>
</a>
</g>
</g>
<!-- Node2&#45;&gt;Node6 -->
<g id="edge5" class="edge">
<title>Node2&#45;&gt;Node6</title>
<path fill="none" stroke="midnightblue" d="M133.77,-56.44C159.48,-47.19 200.59,-32.39 228.87,-22.21"/>
<polygon fill="midnightblue" stroke="midnightblue" points="230.07,-25.5 238.29,-18.82 227.7,-18.91 230.07,-25.5"/>
</g>
</g>
</svg>
