<?xml version="1.0" encoding="UTF-8" standalone="no"?>
<!DOCTYPE svg PUBLIC "-//W3C//DTD SVG 1.1//EN"
 "http://www.w3.org/Graphics/SVG/1.1/DTD/svg11.dtd">
<!-- Generated by graphviz version 12.1.2 (20240928.0832)
 -->
<!-- Title: src/ReactESP.h Pages: 1 -->
<svg width="223pt" height="193pt"
 viewBox="0.00 0.00 222.62 193.00" xmlns="http://www.w3.org/2000/svg" xmlns:xlink="http://www.w3.org/1999/xlink">
<g id="graph0" class="graph" transform="scale(1 1) rotate(0) translate(4 189)">
<title>src/ReactESP.h</title>
<!-- Node1 -->
<g id="Node000001" class="node">
<title>Node1</title>
<g id="a_Node000001"><a xlink:title=" ">
<polygon fill="#999999" stroke="#666666" points="154.5,-185 68.75,-185 68.75,-165.75 154.5,-165.75 154.5,-185"/>
<text text-anchor="middle" x="111.62" y="-171.5" font-family="Helvetica,sans-Serif" font-size="10.00">src/ReactESP.h</text>
</a>
</g>
</g>
<!-- Node2 -->
<g id="Node000002" class="node">
<title>Node2</title>
<g id="a_Node000002"><a xlink:title=" ">
<polygon fill="#e0e0e0" stroke="#999999" points="57.25,-19.25 0,-19.25 0,0 57.25,0 57.25,-19.25"/>
<text text-anchor="middle" x="28.62" y="-5.75" font-family="Helvetica,sans-Serif" font-size="10.00">Arduino.h</text>
</a>
</g>
</g>
<!-- Node1&#45;&gt;Node2 -->
<g id="edge1_Node000001_Node000002" class="edge">
<title>Node1&#45;&gt;Node2</title>
<g id="a_edge1_Node000001_Node000002"><a xlink:title=" ">
<path fill="none" stroke="#63b8ff" d="M82.41,-165.36C65.39,-158.48 45.25,-147.16 34.62,-129.75 15.98,-99.2 19.78,-55.62 24.21,-30.51"/>
<polygon fill="#63b8ff" stroke="#63b8ff" points="27.58,-31.5 26.11,-21.01 20.72,-30.13 27.58,-31.5"/>
</a>
</g>
</g>
<!-- Node3 -->
<g id="Node000003" class="node">
<title>Node3</title>
<g id="a_Node000003"><a xlink:href="event__loop_8h.html" target="_top" xlink:title=" ">
<polygon fill="white" stroke="#666666" points="115.38,-129.75 43.88,-129.75 43.88,-110.5 115.38,-110.5 115.38,-129.75"/>
<text text-anchor="middle" x="79.62" y="-116.25" font-family="Helvetica,sans-Serif" font-size="10.00">event_loop.h</text>
</a>
</g>
</g>
<!-- Node1&#45;&gt;Node3 -->
<g id="edge2_Node000001_Node000003" class="edge">
<title>Node1&#45;&gt;Node3</title>
<g id="a_edge2_Node000001_Node000003"><a xlink:title=" ">
<path fill="none" stroke="#63b8ff" d="M106.34,-165.58C102.15,-158.61 96.15,-148.62 90.89,-139.87"/>
<polygon fill="#63b8ff" stroke="#63b8ff" points="93.95,-138.18 85.8,-131.41 87.95,-141.78 93.95,-138.18"/>
</a>
</g>
</g>
<!-- Node5 -->
<g id="Node000005" class="node">
<title>Node5</title>
<g id="a_Node000005"><a xlink:href="events_8h.html" target="_top" xlink:title=" ">
<polygon fill="white" stroke="#666666" points="157.38,-74.5 103.88,-74.5 103.88,-55.25 157.38,-55.25 157.38,-74.5"/>
<text text-anchor="middle" x="130.62" y="-61" font-family="Helvetica,sans-Serif" font-size="10.00">events.h</text>
</a>
</g>
</g>
<!-- Node1&#45;&gt;Node5 -->
<g id="edge8_Node000001_Node000005" class="edge">
<title>Node1&#45;&gt;Node5</title>
<g id="a_edge8_Node000001_Node000005"><a xlink:title=" ">
<path fill="none" stroke="#63b8ff" d="M114.83,-165.27C117.84,-156.34 122.24,-142.27 124.62,-129.75 127.38,-115.3 128.89,-98.75 129.71,-86.12"/>
<polygon fill="#63b8ff" stroke="#63b8ff" points="133.2,-86.31 130.25,-76.14 126.21,-85.94 133.2,-86.31"/>
</a>
</g>
</g>
<!-- Node6 -->
<g id="Node000006" class="node">
<title>Node6</title>
<g id="a_Node000006"><a xlink:title=" ">
<polygon fill="#e0e0e0" stroke="#999999" points="214.62,-19.25 156.62,-19.25 156.62,0 214.62,0 214.62,-19.25"/>
<text text-anchor="middle" x="185.62" y="-5.75" font-family="Helvetica,sans-Serif" font-size="10.00">functional</text>
</a>
</g>
</g>
<!-- Node1&#45;&gt;Node6 -->
<g id="edge9_Node000001_Node000006" class="edge">
<title>Node1&#45;&gt;Node6</title>
<g id="a_edge9_Node000001_Node000006"><a xlink:title=" ">
<path fill="none" stroke="#63b8ff" d="M117.71,-165.32C123.58,-156.42 132.6,-142.38 139.62,-129.75 152.91,-105.86 156.69,-99.96 166.62,-74.5 172.3,-59.96 177.27,-43.01 180.7,-30.22"/>
<polygon fill="#63b8ff" stroke="#63b8ff" points="183.99,-31.48 183.11,-20.92 177.21,-29.72 183.99,-31.48"/>
</a>
</g>
</g>
<!-- Node4 -->
<g id="Node000004" class="node">
<title>Node4</title>
<g id="a_Node000004"><a xlink:title=" ">
<polygon fill="#e0e0e0" stroke="#999999" points="85.75,-74.5 43.5,-74.5 43.5,-55.25 85.75,-55.25 85.75,-74.5"/>
<text text-anchor="middle" x="64.62" y="-61" font-family="Helvetica,sans-Serif" font-size="10.00">queue</text>
</a>
</g>
</g>
<!-- Node3&#45;&gt;Node4 -->
<g id="edge3_Node000003_Node000004" class="edge">
<title>Node3&#45;&gt;Node4</title>
<g id="a_edge3_Node000003_Node000004"><a xlink:title=" ">
<path fill="none" stroke="#63b8ff" d="M77.15,-110.33C75.27,-103.67 72.62,-94.24 70.23,-85.78"/>
<polygon fill="#63b8ff" stroke="#63b8ff" points="73.65,-84.99 67.57,-76.32 66.91,-86.89 73.65,-84.99"/>
</a>
</g>
</g>
<!-- Node3&#45;&gt;Node5 -->
<g id="edge4_Node000003_Node000005" class="edge">
<title>Node3&#45;&gt;Node5</title>
<g id="a_edge4_Node000003_Node000005"><a xlink:title=" ">
<path fill="none" stroke="#63b8ff" d="M88.05,-110.33C95.16,-102.9 105.57,-92.04 114.31,-82.91"/>
<polygon fill="#63b8ff" stroke="#63b8ff" points="116.58,-85.6 120.97,-75.95 111.53,-80.75 116.58,-85.6"/>
</a>
</g>
</g>
<!-- Node5&#45;&gt;Node2 -->
<g id="edge5_Node000005_Node000002" class="edge">
<title>Node5&#45;&gt;Node2</title>
<g id="a_edge5_Node000005_Node000002"><a xlink:title=" ">
<path fill="none" stroke="#63b8ff" d="M113.32,-54.84C97.64,-46.66 74.27,-34.46 56.05,-24.94"/>
<polygon fill="#63b8ff" stroke="#63b8ff" points="57.84,-21.93 47.35,-20.4 54.6,-28.13 57.84,-21.93"/>
</a>
</g>
</g>
<!-- Node5&#45;&gt;Node6 -->
<g id="edge6_Node000005_Node000006" class="edge">
<title>Node5&#45;&gt;Node6</title>
<g id="a_edge6_Node000005_Node000006"><a xlink:title=" ">
<path fill="none" stroke="#63b8ff" d="M139.71,-55.08C147.46,-47.57 158.84,-36.56 168.32,-27.38"/>
<polygon fill="#63b8ff" stroke="#63b8ff" points="170.51,-30.13 175.26,-20.66 165.64,-25.1 170.51,-30.13"/>
</a>
</g>
</g>
<!-- Node7 -->
<g id="Node000007" class="node">
<title>Node7</title>
<g id="a_Node000007"><a xlink:title=" ">
<polygon fill="#e0e0e0" stroke="#999999" points="138.25,-19.25 87,-19.25 87,0 138.25,0 138.25,-19.25"/>
<text text-anchor="middle" x="112.62" y="-5.75" font-family="Helvetica,sans-Serif" font-size="10.00">memory</text>
</a>
</g>
</g>
<!-- Node5&#45;&gt;Node7 -->
<g id="edge7_Node000005_Node000007" class="edge">
<title>Node5&#45;&gt;Node7</title>
<g id="a_edge7_Node000005_Node000007"><a xlink:title=" ">
<path fill="none" stroke="#63b8ff" d="M127.65,-55.08C125.37,-48.34 122.14,-38.77 119.26,-30.24"/>
<polygon fill="#63b8ff" stroke="#63b8ff" points="122.66,-29.4 116.15,-21.04 116.03,-31.64 122.66,-29.4"/>
</a>
</g>
</g>
</g>
</svg>
