<?xml version="1.0" encoding="UTF-8" standalone="no"?>
<!DOCTYPE svg PUBLIC "-//W3C//DTD SVG 1.1//EN"
 "http://www.w3.org/Graphics/SVG/1.1/DTD/svg11.dtd">
<!-- Generated by graphviz version 12.1.0 (20240811.2233)
 -->
<!-- Title: src/ReactESP.h Pages: 1 -->
<svg width="286pt" height="83pt"
 viewBox="0.00 0.00 285.75 82.50" xmlns="http://www.w3.org/2000/svg" xmlns:xlink="http://www.w3.org/1999/xlink">
<g id="graph0" class="graph" transform="scale(1 1) rotate(0) translate(4 78.5)">
<title>src/ReactESP.h</title>
<!-- Node1 -->
<g id="Node000001" class="node">
<title>Node1</title>
<g id="a_Node000001"><a xlink:title=" ">
<polygon fill="#999999" stroke="#666666" points="191.5,-74.5 105.75,-74.5 105.75,-55.25 191.5,-55.25 191.5,-74.5"/>
<text text-anchor="middle" x="148.62" y="-61" font-family="Helvetica,sans-Serif" font-size="10.00">src/ReactESP.h</text>
</a>
</g>
</g>
<!-- Node2 -->
<g id="Node000002" class="node">
<title>Node2</title>
<g id="a_Node000002"><a xlink:title=" ">
<polygon fill="#e0e0e0" stroke="#999999" points="57.25,-19.25 0,-19.25 0,0 57.25,0 57.25,-19.25"/>
<text text-anchor="middle" x="28.62" y="-5.75" font-family="Helvetica,sans-Serif" font-size="10.00">Arduino.h</text>
</a>
</g>
</g>
<!-- Node1&#45;&gt;Node2 -->
<g id="edge1_Node000001_Node000002" class="edge">
<title>Node1&#45;&gt;Node2</title>
<g id="a_edge1_Node000001_Node000002"><a xlink:title=" ">
<path fill="none" stroke="#63b8ff" d="M128.27,-54.84C109.39,-46.47 81.04,-33.88 59.4,-24.28"/>
<polygon fill="#63b8ff" stroke="#63b8ff" points="61.02,-21.17 50.46,-20.32 58.19,-27.57 61.02,-21.17"/>
</a>
</g>
</g>
<!-- Node3 -->
<g id="Node000003" class="node">
<title>Node3</title>
<g id="a_Node000003"><a xlink:title=" ">
<polygon fill="#e0e0e0" stroke="#999999" points="141.75,-19.25 75.5,-19.25 75.5,0 141.75,0 141.75,-19.25"/>
<text text-anchor="middle" x="108.62" y="-5.75" font-family="Helvetica,sans-Serif" font-size="10.00">forward_list</text>
</a>
</g>
</g>
<!-- Node1&#45;&gt;Node3 -->
<g id="edge2_Node000001_Node000003" class="edge">
<title>Node1&#45;&gt;Node3</title>
<g id="a_edge2_Node000001_Node000003"><a xlink:title=" ">
<path fill="none" stroke="#63b8ff" d="M142.02,-55.08C136.67,-47.96 128.95,-37.68 122.28,-28.8"/>
<polygon fill="#63b8ff" stroke="#63b8ff" points="125.09,-26.71 116.28,-20.82 119.49,-30.92 125.09,-26.71"/>
</a>
</g>
</g>
<!-- Node4 -->
<g id="Node000004" class="node">
<title>Node4</title>
<g id="a_Node000004"><a xlink:title=" ">
<polygon fill="#e0e0e0" stroke="#999999" points="217.62,-19.25 159.62,-19.25 159.62,0 217.62,0 217.62,-19.25"/>
<text text-anchor="middle" x="188.62" y="-5.75" font-family="Helvetica,sans-Serif" font-size="10.00">functional</text>
</a>
</g>
</g>
<!-- Node1&#45;&gt;Node4 -->
<g id="edge3_Node000001_Node000004" class="edge">
<title>Node1&#45;&gt;Node4</title>
<g id="a_edge3_Node000001_Node000004"><a xlink:title=" ">
<path fill="none" stroke="#63b8ff" d="M155.23,-55.08C160.58,-47.96 168.3,-37.68 174.97,-28.8"/>
<polygon fill="#63b8ff" stroke="#63b8ff" points="177.76,-30.92 180.97,-20.82 172.16,-26.71 177.76,-30.92"/>
</a>
</g>
</g>
<!-- Node5 -->
<g id="Node000005" class="node">
<title>Node5</title>
<g id="a_Node000005"><a xlink:title=" ">
<polygon fill="#e0e0e0" stroke="#999999" points="277.75,-19.25 235.5,-19.25 235.5,0 277.75,0 277.75,-19.25"/>
<text text-anchor="middle" x="256.62" y="-5.75" font-family="Helvetica,sans-Serif" font-size="10.00">queue</text>
</a>
</g>
</g>
<!-- Node1&#45;&gt;Node5 -->
<g id="edge4_Node000001_Node000005" class="edge">
<title>Node1&#45;&gt;Node5</title>
<g id="a_edge4_Node000001_Node000005"><a xlink:title=" ">
<path fill="none" stroke="#63b8ff" d="M166.95,-54.84C183.7,-46.58 208.76,-34.23 228.13,-24.68"/>
<polygon fill="#63b8ff" stroke="#63b8ff" points="229.44,-27.93 236.86,-20.37 226.34,-21.65 229.44,-27.93"/>
</a>
</g>
</g>
</g>
</svg>
