<?xml version="1.0" encoding="UTF-8" standalone="no"?>
<!DOCTYPE svg PUBLIC "-//W3C//DTD SVG 1.1//EN"
 "http://www.w3.org/Graphics/SVG/1.1/DTD/svg11.dtd">
<!-- Generated by graphviz version 12.1.0 (20240811.2233)
 -->
<!-- Title: src/ReactESP.h Pages: 1 -->
<svg width="170pt" height="193pt"
 viewBox="0.00 0.00 170.09 193.00" xmlns="http://www.w3.org/2000/svg" xmlns:xlink="http://www.w3.org/1999/xlink">
<g id="graph0" class="graph" transform="scale(1 1) rotate(0) translate(4 189)">
<title>src/ReactESP.h</title>
<!-- Node1 -->
<g id="Node000001" class="node">
<title>Node1</title>
<g id="a_Node000001"><a xlink:title=" ">
<polygon fill="#999999" stroke="#666666" points="129.97,-185 44.22,-185 44.22,-165.75 129.97,-165.75 129.97,-185"/>
<text text-anchor="middle" x="87.09" y="-171.5" font-family="Helvetica,sans-Serif" font-size="10.00">src/ReactESP.h</text>
</a>
</g>
</g>
<!-- Node2 -->
<g id="Node000002" class="node">
<title>Node2</title>
<g id="a_Node000002"><a xlink:title=" ">
<polygon fill="#e0e0e0" stroke="#999999" points="66.72,-19.25 9.47,-19.25 9.47,0 66.72,0 66.72,-19.25"/>
<text text-anchor="middle" x="38.09" y="-5.75" font-family="Helvetica,sans-Serif" font-size="10.00">Arduino.h</text>
</a>
</g>
</g>
<!-- Node1&#45;&gt;Node2 -->
<g id="edge1_Node000001_Node000002" class="edge">
<title>Node1&#45;&gt;Node2</title>
<g id="a_edge1_Node000001_Node000002"><a xlink:title=" ">
<path fill="none" stroke="#63b8ff" d="M57.18,-165.39C40.13,-158.56 20.2,-147.29 10.09,-129.75 -6.44,-101.06 0.94,-87.07 10.09,-55.25 12.84,-45.72 18.28,-36.25 23.65,-28.51"/>
<polygon fill="#63b8ff" stroke="#63b8ff" points="26.32,-30.77 29.51,-20.67 20.72,-26.58 26.32,-30.77"/>
</a>
</g>
</g>
<!-- Node3 -->
<g id="Node000003" class="node">
<title>Node3</title>
<g id="a_Node000003"><a xlink:href="event__loop_8h.html" target="_top" xlink:title=" ">
<polygon fill="white" stroke="#666666" points="90.84,-129.75 19.34,-129.75 19.34,-110.5 90.84,-110.5 90.84,-129.75"/>
<text text-anchor="middle" x="55.09" y="-116.25" font-family="Helvetica,sans-Serif" font-size="10.00">event_loop.h</text>
</a>
</g>
</g>
<!-- Node1&#45;&gt;Node3 -->
<g id="edge2_Node000001_Node000003" class="edge">
<title>Node1&#45;&gt;Node3</title>
<g id="a_edge2_Node000001_Node000003"><a xlink:title=" ">
<path fill="none" stroke="#63b8ff" d="M81.81,-165.58C77.62,-158.61 71.62,-148.62 66.36,-139.87"/>
<polygon fill="#63b8ff" stroke="#63b8ff" points="69.42,-138.18 61.27,-131.41 63.42,-141.78 69.42,-138.18"/>
</a>
</g>
</g>
<!-- Node5 -->
<g id="Node000005" class="node">
<title>Node5</title>
<g id="a_Node000005"><a xlink:href="events_8h.html" target="_top" xlink:title=" ">
<polygon fill="white" stroke="#666666" points="132.84,-74.5 79.34,-74.5 79.34,-55.25 132.84,-55.25 132.84,-74.5"/>
<text text-anchor="middle" x="106.09" y="-61" font-family="Helvetica,sans-Serif" font-size="10.00">events.h</text>
</a>
</g>
</g>
<!-- Node1&#45;&gt;Node5 -->
<g id="edge7_Node000001_Node000005" class="edge">
<title>Node1&#45;&gt;Node5</title>
<g id="a_edge7_Node000001_Node000005"><a xlink:title=" ">
<path fill="none" stroke="#63b8ff" d="M90.3,-165.27C93.31,-156.34 97.7,-142.27 100.09,-129.75 102.85,-115.3 104.36,-98.75 105.18,-86.12"/>
<polygon fill="#63b8ff" stroke="#63b8ff" points="108.67,-86.31 105.72,-76.14 101.68,-85.94 108.67,-86.31"/>
</a>
</g>
</g>
<!-- Node6 -->
<g id="Node000006" class="node">
<title>Node6</title>
<g id="a_Node000006"><a xlink:title=" ">
<polygon fill="#e0e0e0" stroke="#999999" points="162.09,-19.25 104.09,-19.25 104.09,0 162.09,0 162.09,-19.25"/>
<text text-anchor="middle" x="133.09" y="-5.75" font-family="Helvetica,sans-Serif" font-size="10.00">functional</text>
</a>
</g>
</g>
<!-- Node1&#45;&gt;Node6 -->
<g id="edge8_Node000001_Node000006" class="edge">
<title>Node1&#45;&gt;Node6</title>
<g id="a_edge8_Node000001_Node000006"><a xlink:title=" ">
<path fill="none" stroke="#63b8ff" d="M94.28,-165.45C107.15,-148.8 133.57,-111.34 142.09,-74.5 145.5,-59.78 142.82,-42.84 139.52,-30.1"/>
<polygon fill="#63b8ff" stroke="#63b8ff" points="142.97,-29.44 136.77,-20.84 136.26,-31.43 142.97,-29.44"/>
</a>
</g>
</g>
<!-- Node4 -->
<g id="Node000004" class="node">
<title>Node4</title>
<g id="a_Node000004"><a xlink:title=" ">
<polygon fill="#e0e0e0" stroke="#999999" points="61.22,-74.5 18.97,-74.5 18.97,-55.25 61.22,-55.25 61.22,-74.5"/>
<text text-anchor="middle" x="40.09" y="-61" font-family="Helvetica,sans-Serif" font-size="10.00">queue</text>
</a>
</g>
</g>
<!-- Node3&#45;&gt;Node4 -->
<g id="edge3_Node000003_Node000004" class="edge">
<title>Node3&#45;&gt;Node4</title>
<g id="a_edge3_Node000003_Node000004"><a xlink:title=" ">
<path fill="none" stroke="#63b8ff" d="M52.62,-110.33C50.74,-103.67 48.08,-94.24 45.7,-85.78"/>
<polygon fill="#63b8ff" stroke="#63b8ff" points="49.12,-84.99 43.04,-76.32 42.38,-86.89 49.12,-84.99"/>
</a>
</g>
</g>
<!-- Node3&#45;&gt;Node5 -->
<g id="edge4_Node000003_Node000005" class="edge">
<title>Node3&#45;&gt;Node5</title>
<g id="a_edge4_Node000003_Node000005"><a xlink:title=" ">
<path fill="none" stroke="#63b8ff" d="M63.52,-110.33C70.63,-102.9 81.04,-92.04 89.78,-82.91"/>
<polygon fill="#63b8ff" stroke="#63b8ff" points="92.05,-85.6 96.44,-75.95 87,-80.75 92.05,-85.6"/>
</a>
</g>
</g>
<!-- Node5&#45;&gt;Node2 -->
<g id="edge5_Node000005_Node000002" class="edge">
<title>Node5&#45;&gt;Node2</title>
<g id="a_edge5_Node000005_Node000002"><a xlink:title=" ">
<path fill="none" stroke="#63b8ff" d="M94.56,-54.84C84.63,-47.07 70.08,-35.67 58.24,-26.4"/>
<polygon fill="#63b8ff" stroke="#63b8ff" points="60.68,-23.87 50.65,-20.46 56.37,-29.38 60.68,-23.87"/>
</a>
</g>
</g>
<!-- Node5&#45;&gt;Node6 -->
<g id="edge6_Node000005_Node000006" class="edge">
<title>Node5&#45;&gt;Node6</title>
<g id="a_edge6_Node000005_Node000006"><a xlink:title=" ">
<path fill="none" stroke="#63b8ff" d="M110.55,-55.08C114.05,-48.19 119.04,-38.34 123.44,-29.66"/>
<polygon fill="#63b8ff" stroke="#63b8ff" points="126.45,-31.46 127.85,-20.96 120.21,-28.3 126.45,-31.46"/>
</a>
</g>
</g>
</g>
</svg>
