<?xml version="1.0" encoding="UTF-8" standalone="no"?>
<!DOCTYPE svg PUBLIC "-//W3C//DTD SVG 1.1//EN"
 "http://www.w3.org/Graphics/SVG/1.1/DTD/svg11.dtd">
<!-- Generated by graphviz version 12.1.0 (20240811.2233)
 -->
<!-- Title: src/ReactESP.cpp Pages: 1 -->
<svg width="337pt" height="138pt"
 viewBox="0.00 0.00 337.25 137.75" xmlns="http://www.w3.org/2000/svg" xmlns:xlink="http://www.w3.org/1999/xlink">

<svg id="main" version="1.1" xmlns="http://www.w3.org/2000/svg" xmlns:xlink="http://www.w3.org/1999/xlink" xml:space="preserve">

<style type="text/css"><![CDATA[
.node, .edge {opacity: 0.7;}
.node.selected, .edge.selected {opacity: 1;}
.edge:hover path { stroke: red; }
.edge:hover polygon { stroke: red; fill: red; }
]]></style>
<script type="application/ecmascript" xlink:href="svg.min.js"/>
<svg id="graph" class="graph">
<g id="graph0" class="graph" transform="scale(1 1) rotate(0) translate(4 133.75)">
<title>src/ReactESP.cpp</title>
<!-- Node1 -->
<g id="Node000001" class="node">
<title>Node1</title>
<g id="a_Node000001"><a xlink:title=" ">
<polygon fill="#999999" stroke="#666666" points="208.75,-129.75 112.5,-129.75 112.5,-110.5 208.75,-110.5 208.75,-129.75"/>
<text text-anchor="middle" x="160.62" y="-116.25" font-family="Helvetica,sans-Serif" font-size="10.00">src/ReactESP.cpp</text>
</a>
</g>
</g>
<!-- Node2 -->
<g id="Node000002" class="node">
<title>Node2</title>
<g id="a_Node000002"><a xlink:href="_react_e_s_p_8h.html" target="_top" xlink:title=" ">
<polygon fill="white" stroke="#666666" points="143.25,-74.5 74,-74.5 74,-55.25 143.25,-55.25 143.25,-74.5"/>
<text text-anchor="middle" x="108.62" y="-61" font-family="Helvetica,sans-Serif" font-size="10.00">ReactESP.h</text>
</a>
</g>
</g>
<!-- Node1&#45;&gt;Node2 -->
<g id="edge1_Node000001_Node000002" class="edge">
<title>Node1&#45;&gt;Node2</title>
<g id="a_edge1_Node000001_Node000002"><a xlink:title=" ">
<path fill="none" stroke="#63b8ff" d="M152.04,-110.33C144.78,-102.9 134.17,-92.04 125.26,-82.91"/>
<polygon fill="#63b8ff" stroke="#63b8ff" points="127.95,-80.65 118.46,-75.94 122.94,-85.54 127.95,-80.65"/>
</a>
</g>
</g>
<!-- Node3 -->
<g id="Node000003" class="node">
<title>Node3</title>
<g id="a_Node000003"><a xlink:title=" ">
<polygon fill="#e0e0e0" stroke="#999999" points="57.25,-19.25 0,-19.25 0,0 57.25,0 57.25,-19.25"/>
<text text-anchor="middle" x="28.62" y="-5.75" font-family="Helvetica,sans-Serif" font-size="10.00">Arduino.h</text>
</a>
</g>
</g>
<!-- Node1&#45;&gt;Node3 -->
<g id="edge6_Node000001_Node000003" class="edge">
<title>Node1&#45;&gt;Node3</title>
<g id="a_edge6_Node000001_Node000003"><a xlink:title=" ">
<path fill="none" stroke="#63b8ff" d="M129.22,-110.09C108.92,-103 82.98,-91.47 64.62,-74.5 51.34,-62.21 41.7,-43.87 35.77,-29.99"/>
<polygon fill="#63b8ff" stroke="#63b8ff" points="39.15,-29.02 32.2,-21.01 32.64,-31.6 39.15,-29.02"/>
</a>
</g>
</g>
<!-- Node7 -->
<g id="Node000007" class="node">
<title>Node7</title>
<g id="a_Node000007"><a xlink:title=" ">
<polygon fill="#e0e0e0" stroke="#999999" points="266.25,-74.5 161,-74.5 161,-55.25 266.25,-55.25 266.25,-74.5"/>
<text text-anchor="middle" x="213.62" y="-61" font-family="Helvetica,sans-Serif" font-size="10.00">FunctionalInterrupt.h</text>
</a>
</g>
</g>
<!-- Node1&#45;&gt;Node7 -->
<g id="edge7_Node000001_Node000007" class="edge">
<title>Node1&#45;&gt;Node7</title>
<g id="a_edge7_Node000001_Node000007"><a xlink:title=" ">
<path fill="none" stroke="#63b8ff" d="M169.38,-110.33C176.77,-102.9 187.59,-92.04 196.67,-82.91"/>
<polygon fill="#63b8ff" stroke="#63b8ff" points="199.04,-85.49 203.62,-75.93 194.08,-80.55 199.04,-85.49"/>
</a>
</g>
</g>
<!-- Node8 -->
<g id="Node000008" class="node">
<title>Node8</title>
<g id="a_Node000008"><a xlink:title=" ">
<polygon fill="#e0e0e0" stroke="#999999" points="329.25,-74.5 284,-74.5 284,-55.25 329.25,-55.25 329.25,-74.5"/>
<text text-anchor="middle" x="306.62" y="-61" font-family="Helvetica,sans-Serif" font-size="10.00">cstring</text>
</a>
</g>
</g>
<!-- Node1&#45;&gt;Node8 -->
<g id="edge8_Node000001_Node000008" class="edge">
<title>Node1&#45;&gt;Node8</title>
<g id="a_edge8_Node000001_Node000008"><a xlink:title=" ">
<path fill="none" stroke="#63b8ff" d="M185.39,-110.09C209.45,-101.32 246.17,-87.93 272.89,-78.18"/>
<polygon fill="#63b8ff" stroke="#63b8ff" points="274.05,-81.48 282.24,-74.77 271.65,-74.91 274.05,-81.48"/>
</a>
</g>
</g>
<!-- Node2&#45;&gt;Node3 -->
<g id="edge2_Node000002_Node000003" class="edge">
<title>Node2&#45;&gt;Node3</title>
<g id="a_edge2_Node000002_Node000003"><a xlink:title=" ">
<path fill="none" stroke="#63b8ff" d="M95.05,-54.84C83.22,-46.96 65.79,-35.36 51.75,-26.02"/>
<polygon fill="#63b8ff" stroke="#63b8ff" points="53.79,-23.17 43.52,-20.54 49.91,-29 53.79,-23.17"/>
</a>
</g>
</g>
<!-- Node4 -->
<g id="Node000004" class="node">
<title>Node4</title>
<g id="a_Node000004"><a xlink:title=" ">
<polygon fill="#e0e0e0" stroke="#999999" points="141.75,-19.25 75.5,-19.25 75.5,0 141.75,0 141.75,-19.25"/>
<text text-anchor="middle" x="108.62" y="-5.75" font-family="Helvetica,sans-Serif" font-size="10.00">forward_list</text>
</a>
</g>
</g>
<!-- Node2&#45;&gt;Node4 -->
<g id="edge3_Node000002_Node000004" class="edge">
<title>Node2&#45;&gt;Node4</title>
<g id="a_edge3_Node000002_Node000004"><a xlink:title=" ">
<path fill="none" stroke="#63b8ff" d="M108.62,-55.08C108.62,-48.57 108.62,-39.42 108.62,-31.12"/>
<polygon fill="#63b8ff" stroke="#63b8ff" points="112.13,-31.12 108.63,-21.12 105.13,-31.12 112.13,-31.12"/>
</a>
</g>
</g>
<!-- Node5 -->
<g id="Node000005" class="node">
<title>Node5</title>
<g id="a_Node000005"><a xlink:title=" ">
<polygon fill="#e0e0e0" stroke="#999999" points="217.62,-19.25 159.62,-19.25 159.62,0 217.62,0 217.62,-19.25"/>
<text text-anchor="middle" x="188.62" y="-5.75" font-family="Helvetica,sans-Serif" font-size="10.00">functional</text>
</a>
</g>
</g>
<!-- Node2&#45;&gt;Node5 -->
<g id="edge4_Node000002_Node000005" class="edge">
<title>Node2&#45;&gt;Node5</title>
<g id="a_edge4_Node000002_Node000005"><a xlink:title=" ">
<path fill="none" stroke="#63b8ff" d="M122.2,-54.84C134.03,-46.96 151.46,-35.36 165.5,-26.02"/>
<polygon fill="#63b8ff" stroke="#63b8ff" points="167.34,-29 173.73,-20.54 163.46,-23.17 167.34,-29"/>
</a>
</g>
</g>
<!-- Node6 -->
<g id="Node000006" class="node">
<title>Node6</title>
<g id="a_Node000006"><a xlink:title=" ">
<polygon fill="#e0e0e0" stroke="#999999" points="277.75,-19.25 235.5,-19.25 235.5,0 277.75,0 277.75,-19.25"/>
<text text-anchor="middle" x="256.62" y="-5.75" font-family="Helvetica,sans-Serif" font-size="10.00">queue</text>
</a>
</g>
</g>
<!-- Node2&#45;&gt;Node6 -->
<g id="edge5_Node000002_Node000006" class="edge">
<title>Node2&#45;&gt;Node6</title>
<g id="a_edge5_Node000002_Node000006"><a xlink:title=" ">
<path fill="none" stroke="#63b8ff" d="M133.73,-54.84C158.81,-45.82 197.45,-31.92 224.7,-22.11"/>
<polygon fill="#63b8ff" stroke="#63b8ff" points="225.6,-25.51 233.82,-18.83 223.23,-18.92 225.6,-25.51"/>
</a>
</g>
</g>
</g>
</svg>
</svg>

<style type='text/css'>
<![CDATA[
[data-mouse-over-selected='false'] { opacity: 0.7; }
[data-mouse-over-selected='true']  { opacity: 1.0; }
]]>
</style>
<script type="application/ecmascript"><![CDATA[
document.addEventListener('DOMContentLoaded', (event) => {
  highlightEdges();
  highlightAdjacentNodes();
});
]]></script>
</svg>
