<?xml version="1.0" encoding="UTF-8" standalone="no"?>
<!DOCTYPE svg PUBLIC "-//W3C//DTD SVG 1.1//EN"
 "http://www.w3.org/Graphics/SVG/1.1/DTD/svg11.dtd">
<!-- Generated by graphviz version 2.50.0 (20211204.2007)
 -->
<!-- Title: reactesp::TimedReaction Pages: 1 -->
<svg width="269pt" height="95pt"
 viewBox="0.00 0.00 269.00 95.00" xmlns="http://www.w3.org/2000/svg" xmlns:xlink="http://www.w3.org/1999/xlink">
<g id="graph0" class="graph" transform="scale(1 1) rotate(0) translate(4 91)">
<title>reactesp::TimedReaction</title>
<!-- Node1 -->
<g id="node1" class="node">
<title>Node1</title>
<g id="a_node1"><a xlink:title="TimedReactions are called based on elapsing of time.">
<polygon fill="#bfbfbf" stroke="black" points="24.5,-0.5 24.5,-19.5 150.5,-19.5 150.5,-0.5 24.5,-0.5"/>
<text text-anchor="middle" x="87.5" y="-7.5" font-family="Helvetica,sans-Serif" font-size="10.00">reactesp::TimedReaction</text>
</a>
</g>
</g>
<!-- Node2 -->
<g id="node2" class="node">
<title>Node2</title>
<g id="a_node2"><a xlink:href="classreactesp_1_1_reaction.html" target="_top" xlink:title="Reactions are code to be called when a given condition is fulfilled.">
<polygon fill="none" stroke="black" points="0,-67.5 0,-86.5 99,-86.5 99,-67.5 0,-67.5"/>
<text text-anchor="middle" x="49.5" y="-74.5" font-family="Helvetica,sans-Serif" font-size="10.00">reactesp::Reaction</text>
</a>
</g>
</g>
<!-- Node2&#45;&gt;Node1 -->
<g id="edge1" class="edge">
<title>Node2&#45;&gt;Node1</title>
<path fill="none" stroke="midnightblue" d="M59.71,-58.53C67.07,-45.95 76.68,-29.51 82.46,-19.63"/>
<polygon fill="midnightblue" stroke="midnightblue" points="56.65,-56.83 54.62,-67.23 62.69,-60.37 56.65,-56.83"/>
</g>
<!-- Node3 -->
<g id="node3" class="node">
<title>Node3</title>
<g id="a_node3"><a xlink:href="classreactesp_1_1_react_e_s_p.html" target="_top" xlink:title="Main class of a ReactESP program.">
<polygon fill="none" stroke="black" points="117,-67.5 117,-86.5 224,-86.5 224,-67.5 117,-67.5"/>
<text text-anchor="middle" x="170.5" y="-74.5" font-family="Helvetica,sans-Serif" font-size="10.00">reactesp::ReactESP</text>
</a>
</g>
</g>
<!-- Node3&#45;&gt;Node1 -->
<g id="edge2" class="edge">
<title>Node3&#45;&gt;Node1</title>
<path fill="none" stroke="#9a32cd" stroke-dasharray="5,2" d="M151.43,-61.07C135.05,-48.24 112,-30.19 98.52,-19.63"/>
<polygon fill="#9a32cd" stroke="#9a32cd" points="149.28,-63.82 159.31,-67.23 153.59,-58.31 149.28,-63.82"/>
<text text-anchor="middle" x="162" y="-41" font-family="Helvetica,sans-Serif" font-size="10.00"> app_context</text>
</g>
<!-- Node3&#45;&gt;Node3 -->
<g id="edge3" class="edge">
<title>Node3&#45;&gt;Node3</title>
<path fill="none" stroke="#9a32cd" stroke-dasharray="5,2" d="M234.38,-81.46C239.1,-80.46 242,-78.97 242,-77 242,-73.84 234.58,-71.93 224.13,-71.27"/>
<polygon fill="#9a32cd" stroke="#9a32cd" points="233.62,-78.03 224.13,-82.73 234.49,-84.97 233.62,-78.03"/>
<text text-anchor="middle" x="251.5" y="-74.5" font-family="Helvetica,sans-Serif" font-size="10.00"> app</text>
</g>
</g>
</svg>
