<?xml version="1.0" encoding="UTF-8" standalone="no"?>
<!DOCTYPE svg PUBLIC "-//W3C//DTD SVG 1.1//EN"
 "http://www.w3.org/Graphics/SVG/1.1/DTD/svg11.dtd">
<!-- Generated by graphviz version 12.1.2 (20240928.0832)
 -->
<!-- Title: reactesp::ISREvent::remove Pages: 1 -->
<svg width="298pt" height="39pt"
 viewBox="0.00 0.00 298.25 38.50" xmlns="http://www.w3.org/2000/svg" xmlns:xlink="http://www.w3.org/1999/xlink">
<g id="graph0" class="graph" transform="scale(1 1) rotate(0) translate(4 34.5)">
<title>reactesp::ISREvent::remove</title>
<!-- Node1 -->
<g id="Node000001" class="node">
<title>Node1</title>
<g id="a_Node000001"><a xlink:title=" ">
<polygon fill="#999999" stroke="#666666" points="290.25,-30.5 188,-30.5 188,0 290.25,0 290.25,-30.5"/>
<text text-anchor="start" x="196" y="-17" font-family="Helvetica,sans-Serif" font-size="10.00">reactesp::ISREvent</text>
<text text-anchor="middle" x="239.12" y="-5.75" font-family="Helvetica,sans-Serif" font-size="10.00">::remove</text>
</a>
</g>
</g>
<!-- Node2 -->
<g id="Node000002" class="node">
<title>Node2</title>
<g id="a_Node000002"><a xlink:href="main_8cpp.html#ad991f139e8442b81f0e042d82d00bd7e" target="_top" xlink:title=" ">
<polygon fill="white" stroke="#666666" points="152,-24.88 76,-24.88 76,-5.63 152,-5.63 152,-24.88"/>
<text text-anchor="middle" x="114" y="-11.38" font-family="Helvetica,sans-Serif" font-size="10.00">setup_io_pins</text>
</a>
</g>
</g>
<!-- Node1&#45;&gt;Node2 -->
<g id="edge1_Node000001_Node000002" class="edge">
<title>Node1&#45;&gt;Node2</title>
<g id="a_edge1_Node000001_Node000002"><a xlink:title=" ">
<path fill="none" stroke="#63b8ff" d="M176.22,-15.25C168.06,-15.25 159.92,-15.25 152.35,-15.25"/>
<polygon fill="#63b8ff" stroke="#63b8ff" points="176.18,-18.75 186.18,-15.25 176.18,-11.75 176.18,-18.75"/>
</a>
</g>
</g>
<!-- Node3 -->
<g id="Node000003" class="node">
<title>Node3</title>
<g id="a_Node000003"><a xlink:href="main_8cpp.html#a4fc01d736fe50cf5b977f755b675f11d" target="_top" xlink:title=" ">
<polygon fill="white" stroke="#666666" points="40,-24.88 0,-24.88 0,-5.63 40,-5.63 40,-24.88"/>
<text text-anchor="middle" x="20" y="-11.38" font-family="Helvetica,sans-Serif" font-size="10.00">setup</text>
</a>
</g>
</g>
<!-- Node2&#45;&gt;Node3 -->
<g id="edge2_Node000002_Node000003" class="edge">
<title>Node2&#45;&gt;Node3</title>
<g id="a_edge2_Node000002_Node000003"><a xlink:title=" ">
<path fill="none" stroke="#63b8ff" d="M64.16,-15.25C55.77,-15.25 47.5,-15.25 40.48,-15.25"/>
<polygon fill="#63b8ff" stroke="#63b8ff" points="64.07,-18.75 74.07,-15.25 64.07,-11.75 64.07,-18.75"/>
</a>
</g>
</g>
</g>
</svg>
