<?xml version="1.0" encoding="UTF-8" standalone="no"?>
<!DOCTYPE svg PUBLIC "-//W3C//DTD SVG 1.1//EN"
 "http://www.w3.org/Graphics/SVG/1.1/DTD/svg11.dtd">
<!-- Generated by graphviz version 2.49.3 (20211023.0002)
 -->
<!-- Title: reactesp::ReactESP::onTick Pages: 1 -->
<svg width="290pt" height="39pt"
 viewBox="0.00 0.00 290.00 39.00" xmlns="http://www.w3.org/2000/svg" xmlns:xlink="http://www.w3.org/1999/xlink">
<g id="graph0" class="graph" transform="scale(1 1) rotate(0) translate(4 35)">
<title>reactesp::ReactESP::onTick</title>
<!-- Node1 -->
<g id="node1" class="node">
<title>Node1</title>
<g id="a_node1"><a xlink:title="Create a new TickReaction.">
<polygon fill="#bfbfbf" stroke="black" points="175,-0.5 175,-30.5 282,-30.5 282,-0.5 175,-0.5"/>
<text text-anchor="start" x="183" y="-18.5" font-family="Helvetica,sans-Serif" font-size="10.00">reactesp::ReactESP</text>
<text text-anchor="middle" x="228.5" y="-7.5" font-family="Helvetica,sans-Serif" font-size="10.00">::onTick</text>
</a>
</g>
</g>
<!-- Node2 -->
<g id="node2" class="node">
<title>Node2</title>
<g id="a_node2"><a xlink:href="main_8cpp.html#a4e12b91752b35a5f3a628424fcd5d73b" target="_top" xlink:title=" ">
<polygon fill="none" stroke="black" points="77,-6 77,-25 139,-25 139,-6 77,-6"/>
<text text-anchor="middle" x="108" y="-13" font-family="Helvetica,sans-Serif" font-size="10.00">setup_tick</text>
</a>
</g>
</g>
<!-- Node1&#45;&gt;Node2 -->
<g id="edge1" class="edge">
<title>Node1&#45;&gt;Node2</title>
<path fill="none" stroke="midnightblue" d="M164.75,-15.5C155.82,-15.5 147,-15.5 139.1,-15.5"/>
<polygon fill="midnightblue" stroke="midnightblue" points="164.83,-19 174.83,-15.5 164.83,-12 164.83,-19"/>
</g>
<!-- Node3 -->
<g id="node3" class="node">
<title>Node3</title>
<g id="a_node3"><a xlink:href="main_8cpp.html#a4fc01d736fe50cf5b977f755b675f11d" target="_top" xlink:title=" ">
<polygon fill="none" stroke="black" points="0,-6 0,-25 41,-25 41,-6 0,-6"/>
<text text-anchor="middle" x="20.5" y="-13" font-family="Helvetica,sans-Serif" font-size="10.00">setup</text>
</a>
</g>
</g>
<!-- Node2&#45;&gt;Node3 -->
<g id="edge2" class="edge">
<title>Node2&#45;&gt;Node3</title>
<path fill="none" stroke="midnightblue" d="M66.42,-15.5C57.6,-15.5 48.67,-15.5 41.11,-15.5"/>
<polygon fill="midnightblue" stroke="midnightblue" points="66.62,-19 76.62,-15.5 66.62,-12 66.62,-19"/>
</g>
</g>
</svg>
