<?xml version="1.0" encoding="UTF-8" standalone="no"?>
<!DOCTYPE svg PUBLIC "-//W3C//DTD SVG 1.1//EN"
 "http://www.w3.org/Graphics/SVG/1.1/DTD/svg11.dtd">
<!-- Generated by graphviz version 12.1.2 (20240928.0832)
 -->
<!-- Title: reactesp::EventLoop::onRepeat Pages: 1 -->
<svg width="302pt" height="101pt"
 viewBox="0.00 0.00 302.00 101.25" xmlns="http://www.w3.org/2000/svg" xmlns:xlink="http://www.w3.org/1999/xlink">
<g id="graph0" class="graph" transform="scale(1 1) rotate(0) translate(4 97.25)">
<title>reactesp::EventLoop::onRepeat</title>
<!-- Node1 -->
<g id="Node000001" class="node">
<title>Node1</title>
<g id="a_Node000001"><a xlink:title="Create a new RepeatEvent.">
<polygon fill="#999999" stroke="#666666" points="294,-61.88 188,-61.88 188,-31.38 294,-31.38 294,-61.88"/>
<text text-anchor="start" x="196" y="-48.38" font-family="Helvetica,sans-Serif" font-size="10.00">reactesp::EventLoop</text>
<text text-anchor="middle" x="241" y="-37.12" font-family="Helvetica,sans-Serif" font-size="10.00">::onRepeat</text>
</a>
</g>
</g>
<!-- Node2 -->
<g id="Node000002" class="node">
<title>Node2</title>
<g id="a_Node000002"><a xlink:href="main_8cpp.html#ab9032828806331e4ee839f4dde7611f2" target="_top" xlink:title=" ">
<polygon fill="white" stroke="#666666" points="151.25,-93.25 76.75,-93.25 76.75,-74 151.25,-74 151.25,-93.25"/>
<text text-anchor="middle" x="114" y="-79.75" font-family="Helvetica,sans-Serif" font-size="10.00">execute_task</text>
</a>
</g>
</g>
<!-- Node1&#45;&gt;Node2 -->
<g id="edge1_Node000001_Node000002" class="edge">
<title>Node1&#45;&gt;Node2</title>
<g id="a_edge1_Node000001_Node000002"><a xlink:title=" ">
<path fill="none" stroke="#63b8ff" d="M176.87,-65.31C167.23,-68.17 157.6,-71.01 148.92,-73.58"/>
<polygon fill="#63b8ff" stroke="#63b8ff" points="177.67,-68.73 186.26,-62.53 175.68,-62.01 177.67,-68.73"/>
</a>
</g>
</g>
<!-- Node3 -->
<g id="Node000003" class="node">
<title>Node3</title>
<g id="a_Node000003"><a xlink:href="main_8cpp.html#ad991f139e8442b81f0e042d82d00bd7e" target="_top" xlink:title=" ">
<polygon fill="white" stroke="#666666" points="152,-56.25 76,-56.25 76,-37 152,-37 152,-56.25"/>
<text text-anchor="middle" x="114" y="-42.75" font-family="Helvetica,sans-Serif" font-size="10.00">setup_io_pins</text>
</a>
</g>
</g>
<!-- Node1&#45;&gt;Node3 -->
<g id="edge2_Node000001_Node000003" class="edge">
<title>Node1&#45;&gt;Node3</title>
<g id="a_edge2_Node000001_Node000003"><a xlink:title=" ">
<path fill="none" stroke="#63b8ff" d="M176.45,-46.62C168.17,-46.62 159.91,-46.62 152.26,-46.62"/>
<polygon fill="#63b8ff" stroke="#63b8ff" points="176.2,-50.13 186.2,-46.63 176.2,-43.13 176.2,-50.13"/>
</a>
</g>
</g>
<!-- Node5 -->
<g id="Node000005" class="node">
<title>Node5</title>
<g id="a_Node000005"><a xlink:href="main_8cpp.html#a4ce2b9b2cc8c29c788ce0a1870b7bbe9" target="_top" xlink:title=" ">
<polygon fill="white" stroke="#666666" points="150.12,-19.25 77.88,-19.25 77.88,0 150.12,0 150.12,-19.25"/>
<text text-anchor="middle" x="114" y="-5.75" font-family="Helvetica,sans-Serif" font-size="10.00">setup_timers</text>
</a>
</g>
</g>
<!-- Node1&#45;&gt;Node5 -->
<g id="edge4_Node000001_Node000005" class="edge">
<title>Node1&#45;&gt;Node5</title>
<g id="a_edge4_Node000001_Node000005"><a xlink:title=" ">
<path fill="none" stroke="#63b8ff" d="M176.87,-27.94C167.23,-25.08 157.6,-22.24 148.92,-19.67"/>
<polygon fill="#63b8ff" stroke="#63b8ff" points="175.68,-31.24 186.26,-30.72 177.67,-24.52 175.68,-31.24"/>
</a>
</g>
</g>
<!-- Node4 -->
<g id="Node000004" class="node">
<title>Node4</title>
<g id="a_Node000004"><a xlink:href="main_8cpp.html#a4fc01d736fe50cf5b977f755b675f11d" target="_top" xlink:title=" ">
<polygon fill="white" stroke="#666666" points="40,-37.25 0,-37.25 0,-18 40,-18 40,-37.25"/>
<text text-anchor="middle" x="20" y="-23.75" font-family="Helvetica,sans-Serif" font-size="10.00">setup</text>
</a>
</g>
</g>
<!-- Node3&#45;&gt;Node4 -->
<g id="edge3_Node000003_Node000004" class="edge">
<title>Node3&#45;&gt;Node4</title>
<g id="a_edge3_Node000003_Node000004"><a xlink:title=" ">
<path fill="none" stroke="#63b8ff" d="M64.45,-36.6C55.96,-34.84 47.58,-33.11 40.48,-31.65"/>
<polygon fill="#63b8ff" stroke="#63b8ff" points="63.6,-40 74.1,-38.59 65.01,-33.14 63.6,-40"/>
</a>
</g>
</g>
<!-- Node5&#45;&gt;Node4 -->
<g id="edge5_Node000005_Node000004" class="edge">
<title>Node5&#45;&gt;Node4</title>
<g id="a_edge5_Node000005_Node000004"><a xlink:title=" ">
<path fill="none" stroke="#63b8ff" d="M66.29,-18.76C57.09,-20.56 47.93,-22.36 40.28,-23.85"/>
<polygon fill="#63b8ff" stroke="#63b8ff" points="66.8,-22.23 75.95,-16.87 65.46,-15.36 66.8,-22.23"/>
</a>
</g>
</g>
</g>
</svg>
