<?xml version="1.0" encoding="UTF-8" standalone="no"?>
<!DOCTYPE svg PUBLIC "-//W3C//DTD SVG 1.1//EN"
 "http://www.w3.org/Graphics/SVG/1.1/DTD/svg11.dtd">
<!-- Generated by graphviz version 12.1.2 (20240928.0832)
 -->
<!-- Title: reactesp::TimedEvent::isEnabled Pages: 1 -->
<svg width="515pt" height="64pt"
 viewBox="0.00 0.00 514.50 64.25" xmlns="http://www.w3.org/2000/svg" xmlns:xlink="http://www.w3.org/1999/xlink">
<g id="graph0" class="graph" transform="scale(1 1) rotate(0) translate(4 60.25)">
<title>reactesp::TimedEvent::isEnabled</title>
<!-- Node1 -->
<g id="Node000001" class="node">
<title>Node1</title>
<g id="a_Node000001"><a xlink:title=" ">
<polygon fill="#999999" stroke="#666666" points="506.5,-42.88 394.5,-42.88 394.5,-12.37 506.5,-12.37 506.5,-42.88"/>
<text text-anchor="start" x="402.5" y="-29.38" font-family="Helvetica,sans-Serif" font-size="10.00">reactesp::TimedEvent</text>
<text text-anchor="middle" x="450.5" y="-18.12" font-family="Helvetica,sans-Serif" font-size="10.00">::isEnabled</text>
</a>
</g>
</g>
<!-- Node2 -->
<g id="Node000002" class="node">
<title>Node2</title>
<g id="a_Node000002"><a xlink:href="classreactesp_1_1_event_loop.html#a001ffbb649dc0b4b0dd11a3eb68db76b" target="_top" xlink:title=" ">
<polygon fill="white" stroke="#666666" points="358.5,-42.88 252.5,-42.88 252.5,-12.37 358.5,-12.37 358.5,-42.88"/>
<text text-anchor="start" x="260.5" y="-29.38" font-family="Helvetica,sans-Serif" font-size="10.00">reactesp::EventLoop</text>
<text text-anchor="middle" x="305.5" y="-18.12" font-family="Helvetica,sans-Serif" font-size="10.00">::tickTimed</text>
</a>
</g>
</g>
<!-- Node1&#45;&gt;Node2 -->
<g id="edge1_Node000001_Node000002" class="edge">
<title>Node1&#45;&gt;Node2</title>
<g id="a_edge1_Node000001_Node000002"><a xlink:title=" ">
<path fill="none" stroke="#63b8ff" d="M382.89,-27.62C374.82,-27.62 366.65,-27.62 358.83,-27.62"/>
<polygon fill="#63b8ff" stroke="#63b8ff" points="382.7,-31.13 392.7,-27.63 382.7,-24.13 382.7,-31.13"/>
</a>
</g>
</g>
<!-- Node3 -->
<g id="Node000003" class="node">
<title>Node3</title>
<g id="a_Node000003"><a xlink:href="classreactesp_1_1_event_loop.html#a2c84df800a38ca6870c5a20eaa53d526" target="_top" xlink:title=" ">
<polygon fill="white" stroke="#666666" points="216.5,-42.88 110.5,-42.88 110.5,-12.37 216.5,-12.37 216.5,-42.88"/>
<text text-anchor="start" x="118.5" y="-29.38" font-family="Helvetica,sans-Serif" font-size="10.00">reactesp::EventLoop</text>
<text text-anchor="middle" x="163.5" y="-18.12" font-family="Helvetica,sans-Serif" font-size="10.00">::tick</text>
</a>
</g>
</g>
<!-- Node2&#45;&gt;Node3 -->
<g id="edge2_Node000002_Node000003" class="edge">
<title>Node2&#45;&gt;Node3</title>
<g id="a_edge2_Node000002_Node000003"><a xlink:title=" ">
<path fill="none" stroke="#63b8ff" d="M240.99,-27.62C232.86,-27.62 224.6,-27.62 216.67,-27.62"/>
<polygon fill="#63b8ff" stroke="#63b8ff" points="240.86,-31.13 250.86,-27.63 240.86,-24.13 240.86,-31.13"/>
</a>
</g>
</g>
<!-- Node4 -->
<g id="Node000004" class="node">
<title>Node4</title>
<g id="a_Node000004"><a xlink:href="main_8cpp.html#ab9032828806331e4ee839f4dde7611f2" target="_top" xlink:title=" ">
<polygon fill="white" stroke="#666666" points="74.5,-56.25 0,-56.25 0,-37 74.5,-37 74.5,-56.25"/>
<text text-anchor="middle" x="37.25" y="-42.75" font-family="Helvetica,sans-Serif" font-size="10.00">execute_task</text>
</a>
</g>
</g>
<!-- Node3&#45;&gt;Node4 -->
<g id="edge3_Node000003_Node000004" class="edge">
<title>Node3&#45;&gt;Node4</title>
<g id="a_edge3_Node000003_Node000004"><a xlink:title=" ">
<path fill="none" stroke="#63b8ff" d="M98.89,-37.35C90.59,-38.62 82.33,-39.88 74.69,-41.05"/>
<polygon fill="#63b8ff" stroke="#63b8ff" points="99.31,-40.83 108.67,-35.86 98.26,-33.91 99.31,-40.83"/>
</a>
</g>
</g>
<!-- Node5 -->
<g id="Node000005" class="node">
<title>Node5</title>
<g id="a_Node000005"><a xlink:href="main_8cpp.html#afe461d27b9c48d5921c00d521181f12f" target="_top" xlink:title=" ">
<polygon fill="white" stroke="#666666" points="54.25,-19.25 20.25,-19.25 20.25,0 54.25,0 54.25,-19.25"/>
<text text-anchor="middle" x="37.25" y="-5.75" font-family="Helvetica,sans-Serif" font-size="10.00">loop</text>
</a>
</g>
</g>
<!-- Node3&#45;&gt;Node5 -->
<g id="edge4_Node000003_Node000005" class="edge">
<title>Node3&#45;&gt;Node5</title>
<g id="a_edge4_Node000003_Node000005"><a xlink:title=" ">
<path fill="none" stroke="#63b8ff" d="M98.81,-18.4C82.36,-16.01 66.05,-13.65 54.51,-11.98"/>
<polygon fill="#63b8ff" stroke="#63b8ff" points="98.27,-21.86 108.67,-19.83 99.27,-14.93 98.27,-21.86"/>
</a>
</g>
</g>
</g>
</svg>
