<?xml version="1.0" encoding="UTF-8" standalone="no"?>
<!DOCTYPE svg PUBLIC "-//W3C//DTD SVG 1.1//EN"
 "http://www.w3.org/Graphics/SVG/1.1/DTD/svg11.dtd">
<!-- Generated by graphviz version 12.1.2 (20240928.0832)
 -->
<!-- Title: reactesp::UntimedEvent Pages: 1 -->
<svg width="246pt" height="193pt"
 viewBox="0.00 0.00 246.12 193.00" xmlns="http://www.w3.org/2000/svg" xmlns:xlink="http://www.w3.org/1999/xlink">
<g id="graph0" class="graph" transform="scale(1 1) rotate(0) translate(4 189)">
<title>reactesp::UntimedEvent</title>
<!-- Node1 -->
<g id="Node000001" class="node">
<title>Node1</title>
<g id="a_Node000001"><a xlink:title="Events that are triggered based on something else than time.">
<polygon fill="#999999" stroke="#666666" points="183.12,-74.5 61.37,-74.5 61.37,-55.25 183.12,-55.25 183.12,-74.5"/>
<text text-anchor="middle" x="122.25" y="-61" font-family="Helvetica,sans-Serif" font-size="10.00">reactesp::UntimedEvent</text>
</a>
</g>
</g>
<!-- Node4 -->
<g id="Node000004" class="node">
<title>Node4</title>
<g id="a_Node000004"><a xlink:href="classreactesp_1_1_stream_event.html" target="_top" xlink:title="Event that is triggered when there is input available at the given Arduino Stream.">
<polygon fill="white" stroke="#666666" points="116.5,-19.25 0,-19.25 0,0 116.5,0 116.5,-19.25"/>
<text text-anchor="middle" x="58.25" y="-5.75" font-family="Helvetica,sans-Serif" font-size="10.00">reactesp::StreamEvent</text>
</a>
</g>
</g>
<!-- Node1&#45;&gt;Node4 -->
<g id="edge3_Node000001_Node000004" class="edge">
<title>Node1&#45;&gt;Node4</title>
<g id="a_edge3_Node000001_Node000004"><a xlink:title=" ">
<path fill="none" stroke="#63b8ff" d="M102.77,-47.66C91.65,-38.42 78.15,-27.18 68.95,-19.52"/>
<polygon fill="#63b8ff" stroke="#63b8ff" points="100.3,-50.17 110.23,-53.87 104.78,-44.79 100.3,-50.17"/>
</a>
</g>
</g>
<!-- Node5 -->
<g id="Node000005" class="node">
<title>Node5</title>
<g id="a_Node000005"><a xlink:href="classreactesp_1_1_tick_event.html" target="_top" xlink:title="Event that is triggered unconditionally at each execution loop.">
<polygon fill="white" stroke="#666666" points="238.12,-19.25 134.38,-19.25 134.38,0 238.12,0 238.12,-19.25"/>
<text text-anchor="middle" x="186.25" y="-5.75" font-family="Helvetica,sans-Serif" font-size="10.00">reactesp::TickEvent</text>
</a>
</g>
</g>
<!-- Node1&#45;&gt;Node5 -->
<g id="edge4_Node000001_Node000005" class="edge">
<title>Node1&#45;&gt;Node5</title>
<g id="a_edge4_Node000001_Node000005"><a xlink:title=" ">
<path fill="none" stroke="#63b8ff" d="M141.73,-47.66C152.85,-38.42 166.35,-27.18 175.55,-19.52"/>
<polygon fill="#63b8ff" stroke="#63b8ff" points="139.72,-44.79 134.27,-53.87 144.2,-50.17 139.72,-44.79"/>
</a>
</g>
</g>
<!-- Node2 -->
<g id="Node000002" class="node">
<title>Node2</title>
<g id="a_Node000002"><a xlink:href="classreactesp_1_1_event.html" target="_top" xlink:title="Events are code to be called when a given condition is fulfilled.">
<polygon fill="white" stroke="#666666" points="164.75,-129.75 79.75,-129.75 79.75,-110.5 164.75,-110.5 164.75,-129.75"/>
<text text-anchor="middle" x="122.25" y="-116.25" font-family="Helvetica,sans-Serif" font-size="10.00">reactesp::Event</text>
</a>
</g>
</g>
<!-- Node2&#45;&gt;Node1 -->
<g id="edge1_Node000001_Node000002" class="edge">
<title>Node2&#45;&gt;Node1</title>
<g id="a_edge1_Node000001_Node000002"><a xlink:title=" ">
<path fill="none" stroke="#63b8ff" d="M122.25,-98.88C122.25,-90.59 122.25,-81.42 122.25,-74.86"/>
<polygon fill="#63b8ff" stroke="#63b8ff" points="118.75,-98.82 122.25,-108.82 125.75,-98.82 118.75,-98.82"/>
</a>
</g>
</g>
<!-- Node3 -->
<g id="Node000003" class="node">
<title>Node3</title>
<g id="a_Node000003"><a xlink:href="structreactesp_1_1_event_interface.html" target="_top" xlink:title="EventInterface defines the interface for all events.">
<polygon fill="white" stroke="#666666" points="183.88,-185 60.62,-185 60.62,-165.75 183.88,-165.75 183.88,-185"/>
<text text-anchor="middle" x="122.25" y="-171.5" font-family="Helvetica,sans-Serif" font-size="10.00">reactesp::EventInterface</text>
</a>
</g>
</g>
<!-- Node3&#45;&gt;Node2 -->
<g id="edge2_Node000002_Node000003" class="edge">
<title>Node3&#45;&gt;Node2</title>
<g id="a_edge2_Node000002_Node000003"><a xlink:title=" ">
<path fill="none" stroke="#63b8ff" d="M122.25,-154.13C122.25,-145.84 122.25,-136.67 122.25,-130.11"/>
<polygon fill="#63b8ff" stroke="#63b8ff" points="118.75,-154.07 122.25,-164.07 125.75,-154.07 118.75,-154.07"/>
</a>
</g>
</g>
</g>
</svg>
