<?xml version="1.0" encoding="UTF-8" standalone="no"?>
<!DOCTYPE svg PUBLIC "-//W3C//DTD SVG 1.1//EN"
 "http://www.w3.org/Graphics/SVG/1.1/DTD/svg11.dtd">
<!-- Generated by graphviz version 2.48.0 (20210717.1556)
 -->
<!-- Title: ReactESP::onInterrupt Pages: 1 -->
<svg width="321pt" height="28pt"
 viewBox="0.00 0.00 321.00 28.00" xmlns="http://www.w3.org/2000/svg" xmlns:xlink="http://www.w3.org/1999/xlink">
<g id="graph0" class="graph" transform="scale(1 1) rotate(0) translate(4 24)">
<title>ReactESP::onInterrupt</title>
<!-- Node1 -->
<g id="node1" class="node">
<title>Node1</title>
<g id="a_node1"><a xlink:title="Create a new ISRReaction (interrupt reaction)">
<polygon fill="#bfbfbf" stroke="black" points="0,-0.5 0,-19.5 117,-19.5 117,-0.5 0,-0.5"/>
<text text-anchor="middle" x="58.5" y="-7.5" font-family="Helvetica,sans-Serif" font-size="10.00">ReactESP::onInterrupt</text>
</a>
</g>
</g>
<!-- Node2 -->
<g id="node2" class="node">
<title>Node2</title>
<g id="a_node2"><a xlink:href="class_i_s_r_reaction.html#aba4a495b10cf265d41cbdb9790936072" target="_top" xlink:title=" ">
<polygon fill="none" stroke="black" points="153,-0.5 153,-19.5 248,-19.5 248,-0.5 153,-0.5"/>
<text text-anchor="middle" x="200.5" y="-7.5" font-family="Helvetica,sans-Serif" font-size="10.00">ISRReaction::add</text>
</a>
</g>
</g>
<!-- Node1&#45;&gt;Node2 -->
<g id="edge1" class="edge">
<title>Node1&#45;&gt;Node2</title>
<path fill="none" stroke="midnightblue" d="M117.25,-10C125.71,-10 134.42,-10 142.86,-10"/>
<polygon fill="midnightblue" stroke="midnightblue" points="142.98,-13.5 152.98,-10 142.98,-6.5 142.98,-13.5"/>
</g>
<!-- Node3 -->
<g id="node3" class="node">
<title>Node3</title>
<g id="a_node3"><a xlink:href="main_8cpp.html#aa6359e12c4743a5b1888ac194c199674" target="_top" xlink:title=" ">
<polygon fill="none" stroke="black" points="284,-0.5 284,-19.5 313,-19.5 313,-0.5 284,-0.5"/>
<text text-anchor="middle" x="298.5" y="-7.5" font-family="Helvetica,sans-Serif" font-size="10.00">isr</text>
</a>
</g>
</g>
<!-- Node2&#45;&gt;Node3 -->
<g id="edge2" class="edge">
<title>Node2&#45;&gt;Node3</title>
<path fill="none" stroke="midnightblue" d="M248.09,-10C256.93,-10 265.82,-10 273.58,-10"/>
<polygon fill="midnightblue" stroke="midnightblue" points="273.68,-13.5 283.68,-10 273.68,-6.5 273.68,-13.5"/>
</g>
</g>
</svg>
