<?xml version="1.0" encoding="UTF-8" standalone="no"?>
<!DOCTYPE svg PUBLIC "-//W3C//DTD SVG 1.1//EN"
 "http://www.w3.org/Graphics/SVG/1.1/DTD/svg11.dtd">
<!-- Generated by graphviz version 2.48.0 (20210717.1556)
 -->
<!-- Title: TimedReaction::add Pages: 1 -->
<svg width="291pt" height="142pt"
 viewBox="0.00 0.00 291.00 142.00" xmlns="http://www.w3.org/2000/svg" xmlns:xlink="http://www.w3.org/1999/xlink">
<g id="graph0" class="graph" transform="scale(1 1) rotate(0) translate(4 138)">
<title>TimedReaction::add</title>
<!-- Node1 -->
<g id="node1" class="node">
<title>Node1</title>
<g id="a_node1"><a xlink:title=" ">
<polygon fill="#bfbfbf" stroke="black" points="177,-57.5 177,-76.5 283,-76.5 283,-57.5 177,-57.5"/>
<text text-anchor="middle" x="230" y="-64.5" font-family="Helvetica,sans-Serif" font-size="10.00">TimedReaction::add</text>
</a>
</g>
</g>
<!-- Node2 -->
<g id="node2" class="node">
<title>Node2</title>
<g id="a_node2"><a xlink:href="class_react_e_s_p.html#ab26769ff3e426972e87746749560ffc0" target="_top" xlink:title="Create a new DelayReaction.">
<polygon fill="none" stroke="black" points="18,-114.5 18,-133.5 123,-133.5 123,-114.5 18,-114.5"/>
<text text-anchor="middle" x="70.5" y="-121.5" font-family="Helvetica,sans-Serif" font-size="10.00">ReactESP::onDelay</text>
</a>
</g>
</g>
<!-- Node1&#45;&gt;Node2 -->
<g id="edge1" class="edge">
<title>Node1&#45;&gt;Node2</title>
<path fill="none" stroke="midnightblue" d="M199.7,-80.88C182.78,-88.59 160.95,-98 141,-105 131.2,-108.44 120.45,-111.64 110.4,-114.4"/>
<polygon fill="midnightblue" stroke="midnightblue" points="201.43,-83.94 209.05,-76.57 198.5,-77.58 201.43,-83.94"/>
</g>
<!-- Node3 -->
<g id="node3" class="node">
<title>Node3</title>
<g id="a_node3"><a xlink:href="class_react_e_s_p.html#ad5739bf0fedb24931f98762113161e95" target="_top" xlink:title="Create a new DelayReaction.">
<polygon fill="none" stroke="black" points="3.5,-76.5 3.5,-95.5 137.5,-95.5 137.5,-76.5 3.5,-76.5"/>
<text text-anchor="middle" x="70.5" y="-83.5" font-family="Helvetica,sans-Serif" font-size="10.00">ReactESP::onDelayMicros</text>
</a>
</g>
</g>
<!-- Node1&#45;&gt;Node3 -->
<g id="edge2" class="edge">
<title>Node1&#45;&gt;Node3</title>
<path fill="none" stroke="midnightblue" d="M166.81,-74.5C157.27,-75.65 147.4,-76.84 137.78,-78"/>
<polygon fill="midnightblue" stroke="midnightblue" points="167.48,-77.95 176.99,-73.27 166.64,-71 167.48,-77.95"/>
</g>
<!-- Node4 -->
<g id="node4" class="node">
<title>Node4</title>
<g id="a_node4"><a xlink:href="class_react_e_s_p.html#adb20144bde6e60b41e484d2f6f61d0f5" target="_top" xlink:title="Create a new RepeatReaction.">
<polygon fill="none" stroke="black" points="14.5,-38.5 14.5,-57.5 126.5,-57.5 126.5,-38.5 14.5,-38.5"/>
<text text-anchor="middle" x="70.5" y="-45.5" font-family="Helvetica,sans-Serif" font-size="10.00">ReactESP::onRepeat</text>
</a>
</g>
</g>
<!-- Node1&#45;&gt;Node4 -->
<g id="edge3" class="edge">
<title>Node1&#45;&gt;Node4</title>
<path fill="none" stroke="midnightblue" d="M166.98,-59.52C153.68,-57.91 139.72,-56.23 126.7,-54.66"/>
<polygon fill="midnightblue" stroke="midnightblue" points="166.64,-63 176.99,-60.73 167.48,-56.05 166.64,-63"/>
</g>
<!-- Node5 -->
<g id="node5" class="node">
<title>Node5</title>
<g id="a_node5"><a xlink:href="class_react_e_s_p.html#a2a7018e7a5e89634e8e4385be51eafd4" target="_top" xlink:title="Create a new RepeatReaction.">
<polygon fill="none" stroke="black" points="0,-0.5 0,-19.5 141,-19.5 141,-0.5 0,-0.5"/>
<text text-anchor="middle" x="70.5" y="-7.5" font-family="Helvetica,sans-Serif" font-size="10.00">ReactESP::onRepeatMicros</text>
</a>
</g>
</g>
<!-- Node1&#45;&gt;Node5 -->
<g id="edge4" class="edge">
<title>Node1&#45;&gt;Node5</title>
<path fill="none" stroke="midnightblue" d="M199.7,-53.12C182.78,-45.41 160.95,-36 141,-29 131.2,-25.56 120.45,-22.36 110.4,-19.6"/>
<polygon fill="midnightblue" stroke="midnightblue" points="198.5,-56.42 209.05,-57.43 201.43,-50.06 198.5,-56.42"/>
</g>
</g>
</svg>
