<?xml version="1.0" encoding="UTF-8" standalone="no"?>
<!DOCTYPE svg PUBLIC "-//W3C//DTD SVG 1.1//EN"
 "http://www.w3.org/Graphics/SVG/1.1/DTD/svg11.dtd">
<!-- Generated by graphviz version 2.48.0 (20210717.1556)
 -->
<!-- Title: Reaction Pages: 1 -->
<svg width="394pt" height="140pt"
 viewBox="0.00 0.00 394.00 140.00" xmlns="http://www.w3.org/2000/svg" xmlns:xlink="http://www.w3.org/1999/xlink">
<g id="graph0" class="graph" transform="scale(1 1) rotate(0) translate(4 136)">
<title>Reaction</title>
<!-- Node1 -->
<g id="node1" class="node">
<title>Node1</title>
<g id="a_node1"><a xlink:title="Reactions are code to be called when a given condition is fulfilled.">
<polygon fill="#bfbfbf" stroke="black" points="116,-112.5 116,-131.5 172,-131.5 172,-112.5 116,-112.5"/>
<text text-anchor="middle" x="144" y="-119.5" font-family="Helvetica,sans-Serif" font-size="10.00">Reaction</text>
</a>
</g>
</g>
<!-- Node2 -->
<g id="node2" class="node">
<title>Node2</title>
<g id="a_node2"><a xlink:href="class_i_s_r_reaction.html" target="_top" xlink:title="Reaction that is triggered on an input pin change.">
<polygon fill="none" stroke="black" points="11.5,-56.5 11.5,-75.5 84.5,-75.5 84.5,-56.5 11.5,-56.5"/>
<text text-anchor="middle" x="48" y="-63.5" font-family="Helvetica,sans-Serif" font-size="10.00">ISRReaction</text>
</a>
</g>
</g>
<!-- Node1&#45;&gt;Node2 -->
<g id="edge1" class="edge">
<title>Node1&#45;&gt;Node2</title>
<path fill="none" stroke="midnightblue" d="M119.43,-107.18C101.76,-97.24 78.49,-84.15 63.39,-75.65"/>
<polygon fill="midnightblue" stroke="midnightblue" points="118.14,-110.47 128.58,-112.32 121.58,-104.37 118.14,-110.47"/>
</g>
<!-- Node3 -->
<g id="node3" class="node">
<title>Node3</title>
<g id="a_node3"><a xlink:href="class_timed_reaction.html" target="_top" xlink:title="TimedReactions are called based on elapsing of time.">
<polygon fill="none" stroke="black" points="102.5,-56.5 102.5,-75.5 185.5,-75.5 185.5,-56.5 102.5,-56.5"/>
<text text-anchor="middle" x="144" y="-63.5" font-family="Helvetica,sans-Serif" font-size="10.00">TimedReaction</text>
</a>
</g>
</g>
<!-- Node1&#45;&gt;Node3 -->
<g id="edge2" class="edge">
<title>Node1&#45;&gt;Node3</title>
<path fill="none" stroke="midnightblue" d="M144,-101.8C144,-92.91 144,-82.78 144,-75.75"/>
<polygon fill="midnightblue" stroke="midnightblue" points="140.5,-102.08 144,-112.08 147.5,-102.08 140.5,-102.08"/>
</g>
<!-- Node6 -->
<g id="node6" class="node">
<title>Node6</title>
<g id="a_node6"><a xlink:href="class_untimed_reaction.html" target="_top" xlink:title="Reactions that are triggered based on something else than time.">
<polygon fill="none" stroke="black" points="203.5,-56.5 203.5,-75.5 296.5,-75.5 296.5,-56.5 203.5,-56.5"/>
<text text-anchor="middle" x="250" y="-63.5" font-family="Helvetica,sans-Serif" font-size="10.00">UntimedReaction</text>
</a>
</g>
</g>
<!-- Node1&#45;&gt;Node6 -->
<g id="edge5" class="edge">
<title>Node1&#45;&gt;Node6</title>
<path fill="none" stroke="midnightblue" d="M170.06,-107.73C189.68,-97.73 216.03,-84.31 233.01,-75.65"/>
<polygon fill="midnightblue" stroke="midnightblue" points="168.35,-104.67 161.03,-112.32 171.53,-110.9 168.35,-104.67"/>
</g>
<!-- Node4 -->
<g id="node4" class="node">
<title>Node4</title>
<g id="a_node4"><a xlink:href="class_delay_reaction.html" target="_top" xlink:title="Reaction that is triggered after a certain time delay.">
<polygon fill="none" stroke="black" points="0,-0.5 0,-19.5 82,-19.5 82,-0.5 0,-0.5"/>
<text text-anchor="middle" x="41" y="-7.5" font-family="Helvetica,sans-Serif" font-size="10.00">DelayReaction</text>
</a>
</g>
</g>
<!-- Node3&#45;&gt;Node4 -->
<g id="edge3" class="edge">
<title>Node3&#45;&gt;Node4</title>
<path fill="none" stroke="midnightblue" d="M118.42,-51.59C99.38,-41.61 73.94,-28.27 57.51,-19.65"/>
<polygon fill="midnightblue" stroke="midnightblue" points="116.97,-54.78 127.45,-56.32 120.22,-48.58 116.97,-54.78"/>
</g>
<!-- Node5 -->
<g id="node5" class="node">
<title>Node5</title>
<g id="a_node5"><a xlink:href="class_repeat_reaction.html" target="_top" xlink:title="Reaction that is triggered repeatedly.">
<polygon fill="none" stroke="black" points="100,-0.5 100,-19.5 188,-19.5 188,-0.5 100,-0.5"/>
<text text-anchor="middle" x="144" y="-7.5" font-family="Helvetica,sans-Serif" font-size="10.00">RepeatReaction</text>
</a>
</g>
</g>
<!-- Node3&#45;&gt;Node5 -->
<g id="edge4" class="edge">
<title>Node3&#45;&gt;Node5</title>
<path fill="none" stroke="midnightblue" d="M144,-45.8C144,-36.91 144,-26.78 144,-19.75"/>
<polygon fill="midnightblue" stroke="midnightblue" points="140.5,-46.08 144,-56.08 147.5,-46.08 140.5,-46.08"/>
</g>
<!-- Node7 -->
<g id="node7" class="node">
<title>Node7</title>
<g id="a_node7"><a xlink:href="class_stream_reaction.html" target="_top" xlink:title="Reaction that is triggered when there is input available at the given Arduino Stream.">
<polygon fill="none" stroke="black" points="206,-0.5 206,-19.5 294,-19.5 294,-0.5 206,-0.5"/>
<text text-anchor="middle" x="250" y="-7.5" font-family="Helvetica,sans-Serif" font-size="10.00">StreamReaction</text>
</a>
</g>
</g>
<!-- Node6&#45;&gt;Node7 -->
<g id="edge6" class="edge">
<title>Node6&#45;&gt;Node7</title>
<path fill="none" stroke="midnightblue" d="M250,-45.8C250,-36.91 250,-26.78 250,-19.75"/>
<polygon fill="midnightblue" stroke="midnightblue" points="246.5,-46.08 250,-56.08 253.5,-46.08 246.5,-46.08"/>
</g>
<!-- Node8 -->
<g id="node8" class="node">
<title>Node8</title>
<g id="a_node8"><a xlink:href="class_tick_reaction.html" target="_top" xlink:title="Reaction that is triggered unconditionally at each execution loop.">
<polygon fill="none" stroke="black" points="312,-0.5 312,-19.5 386,-19.5 386,-0.5 312,-0.5"/>
<text text-anchor="middle" x="349" y="-7.5" font-family="Helvetica,sans-Serif" font-size="10.00">TickReaction</text>
</a>
</g>
</g>
<!-- Node6&#45;&gt;Node8 -->
<g id="edge7" class="edge">
<title>Node6&#45;&gt;Node8</title>
<path fill="none" stroke="midnightblue" d="M274.84,-51.45C293.11,-41.48 317.42,-28.23 333.13,-19.65"/>
<polygon fill="midnightblue" stroke="midnightblue" points="273.01,-48.46 265.91,-56.32 276.36,-54.61 273.01,-48.46"/>
</g>
</g>
</svg>
