<?xml version="1.0" encoding="UTF-8" standalone="no"?>
<!DOCTYPE svg PUBLIC "-//W3C//DTD SVG 1.1//EN"
 "http://www.w3.org/Graphics/SVG/1.1/DTD/svg11.dtd">
<!-- Generated by graphviz version 2.49.3 (20211023.0002)
 -->
<!-- Title: reactesp::TimedReaction::add Pages: 1 -->
<svg width="492pt" height="186pt"
 viewBox="0.00 0.00 492.00 186.00" xmlns="http://www.w3.org/2000/svg" xmlns:xlink="http://www.w3.org/1999/xlink">
<g id="graph0" class="graph" transform="scale(1 1) rotate(0) translate(4 182)">
<title>reactesp::TimedReaction::add</title>
<!-- Node1 -->
<g id="node1" class="node">
<title>Node1</title>
<g id="a_node1"><a xlink:title=" ">
<polygon fill="#bfbfbf" stroke="black" points="334,-79 334,-98 484,-98 484,-79 334,-79"/>
<text text-anchor="middle" x="409" y="-86" font-family="Helvetica,sans-Serif" font-size="10.00">reactesp::TimedReaction::add</text>
</a>
</g>
</g>
<!-- Node2 -->
<g id="node2" class="node">
<title>Node2</title>
<g id="a_node2"><a xlink:href="classreactesp_1_1_react_e_s_p.html#a5b25d026d1f26fb80b2c6659f3875fd8" target="_top" xlink:title="Create a new DelayReaction.">
<polygon fill="none" stroke="black" points="191,-147.5 191,-177.5 298,-177.5 298,-147.5 191,-147.5"/>
<text text-anchor="start" x="199" y="-165.5" font-family="Helvetica,sans-Serif" font-size="10.00">reactesp::ReactESP</text>
<text text-anchor="middle" x="244.5" y="-154.5" font-family="Helvetica,sans-Serif" font-size="10.00">::onDelay</text>
</a>
</g>
</g>
<!-- Node1&#45;&gt;Node2 -->
<g id="edge1" class="edge">
<title>Node1&#45;&gt;Node2</title>
<path fill="none" stroke="midnightblue" d="M377.75,-102.27C349.62,-115.09 307.78,-134.14 278.73,-147.37"/>
<polygon fill="midnightblue" stroke="midnightblue" points="379.44,-105.35 387.09,-98.02 376.54,-98.98 379.44,-105.35"/>
</g>
<!-- Node5 -->
<g id="node5" class="node">
<title>Node5</title>
<g id="a_node5"><a xlink:href="classreactesp_1_1_react_e_s_p.html#a4f51c39bd90492f6184872f6d91f14dd" target="_top" xlink:title="Create a new DelayReaction.">
<polygon fill="none" stroke="black" points="191,-98.5 191,-128.5 298,-128.5 298,-98.5 191,-98.5"/>
<text text-anchor="start" x="199" y="-116.5" font-family="Helvetica,sans-Serif" font-size="10.00">reactesp::ReactESP</text>
<text text-anchor="middle" x="244.5" y="-105.5" font-family="Helvetica,sans-Serif" font-size="10.00">::onDelayMicros</text>
</a>
</g>
</g>
<!-- Node1&#45;&gt;Node5 -->
<g id="edge4" class="edge">
<title>Node1&#45;&gt;Node5</title>
<path fill="none" stroke="midnightblue" d="M336,-99.58C323.29,-101.53 310.27,-103.53 298.22,-105.39"/>
<polygon fill="midnightblue" stroke="midnightblue" points="336.75,-103 346.1,-98.02 335.69,-96.08 336.75,-103"/>
</g>
<!-- Node6 -->
<g id="node6" class="node">
<title>Node6</title>
<g id="a_node6"><a xlink:href="classreactesp_1_1_react_e_s_p.html#a914de417d6b11c6111df8bba25d5ed75" target="_top" xlink:title="Create a new RepeatReaction.">
<polygon fill="none" stroke="black" points="191,-49.5 191,-79.5 298,-79.5 298,-49.5 191,-49.5"/>
<text text-anchor="start" x="199" y="-67.5" font-family="Helvetica,sans-Serif" font-size="10.00">reactesp::ReactESP</text>
<text text-anchor="middle" x="244.5" y="-56.5" font-family="Helvetica,sans-Serif" font-size="10.00">::onRepeat</text>
</a>
</g>
</g>
<!-- Node1&#45;&gt;Node6 -->
<g id="edge5" class="edge">
<title>Node1&#45;&gt;Node6</title>
<path fill="none" stroke="midnightblue" d="M333.4,-77.48C321.53,-75.73 309.47,-73.95 298.24,-72.29"/>
<polygon fill="midnightblue" stroke="midnightblue" points="332.9,-80.95 343.31,-78.95 333.93,-74.02 332.9,-80.95"/>
</g>
<!-- Node9 -->
<g id="node9" class="node">
<title>Node9</title>
<g id="a_node9"><a xlink:href="classreactesp_1_1_react_e_s_p.html#ad15637cf3778be71a156845bd069506a" target="_top" xlink:title="Create a new RepeatReaction.">
<polygon fill="none" stroke="black" points="191,-0.5 191,-30.5 298,-30.5 298,-0.5 191,-0.5"/>
<text text-anchor="start" x="199" y="-18.5" font-family="Helvetica,sans-Serif" font-size="10.00">reactesp::ReactESP</text>
<text text-anchor="middle" x="244.5" y="-7.5" font-family="Helvetica,sans-Serif" font-size="10.00">::onRepeatMicros</text>
</a>
</g>
</g>
<!-- Node1&#45;&gt;Node9 -->
<g id="edge10" class="edge">
<title>Node1&#45;&gt;Node9</title>
<path fill="none" stroke="midnightblue" d="M377.46,-74.78C349.47,-62.21 308.12,-43.63 279.19,-30.63"/>
<polygon fill="midnightblue" stroke="midnightblue" points="376.2,-78.05 386.76,-78.96 379.07,-71.67 376.2,-78.05"/>
</g>
<!-- Node3 -->
<g id="node3" class="node">
<title>Node3</title>
<g id="a_node3"><a xlink:href="main_8cpp.html#aabd20f4bed5cefc2278d071d9dafb01f" target="_top" xlink:title=" ">
<polygon fill="none" stroke="black" points="81,-142 81,-161 151,-161 151,-142 81,-142"/>
<text text-anchor="middle" x="116" y="-149" font-family="Helvetica,sans-Serif" font-size="10.00">setup_serial</text>
</a>
</g>
</g>
<!-- Node2&#45;&gt;Node3 -->
<g id="edge2" class="edge">
<title>Node2&#45;&gt;Node3</title>
<path fill="none" stroke="midnightblue" d="M180.79,-157.05C170.57,-156.16 160.34,-155.27 151.16,-154.47"/>
<polygon fill="midnightblue" stroke="midnightblue" points="180.69,-160.55 190.95,-157.93 181.29,-153.58 180.69,-160.55"/>
</g>
<!-- Node4 -->
<g id="node4" class="node">
<title>Node4</title>
<g id="a_node4"><a xlink:href="main_8cpp.html#a4fc01d736fe50cf5b977f755b675f11d" target="_top" xlink:title=" ">
<polygon fill="none" stroke="black" points="0,-93 0,-112 41,-112 41,-93 0,-93"/>
<text text-anchor="middle" x="20.5" y="-100" font-family="Helvetica,sans-Serif" font-size="10.00">setup</text>
</a>
</g>
</g>
<!-- Node3&#45;&gt;Node4 -->
<g id="edge3" class="edge">
<title>Node3&#45;&gt;Node4</title>
<path fill="none" stroke="midnightblue" d="M87.49,-137.08C72.17,-129.05 53.5,-119.27 39.93,-112.16"/>
<polygon fill="midnightblue" stroke="midnightblue" points="86.05,-140.28 96.53,-141.82 89.29,-134.08 86.05,-140.28"/>
</g>
<!-- Node7 -->
<g id="node7" class="node">
<title>Node7</title>
<g id="a_node7"><a xlink:href="main_8cpp.html#aa41a4d8986ed6c03bd6ad416ba134a4e" target="_top" xlink:title=" ">
<polygon fill="none" stroke="black" points="77,-93 77,-112 155,-112 155,-93 77,-93"/>
<text text-anchor="middle" x="116" y="-100" font-family="Helvetica,sans-Serif" font-size="10.00">setup_io_pins</text>
</a>
</g>
</g>
<!-- Node6&#45;&gt;Node7 -->
<g id="edge6" class="edge">
<title>Node6&#45;&gt;Node7</title>
<path fill="none" stroke="midnightblue" d="M183.87,-82.41C171.77,-86.05 159.49,-89.74 148.81,-92.94"/>
<polygon fill="midnightblue" stroke="midnightblue" points="184.93,-85.75 193.5,-79.52 182.92,-79.04 184.93,-85.75"/>
</g>
<!-- Node8 -->
<g id="node8" class="node">
<title>Node8</title>
<g id="a_node8"><a xlink:href="main_8cpp.html#a8b0ce963bacb63827eb79b51bc74a551" target="_top" xlink:title=" ">
<polygon fill="none" stroke="black" points="79,-55 79,-74 153,-74 153,-55 79,-55"/>
<text text-anchor="middle" x="116" y="-62" font-family="Helvetica,sans-Serif" font-size="10.00">setup_timers</text>
</a>
</g>
</g>
<!-- Node6&#45;&gt;Node8 -->
<g id="edge8" class="edge">
<title>Node6&#45;&gt;Node8</title>
<path fill="none" stroke="midnightblue" d="M180.7,-64.5C171.2,-64.5 161.7,-64.5 153.03,-64.5"/>
<polygon fill="midnightblue" stroke="midnightblue" points="180.95,-68 190.95,-64.5 180.95,-61 180.95,-68"/>
</g>
<!-- Node7&#45;&gt;Node4 -->
<g id="edge7" class="edge">
<title>Node7&#45;&gt;Node4</title>
<path fill="none" stroke="midnightblue" d="M66.74,-102.5C57.63,-102.5 48.61,-102.5 41.04,-102.5"/>
<polygon fill="midnightblue" stroke="midnightblue" points="66.97,-106 76.97,-102.5 66.97,-99 66.97,-106"/>
</g>
<!-- Node8&#45;&gt;Node4 -->
<g id="edge9" class="edge">
<title>Node8&#45;&gt;Node4</title>
<path fill="none" stroke="midnightblue" d="M81.9,-77.95C68.33,-83.47 53.07,-89.67 41.29,-94.46"/>
<polygon fill="midnightblue" stroke="midnightblue" points="83.46,-81.1 91.41,-74.09 80.82,-74.61 83.46,-81.1"/>
</g>
</g>
</svg>
