<?xml version="1.0" encoding="UTF-8" standalone="no"?>
<!DOCTYPE svg PUBLIC "-//W3C//DTD SVG 1.1//EN"
 "http://www.w3.org/Graphics/SVG/1.1/DTD/svg11.dtd">
<!-- Generated by graphviz version 12.1.0 (20240811.2233)
 -->
<!-- Title: reactesp::EventLoop::tick Pages: 1 -->
<svg width="415pt" height="174pt"
 viewBox="0.00 0.00 415.25 173.50" xmlns="http://www.w3.org/2000/svg" xmlns:xlink="http://www.w3.org/1999/xlink">
<g id="graph0" class="graph" transform="scale(1 1) rotate(0) translate(4 169.5)">
<title>reactesp::EventLoop::tick</title>
<!-- Node1 -->
<g id="Node000001" class="node">
<title>Node1</title>
<g id="a_Node000001"><a xlink:title=" ">
<polygon fill="#999999" stroke="#666666" points="106,-69.5 0,-69.5 0,-39 106,-39 106,-69.5"/>
<text text-anchor="start" x="8" y="-56" font-family="Helvetica,sans-Serif" font-size="10.00">reactesp::EventLoop</text>
<text text-anchor="middle" x="53" y="-44.75" font-family="Helvetica,sans-Serif" font-size="10.00">::tick</text>
</a>
</g>
</g>
<!-- Node2 -->
<g id="Node000002" class="node">
<title>Node2</title>
<g id="a_Node000002"><a xlink:href="classreactesp_1_1_event_loop.html#a001ffbb649dc0b4b0dd11a3eb68db76b" target="_top" xlink:title=" ">
<polygon fill="white" stroke="#666666" points="248,-94.5 142,-94.5 142,-64 248,-64 248,-94.5"/>
<text text-anchor="start" x="150" y="-81" font-family="Helvetica,sans-Serif" font-size="10.00">reactesp::EventLoop</text>
<text text-anchor="middle" x="195" y="-69.75" font-family="Helvetica,sans-Serif" font-size="10.00">::tickTimed</text>
</a>
</g>
</g>
<!-- Node1&#45;&gt;Node2 -->
<g id="edge1_Node000001_Node000002" class="edge">
<title>Node1&#45;&gt;Node2</title>
<g id="a_edge1_Node000001_Node000002"><a xlink:title=" ">
<path fill="none" stroke="#63b8ff" d="M106.13,-63.56C114.15,-64.99 122.5,-66.48 130.73,-67.95"/>
<polygon fill="#63b8ff" stroke="#63b8ff" points="129.88,-71.35 140.34,-69.67 131.11,-64.46 129.88,-71.35"/>
</a>
</g>
</g>
<!-- Node7 -->
<g id="Node000007" class="node">
<title>Node7</title>
<g id="a_Node000007"><a xlink:href="classreactesp_1_1_event_loop.html#a816b31c993f0c98a4b3237c87a5b9a72" target="_top" xlink:title=" ">
<polygon fill="white" stroke="#666666" points="248,-45.5 142,-45.5 142,-15 248,-15 248,-45.5"/>
<text text-anchor="start" x="150" y="-32" font-family="Helvetica,sans-Serif" font-size="10.00">reactesp::EventLoop</text>
<text text-anchor="middle" x="195" y="-20.75" font-family="Helvetica,sans-Serif" font-size="10.00">::tickUntimed</text>
</a>
</g>
</g>
<!-- Node1&#45;&gt;Node7 -->
<g id="edge6_Node000001_Node000007" class="edge">
<title>Node1&#45;&gt;Node7</title>
<g id="a_edge6_Node000001_Node000007"><a xlink:title=" ">
<path fill="none" stroke="#63b8ff" d="M106.13,-45.31C114.15,-43.94 122.5,-42.51 130.73,-41.1"/>
<polygon fill="#63b8ff" stroke="#63b8ff" points="131.07,-44.59 140.33,-39.45 129.89,-37.69 131.07,-44.59"/>
</a>
</g>
</g>
<!-- Node3 -->
<g id="Node000003" class="node">
<title>Node3</title>
<g id="a_Node000003"><a xlink:href="classreactesp_1_1_timed_event.html#a18e54ee8a5720bf8e218273ad6ce399b" target="_top" xlink:title=" ">
<polygon fill="white" stroke="#666666" points="403.88,-165.5 287.38,-165.5 287.38,-135 403.88,-135 403.88,-165.5"/>
<text text-anchor="start" x="295.38" y="-152" font-family="Helvetica,sans-Serif" font-size="10.00">reactesp::TimedEvent</text>
<text text-anchor="middle" x="345.62" y="-140.75" font-family="Helvetica,sans-Serif" font-size="10.00">::getTriggerTimeMicros</text>
</a>
</g>
</g>
<!-- Node2&#45;&gt;Node3 -->
<g id="edge2_Node000002_Node000003" class="edge">
<title>Node2&#45;&gt;Node3</title>
<g id="a_edge2_Node000002_Node000003"><a xlink:title=" ">
<path fill="none" stroke="#63b8ff" d="M224.21,-94.83C241.31,-104.06 263.69,-115.78 284,-125.25 287.51,-126.89 291.16,-128.53 294.85,-130.15"/>
<polygon fill="#63b8ff" stroke="#63b8ff" points="293.3,-133.3 303.87,-134.03 296.07,-126.87 293.3,-133.3"/>
</a>
</g>
</g>
<!-- Node4 -->
<g id="Node000004" class="node">
<title>Node4</title>
<g id="a_Node000004"><a xlink:href="classreactesp_1_1_timed_event.html#a813ca557a9e1918800e22b27b6a3fe26" target="_top" xlink:title=" ">
<polygon fill="white" stroke="#666666" points="401.62,-116.5 289.62,-116.5 289.62,-86 401.62,-86 401.62,-116.5"/>
<text text-anchor="start" x="297.62" y="-103" font-family="Helvetica,sans-Serif" font-size="10.00">reactesp::TimedEvent</text>
<text text-anchor="middle" x="345.62" y="-91.75" font-family="Helvetica,sans-Serif" font-size="10.00">::isEnabled</text>
</a>
</g>
</g>
<!-- Node2&#45;&gt;Node4 -->
<g id="edge3_Node000002_Node000004" class="edge">
<title>Node2&#45;&gt;Node4</title>
<g id="a_edge3_Node000002_Node000004"><a xlink:title=" ">
<path fill="none" stroke="#63b8ff" d="M248.4,-87.01C257.99,-88.43 268.12,-89.93 278.06,-91.4"/>
<polygon fill="#63b8ff" stroke="#63b8ff" points="277.27,-94.82 287.67,-92.82 278.3,-87.89 277.27,-94.82"/>
</a>
</g>
</g>
<!-- Node5 -->
<g id="Node000005" class="node">
<title>Node5</title>
<g id="a_Node000005"><a xlink:href="namespacereactesp.html#ad8ee9481c08d90d81a80eded1394f1bb" target="_top" xlink:title="Return the current time since the device restart in microseconds.">
<polygon fill="white" stroke="#666666" points="395.25,-67.88 296,-67.88 296,-48.62 395.25,-48.62 395.25,-67.88"/>
<text text-anchor="middle" x="345.62" y="-54.38" font-family="Helvetica,sans-Serif" font-size="10.00">reactesp::micros64</text>
</a>
</g>
</g>
<!-- Node2&#45;&gt;Node5 -->
<g id="edge4_Node000002_Node000005" class="edge">
<title>Node2&#45;&gt;Node5</title>
<g id="a_edge4_Node000002_Node000005"><a xlink:title=" ">
<path fill="none" stroke="#63b8ff" d="M248.4,-71.85C260.05,-70.2 272.5,-68.44 284.43,-66.75"/>
<polygon fill="#63b8ff" stroke="#63b8ff" points="284.77,-70.24 294.18,-65.38 283.79,-63.31 284.77,-70.24"/>
</a>
</g>
</g>
<!-- Node6 -->
<g id="Node000006" class="node">
<title>Node6</title>
<g id="a_Node000006"><a xlink:href="structreactesp_1_1_event_interface.html#a55884e4ff4d0368e243503def0b31e49" target="_top" xlink:title=" ">
<polygon fill="white" stroke="#666666" points="407.25,-30.5 284,-30.5 284,0 407.25,0 407.25,-30.5"/>
<text text-anchor="start" x="292" y="-17" font-family="Helvetica,sans-Serif" font-size="10.00">reactesp::EventInterface</text>
<text text-anchor="middle" x="345.62" y="-5.75" font-family="Helvetica,sans-Serif" font-size="10.00">::tick</text>
</a>
</g>
</g>
<!-- Node2&#45;&gt;Node6 -->
<g id="edge5_Node000002_Node000006" class="edge">
<title>Node2&#45;&gt;Node6</title>
<g id="a_edge5_Node000002_Node000006"><a xlink:title=" ">
<path fill="none" stroke="#63b8ff" d="M229.26,-63.66C245.65,-56.1 265.77,-46.99 284,-39.25 287.13,-37.92 290.36,-36.57 293.62,-35.23"/>
<polygon fill="#63b8ff" stroke="#63b8ff" points="294.73,-38.56 302.67,-31.55 292.09,-32.07 294.73,-38.56"/>
</a>
</g>
</g>
</g>
</svg>
