<?xml version="1.0" encoding="UTF-8" standalone="no"?>
<!DOCTYPE svg PUBLIC "-//W3C//DTD SVG 1.1//EN"
 "http://www.w3.org/Graphics/SVG/1.1/DTD/svg11.dtd">
<!-- Generated by graphviz version 2.49.3 (20211023.0002)
 -->
<!-- Title: reactesp::TimedReaction Pages: 1 -->
<svg width="284pt" height="140pt"
 viewBox="0.00 0.00 283.50 140.00" xmlns="http://www.w3.org/2000/svg" xmlns:xlink="http://www.w3.org/1999/xlink">
<g id="graph0" class="graph" transform="scale(1 1) rotate(0) translate(4 136)">
<title>reactesp::TimedReaction</title>
<!-- Node1 -->
<g id="node1" class="node">
<title>Node1</title>
<g id="a_node1"><a xlink:title="TimedReactions are called based on elapsing of time.">
<polygon fill="#bfbfbf" stroke="black" points="72,-56.5 72,-75.5 199,-75.5 199,-56.5 72,-56.5"/>
<text text-anchor="middle" x="135.5" y="-63.5" font-family="Helvetica,sans-Serif" font-size="10.00">reactesp::TimedReaction</text>
</a>
</g>
</g>
<!-- Node3 -->
<g id="node3" class="node">
<title>Node3</title>
<g id="a_node3"><a xlink:href="classreactesp_1_1_delay_reaction.html" target="_top" xlink:title="Reaction that is triggered after a certain time delay.">
<polygon fill="none" stroke="black" points="0,-0.5 0,-19.5 125,-19.5 125,-0.5 0,-0.5"/>
<text text-anchor="middle" x="62.5" y="-7.5" font-family="Helvetica,sans-Serif" font-size="10.00">reactesp::DelayReaction</text>
</a>
</g>
</g>
<!-- Node1&#45;&gt;Node3 -->
<g id="edge2" class="edge">
<title>Node1&#45;&gt;Node3</title>
<path fill="none" stroke="midnightblue" d="M115.36,-50.1C102.22,-40.38 85.52,-28.03 74.44,-19.83"/>
<polygon fill="midnightblue" stroke="midnightblue" points="113.65,-53.19 123.77,-56.32 117.81,-47.56 113.65,-53.19"/>
</g>
<!-- Node4 -->
<g id="node4" class="node">
<title>Node4</title>
<g id="a_node4"><a xlink:href="classreactesp_1_1_repeat_reaction.html" target="_top" xlink:title="Reaction that is triggered repeatedly.">
<polygon fill="none" stroke="black" points="143.5,-0.5 143.5,-19.5 275.5,-19.5 275.5,-0.5 143.5,-0.5"/>
<text text-anchor="middle" x="209.5" y="-7.5" font-family="Helvetica,sans-Serif" font-size="10.00">reactesp::RepeatReaction</text>
</a>
</g>
</g>
<!-- Node1&#45;&gt;Node4 -->
<g id="edge3" class="edge">
<title>Node1&#45;&gt;Node4</title>
<path fill="none" stroke="midnightblue" d="M155.53,-50.38C168.91,-40.62 186.06,-28.11 197.39,-19.83"/>
<polygon fill="midnightblue" stroke="midnightblue" points="153.4,-47.6 147.39,-56.32 157.53,-53.26 153.4,-47.6"/>
</g>
<!-- Node2 -->
<g id="node2" class="node">
<title>Node2</title>
<g id="a_node2"><a xlink:href="classreactesp_1_1_reaction.html" target="_top" xlink:title="Reactions are code to be called when a given condition is fulfilled.">
<polygon fill="none" stroke="black" points="85.5,-112.5 85.5,-131.5 185.5,-131.5 185.5,-112.5 85.5,-112.5"/>
<text text-anchor="middle" x="135.5" y="-119.5" font-family="Helvetica,sans-Serif" font-size="10.00">reactesp::Reaction</text>
</a>
</g>
</g>
<!-- Node2&#45;&gt;Node1 -->
<g id="edge1" class="edge">
<title>Node2&#45;&gt;Node1</title>
<path fill="none" stroke="midnightblue" d="M135.5,-101.8C135.5,-92.91 135.5,-82.78 135.5,-75.75"/>
<polygon fill="midnightblue" stroke="midnightblue" points="132,-102.08 135.5,-112.08 139,-102.08 132,-102.08"/>
</g>
</g>
</svg>
