<?xml version="1.0" encoding="UTF-8" standalone="no"?>
<!DOCTYPE svg PUBLIC "-//W3C//DTD SVG 1.1//EN"
 "http://www.w3.org/Graphics/SVG/1.1/DTD/svg11.dtd">
<!-- Generated by graphviz version 2.49.3 (20211023.0002)
 -->
<!-- Title: reactesp::UntimedReaction::add Pages: 1 -->
<svg width="493pt" height="88pt"
 viewBox="0.00 0.00 493.00 88.00" xmlns="http://www.w3.org/2000/svg" xmlns:xlink="http://www.w3.org/1999/xlink">
<g id="graph0" class="graph" transform="scale(1 1) rotate(0) translate(4 84)">
<title>reactesp::UntimedReaction::add</title>
<!-- Node1 -->
<g id="node1" class="node">
<title>Node1</title>
<g id="a_node1"><a xlink:title=" ">
<polygon fill="#bfbfbf" stroke="black" points="326,-30 326,-49 485,-49 485,-30 326,-30"/>
<text text-anchor="middle" x="405.5" y="-37" font-family="Helvetica,sans-Serif" font-size="10.00">reactesp::UntimedReaction::add</text>
</a>
</g>
</g>
<!-- Node2 -->
<g id="node2" class="node">
<title>Node2</title>
<g id="a_node2"><a xlink:href="classreactesp_1_1_react_e_s_p.html#a42c88fbcd1f1ab9842517056448de6b5" target="_top" xlink:title="Create a new StreamReaction.">
<polygon fill="none" stroke="black" points="183,-49.5 183,-79.5 290,-79.5 290,-49.5 183,-49.5"/>
<text text-anchor="start" x="191" y="-67.5" font-family="Helvetica,sans-Serif" font-size="10.00">reactesp::ReactESP</text>
<text text-anchor="middle" x="236.5" y="-56.5" font-family="Helvetica,sans-Serif" font-size="10.00">::onAvailable</text>
</a>
</g>
</g>
<!-- Node1&#45;&gt;Node2 -->
<g id="edge1" class="edge">
<title>Node1&#45;&gt;Node2</title>
<path fill="none" stroke="midnightblue" d="M330.95,-50.51C317.18,-52.57 303.05,-54.69 290.08,-56.63"/>
<polygon fill="midnightblue" stroke="midnightblue" points="331.52,-53.96 340.89,-49.02 330.48,-47.04 331.52,-53.96"/>
</g>
<!-- Node5 -->
<g id="node5" class="node">
<title>Node5</title>
<g id="a_node5"><a xlink:href="classreactesp_1_1_react_e_s_p.html#ae442c7e1e8084f46a900646957f1f9c8" target="_top" xlink:title="Create a new TickReaction.">
<polygon fill="none" stroke="black" points="183,-0.5 183,-30.5 290,-30.5 290,-0.5 183,-0.5"/>
<text text-anchor="start" x="191" y="-18.5" font-family="Helvetica,sans-Serif" font-size="10.00">reactesp::ReactESP</text>
<text text-anchor="middle" x="236.5" y="-7.5" font-family="Helvetica,sans-Serif" font-size="10.00">::onTick</text>
</a>
</g>
</g>
<!-- Node1&#45;&gt;Node5 -->
<g id="edge4" class="edge">
<title>Node1&#45;&gt;Node5</title>
<path fill="none" stroke="midnightblue" d="M327.85,-28.48C315.09,-26.65 302.12,-24.79 290.13,-23.06"/>
<polygon fill="midnightblue" stroke="midnightblue" points="327.62,-31.99 338.02,-29.95 328.62,-25.06 327.62,-31.99"/>
</g>
<!-- Node3 -->
<g id="node3" class="node">
<title>Node3</title>
<g id="a_node3"><a xlink:href="main_8cpp.html#aabd20f4bed5cefc2278d071d9dafb01f" target="_top" xlink:title=" ">
<polygon fill="none" stroke="black" points="77,-52 77,-71 147,-71 147,-52 77,-52"/>
<text text-anchor="middle" x="112" y="-59" font-family="Helvetica,sans-Serif" font-size="10.00">setup_serial</text>
</a>
</g>
</g>
<!-- Node2&#45;&gt;Node3 -->
<g id="edge2" class="edge">
<title>Node2&#45;&gt;Node3</title>
<path fill="none" stroke="midnightblue" d="M172.6,-62.96C163.85,-62.75 155.15,-62.53 147.21,-62.34"/>
<polygon fill="midnightblue" stroke="midnightblue" points="172.76,-66.46 182.84,-63.21 172.93,-59.47 172.76,-66.46"/>
</g>
<!-- Node4 -->
<g id="node4" class="node">
<title>Node4</title>
<g id="a_node4"><a xlink:href="main_8cpp.html#a4fc01d736fe50cf5b977f755b675f11d" target="_top" xlink:title=" ">
<polygon fill="none" stroke="black" points="0,-30 0,-49 41,-49 41,-30 0,-30"/>
<text text-anchor="middle" x="20.5" y="-37" font-family="Helvetica,sans-Serif" font-size="10.00">setup</text>
</a>
</g>
</g>
<!-- Node3&#45;&gt;Node4 -->
<g id="edge3" class="edge">
<title>Node3&#45;&gt;Node4</title>
<path fill="none" stroke="midnightblue" d="M67.14,-50.72C58.06,-48.49 48.93,-46.24 41.24,-44.35"/>
<polygon fill="midnightblue" stroke="midnightblue" points="66.36,-54.13 76.91,-53.12 68.03,-47.33 66.36,-54.13"/>
</g>
<!-- Node6 -->
<g id="node6" class="node">
<title>Node6</title>
<g id="a_node6"><a xlink:href="main_8cpp.html#a4e12b91752b35a5f3a628424fcd5d73b" target="_top" xlink:title=" ">
<polygon fill="none" stroke="black" points="81,-11 81,-30 143,-30 143,-11 81,-11"/>
<text text-anchor="middle" x="112" y="-18" font-family="Helvetica,sans-Serif" font-size="10.00">setup_tick</text>
</a>
</g>
</g>
<!-- Node5&#45;&gt;Node6 -->
<g id="edge5" class="edge">
<title>Node5&#45;&gt;Node6</title>
<path fill="none" stroke="midnightblue" d="M172.56,-18.07C162.26,-18.49 152.02,-18.91 143.02,-19.27"/>
<polygon fill="midnightblue" stroke="midnightblue" points="172.99,-21.55 182.84,-17.65 172.7,-14.56 172.99,-21.55"/>
</g>
<!-- Node6&#45;&gt;Node4 -->
<g id="edge6" class="edge">
<title>Node6&#45;&gt;Node4</title>
<path fill="none" stroke="midnightblue" d="M70.62,-29.07C60.36,-31.25 49.79,-33.49 41.09,-35.34"/>
<polygon fill="midnightblue" stroke="midnightblue" points="71.64,-32.43 80.7,-26.93 70.19,-25.59 71.64,-32.43"/>
</g>
</g>
</svg>
