<?xml version="1.0" encoding="UTF-8" standalone="no"?>
<!DOCTYPE svg PUBLIC "-//W3C//DTD SVG 1.1//EN"
 "http://www.w3.org/Graphics/SVG/1.1/DTD/svg11.dtd">
<!-- Generated by graphviz version 12.1.0 (20240811.2233)
 -->
<!-- Title: reactesp::EventLoop::tickTimed Pages: 1 -->
<svg width="273pt" height="174pt"
 viewBox="0.00 0.00 273.25 173.50" xmlns="http://www.w3.org/2000/svg" xmlns:xlink="http://www.w3.org/1999/xlink">
<g id="graph0" class="graph" transform="scale(1 1) rotate(0) translate(4 169.5)">
<title>reactesp::EventLoop::tickTimed</title>
<!-- Node1 -->
<g id="Node000001" class="node">
<title>Node1</title>
<g id="a_Node000001"><a xlink:title=" ">
<polygon fill="#999999" stroke="#666666" points="106,-94.5 0,-94.5 0,-64 106,-64 106,-94.5"/>
<text text-anchor="start" x="8" y="-81" font-family="Helvetica,sans-Serif" font-size="10.00">reactesp::EventLoop</text>
<text text-anchor="middle" x="53" y="-69.75" font-family="Helvetica,sans-Serif" font-size="10.00">::tickTimed</text>
</a>
</g>
</g>
<!-- Node2 -->
<g id="Node000002" class="node">
<title>Node2</title>
<g id="a_Node000002"><a xlink:href="classreactesp_1_1_timed_event.html#a18e54ee8a5720bf8e218273ad6ce399b" target="_top" xlink:title=" ">
<polygon fill="white" stroke="#666666" points="261.88,-165.5 145.38,-165.5 145.38,-135 261.88,-135 261.88,-165.5"/>
<text text-anchor="start" x="153.38" y="-152" font-family="Helvetica,sans-Serif" font-size="10.00">reactesp::TimedEvent</text>
<text text-anchor="middle" x="203.62" y="-140.75" font-family="Helvetica,sans-Serif" font-size="10.00">::getTriggerTimeMicros</text>
</a>
</g>
</g>
<!-- Node1&#45;&gt;Node2 -->
<g id="edge1_Node000001_Node000002" class="edge">
<title>Node1&#45;&gt;Node2</title>
<g id="a_edge1_Node000001_Node000002"><a xlink:title=" ">
<path fill="none" stroke="#63b8ff" d="M82.21,-94.83C99.31,-104.06 121.69,-115.78 142,-125.25 145.51,-126.89 149.16,-128.53 152.85,-130.15"/>
<polygon fill="#63b8ff" stroke="#63b8ff" points="151.3,-133.3 161.87,-134.03 154.07,-126.87 151.3,-133.3"/>
</a>
</g>
</g>
<!-- Node3 -->
<g id="Node000003" class="node">
<title>Node3</title>
<g id="a_Node000003"><a xlink:href="classreactesp_1_1_timed_event.html#a813ca557a9e1918800e22b27b6a3fe26" target="_top" xlink:title=" ">
<polygon fill="white" stroke="#666666" points="259.62,-116.5 147.62,-116.5 147.62,-86 259.62,-86 259.62,-116.5"/>
<text text-anchor="start" x="155.62" y="-103" font-family="Helvetica,sans-Serif" font-size="10.00">reactesp::TimedEvent</text>
<text text-anchor="middle" x="203.62" y="-91.75" font-family="Helvetica,sans-Serif" font-size="10.00">::isEnabled</text>
</a>
</g>
</g>
<!-- Node1&#45;&gt;Node3 -->
<g id="edge2_Node000001_Node000003" class="edge">
<title>Node1&#45;&gt;Node3</title>
<g id="a_edge2_Node000001_Node000003"><a xlink:title=" ">
<path fill="none" stroke="#63b8ff" d="M106.4,-87.01C115.99,-88.43 126.12,-89.93 136.06,-91.4"/>
<polygon fill="#63b8ff" stroke="#63b8ff" points="135.27,-94.82 145.67,-92.82 136.3,-87.89 135.27,-94.82"/>
</a>
</g>
</g>
<!-- Node4 -->
<g id="Node000004" class="node">
<title>Node4</title>
<g id="a_Node000004"><a xlink:href="namespacereactesp.html#ad8ee9481c08d90d81a80eded1394f1bb" target="_top" xlink:title="Return the current time since the device restart in microseconds.">
<polygon fill="white" stroke="#666666" points="253.25,-67.88 154,-67.88 154,-48.62 253.25,-48.62 253.25,-67.88"/>
<text text-anchor="middle" x="203.62" y="-54.38" font-family="Helvetica,sans-Serif" font-size="10.00">reactesp::micros64</text>
</a>
</g>
</g>
<!-- Node1&#45;&gt;Node4 -->
<g id="edge3_Node000001_Node000004" class="edge">
<title>Node1&#45;&gt;Node4</title>
<g id="a_edge3_Node000001_Node000004"><a xlink:title=" ">
<path fill="none" stroke="#63b8ff" d="M106.4,-71.85C118.05,-70.2 130.5,-68.44 142.43,-66.75"/>
<polygon fill="#63b8ff" stroke="#63b8ff" points="142.77,-70.24 152.18,-65.38 141.79,-63.31 142.77,-70.24"/>
</a>
</g>
</g>
<!-- Node5 -->
<g id="Node000005" class="node">
<title>Node5</title>
<g id="a_Node000005"><a xlink:href="structreactesp_1_1_event_interface.html#a55884e4ff4d0368e243503def0b31e49" target="_top" xlink:title=" ">
<polygon fill="white" stroke="#666666" points="265.25,-30.5 142,-30.5 142,0 265.25,0 265.25,-30.5"/>
<text text-anchor="start" x="150" y="-17" font-family="Helvetica,sans-Serif" font-size="10.00">reactesp::EventInterface</text>
<text text-anchor="middle" x="203.62" y="-5.75" font-family="Helvetica,sans-Serif" font-size="10.00">::tick</text>
</a>
</g>
</g>
<!-- Node1&#45;&gt;Node5 -->
<g id="edge4_Node000001_Node000005" class="edge">
<title>Node1&#45;&gt;Node5</title>
<g id="a_edge4_Node000001_Node000005"><a xlink:title=" ">
<path fill="none" stroke="#63b8ff" d="M87.26,-63.66C103.65,-56.1 123.77,-46.99 142,-39.25 145.13,-37.92 148.36,-36.57 151.62,-35.23"/>
<polygon fill="#63b8ff" stroke="#63b8ff" points="152.73,-38.56 160.67,-31.55 150.09,-32.07 152.73,-38.56"/>
</a>
</g>
</g>
</g>
</svg>
