<?xml version="1.0" encoding="UTF-8" standalone="no"?>
<!DOCTYPE svg PUBLIC "-//W3C//DTD SVG 1.1//EN"
 "http://www.w3.org/Graphics/SVG/1.1/DTD/svg11.dtd">
<!-- Generated by graphviz version 12.1.2 (20240928.0832)
 -->
<!-- Title: reactesp::EventLoop::tickTimed Pages: 1 -->
<svg width="267pt" height="174pt"
 viewBox="0.00 0.00 266.50 173.50" xmlns="http://www.w3.org/2000/svg" xmlns:xlink="http://www.w3.org/1999/xlink">

<svg id="main" version="1.1" xmlns="http://www.w3.org/2000/svg" xmlns:xlink="http://www.w3.org/1999/xlink" xml:space="preserve">

<style type="text/css"><![CDATA[
.node, .edge {opacity: 0.7;}
.node.selected, .edge.selected {opacity: 1;}
.edge:hover path { stroke: red; }
.edge:hover polygon { stroke: red; fill: red; }
]]></style>
<script type="application/ecmascript" xlink:href="svg.min.js"/>
<svg id="graph" class="graph">
<g id="graph0" class="graph" transform="scale(1 1) rotate(0) translate(4 169.5)">
<title>reactesp::EventLoop::tickTimed</title>
<!-- Node1 -->
<g id="Node000001" class="node">
<title>Node1</title>
<g id="a_Node000001"><a xlink:title=" ">
<polygon fill="#999999" stroke="#666666" points="106,-94.5 0,-94.5 0,-64 106,-64 106,-94.5"/>
<text text-anchor="start" x="8" y="-81" font-family="Helvetica,sans-Serif" font-size="10.00">reactesp::EventLoop</text>
<text text-anchor="middle" x="53" y="-69.75" font-family="Helvetica,sans-Serif" font-size="10.00">::tickTimed</text>
</a>
</g>
</g>
<!-- Node2 -->
<g id="Node000002" class="node">
<title>Node2</title>
<g id="a_Node000002"><a xlink:href="classreactesp_1_1_timed_event.html#a18e54ee8a5720bf8e218273ad6ce399b" target="_top" xlink:title=" ">
<polygon fill="white" stroke="#666666" points="258.5,-165.5 142,-165.5 142,-135 258.5,-135 258.5,-165.5"/>
<text text-anchor="start" x="150" y="-152" font-family="Helvetica,sans-Serif" font-size="10.00">reactesp::TimedEvent</text>
<text text-anchor="middle" x="200.25" y="-140.75" font-family="Helvetica,sans-Serif" font-size="10.00">::getTriggerTimeMicros</text>
</a>
</g>
</g>
<!-- Node1&#45;&gt;Node2 -->
<g id="edge1_Node000001_Node000002" class="edge">
<title>Node1&#45;&gt;Node2</title>
<g id="a_edge1_Node000001_Node000002"><a xlink:title=" ">
<path fill="none" stroke="#63b8ff" d="M82.68,-94.89C99.76,-104.04 121.94,-115.64 142,-125.25 145.28,-126.82 148.68,-128.41 152.11,-129.98"/>
<polygon fill="#63b8ff" stroke="#63b8ff" points="150.49,-133.09 161.05,-134 153.37,-126.71 150.49,-133.09"/>
</a>
</g>
</g>
<!-- Node3 -->
<g id="Node000003" class="node">
<title>Node3</title>
<g id="a_Node000003"><a xlink:href="classreactesp_1_1_timed_event.html#a813ca557a9e1918800e22b27b6a3fe26" target="_top" xlink:title=" ">
<polygon fill="white" stroke="#666666" points="256.25,-116.5 144.25,-116.5 144.25,-86 256.25,-86 256.25,-116.5"/>
<text text-anchor="start" x="152.25" y="-103" font-family="Helvetica,sans-Serif" font-size="10.00">reactesp::TimedEvent</text>
<text text-anchor="middle" x="200.25" y="-91.75" font-family="Helvetica,sans-Serif" font-size="10.00">::isEnabled</text>
</a>
</g>
</g>
<!-- Node1&#45;&gt;Node3 -->
<g id="edge2_Node000001_Node000003" class="edge">
<title>Node1&#45;&gt;Node3</title>
<g id="a_edge2_Node000001_Node000003"><a xlink:title=" ">
<path fill="none" stroke="#63b8ff" d="M106.44,-87.19C115.01,-88.49 123.99,-89.85 132.84,-91.19"/>
<polygon fill="#63b8ff" stroke="#63b8ff" points="132.04,-94.61 142.45,-92.65 133.09,-87.69 132.04,-94.61"/>
</a>
</g>
</g>
<!-- Node4 -->
<g id="Node000004" class="node">
<title>Node4</title>
<g id="a_Node000004"><a xlink:href="namespacereactesp.html#ad8ee9481c08d90d81a80eded1394f1bb" target="_top" xlink:title="Return the current time since the device restart in microseconds.">
<polygon fill="white" stroke="#666666" points="249.88,-67.88 150.62,-67.88 150.62,-48.62 249.88,-48.62 249.88,-67.88"/>
<text text-anchor="middle" x="200.25" y="-54.38" font-family="Helvetica,sans-Serif" font-size="10.00">reactesp::micros64</text>
</a>
</g>
</g>
<!-- Node1&#45;&gt;Node4 -->
<g id="edge3_Node000001_Node000004" class="edge">
<title>Node1&#45;&gt;Node4</title>
<g id="a_edge3_Node000001_Node000004"><a xlink:title=" ">
<path fill="none" stroke="#63b8ff" d="M106.44,-71.67C117.05,-70.13 128.29,-68.51 139.15,-66.94"/>
<polygon fill="#63b8ff" stroke="#63b8ff" points="139.38,-70.44 148.78,-65.55 138.38,-63.51 139.38,-70.44"/>
</a>
</g>
</g>
<!-- Node5 -->
<g id="Node000005" class="node">
<title>Node5</title>
<g id="a_Node000005"><a xlink:href="classreactesp_1_1_timed_event.html#a55884e4ff4d0368e243503def0b31e49" target="_top" xlink:title=" ">
<polygon fill="white" stroke="#666666" points="256.25,-30.5 144.25,-30.5 144.25,0 256.25,0 256.25,-30.5"/>
<text text-anchor="start" x="152.25" y="-17" font-family="Helvetica,sans-Serif" font-size="10.00">reactesp::TimedEvent</text>
<text text-anchor="middle" x="200.25" y="-5.75" font-family="Helvetica,sans-Serif" font-size="10.00">::tick</text>
</a>
</g>
</g>
<!-- Node1&#45;&gt;Node5 -->
<g id="edge4_Node000001_Node000005" class="edge">
<title>Node1&#45;&gt;Node5</title>
<g id="a_edge4_Node000001_Node000005"><a xlink:title=" ">
<path fill="none" stroke="#63b8ff" d="M87.74,-63.63C104.08,-56.14 124.01,-47.11 142,-39.25 144.92,-37.98 147.92,-36.68 150.96,-35.37"/>
<polygon fill="#63b8ff" stroke="#63b8ff" points="152.08,-38.7 159.91,-31.56 149.34,-32.26 152.08,-38.7"/>
</a>
</g>
</g>
</g>
</svg>
</svg>

<style type='text/css'>
<![CDATA[
[data-mouse-over-selected='false'] { opacity: 0.7; }
[data-mouse-over-selected='true']  { opacity: 1.0; }
]]>
</style>
<script type="application/ecmascript"><![CDATA[
document.addEventListener('DOMContentLoaded', (event) => {
  highlightEdges();
  highlightAdjacentNodes();
});
]]></script>
</svg>
