<?xml version="1.0" encoding="UTF-8" standalone="no"?>
<!DOCTYPE svg PUBLIC "-//W3C//DTD SVG 1.1//EN"
 "http://www.w3.org/Graphics/SVG/1.1/DTD/svg11.dtd">
<!-- Generated by graphviz version 2.50.0 (20211204.2007)
 -->
<!-- Title: reactesp::ReactESP::onDelay Pages: 1 -->
<svg width="297pt" height="39pt"
 viewBox="0.00 0.00 297.00 39.00" xmlns="http://www.w3.org/2000/svg" xmlns:xlink="http://www.w3.org/1999/xlink">
<g id="graph0" class="graph" transform="scale(1 1) rotate(0) translate(4 35)">
<title>reactesp::ReactESP::onDelay</title>
<!-- Node1 -->
<g id="node1" class="node">
<title>Node1</title>
<g id="a_node1"><a xlink:title="Create a new DelayReaction.">
<polygon fill="#bfbfbf" stroke="black" points="182,-0.5 182,-30.5 289,-30.5 289,-0.5 182,-0.5"/>
<text text-anchor="start" x="190" y="-18.5" font-family="Helvetica,sans-Serif" font-size="10.00">reactesp::ReactESP</text>
<text text-anchor="middle" x="235.5" y="-7.5" font-family="Helvetica,sans-Serif" font-size="10.00">::onDelay</text>
</a>
</g>
</g>
<!-- Node2 -->
<g id="node2" class="node">
<title>Node2</title>
<g id="a_node2"><a xlink:href="main_8cpp.html#aabd20f4bed5cefc2278d071d9dafb01f" target="_top" xlink:title=" ">
<polygon fill="none" stroke="black" points="77,-6 77,-25 146,-25 146,-6 77,-6"/>
<text text-anchor="middle" x="111.5" y="-13" font-family="Helvetica,sans-Serif" font-size="10.00">setup_serial</text>
</a>
</g>
</g>
<!-- Node1&#45;&gt;Node2 -->
<g id="edge1" class="edge">
<title>Node1&#45;&gt;Node2</title>
<path fill="none" stroke="midnightblue" d="M171.42,-15.5C162.65,-15.5 153.94,-15.5 146.02,-15.5"/>
<polygon fill="midnightblue" stroke="midnightblue" points="171.7,-19 181.7,-15.5 171.7,-12 171.7,-19"/>
</g>
<!-- Node3 -->
<g id="node3" class="node">
<title>Node3</title>
<g id="a_node3"><a xlink:href="main_8cpp.html#a4fc01d736fe50cf5b977f755b675f11d" target="_top" xlink:title=" ">
<polygon fill="none" stroke="black" points="0,-6 0,-25 41,-25 41,-6 0,-6"/>
<text text-anchor="middle" x="20.5" y="-13" font-family="Helvetica,sans-Serif" font-size="10.00">setup</text>
</a>
</g>
</g>
<!-- Node2&#45;&gt;Node3 -->
<g id="edge2" class="edge">
<title>Node2&#45;&gt;Node3</title>
<path fill="none" stroke="midnightblue" d="M66.83,-15.5C57.86,-15.5 48.85,-15.5 41.25,-15.5"/>
<polygon fill="midnightblue" stroke="midnightblue" points="66.85,-19 76.85,-15.5 66.85,-12 66.85,-19"/>
</g>
</g>
</svg>
