<?xml version="1.0" encoding="UTF-8" standalone="no"?>
<!DOCTYPE svg PUBLIC "-//W3C//DTD SVG 1.1//EN"
 "http://www.w3.org/Graphics/SVG/1.1/DTD/svg11.dtd">
<!-- Generated by graphviz version 12.1.2 (20240928.0832)
 -->
<!-- Title: reactesp::Event Pages: 1 -->
<!--zoomable 138 -->

<svg id="main" version="1.1" xmlns="http://www.w3.org/2000/svg" xmlns:xlink="http://www.w3.org/1999/xlink" xml:space="preserve" onload="init(evt)">

<style type="text/css"><![CDATA[
.node, .edge {opacity: 0.7;}
.node.selected, .edge.selected {opacity: 1;}
.edge:hover path { stroke: red; }
.edge:hover polygon { stroke: red; fill: red; }
]]></style>

<defs>
  <circle id="rim" cx="0" cy="0" r="7"/>
  <circle id="rim2" cx="0" cy="0" r="3.5"/>
  <g id="zoomPlus">
    <use xlink:href="#rim" fill="#404040"><set attributeName="fill" to="#808080" begin="zoomplus.mouseover" end="zoomplus.mouseout"/></use>
    <path d="M-4,0h8M0,-4v8" fill="none" stroke="white" stroke-width="1.5" pointer-events="none"/>
  </g>
  <g id="zoomMin">
    <use xlink:href="#rim" fill="#404040"><set attributeName="fill" to="#808080" begin="zoomminus.mouseover" end="zoomminus.mouseout"/></use>
    <path d="M-4,0h8" fill="none" stroke="white" stroke-width="1.5" pointer-events="none"/>
  </g>
  <g id="arrowUp" transform="translate(30 24)">
    <use xlink:href="#rim"/>
    <path pointer-events="none" fill="none" stroke="white" stroke-width="1.5" d="M0,-3.0v7 M-2.5,-0.5L0,-3.0L2.5,-0.5"/>
  </g>
  <g id="arrowRight" transform="rotate(90) translate(36 -43)">
    <use xlink:href="#rim"/>
    <path pointer-events="none" fill="none" stroke="white" stroke-width="1.5" d="M0,-3.0v7 M-2.5,-0.5L0,-3.0L2.5,-0.5"/>
  </g>
  <g id="arrowDown" transform="rotate(180) translate(-30 -48)">
    <use xlink:href="#rim"/>
    <path pointer-events="none" fill="none" stroke="white" stroke-width="1.5" d="M0,-3.0v7 M-2.5,-0.5L0,-3.0L2.5,-0.5"/>
  </g>
  <g id="arrowLeft" transform="rotate(270) translate(-36 17)">
    <use xlink:href="#rim"/>
    <path pointer-events="none" fill="none" stroke="white" stroke-width="1.5" d="M0,-3.0v7 M-2.5,-0.5L0,-3.0L2.5,-0.5"/>
  </g>
  <g id="resetDef">
    <use xlink:href="#rim2" fill="#404040"><set attributeName="fill" to="#808080" begin="reset.mouseover" end="reset.mouseout"/></use>
  </g>
</defs>
<script type="application/ecmascript">
var viewWidth = 563;
var viewHeight = 138;
var sectionId = 'dynsection-0';
</script>
<script type="application/ecmascript" xlink:href="svg.min.js"/>
<svg id="graph" class="graph">
<g id="viewport">
<title>reactesp::Event</title>
<!-- Node1 -->
<g id="Node000001" class="node">
<title>Node1</title>
<g id="a_Node000001"><a xlink:title="Events are code to be called when a given condition is fulfilled.">
<polygon fill="#999999" stroke="#666666" points="244.25,-93.25 159.25,-93.25 159.25,-74 244.25,-74 244.25,-93.25"/>
<text text-anchor="middle" x="201.75" y="-79.75" font-family="Helvetica,sans-Serif" font-size="10.00">reactesp::Event</text>
</a>
</g>
</g>
<!-- Node3 -->
<g id="Node000003" class="node">
<title>Node3</title>
<g id="a_Node000003"><a xlink:href="classreactesp_1_1_i_s_r_event.html" target="_top" xlink:title="Event that is triggered on an input pin change.">
<polygon fill="white" stroke="#666666" points="392.25,-130.25 290,-130.25 290,-111 392.25,-111 392.25,-130.25"/>
<text text-anchor="middle" x="341.12" y="-116.75" font-family="Helvetica,sans-Serif" font-size="10.00">reactesp::ISREvent</text>
</a>
</g>
</g>
<!-- Node1&#45;&gt;Node3 -->
<g id="edge2_Node000001_Node000003" class="edge">
<title>Node1&#45;&gt;Node3</title>
<g id="a_edge2_Node000001_Node000003"><a xlink:title=" ">
<path fill="none" stroke="#63b8ff" d="M251.1,-96.65C268.01,-101.2 286.74,-106.25 302.63,-110.53"/>
<polygon fill="#63b8ff" stroke="#63b8ff" points="252.32,-93.35 241.75,-94.13 250.5,-100.11 252.32,-93.35"/>
</a>
</g>
</g>
<!-- Node4 -->
<g id="Node000004" class="node">
<title>Node4</title>
<g id="a_Node000004"><a xlink:href="classreactesp_1_1_timed_event.html" target="_top" xlink:title="TimedEvents are called based on elapsing of time.">
<polygon fill="white" stroke="#666666" points="397.12,-93.25 285.12,-93.25 285.12,-74 397.12,-74 397.12,-93.25"/>
<text text-anchor="middle" x="341.12" y="-79.75" font-family="Helvetica,sans-Serif" font-size="10.00">reactesp::TimedEvent</text>
</a>
</g>
</g>
<!-- Node1&#45;&gt;Node4 -->
<g id="edge3_Node000001_Node000004" class="edge">
<title>Node1&#45;&gt;Node4</title>
<g id="a_edge3_Node000001_Node000004"><a xlink:title=" ">
<path fill="none" stroke="#63b8ff" d="M255.97,-83.62C265.4,-83.62 275.25,-83.62 284.74,-83.62"/>
<polygon fill="#63b8ff" stroke="#63b8ff" points="256.23,-80.13 246.23,-83.63 256.23,-87.13 256.23,-80.13"/>
</a>
</g>
</g>
<!-- Node7 -->
<g id="Node000007" class="node">
<title>Node7</title>
<g id="a_Node000007"><a xlink:href="classreactesp_1_1_untimed_event.html" target="_top" xlink:title="Events that are triggered based on something else than time.">
<polygon fill="white" stroke="#666666" points="402,-56.25 280.25,-56.25 280.25,-37 402,-37 402,-56.25"/>
<text text-anchor="middle" x="341.12" y="-42.75" font-family="Helvetica,sans-Serif" font-size="10.00">reactesp::UntimedEvent</text>
</a>
</g>
</g>
<!-- Node1&#45;&gt;Node7 -->
<g id="edge6_Node000001_Node000007" class="edge">
<title>Node1&#45;&gt;Node7</title>
<g id="a_edge6_Node000001_Node000007"><a xlink:title=" ">
<path fill="none" stroke="#63b8ff" d="M251.1,-70.6C268.01,-66.05 286.74,-61 302.63,-56.72"/>
<polygon fill="#63b8ff" stroke="#63b8ff" points="250.5,-67.14 241.75,-73.12 252.32,-73.9 250.5,-67.14"/>
</a>
</g>
</g>
<!-- Node2 -->
<g id="Node000002" class="node">
<title>Node2</title>
<g id="a_Node000002"><a xlink:href="structreactesp_1_1_event_interface.html" target="_top" xlink:title="EventInterface defines the interface for all events.">
<polygon fill="white" stroke="#666666" points="123.25,-93.25 0,-93.25 0,-74 123.25,-74 123.25,-93.25"/>
<text text-anchor="middle" x="61.62" y="-79.75" font-family="Helvetica,sans-Serif" font-size="10.00">reactesp::EventInterface</text>
</a>
</g>
</g>
<!-- Node2&#45;&gt;Node1 -->
<g id="edge1_Node000001_Node000002" class="edge">
<title>Node2&#45;&gt;Node1</title>
<g id="a_edge1_Node000001_Node000002"><a xlink:title=" ">
<path fill="none" stroke="#63b8ff" d="M134.91,-83.62C143.2,-83.62 151.43,-83.62 159.11,-83.62"/>
<polygon fill="#63b8ff" stroke="#63b8ff" points="135.12,-80.13 125.12,-83.63 135.12,-87.13 135.12,-80.13"/>
</a>
</g>
</g>
<!-- Node5 -->
<g id="Node000005" class="node">
<title>Node5</title>
<g id="a_Node000005"><a xlink:href="classreactesp_1_1_delay_event.html" target="_top" xlink:title="Event that is triggered after a certain time delay.">
<polygon fill="white" stroke="#666666" points="551.5,-130.25 441,-130.25 441,-111 551.5,-111 551.5,-130.25"/>
<text text-anchor="middle" x="496.25" y="-116.75" font-family="Helvetica,sans-Serif" font-size="10.00">reactesp::DelayEvent</text>
</a>
</g>
</g>
<!-- Node4&#45;&gt;Node5 -->
<g id="edge4_Node000004_Node000005" class="edge">
<title>Node4&#45;&gt;Node5</title>
<g id="a_edge4_Node000004_Node000005"><a xlink:title=" ">
<path fill="none" stroke="#63b8ff" d="M394.94,-96.39C414.07,-101.01 435.4,-106.16 453.46,-110.53"/>
<polygon fill="#63b8ff" stroke="#63b8ff" points="395.98,-93.04 385.44,-94.09 394.34,-99.84 395.98,-93.04"/>
</a>
</g>
</g>
<!-- Node6 -->
<g id="Node000006" class="node">
<title>Node6</title>
<g id="a_Node000006"><a xlink:href="classreactesp_1_1_repeat_event.html" target="_top" xlink:title="Event that is triggered repeatedly.">
<polygon fill="white" stroke="#666666" points="554.5,-93.25 438,-93.25 438,-74 554.5,-74 554.5,-93.25"/>
<text text-anchor="middle" x="496.25" y="-79.75" font-family="Helvetica,sans-Serif" font-size="10.00">reactesp::RepeatEvent</text>
</a>
</g>
</g>
<!-- Node4&#45;&gt;Node6 -->
<g id="edge5_Node000004_Node000006" class="edge">
<title>Node4&#45;&gt;Node6</title>
<g id="a_edge5_Node000004_Node000006"><a xlink:title=" ">
<path fill="none" stroke="#63b8ff" d="M408.64,-83.62C418.33,-83.62 428.24,-83.62 437.73,-83.62"/>
<polygon fill="#63b8ff" stroke="#63b8ff" points="408.92,-80.13 398.92,-83.63 408.92,-87.13 408.92,-80.13"/>
</a>
</g>
</g>
<!-- Node8 -->
<g id="Node000008" class="node">
<title>Node8</title>
<g id="a_Node000008"><a xlink:href="classreactesp_1_1_stream_event.html" target="_top" xlink:title="Event that is triggered when there is input available at the given Arduino Stream.">
<polygon fill="white" stroke="#666666" points="554.5,-56.25 438,-56.25 438,-37 554.5,-37 554.5,-56.25"/>
<text text-anchor="middle" x="496.25" y="-42.75" font-family="Helvetica,sans-Serif" font-size="10.00">reactesp::StreamEvent</text>
</a>
</g>
</g>
<!-- Node7&#45;&gt;Node8 -->
<g id="edge7_Node000007_Node000008" class="edge">
<title>Node7&#45;&gt;Node8</title>
<g id="a_edge7_Node000007_Node000008"><a xlink:title=" ">
<path fill="none" stroke="#63b8ff" d="M413.6,-46.62C421.73,-46.62 429.94,-46.62 437.85,-46.62"/>
<polygon fill="#63b8ff" stroke="#63b8ff" points="413.72,-43.13 403.72,-46.63 413.72,-50.13 413.72,-43.13"/>
</a>
</g>
</g>
<!-- Node9 -->
<g id="Node000009" class="node">
<title>Node9</title>
<g id="a_Node000009"><a xlink:href="classreactesp_1_1_tick_event.html" target="_top" xlink:title="Event that is triggered unconditionally at each execution loop.">
<polygon fill="white" stroke="#666666" points="548.12,-19.25 444.38,-19.25 444.38,0 548.12,0 548.12,-19.25"/>
<text text-anchor="middle" x="496.25" y="-5.75" font-family="Helvetica,sans-Serif" font-size="10.00">reactesp::TickEvent</text>
</a>
</g>
</g>
<!-- Node7&#45;&gt;Node9 -->
<g id="edge8_Node000007_Node000009" class="edge">
<title>Node7&#45;&gt;Node9</title>
<g id="a_edge8_Node000007_Node000009"><a xlink:title=" ">
<path fill="none" stroke="#63b8ff" d="M394.94,-33.86C414.07,-29.24 435.4,-24.09 453.46,-19.72"/>
<polygon fill="#63b8ff" stroke="#63b8ff" points="394.34,-30.41 385.44,-36.16 395.98,-37.21 394.34,-30.41"/>
</a>
</g>
</g>
</g>
</svg>

<g id="navigator" transform="translate(0 0)" fill="#404254">
  <rect fill="#f2f5e9" fill-opacity="0.5" stroke="#606060" stroke-width=".5" x="0" y="0" width="60" height="60"/>
  <use id="zoomplus" xlink:href="#zoomPlus" x="17" y="9" onmousedown="handleZoom(evt,'in')"/>
  <use id="zoomminus" xlink:href="#zoomMin" x="42" y="9" onmousedown="handleZoom(evt,'out')"/>
  <use id="reset" xlink:href="#resetDef" x="30" y="36" onmousedown="handleReset()"/>
   <use id="arrowup" xlink:href="#arrowUp" x="0" y="0" onmousedown="handlePan(0,-1)"/>
  <use id="arrowright" xlink:href="#arrowRight" x="0" y="0" onmousedown="handlePan(1,0)"/>
  <use id="arrowdown" xlink:href="#arrowDown" x="0" y="0" onmousedown="handlePan(0,1)"/>
  <use id="arrowleft" xlink:href="#arrowLeft" x="0" y="0" onmousedown="handlePan(-1,0)"/>
</g>
<svg viewBox="0 0 15 15" width="100%" height="30px" preserveAspectRatio="xMaxYMin meet">
 <g id="arrow_out" transform="scale(0.3 0.3)">
  <a xlink:href="classreactesp_1_1_event__inherit__graph_org.svg" target="_base">
   <rect id="button" ry="5" rx="5" y="6" x="6" height="38" width="38"
        fill="#f2f5e9" fill-opacity="0.5" stroke="#606060" stroke-width="1.0"/>
   <path id="arrow"
     d="M 11.500037,31.436501 C 11.940474,20.09759 22.043105,11.32322 32.158766,21.979434 L 37.068811,17.246167 C 37.068811,17.246167 37.088388,32 37.088388,32 L 22.160133,31.978069 C 22.160133,31.978069 26.997745,27.140456 26.997745,27.140456 C 18.528582,18.264221 13.291696,25.230495 11.500037,31.436501 z"
     style="fill:#404040;"/>
  </a>
 </g>
</svg>

<style type='text/css'>
<![CDATA[
[data-mouse-over-selected='false'] { opacity: 0.7; }
[data-mouse-over-selected='true']  { opacity: 1.0; }
]]>
</style>
<script type="application/ecmascript"><![CDATA[
document.addEventListener('DOMContentLoaded', (event) => {
  highlightEdges();
  highlightAdjacentNodes();
});
]]></script>
</svg>
