<?xml version="1.0" encoding="UTF-8" standalone="no"?>
<!DOCTYPE svg PUBLIC "-//W3C//DTD SVG 1.1//EN"
 "http://www.w3.org/Graphics/SVG/1.1/DTD/svg11.dtd">
<!-- Generated by graphviz version 2.48.0 (20210717.1556)
 -->
<!-- Title: UntimedReaction::add Pages: 1 -->
<svg width="279pt" height="66pt"
 viewBox="0.00 0.00 279.00 66.00" xmlns="http://www.w3.org/2000/svg" xmlns:xlink="http://www.w3.org/1999/xlink">
<g id="graph0" class="graph" transform="scale(1 1) rotate(0) translate(4 62)">
<title>UntimedReaction::add</title>
<!-- Node1 -->
<g id="node1" class="node">
<title>Node1</title>
<g id="a_node1"><a xlink:title=" ">
<polygon fill="#bfbfbf" stroke="black" points="156,-19.5 156,-38.5 271,-38.5 271,-19.5 156,-19.5"/>
<text text-anchor="middle" x="213.5" y="-26.5" font-family="Helvetica,sans-Serif" font-size="10.00">UntimedReaction::add</text>
</a>
</g>
</g>
<!-- Node2 -->
<g id="node2" class="node">
<title>Node2</title>
<g id="a_node2"><a xlink:href="class_react_e_s_p.html#a831c11dd7f1a6e15d70785c3a990df93" target="_top" xlink:title="Create a new StreamReaction.">
<polygon fill="none" stroke="black" points="0,-38.5 0,-57.5 120,-57.5 120,-38.5 0,-38.5"/>
<text text-anchor="middle" x="60" y="-45.5" font-family="Helvetica,sans-Serif" font-size="10.00">ReactESP::onAvailable</text>
</a>
</g>
</g>
<!-- Node1&#45;&gt;Node2 -->
<g id="edge1" class="edge">
<title>Node1&#45;&gt;Node2</title>
<path fill="none" stroke="midnightblue" d="M145.48,-37.41C137.05,-38.46 128.48,-39.54 120.19,-40.58"/>
<polygon fill="midnightblue" stroke="midnightblue" points="146.17,-40.85 155.66,-36.13 145.3,-33.9 146.17,-40.85"/>
</g>
<!-- Node3 -->
<g id="node3" class="node">
<title>Node3</title>
<g id="a_node3"><a xlink:href="class_react_e_s_p.html#a7da68d41f2a9790ab1aec2610bad07eb" target="_top" xlink:title="Create a new TickReaction.">
<polygon fill="none" stroke="black" points="11.5,-0.5 11.5,-19.5 108.5,-19.5 108.5,-0.5 11.5,-0.5"/>
<text text-anchor="middle" x="60" y="-7.5" font-family="Helvetica,sans-Serif" font-size="10.00">ReactESP::onTick</text>
</a>
</g>
</g>
<!-- Node1&#45;&gt;Node3 -->
<g id="edge2" class="edge">
<title>Node1&#45;&gt;Node3</title>
<path fill="none" stroke="midnightblue" d="M145.39,-20.58C133.04,-19.03 120.38,-17.45 108.75,-15.99"/>
<polygon fill="midnightblue" stroke="midnightblue" points="145.3,-24.1 155.66,-21.87 146.17,-17.15 145.3,-24.1"/>
</g>
</g>
</svg>
