<?xml version="1.0" encoding="UTF-8" standalone="no"?>
<!DOCTYPE svg PUBLIC "-//W3C//DTD SVG 1.1//EN"
 "http://www.w3.org/Graphics/SVG/1.1/DTD/svg11.dtd">
<!-- Generated by graphviz version 12.1.2 (20240928.0832)
 -->
<!-- Title: reactesp::EventLoop::tick Pages: 1 -->
<svg width="409pt" height="174pt"
 viewBox="0.00 0.00 408.50 173.50" xmlns="http://www.w3.org/2000/svg" xmlns:xlink="http://www.w3.org/1999/xlink">

<svg id="main" version="1.1" xmlns="http://www.w3.org/2000/svg" xmlns:xlink="http://www.w3.org/1999/xlink" xml:space="preserve">

<style type="text/css"><![CDATA[
.node, .edge {opacity: 0.7;}
.node.selected, .edge.selected {opacity: 1;}
.edge:hover path { stroke: red; }
.edge:hover polygon { stroke: red; fill: red; }
]]></style>
<script type="application/ecmascript" xlink:href="svg.min.js"/>
<svg id="graph" class="graph">
<g id="graph0" class="graph" transform="scale(1 1) rotate(0) translate(4 169.5)">
<title>reactesp::EventLoop::tick</title>
<!-- Node1 -->
<g id="Node000001" class="node">
<title>Node1</title>
<g id="a_Node000001"><a xlink:title=" ">
<polygon fill="#999999" stroke="#666666" points="106,-69.5 0,-69.5 0,-39 106,-39 106,-69.5"/>
<text text-anchor="start" x="8" y="-56" font-family="Helvetica,sans-Serif" font-size="10.00">reactesp::EventLoop</text>
<text text-anchor="middle" x="53" y="-44.75" font-family="Helvetica,sans-Serif" font-size="10.00">::tick</text>
</a>
</g>
</g>
<!-- Node2 -->
<g id="Node000002" class="node">
<title>Node2</title>
<g id="a_Node000002"><a xlink:href="classreactesp_1_1_event_loop.html#a001ffbb649dc0b4b0dd11a3eb68db76b" target="_top" xlink:title=" ">
<polygon fill="white" stroke="#666666" points="248,-94.5 142,-94.5 142,-64 248,-64 248,-94.5"/>
<text text-anchor="start" x="150" y="-81" font-family="Helvetica,sans-Serif" font-size="10.00">reactesp::EventLoop</text>
<text text-anchor="middle" x="195" y="-69.75" font-family="Helvetica,sans-Serif" font-size="10.00">::tickTimed</text>
</a>
</g>
</g>
<!-- Node1&#45;&gt;Node2 -->
<g id="edge1_Node000001_Node000002" class="edge">
<title>Node1&#45;&gt;Node2</title>
<g id="a_edge1_Node000001_Node000002"><a xlink:title=" ">
<path fill="none" stroke="#63b8ff" d="M106.13,-63.56C114.15,-64.99 122.5,-66.48 130.73,-67.95"/>
<polygon fill="#63b8ff" stroke="#63b8ff" points="129.88,-71.35 140.34,-69.67 131.11,-64.46 129.88,-71.35"/>
</a>
</g>
</g>
<!-- Node7 -->
<g id="Node000007" class="node">
<title>Node7</title>
<g id="a_Node000007"><a xlink:href="classreactesp_1_1_event_loop.html#a816b31c993f0c98a4b3237c87a5b9a72" target="_top" xlink:title=" ">
<polygon fill="white" stroke="#666666" points="248,-45.5 142,-45.5 142,-15 248,-15 248,-45.5"/>
<text text-anchor="start" x="150" y="-32" font-family="Helvetica,sans-Serif" font-size="10.00">reactesp::EventLoop</text>
<text text-anchor="middle" x="195" y="-20.75" font-family="Helvetica,sans-Serif" font-size="10.00">::tickUntimed</text>
</a>
</g>
</g>
<!-- Node1&#45;&gt;Node7 -->
<g id="edge6_Node000001_Node000007" class="edge">
<title>Node1&#45;&gt;Node7</title>
<g id="a_edge6_Node000001_Node000007"><a xlink:title=" ">
<path fill="none" stroke="#63b8ff" d="M106.13,-45.31C114.15,-43.94 122.5,-42.51 130.73,-41.1"/>
<polygon fill="#63b8ff" stroke="#63b8ff" points="131.07,-44.59 140.33,-39.45 129.89,-37.69 131.07,-44.59"/>
</a>
</g>
</g>
<!-- Node3 -->
<g id="Node000003" class="node">
<title>Node3</title>
<g id="a_Node000003"><a xlink:href="classreactesp_1_1_timed_event.html#a18e54ee8a5720bf8e218273ad6ce399b" target="_top" xlink:title=" ">
<polygon fill="white" stroke="#666666" points="400.5,-165.5 284,-165.5 284,-135 400.5,-135 400.5,-165.5"/>
<text text-anchor="start" x="292" y="-152" font-family="Helvetica,sans-Serif" font-size="10.00">reactesp::TimedEvent</text>
<text text-anchor="middle" x="342.25" y="-140.75" font-family="Helvetica,sans-Serif" font-size="10.00">::getTriggerTimeMicros</text>
</a>
</g>
</g>
<!-- Node2&#45;&gt;Node3 -->
<g id="edge2_Node000002_Node000003" class="edge">
<title>Node2&#45;&gt;Node3</title>
<g id="a_edge2_Node000002_Node000003"><a xlink:title=" ">
<path fill="none" stroke="#63b8ff" d="M224.68,-94.89C241.76,-104.04 263.94,-115.64 284,-125.25 287.28,-126.82 290.68,-128.41 294.11,-129.98"/>
<polygon fill="#63b8ff" stroke="#63b8ff" points="292.49,-133.09 303.05,-134 295.37,-126.71 292.49,-133.09"/>
</a>
</g>
</g>
<!-- Node4 -->
<g id="Node000004" class="node">
<title>Node4</title>
<g id="a_Node000004"><a xlink:href="classreactesp_1_1_timed_event.html#a813ca557a9e1918800e22b27b6a3fe26" target="_top" xlink:title=" ">
<polygon fill="white" stroke="#666666" points="398.25,-116.5 286.25,-116.5 286.25,-86 398.25,-86 398.25,-116.5"/>
<text text-anchor="start" x="294.25" y="-103" font-family="Helvetica,sans-Serif" font-size="10.00">reactesp::TimedEvent</text>
<text text-anchor="middle" x="342.25" y="-91.75" font-family="Helvetica,sans-Serif" font-size="10.00">::isEnabled</text>
</a>
</g>
</g>
<!-- Node2&#45;&gt;Node4 -->
<g id="edge3_Node000002_Node000004" class="edge">
<title>Node2&#45;&gt;Node4</title>
<g id="a_edge3_Node000002_Node000004"><a xlink:title=" ">
<path fill="none" stroke="#63b8ff" d="M248.44,-87.19C257.01,-88.49 265.99,-89.85 274.84,-91.19"/>
<polygon fill="#63b8ff" stroke="#63b8ff" points="274.04,-94.61 284.45,-92.65 275.09,-87.69 274.04,-94.61"/>
</a>
</g>
</g>
<!-- Node5 -->
<g id="Node000005" class="node">
<title>Node5</title>
<g id="a_Node000005"><a xlink:href="namespacereactesp.html#ad8ee9481c08d90d81a80eded1394f1bb" target="_top" xlink:title="Return the current time since the device restart in microseconds.">
<polygon fill="white" stroke="#666666" points="391.88,-67.88 292.62,-67.88 292.62,-48.62 391.88,-48.62 391.88,-67.88"/>
<text text-anchor="middle" x="342.25" y="-54.38" font-family="Helvetica,sans-Serif" font-size="10.00">reactesp::micros64</text>
</a>
</g>
</g>
<!-- Node2&#45;&gt;Node5 -->
<g id="edge4_Node000002_Node000005" class="edge">
<title>Node2&#45;&gt;Node5</title>
<g id="a_edge4_Node000002_Node000005"><a xlink:title=" ">
<path fill="none" stroke="#63b8ff" d="M248.44,-71.67C259.05,-70.13 270.29,-68.51 281.15,-66.94"/>
<polygon fill="#63b8ff" stroke="#63b8ff" points="281.38,-70.44 290.78,-65.55 280.38,-63.51 281.38,-70.44"/>
</a>
</g>
</g>
<!-- Node6 -->
<g id="Node000006" class="node">
<title>Node6</title>
<g id="a_Node000006"><a xlink:href="classreactesp_1_1_timed_event.html#a55884e4ff4d0368e243503def0b31e49" target="_top" xlink:title=" ">
<polygon fill="white" stroke="#666666" points="398.25,-30.5 286.25,-30.5 286.25,0 398.25,0 398.25,-30.5"/>
<text text-anchor="start" x="294.25" y="-17" font-family="Helvetica,sans-Serif" font-size="10.00">reactesp::TimedEvent</text>
<text text-anchor="middle" x="342.25" y="-5.75" font-family="Helvetica,sans-Serif" font-size="10.00">::tick</text>
</a>
</g>
</g>
<!-- Node2&#45;&gt;Node6 -->
<g id="edge5_Node000002_Node000006" class="edge">
<title>Node2&#45;&gt;Node6</title>
<g id="a_edge5_Node000002_Node000006"><a xlink:title=" ">
<path fill="none" stroke="#63b8ff" d="M229.74,-63.63C246.08,-56.14 266.01,-47.11 284,-39.25 286.92,-37.98 289.92,-36.68 292.96,-35.37"/>
<polygon fill="#63b8ff" stroke="#63b8ff" points="294.08,-38.7 301.91,-31.56 291.34,-32.26 294.08,-38.7"/>
</a>
</g>
</g>
</g>
</svg>
</svg>

<style type='text/css'>
<![CDATA[
[data-mouse-over-selected='false'] { opacity: 0.7; }
[data-mouse-over-selected='true']  { opacity: 1.0; }
]]>
</style>
<script type="application/ecmascript"><![CDATA[
document.addEventListener('DOMContentLoaded', (event) => {
  highlightEdges();
  highlightAdjacentNodes();
});
]]></script>
</svg>
