<?xml version="1.0" encoding="UTF-8" standalone="no"?>
<!DOCTYPE svg PUBLIC "-//W3C//DTD SVG 1.1//EN"
 "http://www.w3.org/Graphics/SVG/1.1/DTD/svg11.dtd">
<!-- Generated by graphviz version 2.50.0 (20211204.2007)
 -->
<!-- Title: reactesp::UntimedReaction::add Pages: 1 -->
<svg width="491pt" height="88pt"
 viewBox="0.00 0.00 491.00 88.00" xmlns="http://www.w3.org/2000/svg" xmlns:xlink="http://www.w3.org/1999/xlink">
<g id="graph0" class="graph" transform="scale(1 1) rotate(0) translate(4 84)">
<title>reactesp::UntimedReaction::add</title>
<!-- Node1 -->
<g id="node1" class="node">
<title>Node1</title>
<g id="a_node1"><a xlink:title=" ">
<polygon fill="#bfbfbf" stroke="black" points="325,-30 325,-49 483,-49 483,-30 325,-30"/>
<text text-anchor="middle" x="404" y="-37" font-family="Helvetica,sans-Serif" font-size="10.00">reactesp::UntimedReaction::add</text>
</a>
</g>
</g>
<!-- Node2 -->
<g id="node2" class="node">
<title>Node2</title>
<g id="a_node2"><a xlink:href="classreactesp_1_1_react_e_s_p.html#a42c88fbcd1f1ab9842517056448de6b5" target="_top" xlink:title="Create a new StreamReaction.">
<polygon fill="none" stroke="black" points="182,-49.5 182,-79.5 289,-79.5 289,-49.5 182,-49.5"/>
<text text-anchor="start" x="190" y="-67.5" font-family="Helvetica,sans-Serif" font-size="10.00">reactesp::ReactESP</text>
<text text-anchor="middle" x="235.5" y="-56.5" font-family="Helvetica,sans-Serif" font-size="10.00">::onAvailable</text>
</a>
</g>
</g>
<!-- Node1&#45;&gt;Node2 -->
<g id="edge1" class="edge">
<title>Node1&#45;&gt;Node2</title>
<path fill="none" stroke="midnightblue" d="M329.33,-50.56C315.8,-52.59 301.94,-54.67 289.18,-56.59"/>
<polygon fill="midnightblue" stroke="midnightblue" points="330.21,-53.97 339.58,-49.02 329.17,-47.05 330.21,-53.97"/>
</g>
<!-- Node5 -->
<g id="node5" class="node">
<title>Node5</title>
<g id="a_node5"><a xlink:href="classreactesp_1_1_react_e_s_p.html#ae442c7e1e8084f46a900646957f1f9c8" target="_top" xlink:title="Create a new TickReaction.">
<polygon fill="none" stroke="black" points="182,-0.5 182,-30.5 289,-30.5 289,-0.5 182,-0.5"/>
<text text-anchor="start" x="190" y="-18.5" font-family="Helvetica,sans-Serif" font-size="10.00">reactesp::ReactESP</text>
<text text-anchor="middle" x="235.5" y="-7.5" font-family="Helvetica,sans-Serif" font-size="10.00">::onTick</text>
</a>
</g>
</g>
<!-- Node1&#45;&gt;Node5 -->
<g id="edge4" class="edge">
<title>Node1&#45;&gt;Node5</title>
<path fill="none" stroke="midnightblue" d="M326.64,-28.49C313.99,-26.67 301.13,-24.82 289.23,-23.1"/>
<polygon fill="midnightblue" stroke="midnightblue" points="326.32,-31.98 336.72,-29.95 327.32,-25.05 326.32,-31.98"/>
</g>
<!-- Node3 -->
<g id="node3" class="node">
<title>Node3</title>
<g id="a_node3"><a xlink:href="main_8cpp.html#aabd20f4bed5cefc2278d071d9dafb01f" target="_top" xlink:title=" ">
<polygon fill="none" stroke="black" points="77,-52 77,-71 146,-71 146,-52 77,-52"/>
<text text-anchor="middle" x="111.5" y="-59" font-family="Helvetica,sans-Serif" font-size="10.00">setup_serial</text>
</a>
</g>
</g>
<!-- Node2&#45;&gt;Node3 -->
<g id="edge2" class="edge">
<title>Node2&#45;&gt;Node3</title>
<path fill="none" stroke="midnightblue" d="M171.42,-62.95C162.65,-62.73 153.94,-62.52 146.02,-62.32"/>
<polygon fill="midnightblue" stroke="midnightblue" points="171.62,-66.45 181.7,-63.2 171.79,-59.46 171.62,-66.45"/>
</g>
<!-- Node4 -->
<g id="node4" class="node">
<title>Node4</title>
<g id="a_node4"><a xlink:href="main_8cpp.html#a4fc01d736fe50cf5b977f755b675f11d" target="_top" xlink:title=" ">
<polygon fill="none" stroke="black" points="0,-30 0,-49 41,-49 41,-30 0,-30"/>
<text text-anchor="middle" x="20.5" y="-37" font-family="Helvetica,sans-Serif" font-size="10.00">setup</text>
</a>
</g>
</g>
<!-- Node3&#45;&gt;Node4 -->
<g id="edge3" class="edge">
<title>Node3&#45;&gt;Node4</title>
<path fill="none" stroke="midnightblue" d="M67.12,-50.78C58.05,-48.54 48.93,-46.28 41.25,-44.38"/>
<polygon fill="midnightblue" stroke="midnightblue" points="66.31,-54.18 76.85,-53.18 67.99,-47.39 66.31,-54.18"/>
</g>
<!-- Node6 -->
<g id="node6" class="node">
<title>Node6</title>
<g id="a_node6"><a xlink:href="main_8cpp.html#a4e12b91752b35a5f3a628424fcd5d73b" target="_top" xlink:title=" ">
<polygon fill="none" stroke="black" points="80.5,-11 80.5,-30 142.5,-30 142.5,-11 80.5,-11"/>
<text text-anchor="middle" x="111.5" y="-18" font-family="Helvetica,sans-Serif" font-size="10.00">setup_tick</text>
</a>
</g>
</g>
<!-- Node5&#45;&gt;Node6 -->
<g id="edge5" class="edge">
<title>Node5&#45;&gt;Node6</title>
<path fill="none" stroke="midnightblue" d="M171.59,-18.08C161.47,-18.49 151.42,-18.91 142.55,-19.27"/>
<polygon fill="midnightblue" stroke="midnightblue" points="171.85,-21.57 181.7,-17.66 171.56,-14.58 171.85,-21.57"/>
</g>
<!-- Node6&#45;&gt;Node4 -->
<g id="edge6" class="edge">
<title>Node6&#45;&gt;Node4</title>
<path fill="none" stroke="midnightblue" d="M70.43,-29.06C60.3,-31.22 49.87,-33.44 41.25,-35.28"/>
<polygon fill="midnightblue" stroke="midnightblue" points="71.32,-32.44 80.37,-26.93 69.86,-25.6 71.32,-32.44"/>
</g>
</g>
</svg>
