<?xml version="1.0" encoding="UTF-8" standalone="no"?>
<!DOCTYPE svg PUBLIC "-//W3C//DTD SVG 1.1//EN"
 "http://www.w3.org/Graphics/SVG/1.1/DTD/svg11.dtd">
<!-- Generated by graphviz version 2.48.0 (20210717.1556)
 -->
<!-- Title: RepeatReaction Pages: 1 -->
<svg width="96pt" height="140pt"
 viewBox="0.00 0.00 96.00 140.00" xmlns="http://www.w3.org/2000/svg" xmlns:xlink="http://www.w3.org/1999/xlink">
<g id="graph0" class="graph" transform="scale(1 1) rotate(0) translate(4 136)">
<title>RepeatReaction</title>
<!-- Node1 -->
<g id="node1" class="node">
<title>Node1</title>
<g id="a_node1"><a xlink:title="Reaction that is triggered repeatedly.">
<polygon fill="#bfbfbf" stroke="black" points="0,-0.5 0,-19.5 88,-19.5 88,-0.5 0,-0.5"/>
<text text-anchor="middle" x="44" y="-7.5" font-family="Helvetica,sans-Serif" font-size="10.00">RepeatReaction</text>
</a>
</g>
</g>
<!-- Node2 -->
<g id="node2" class="node">
<title>Node2</title>
<g id="a_node2"><a xlink:href="class_timed_reaction.html" target="_top" xlink:title="TimedReactions are called based on elapsing of time.">
<polygon fill="none" stroke="black" points="2.5,-56.5 2.5,-75.5 85.5,-75.5 85.5,-56.5 2.5,-56.5"/>
<text text-anchor="middle" x="44" y="-63.5" font-family="Helvetica,sans-Serif" font-size="10.00">TimedReaction</text>
</a>
</g>
</g>
<!-- Node2&#45;&gt;Node1 -->
<g id="edge1" class="edge">
<title>Node2&#45;&gt;Node1</title>
<path fill="none" stroke="midnightblue" d="M44,-45.8C44,-36.91 44,-26.78 44,-19.75"/>
<polygon fill="midnightblue" stroke="midnightblue" points="40.5,-46.08 44,-56.08 47.5,-46.08 40.5,-46.08"/>
</g>
<!-- Node3 -->
<g id="node3" class="node">
<title>Node3</title>
<g id="a_node3"><a xlink:href="class_reaction.html" target="_top" xlink:title="Reactions are code to be called when a given condition is fulfilled.">
<polygon fill="none" stroke="black" points="16,-112.5 16,-131.5 72,-131.5 72,-112.5 16,-112.5"/>
<text text-anchor="middle" x="44" y="-119.5" font-family="Helvetica,sans-Serif" font-size="10.00">Reaction</text>
</a>
</g>
</g>
<!-- Node3&#45;&gt;Node2 -->
<g id="edge2" class="edge">
<title>Node3&#45;&gt;Node2</title>
<path fill="none" stroke="midnightblue" d="M44,-101.8C44,-92.91 44,-82.78 44,-75.75"/>
<polygon fill="midnightblue" stroke="midnightblue" points="40.5,-102.08 44,-112.08 47.5,-102.08 40.5,-102.08"/>
</g>
</g>
</svg>
