<?xml version="1.0" encoding="UTF-8" standalone="no"?>
<!DOCTYPE svg PUBLIC "-//W3C//DTD SVG 1.1//EN"
 "http://www.w3.org/Graphics/SVG/1.1/DTD/svg11.dtd">
<!-- Generated by graphviz version 2.50.0 (20211204.2007)
 -->
<!-- Title: reactesp::TimedReaction::add Pages: 1 -->
<svg width="489pt" height="186pt"
 viewBox="0.00 0.00 489.00 186.00" xmlns="http://www.w3.org/2000/svg" xmlns:xlink="http://www.w3.org/1999/xlink">
<g id="graph0" class="graph" transform="scale(1 1) rotate(0) translate(4 182)">
<title>reactesp::TimedReaction::add</title>
<!-- Node1 -->
<g id="node1" class="node">
<title>Node1</title>
<g id="a_node1"><a xlink:title=" ">
<polygon fill="#bfbfbf" stroke="black" points="333,-79 333,-98 481,-98 481,-79 333,-79"/>
<text text-anchor="middle" x="407" y="-86" font-family="Helvetica,sans-Serif" font-size="10.00">reactesp::TimedReaction::add</text>
</a>
</g>
</g>
<!-- Node2 -->
<g id="node2" class="node">
<title>Node2</title>
<g id="a_node2"><a xlink:href="classreactesp_1_1_react_e_s_p.html#a5b25d026d1f26fb80b2c6659f3875fd8" target="_top" xlink:title="Create a new DelayReaction.">
<polygon fill="none" stroke="black" points="190,-147.5 190,-177.5 297,-177.5 297,-147.5 190,-147.5"/>
<text text-anchor="start" x="198" y="-165.5" font-family="Helvetica,sans-Serif" font-size="10.00">reactesp::ReactESP</text>
<text text-anchor="middle" x="243.5" y="-154.5" font-family="Helvetica,sans-Serif" font-size="10.00">::onDelay</text>
</a>
</g>
</g>
<!-- Node1&#45;&gt;Node2 -->
<g id="edge1" class="edge">
<title>Node1&#45;&gt;Node2</title>
<path fill="none" stroke="midnightblue" d="M375.99,-102.28C354.1,-112.33 323.71,-126.27 297,-138.5 290.71,-141.38 284,-144.45 277.55,-147.4"/>
<polygon fill="midnightblue" stroke="midnightblue" points="377.48,-105.45 385.11,-98.09 374.56,-99.08 377.48,-105.45"/>
</g>
<!-- Node5 -->
<g id="node5" class="node">
<title>Node5</title>
<g id="a_node5"><a xlink:href="classreactesp_1_1_react_e_s_p.html#a4f51c39bd90492f6184872f6d91f14dd" target="_top" xlink:title="Create a new DelayReaction.">
<polygon fill="none" stroke="black" points="190,-98.5 190,-128.5 297,-128.5 297,-98.5 190,-98.5"/>
<text text-anchor="start" x="198" y="-116.5" font-family="Helvetica,sans-Serif" font-size="10.00">reactesp::ReactESP</text>
<text text-anchor="middle" x="243.5" y="-105.5" font-family="Helvetica,sans-Serif" font-size="10.00">::onDelayMicros</text>
</a>
</g>
</g>
<!-- Node1&#45;&gt;Node5 -->
<g id="edge4" class="edge">
<title>Node1&#45;&gt;Node5</title>
<path fill="none" stroke="midnightblue" d="M334.5,-99.57C321.94,-101.51 309.08,-103.5 297.15,-105.35"/>
<polygon fill="midnightblue" stroke="midnightblue" points="335.14,-103.01 344.48,-98.02 334.07,-96.09 335.14,-103.01"/>
</g>
<!-- Node6 -->
<g id="node6" class="node">
<title>Node6</title>
<g id="a_node6"><a xlink:href="classreactesp_1_1_react_e_s_p.html#a914de417d6b11c6111df8bba25d5ed75" target="_top" xlink:title="Create a new RepeatReaction.">
<polygon fill="none" stroke="black" points="190,-49.5 190,-79.5 297,-79.5 297,-49.5 190,-49.5"/>
<text text-anchor="start" x="198" y="-67.5" font-family="Helvetica,sans-Serif" font-size="10.00">reactesp::ReactESP</text>
<text text-anchor="middle" x="243.5" y="-56.5" font-family="Helvetica,sans-Serif" font-size="10.00">::onRepeat</text>
</a>
</g>
</g>
<!-- Node1&#45;&gt;Node6 -->
<g id="edge5" class="edge">
<title>Node1&#45;&gt;Node6</title>
<path fill="none" stroke="midnightblue" d="M331.57,-77.44C319.95,-75.71 308.16,-73.96 297.16,-72.33"/>
<polygon fill="midnightblue" stroke="midnightblue" points="331.3,-80.94 341.71,-78.95 332.33,-74.01 331.3,-80.94"/>
</g>
<!-- Node10 -->
<g id="node10" class="node">
<title>Node10</title>
<g id="a_node10"><a xlink:href="classreactesp_1_1_react_e_s_p.html#ad15637cf3778be71a156845bd069506a" target="_top" xlink:title="Create a new RepeatReaction.">
<polygon fill="none" stroke="black" points="190,-0.5 190,-30.5 297,-30.5 297,-0.5 190,-0.5"/>
<text text-anchor="start" x="198" y="-18.5" font-family="Helvetica,sans-Serif" font-size="10.00">reactesp::ReactESP</text>
<text text-anchor="middle" x="243.5" y="-7.5" font-family="Helvetica,sans-Serif" font-size="10.00">::onRepeatMicros</text>
</a>
</g>
</g>
<!-- Node1&#45;&gt;Node10 -->
<g id="edge12" class="edge">
<title>Node1&#45;&gt;Node10</title>
<path fill="none" stroke="midnightblue" d="M375.65,-74.78C347.83,-62.21 306.74,-43.63 277.98,-30.63"/>
<polygon fill="midnightblue" stroke="midnightblue" points="374.33,-78.03 384.89,-78.96 377.22,-71.65 374.33,-78.03"/>
</g>
<!-- Node3 -->
<g id="node3" class="node">
<title>Node3</title>
<g id="a_node3"><a xlink:href="main_8cpp.html#aabd20f4bed5cefc2278d071d9dafb01f" target="_top" xlink:title=" ">
<polygon fill="none" stroke="black" points="81,-147 81,-166 150,-166 150,-147 81,-147"/>
<text text-anchor="middle" x="115.5" y="-154" font-family="Helvetica,sans-Serif" font-size="10.00">setup_serial</text>
</a>
</g>
</g>
<!-- Node2&#45;&gt;Node3 -->
<g id="edge2" class="edge">
<title>Node2&#45;&gt;Node3</title>
<path fill="none" stroke="midnightblue" d="M179.7,-159.51C169.56,-159.03 159.42,-158.54 150.32,-158.11"/>
<polygon fill="midnightblue" stroke="midnightblue" points="179.64,-163.01 189.79,-159.99 179.97,-156.02 179.64,-163.01"/>
</g>
<!-- Node4 -->
<g id="node4" class="node">
<title>Node4</title>
<g id="a_node4"><a xlink:href="main_8cpp.html#a4fc01d736fe50cf5b977f755b675f11d" target="_top" xlink:title=" ">
<polygon fill="none" stroke="black" points="0,-85 0,-104 41,-104 41,-85 0,-85"/>
<text text-anchor="middle" x="20.5" y="-92" font-family="Helvetica,sans-Serif" font-size="10.00">setup</text>
</a>
</g>
</g>
<!-- Node3&#45;&gt;Node4 -->
<g id="edge3" class="edge">
<title>Node3&#45;&gt;Node4</title>
<path fill="none" stroke="midnightblue" d="M90.67,-141.41C86.12,-138.48 81.4,-135.41 77,-132.5 62.78,-123.09 46.73,-112.05 35.56,-104.31"/>
<polygon fill="midnightblue" stroke="midnightblue" points="88.79,-144.36 99.1,-146.8 92.56,-138.46 88.79,-144.36"/>
</g>
<!-- Node7 -->
<g id="node7" class="node">
<title>Node7</title>
<g id="a_node7"><a xlink:href="main_8cpp.html#ab9032828806331e4ee839f4dde7611f2" target="_top" xlink:title=" ">
<polygon fill="none" stroke="black" points="78,-104 78,-123 153,-123 153,-104 78,-104"/>
<text text-anchor="middle" x="115.5" y="-111" font-family="Helvetica,sans-Serif" font-size="10.00">execute_task</text>
</a>
</g>
</g>
<!-- Node6&#45;&gt;Node7 -->
<g id="edge6" class="edge">
<title>Node6&#45;&gt;Node7</title>
<path fill="none" stroke="midnightblue" d="M193.86,-83.42C175.82,-90.43 156.13,-98.09 141.12,-103.92"/>
<polygon fill="midnightblue" stroke="midnightblue" points="195.62,-86.49 203.67,-79.6 193.08,-79.96 195.62,-86.49"/>
</g>
<!-- Node8 -->
<g id="node8" class="node">
<title>Node8</title>
<g id="a_node8"><a xlink:href="main_8cpp.html#aa41a4d8986ed6c03bd6ad416ba134a4e" target="_top" xlink:title=" ">
<polygon fill="none" stroke="black" points="77,-66 77,-85 154,-85 154,-66 77,-66"/>
<text text-anchor="middle" x="115.5" y="-73" font-family="Helvetica,sans-Serif" font-size="10.00">setup_io_pins</text>
</a>
</g>
</g>
<!-- Node6&#45;&gt;Node8 -->
<g id="edge8" class="edge">
<title>Node6&#45;&gt;Node8</title>
<path fill="none" stroke="midnightblue" d="M179.59,-69.99C170.85,-70.75 162.12,-71.52 154.05,-72.22"/>
<polygon fill="midnightblue" stroke="midnightblue" points="180.14,-73.46 189.79,-69.1 179.53,-66.48 180.14,-73.46"/>
</g>
<!-- Node9 -->
<g id="node9" class="node">
<title>Node9</title>
<g id="a_node9"><a xlink:href="main_8cpp.html#a8b0ce963bacb63827eb79b51bc74a551" target="_top" xlink:title=" ">
<polygon fill="none" stroke="black" points="79,-28 79,-47 152,-47 152,-28 79,-28"/>
<text text-anchor="middle" x="115.5" y="-35" font-family="Helvetica,sans-Serif" font-size="10.00">setup_timers</text>
</a>
</g>
</g>
<!-- Node6&#45;&gt;Node9 -->
<g id="edge10" class="edge">
<title>Node6&#45;&gt;Node9</title>
<path fill="none" stroke="midnightblue" d="M179.91,-51.09C170.39,-49.05 160.85,-47 152.17,-45.14"/>
<polygon fill="midnightblue" stroke="midnightblue" points="179.28,-54.53 189.79,-53.21 180.75,-47.69 179.28,-54.53"/>
</g>
<!-- Node7&#45;&gt;Node4 -->
<g id="edge7" class="edge">
<title>Node7&#45;&gt;Node4</title>
<path fill="none" stroke="midnightblue" d="M67.65,-103.93C58.3,-102.02 48.96,-100.11 41.16,-98.52"/>
<polygon fill="midnightblue" stroke="midnightblue" points="67.25,-107.42 77.74,-105.99 68.65,-100.56 67.25,-107.42"/>
</g>
<!-- Node8&#45;&gt;Node4 -->
<g id="edge9" class="edge">
<title>Node8&#45;&gt;Node4</title>
<path fill="none" stroke="midnightblue" d="M67.02,-85.2C57.84,-87.08 48.71,-88.94 41.06,-90.5"/>
<polygon fill="midnightblue" stroke="midnightblue" points="67.84,-88.6 76.94,-83.17 66.44,-81.75 67.84,-88.6"/>
</g>
<!-- Node9&#45;&gt;Node4 -->
<g id="edge11" class="edge">
<title>Node9&#45;&gt;Node4</title>
<path fill="none" stroke="midnightblue" d="M85.35,-51.79C82.5,-53.33 79.68,-54.91 77,-56.5 61.93,-65.43 45.46,-76.94 34.41,-84.94"/>
<polygon fill="midnightblue" stroke="midnightblue" points="87.14,-54.81 94.39,-47.08 83.9,-48.6 87.14,-54.81"/>
</g>
</g>
</svg>
