<?xml version="1.0" encoding="UTF-8" standalone="no"?>
<!DOCTYPE svg PUBLIC "-//W3C//DTD SVG 1.1//EN"
 "http://www.w3.org/Graphics/SVG/1.1/DTD/svg11.dtd">
<!-- Generated by graphviz version 2.50.0 (20211204.2007)
 -->
<!-- Title: reactesp::ReactESP::onRepeat Pages: 1 -->
<svg width="305pt" height="104pt"
 viewBox="0.00 0.00 305.00 104.00" xmlns="http://www.w3.org/2000/svg" xmlns:xlink="http://www.w3.org/1999/xlink">
<g id="graph0" class="graph" transform="scale(1 1) rotate(0) translate(4 100)">
<title>reactesp::ReactESP::onRepeat</title>
<!-- Node1 -->
<g id="node1" class="node">
<title>Node1</title>
<g id="a_node1"><a xlink:title="Create a new RepeatReaction.">
<polygon fill="#bfbfbf" stroke="black" points="190,-33 190,-63 297,-63 297,-33 190,-33"/>
<text text-anchor="start" x="198" y="-51" font-family="Helvetica,sans-Serif" font-size="10.00">reactesp::ReactESP</text>
<text text-anchor="middle" x="243.5" y="-40" font-family="Helvetica,sans-Serif" font-size="10.00">::onRepeat</text>
</a>
</g>
</g>
<!-- Node2 -->
<g id="node2" class="node">
<title>Node2</title>
<g id="a_node2"><a xlink:href="main_8cpp.html#ab9032828806331e4ee839f4dde7611f2" target="_top" xlink:title=" ">
<polygon fill="none" stroke="black" points="78,-76.5 78,-95.5 153,-95.5 153,-76.5 78,-76.5"/>
<text text-anchor="middle" x="115.5" y="-83.5" font-family="Helvetica,sans-Serif" font-size="10.00">execute_task</text>
</a>
</g>
</g>
<!-- Node1&#45;&gt;Node2 -->
<g id="edge1" class="edge">
<title>Node1&#45;&gt;Node2</title>
<path fill="none" stroke="midnightblue" d="M183.11,-65.91C171.05,-69.55 158.82,-73.24 148.19,-76.44"/>
<polygon fill="midnightblue" stroke="midnightblue" points="184.14,-69.26 192.7,-63.02 182.12,-62.56 184.14,-69.26"/>
</g>
<!-- Node4 -->
<g id="node4" class="node">
<title>Node4</title>
<g id="a_node4"><a xlink:href="main_8cpp.html#aa41a4d8986ed6c03bd6ad416ba134a4e" target="_top" xlink:title=" ">
<polygon fill="none" stroke="black" points="77,-38.5 77,-57.5 154,-57.5 154,-38.5 77,-38.5"/>
<text text-anchor="middle" x="115.5" y="-45.5" font-family="Helvetica,sans-Serif" font-size="10.00">setup_io_pins</text>
</a>
</g>
</g>
<!-- Node1&#45;&gt;Node4 -->
<g id="edge3" class="edge">
<title>Node1&#45;&gt;Node4</title>
<path fill="none" stroke="midnightblue" d="M179.59,-48C170.85,-48 162.12,-48 154.05,-48"/>
<polygon fill="midnightblue" stroke="midnightblue" points="179.79,-51.5 189.79,-48 179.79,-44.5 179.79,-51.5"/>
</g>
<!-- Node5 -->
<g id="node5" class="node">
<title>Node5</title>
<g id="a_node5"><a xlink:href="main_8cpp.html#a8b0ce963bacb63827eb79b51bc74a551" target="_top" xlink:title=" ">
<polygon fill="none" stroke="black" points="79,-0.5 79,-19.5 152,-19.5 152,-0.5 79,-0.5"/>
<text text-anchor="middle" x="115.5" y="-7.5" font-family="Helvetica,sans-Serif" font-size="10.00">setup_timers</text>
</a>
</g>
</g>
<!-- Node1&#45;&gt;Node5 -->
<g id="edge5" class="edge">
<title>Node1&#45;&gt;Node5</title>
<path fill="none" stroke="midnightblue" d="M183.11,-30.09C171.05,-26.45 158.82,-22.76 148.19,-19.56"/>
<polygon fill="midnightblue" stroke="midnightblue" points="182.12,-33.44 192.7,-32.98 184.14,-26.74 182.12,-33.44"/>
</g>
<!-- Node3 -->
<g id="node3" class="node">
<title>Node3</title>
<g id="a_node3"><a xlink:href="main_8cpp.html#a4fc01d736fe50cf5b977f755b675f11d" target="_top" xlink:title=" ">
<polygon fill="none" stroke="black" points="0,-38.5 0,-57.5 41,-57.5 41,-38.5 0,-38.5"/>
<text text-anchor="middle" x="20.5" y="-45.5" font-family="Helvetica,sans-Serif" font-size="10.00">setup</text>
</a>
</g>
</g>
<!-- Node2&#45;&gt;Node3 -->
<g id="edge2" class="edge">
<title>Node2&#45;&gt;Node3</title>
<path fill="none" stroke="midnightblue" d="M81.57,-72.55C68.08,-67.03 52.91,-60.83 41.19,-56.04"/>
<polygon fill="midnightblue" stroke="midnightblue" points="80.45,-75.87 91.03,-76.41 83.1,-69.39 80.45,-75.87"/>
</g>
<!-- Node4&#45;&gt;Node3 -->
<g id="edge4" class="edge">
<title>Node4&#45;&gt;Node3</title>
<path fill="none" stroke="midnightblue" d="M66.73,-48C57.65,-48 48.63,-48 41.06,-48"/>
<polygon fill="midnightblue" stroke="midnightblue" points="66.94,-51.5 76.94,-48 66.94,-44.5 66.94,-51.5"/>
</g>
<!-- Node5&#45;&gt;Node3 -->
<g id="edge6" class="edge">
<title>Node5&#45;&gt;Node3</title>
<path fill="none" stroke="midnightblue" d="M81.57,-23.45C68.08,-28.97 52.91,-35.17 41.19,-39.96"/>
<polygon fill="midnightblue" stroke="midnightblue" points="83.1,-26.61 91.03,-19.59 80.45,-20.13 83.1,-26.61"/>
</g>
</g>
</svg>
