<?xml version="1.0" encoding="UTF-8" standalone="no"?>
<!DOCTYPE svg PUBLIC "-//W3C//DTD SVG 1.1//EN"
 "http://www.w3.org/Graphics/SVG/1.1/DTD/svg11.dtd">
<!-- Generated by graphviz version 2.50.0 (20211204.2007)
 -->
<!-- Title: reactesp::RepeatReaction Pages: 1 -->
<svg width="269pt" height="152pt"
 viewBox="0.00 0.00 269.00 152.00" xmlns="http://www.w3.org/2000/svg" xmlns:xlink="http://www.w3.org/1999/xlink">
<g id="graph0" class="graph" transform="scale(1 1) rotate(0) translate(4 148)">
<title>reactesp::RepeatReaction</title>
<!-- Node1 -->
<g id="node1" class="node">
<title>Node1</title>
<g id="a_node1"><a xlink:title="Reaction that is triggered repeatedly.">
<polygon fill="#bfbfbf" stroke="black" points="22,-0.5 22,-19.5 153,-19.5 153,-0.5 22,-0.5"/>
<text text-anchor="middle" x="87.5" y="-7.5" font-family="Helvetica,sans-Serif" font-size="10.00">reactesp::RepeatReaction</text>
</a>
</g>
</g>
<!-- Node2 -->
<g id="node2" class="node">
<title>Node2</title>
<g id="a_node2"><a xlink:href="classreactesp_1_1_timed_reaction.html" target="_top" xlink:title="TimedReactions are called based on elapsing of time.">
<polygon fill="none" stroke="black" points="24.5,-57.5 24.5,-76.5 150.5,-76.5 150.5,-57.5 24.5,-57.5"/>
<text text-anchor="middle" x="87.5" y="-64.5" font-family="Helvetica,sans-Serif" font-size="10.00">reactesp::TimedReaction</text>
</a>
</g>
</g>
<!-- Node2&#45;&gt;Node1 -->
<g id="edge1" class="edge">
<title>Node2&#45;&gt;Node1</title>
<path fill="none" stroke="midnightblue" d="M87.5,-47.12C87.5,-37.82 87.5,-27.06 87.5,-19.71"/>
<polygon fill="midnightblue" stroke="midnightblue" points="84,-47.41 87.5,-57.41 91,-47.41 84,-47.41"/>
</g>
<!-- Node3 -->
<g id="node3" class="node">
<title>Node3</title>
<g id="a_node3"><a xlink:href="classreactesp_1_1_reaction.html" target="_top" xlink:title="Reactions are code to be called when a given condition is fulfilled.">
<polygon fill="none" stroke="black" points="0,-124.5 0,-143.5 99,-143.5 99,-124.5 0,-124.5"/>
<text text-anchor="middle" x="49.5" y="-131.5" font-family="Helvetica,sans-Serif" font-size="10.00">reactesp::Reaction</text>
</a>
</g>
</g>
<!-- Node3&#45;&gt;Node2 -->
<g id="edge2" class="edge">
<title>Node3&#45;&gt;Node2</title>
<path fill="none" stroke="midnightblue" d="M59.71,-115.53C67.07,-102.95 76.68,-86.51 82.46,-76.63"/>
<polygon fill="midnightblue" stroke="midnightblue" points="56.65,-113.83 54.62,-124.23 62.69,-117.37 56.65,-113.83"/>
</g>
<!-- Node4 -->
<g id="node4" class="node">
<title>Node4</title>
<g id="a_node4"><a xlink:href="classreactesp_1_1_react_e_s_p.html" target="_top" xlink:title="Main class of a ReactESP program.">
<polygon fill="none" stroke="black" points="117,-124.5 117,-143.5 224,-143.5 224,-124.5 117,-124.5"/>
<text text-anchor="middle" x="170.5" y="-131.5" font-family="Helvetica,sans-Serif" font-size="10.00">reactesp::ReactESP</text>
</a>
</g>
</g>
<!-- Node4&#45;&gt;Node2 -->
<g id="edge3" class="edge">
<title>Node4&#45;&gt;Node2</title>
<path fill="none" stroke="#9a32cd" stroke-dasharray="5,2" d="M151.43,-118.07C135.05,-105.24 112,-87.19 98.52,-76.63"/>
<polygon fill="#9a32cd" stroke="#9a32cd" points="149.28,-120.82 159.31,-124.23 153.59,-115.31 149.28,-120.82"/>
<text text-anchor="middle" x="162" y="-98" font-family="Helvetica,sans-Serif" font-size="10.00"> app_context</text>
</g>
<!-- Node4&#45;&gt;Node4 -->
<g id="edge4" class="edge">
<title>Node4&#45;&gt;Node4</title>
<path fill="none" stroke="#9a32cd" stroke-dasharray="5,2" d="M234.38,-138.46C239.1,-137.46 242,-135.97 242,-134 242,-130.84 234.58,-128.93 224.13,-128.27"/>
<polygon fill="#9a32cd" stroke="#9a32cd" points="233.62,-135.03 224.13,-139.73 234.49,-141.97 233.62,-135.03"/>
<text text-anchor="middle" x="251.5" y="-131.5" font-family="Helvetica,sans-Serif" font-size="10.00"> app</text>
</g>
</g>
</svg>
