<?xml version="1.0" encoding="UTF-8" standalone="no"?>
<!DOCTYPE svg PUBLIC "-//W3C//DTD SVG 1.1//EN"
 "http://www.w3.org/Graphics/SVG/1.1/DTD/svg11.dtd">
<!-- Generated by graphviz version 2.50.0 (20211204.2007)
 -->
<!-- Title: reactesp::Reaction Pages: 1 -->
<svg width="446pt" height="142pt"
 viewBox="0.00 0.00 446.00 142.00" xmlns="http://www.w3.org/2000/svg" xmlns:xlink="http://www.w3.org/1999/xlink">
<g id="graph0" class="graph" transform="scale(1 1) rotate(0) translate(4 138)">
<title>reactesp::Reaction</title>
<!-- Node1 -->
<g id="node1" class="node">
<title>Node1</title>
<g id="a_node1"><a xlink:title="Reactions are code to be called when a given condition is fulfilled.">
<polygon fill="#bfbfbf" stroke="black" points="0,-76.5 0,-95.5 99,-95.5 99,-76.5 0,-76.5"/>
<text text-anchor="middle" x="49.5" y="-83.5" font-family="Helvetica,sans-Serif" font-size="10.00">reactesp::Reaction</text>
</a>
</g>
</g>
<!-- Node2 -->
<g id="node2" class="node">
<title>Node2</title>
<g id="a_node2"><a xlink:href="classreactesp_1_1_i_s_r_reaction.html" target="_top" xlink:title="Reaction that is triggered on an input pin change.">
<polygon fill="none" stroke="black" points="145,-114.5 145,-133.5 261,-133.5 261,-114.5 145,-114.5"/>
<text text-anchor="middle" x="203" y="-121.5" font-family="Helvetica,sans-Serif" font-size="10.00">reactesp::ISRReaction</text>
</a>
</g>
</g>
<!-- Node1&#45;&gt;Node2 -->
<g id="edge1" class="edge">
<title>Node1&#45;&gt;Node2</title>
<path fill="none" stroke="midnightblue" d="M98.5,-98.04C119.67,-103.35 144.19,-109.5 164.05,-114.48"/>
<polygon fill="midnightblue" stroke="midnightblue" points="99.28,-94.63 88.73,-95.59 97.58,-101.42 99.28,-94.63"/>
</g>
<!-- Node3 -->
<g id="node3" class="node">
<title>Node3</title>
<g id="a_node3"><a xlink:href="classreactesp_1_1_timed_reaction.html" target="_top" xlink:title="TimedReactions are called based on elapsing of time.">
<polygon fill="none" stroke="black" points="140,-76.5 140,-95.5 266,-95.5 266,-76.5 140,-76.5"/>
<text text-anchor="middle" x="203" y="-83.5" font-family="Helvetica,sans-Serif" font-size="10.00">reactesp::TimedReaction</text>
</a>
</g>
</g>
<!-- Node1&#45;&gt;Node3 -->
<g id="edge2" class="edge">
<title>Node1&#45;&gt;Node3</title>
<path fill="none" stroke="midnightblue" d="M109.45,-86C119.38,-86 129.72,-86 139.74,-86"/>
<polygon fill="midnightblue" stroke="midnightblue" points="109.27,-82.5 99.27,-86 109.27,-89.5 109.27,-82.5"/>
</g>
<!-- Node6 -->
<g id="node6" class="node">
<title>Node6</title>
<g id="a_node6"><a xlink:href="classreactesp_1_1_untimed_reaction.html" target="_top" xlink:title="Reactions that are triggered based on something else than time.">
<polygon fill="none" stroke="black" points="135,-38.5 135,-57.5 271,-57.5 271,-38.5 135,-38.5"/>
<text text-anchor="middle" x="203" y="-45.5" font-family="Helvetica,sans-Serif" font-size="10.00">reactesp::UntimedReaction</text>
</a>
</g>
</g>
<!-- Node1&#45;&gt;Node6 -->
<g id="edge5" class="edge">
<title>Node1&#45;&gt;Node6</title>
<path fill="none" stroke="midnightblue" d="M98.5,-73.96C119.67,-68.65 144.19,-62.5 164.05,-57.52"/>
<polygon fill="midnightblue" stroke="midnightblue" points="97.58,-70.58 88.73,-76.41 99.28,-77.37 97.58,-70.58"/>
</g>
<!-- Node4 -->
<g id="node4" class="node">
<title>Node4</title>
<g id="a_node4"><a xlink:href="classreactesp_1_1_delay_reaction.html" target="_top" xlink:title="Reaction that is triggered after a certain time delay.">
<polygon fill="none" stroke="black" points="310,-114.5 310,-133.5 435,-133.5 435,-114.5 310,-114.5"/>
<text text-anchor="middle" x="372.5" y="-121.5" font-family="Helvetica,sans-Serif" font-size="10.00">reactesp::DelayReaction</text>
</a>
</g>
</g>
<!-- Node3&#45;&gt;Node4 -->
<g id="edge3" class="edge">
<title>Node3&#45;&gt;Node4</title>
<path fill="none" stroke="midnightblue" d="M256.12,-97.82C279.73,-103.18 307.28,-109.43 329.54,-114.48"/>
<polygon fill="midnightblue" stroke="midnightblue" points="256.79,-94.39 246.27,-95.59 255.25,-101.21 256.79,-94.39"/>
</g>
<!-- Node5 -->
<g id="node5" class="node">
<title>Node5</title>
<g id="a_node5"><a xlink:href="classreactesp_1_1_repeat_reaction.html" target="_top" xlink:title="Reaction that is triggered repeatedly.">
<polygon fill="none" stroke="black" points="307,-76.5 307,-95.5 438,-95.5 438,-76.5 307,-76.5"/>
<text text-anchor="middle" x="372.5" y="-83.5" font-family="Helvetica,sans-Serif" font-size="10.00">reactesp::RepeatReaction</text>
</a>
</g>
</g>
<!-- Node3&#45;&gt;Node5 -->
<g id="edge4" class="edge">
<title>Node3&#45;&gt;Node5</title>
<path fill="none" stroke="midnightblue" d="M276.4,-86C286.52,-86 296.87,-86 306.84,-86"/>
<polygon fill="midnightblue" stroke="midnightblue" points="276.37,-82.5 266.37,-86 276.37,-89.5 276.37,-82.5"/>
</g>
<!-- Node7 -->
<g id="node7" class="node">
<title>Node7</title>
<g id="a_node7"><a xlink:href="classreactesp_1_1_stream_reaction.html" target="_top" xlink:title="Reaction that is triggered when there is input available at the given Arduino Stream.">
<polygon fill="none" stroke="black" points="307,-38.5 307,-57.5 438,-57.5 438,-38.5 307,-38.5"/>
<text text-anchor="middle" x="372.5" y="-45.5" font-family="Helvetica,sans-Serif" font-size="10.00">reactesp::StreamReaction</text>
</a>
</g>
</g>
<!-- Node6&#45;&gt;Node7 -->
<g id="edge6" class="edge">
<title>Node6&#45;&gt;Node7</title>
<path fill="none" stroke="midnightblue" d="M281.44,-48C289.91,-48 298.47,-48 306.77,-48"/>
<polygon fill="midnightblue" stroke="midnightblue" points="281.16,-44.5 271.16,-48 281.16,-51.5 281.16,-44.5"/>
</g>
<!-- Node8 -->
<g id="node8" class="node">
<title>Node8</title>
<g id="a_node8"><a xlink:href="classreactesp_1_1_tick_reaction.html" target="_top" xlink:title="Reaction that is triggered unconditionally at each execution loop.">
<polygon fill="none" stroke="black" points="313.5,-0.5 313.5,-19.5 431.5,-19.5 431.5,-0.5 313.5,-0.5"/>
<text text-anchor="middle" x="372.5" y="-7.5" font-family="Helvetica,sans-Serif" font-size="10.00">reactesp::TickReaction</text>
</a>
</g>
</g>
<!-- Node6&#45;&gt;Node8 -->
<g id="edge7" class="edge">
<title>Node6&#45;&gt;Node8</title>
<path fill="none" stroke="midnightblue" d="M256.12,-36.18C279.73,-30.82 307.28,-24.57 329.54,-19.52"/>
<polygon fill="midnightblue" stroke="midnightblue" points="255.25,-32.79 246.27,-38.41 256.79,-39.61 255.25,-32.79"/>
</g>
</g>
</svg>
