<?xml version="1.0" encoding="UTF-8" standalone="no"?>
<!DOCTYPE svg PUBLIC "-//W3C//DTD SVG 1.1//EN"
 "http://www.w3.org/Graphics/SVG/1.1/DTD/svg11.dtd">
<!-- Generated by graphviz version 2.50.0 (20211204.2007)
 -->
<!-- Title: reactesp::ISRReaction::add Pages: 1 -->
<svg width="479pt" height="39pt"
 viewBox="0.00 0.00 479.00 39.00" xmlns="http://www.w3.org/2000/svg" xmlns:xlink="http://www.w3.org/1999/xlink">
<g id="graph0" class="graph" transform="scale(1 1) rotate(0) translate(4 35)">
<title>reactesp::ISRReaction::add</title>
<!-- Node1 -->
<g id="node1" class="node">
<title>Node1</title>
<g id="a_node1"><a xlink:title=" ">
<polygon fill="#bfbfbf" stroke="black" points="333,-6 333,-25 471,-25 471,-6 333,-6"/>
<text text-anchor="middle" x="402" y="-13" font-family="Helvetica,sans-Serif" font-size="10.00">reactesp::ISRReaction::add</text>
</a>
</g>
</g>
<!-- Node2 -->
<g id="node2" class="node">
<title>Node2</title>
<g id="a_node2"><a xlink:href="classreactesp_1_1_react_e_s_p.html#afa5876a2a33275dc7d0ba8214bb51ee7" target="_top" xlink:title="Create a new ISRReaction (interrupt reaction)">
<polygon fill="none" stroke="black" points="190,-0.5 190,-30.5 297,-30.5 297,-0.5 190,-0.5"/>
<text text-anchor="start" x="198" y="-18.5" font-family="Helvetica,sans-Serif" font-size="10.00">reactesp::ReactESP</text>
<text text-anchor="middle" x="243.5" y="-7.5" font-family="Helvetica,sans-Serif" font-size="10.00">::onInterrupt</text>
</a>
</g>
</g>
<!-- Node1&#45;&gt;Node2 -->
<g id="edge1" class="edge">
<title>Node1&#45;&gt;Node2</title>
<path fill="none" stroke="midnightblue" d="M322.75,-15.5C314.17,-15.5 305.58,-15.5 297.4,-15.5"/>
<polygon fill="midnightblue" stroke="midnightblue" points="322.81,-19 332.81,-15.5 322.81,-12 322.81,-19"/>
</g>
<!-- Node3 -->
<g id="node3" class="node">
<title>Node3</title>
<g id="a_node3"><a xlink:href="main_8cpp.html#aa41a4d8986ed6c03bd6ad416ba134a4e" target="_top" xlink:title=" ">
<polygon fill="none" stroke="black" points="77,-6 77,-25 154,-25 154,-6 77,-6"/>
<text text-anchor="middle" x="115.5" y="-13" font-family="Helvetica,sans-Serif" font-size="10.00">setup_io_pins</text>
</a>
</g>
</g>
<!-- Node2&#45;&gt;Node3 -->
<g id="edge2" class="edge">
<title>Node2&#45;&gt;Node3</title>
<path fill="none" stroke="midnightblue" d="M179.59,-15.5C170.85,-15.5 162.12,-15.5 154.05,-15.5"/>
<polygon fill="midnightblue" stroke="midnightblue" points="179.79,-19 189.79,-15.5 179.79,-12 179.79,-19"/>
</g>
<!-- Node4 -->
<g id="node4" class="node">
<title>Node4</title>
<g id="a_node4"><a xlink:href="main_8cpp.html#a4fc01d736fe50cf5b977f755b675f11d" target="_top" xlink:title=" ">
<polygon fill="none" stroke="black" points="0,-6 0,-25 41,-25 41,-6 0,-6"/>
<text text-anchor="middle" x="20.5" y="-13" font-family="Helvetica,sans-Serif" font-size="10.00">setup</text>
</a>
</g>
</g>
<!-- Node3&#45;&gt;Node4 -->
<g id="edge3" class="edge">
<title>Node3&#45;&gt;Node4</title>
<path fill="none" stroke="midnightblue" d="M66.73,-15.5C57.65,-15.5 48.63,-15.5 41.06,-15.5"/>
<polygon fill="midnightblue" stroke="midnightblue" points="66.94,-19 76.94,-15.5 66.94,-12 66.94,-19"/>
</g>
</g>
</svg>
