<?xml version="1.0" encoding="UTF-8" standalone="no"?>
<!DOCTYPE svg PUBLIC "-//W3C//DTD SVG 1.1//EN"
 "http://www.w3.org/Graphics/SVG/1.1/DTD/svg11.dtd">
<!-- Generated by graphviz version 2.49.3 (20211023.0002)
 -->
<!-- Title: reactesp::UntimedReaction Pages: 1 -->
<svg width="276pt" height="140pt"
 viewBox="0.00 0.00 276.00 140.00" xmlns="http://www.w3.org/2000/svg" xmlns:xlink="http://www.w3.org/1999/xlink">
<g id="graph0" class="graph" transform="scale(1 1) rotate(0) translate(4 136)">
<title>reactesp::UntimedReaction</title>
<!-- Node1 -->
<g id="node1" class="node">
<title>Node1</title>
<g id="a_node1"><a xlink:title="Reactions that are triggered based on something else than time.">
<polygon fill="#bfbfbf" stroke="black" points="68.5,-56.5 68.5,-75.5 205.5,-75.5 205.5,-56.5 68.5,-56.5"/>
<text text-anchor="middle" x="137" y="-63.5" font-family="Helvetica,sans-Serif" font-size="10.00">reactesp::UntimedReaction</text>
</a>
</g>
</g>
<!-- Node3 -->
<g id="node3" class="node">
<title>Node3</title>
<g id="a_node3"><a xlink:href="classreactesp_1_1_stream_reaction.html" target="_top" xlink:title="Reaction that is triggered when there is input available at the given Arduino Stream.">
<polygon fill="none" stroke="black" points="0,-0.5 0,-19.5 132,-19.5 132,-0.5 0,-0.5"/>
<text text-anchor="middle" x="66" y="-7.5" font-family="Helvetica,sans-Serif" font-size="10.00">reactesp::StreamReaction</text>
</a>
</g>
</g>
<!-- Node1&#45;&gt;Node3 -->
<g id="edge2" class="edge">
<title>Node1&#45;&gt;Node3</title>
<path fill="none" stroke="midnightblue" d="M117.41,-50.1C104.63,-40.38 88.39,-28.03 77.61,-19.83"/>
<polygon fill="midnightblue" stroke="midnightblue" points="115.51,-53.06 125.59,-56.32 119.75,-47.48 115.51,-53.06"/>
</g>
<!-- Node4 -->
<g id="node4" class="node">
<title>Node4</title>
<g id="a_node4"><a xlink:href="classreactesp_1_1_tick_reaction.html" target="_top" xlink:title="Reaction that is triggered unconditionally at each execution loop.">
<polygon fill="none" stroke="black" points="150,-0.5 150,-19.5 268,-19.5 268,-0.5 150,-0.5"/>
<text text-anchor="middle" x="209" y="-7.5" font-family="Helvetica,sans-Serif" font-size="10.00">reactesp::TickReaction</text>
</a>
</g>
</g>
<!-- Node1&#45;&gt;Node4 -->
<g id="edge3" class="edge">
<title>Node1&#45;&gt;Node4</title>
<path fill="none" stroke="midnightblue" d="M156.87,-50.1C169.82,-40.38 186.3,-28.03 197.22,-19.83"/>
<polygon fill="midnightblue" stroke="midnightblue" points="154.47,-47.52 148.57,-56.32 158.67,-53.12 154.47,-47.52"/>
</g>
<!-- Node2 -->
<g id="node2" class="node">
<title>Node2</title>
<g id="a_node2"><a xlink:href="classreactesp_1_1_reaction.html" target="_top" xlink:title="Reactions are code to be called when a given condition is fulfilled.">
<polygon fill="none" stroke="black" points="87,-112.5 87,-131.5 187,-131.5 187,-112.5 87,-112.5"/>
<text text-anchor="middle" x="137" y="-119.5" font-family="Helvetica,sans-Serif" font-size="10.00">reactesp::Reaction</text>
</a>
</g>
</g>
<!-- Node2&#45;&gt;Node1 -->
<g id="edge1" class="edge">
<title>Node2&#45;&gt;Node1</title>
<path fill="none" stroke="midnightblue" d="M137,-101.8C137,-92.91 137,-82.78 137,-75.75"/>
<polygon fill="midnightblue" stroke="midnightblue" points="133.5,-102.08 137,-112.08 140.5,-102.08 133.5,-102.08"/>
</g>
</g>
</svg>
