<?xml version="1.0" encoding="UTF-8" standalone="no"?>
<!DOCTYPE svg PUBLIC "-//W3C//DTD SVG 1.1//EN"
 "http://www.w3.org/Graphics/SVG/1.1/DTD/svg11.dtd">
<!-- Generated by graphviz version 12.1.2 (20240928.0832)
 -->
<!-- Title: reactesp::TimedEvent Pages: 1 -->
<svg width="254pt" height="193pt"
 viewBox="0.00 0.00 253.50 193.00" xmlns="http://www.w3.org/2000/svg" xmlns:xlink="http://www.w3.org/1999/xlink">

<svg id="main" version="1.1" xmlns="http://www.w3.org/2000/svg" xmlns:xlink="http://www.w3.org/1999/xlink" xml:space="preserve">

<style type="text/css"><![CDATA[
.node, .edge {opacity: 0.7;}
.node.selected, .edge.selected {opacity: 1;}
.edge:hover path { stroke: red; }
.edge:hover polygon { stroke: red; fill: red; }
]]></style>
<script type="application/ecmascript" xlink:href="svg.min.js"/>
<svg id="graph" class="graph">
<g id="graph0" class="graph" transform="scale(1 1) rotate(0) translate(4 189)">
<title>reactesp::TimedEvent</title>
<!-- Node1 -->
<g id="Node000001" class="node">
<title>Node1</title>
<g id="a_Node000001"><a xlink:title="TimedEvents are called based on elapsing of time.">
<polygon fill="#999999" stroke="#666666" points="177.25,-74.5 65.25,-74.5 65.25,-55.25 177.25,-55.25 177.25,-74.5"/>
<text text-anchor="middle" x="121.25" y="-61" font-family="Helvetica,sans-Serif" font-size="10.00">reactesp::TimedEvent</text>
</a>
</g>
</g>
<!-- Node4 -->
<g id="Node000004" class="node">
<title>Node4</title>
<g id="a_Node000004"><a xlink:href="classreactesp_1_1_delay_event.html" target="_top" xlink:title="Event that is triggered after a certain time delay.">
<polygon fill="white" stroke="#666666" points="110.5,-19.25 0,-19.25 0,0 110.5,0 110.5,-19.25"/>
<text text-anchor="middle" x="55.25" y="-5.75" font-family="Helvetica,sans-Serif" font-size="10.00">reactesp::DelayEvent</text>
</a>
</g>
</g>
<!-- Node1&#45;&gt;Node4 -->
<g id="edge3_Node000001_Node000004" class="edge">
<title>Node1&#45;&gt;Node4</title>
<g id="a_edge3_Node000001_Node000004"><a xlink:title=" ">
<path fill="none" stroke="#63b8ff" d="M101.16,-47.66C89.7,-38.42 75.77,-27.18 66.28,-19.52"/>
<polygon fill="#63b8ff" stroke="#63b8ff" points="98.9,-50.34 108.88,-53.89 103.29,-44.89 98.9,-50.34"/>
</a>
</g>
</g>
<!-- Node5 -->
<g id="Node000005" class="node">
<title>Node5</title>
<g id="a_Node000005"><a xlink:href="classreactesp_1_1_repeat_event.html" target="_top" xlink:title="Event that is triggered repeatedly.">
<polygon fill="white" stroke="#666666" points="245.5,-19.25 129,-19.25 129,0 245.5,0 245.5,-19.25"/>
<text text-anchor="middle" x="187.25" y="-5.75" font-family="Helvetica,sans-Serif" font-size="10.00">reactesp::RepeatEvent</text>
</a>
</g>
</g>
<!-- Node1&#45;&gt;Node5 -->
<g id="edge4_Node000001_Node000005" class="edge">
<title>Node1&#45;&gt;Node5</title>
<g id="a_edge4_Node000001_Node000005"><a xlink:title=" ">
<path fill="none" stroke="#63b8ff" d="M141.34,-47.66C152.8,-38.42 166.73,-27.18 176.22,-19.52"/>
<polygon fill="#63b8ff" stroke="#63b8ff" points="139.21,-44.89 133.62,-53.89 143.6,-50.34 139.21,-44.89"/>
</a>
</g>
</g>
<!-- Node2 -->
<g id="Node000002" class="node">
<title>Node2</title>
<g id="a_Node000002"><a xlink:href="classreactesp_1_1_event.html" target="_top" xlink:title="Events are code to be called when a given condition is fulfilled.">
<polygon fill="white" stroke="#666666" points="163.75,-129.75 78.75,-129.75 78.75,-110.5 163.75,-110.5 163.75,-129.75"/>
<text text-anchor="middle" x="121.25" y="-116.25" font-family="Helvetica,sans-Serif" font-size="10.00">reactesp::Event</text>
</a>
</g>
</g>
<!-- Node2&#45;&gt;Node1 -->
<g id="edge1_Node000001_Node000002" class="edge">
<title>Node2&#45;&gt;Node1</title>
<g id="a_edge1_Node000001_Node000002"><a xlink:title=" ">
<path fill="none" stroke="#63b8ff" d="M121.25,-98.88C121.25,-90.59 121.25,-81.42 121.25,-74.86"/>
<polygon fill="#63b8ff" stroke="#63b8ff" points="117.75,-98.82 121.25,-108.82 124.75,-98.82 117.75,-98.82"/>
</a>
</g>
</g>
<!-- Node3 -->
<g id="Node000003" class="node">
<title>Node3</title>
<g id="a_Node000003"><a xlink:href="structreactesp_1_1_event_interface.html" target="_top" xlink:title="EventInterface defines the interface for all events.">
<polygon fill="white" stroke="#666666" points="182.88,-185 59.62,-185 59.62,-165.75 182.88,-165.75 182.88,-185"/>
<text text-anchor="middle" x="121.25" y="-171.5" font-family="Helvetica,sans-Serif" font-size="10.00">reactesp::EventInterface</text>
</a>
</g>
</g>
<!-- Node3&#45;&gt;Node2 -->
<g id="edge2_Node000002_Node000003" class="edge">
<title>Node3&#45;&gt;Node2</title>
<g id="a_edge2_Node000002_Node000003"><a xlink:title=" ">
<path fill="none" stroke="#63b8ff" d="M121.25,-154.13C121.25,-145.84 121.25,-136.67 121.25,-130.11"/>
<polygon fill="#63b8ff" stroke="#63b8ff" points="117.75,-154.07 121.25,-164.07 124.75,-154.07 117.75,-154.07"/>
</a>
</g>
</g>
</g>
</svg>
</svg>

<style type='text/css'>
<![CDATA[
[data-mouse-over-selected='false'] { opacity: 0.7; }
[data-mouse-over-selected='true']  { opacity: 1.0; }
]]>
</style>
<script type="application/ecmascript"><![CDATA[
document.addEventListener('DOMContentLoaded', (event) => {
  highlightEdges();
  highlightAdjacentNodes();
});
]]></script>
</svg>
