<?xml version="1.0" encoding="UTF-8" standalone="no"?>
<!DOCTYPE svg PUBLIC "-//W3C//DTD SVG 1.1//EN"
 "http://www.w3.org/Graphics/SVG/1.1/DTD/svg11.dtd">
<!-- Generated by graphviz version 12.1.0 (20240811.2233)
 -->
<!-- Title: src/events.cpp Pages: 1 -->
<svg width="235pt" height="193pt"
 viewBox="0.00 0.00 235.38 193.00" xmlns="http://www.w3.org/2000/svg" xmlns:xlink="http://www.w3.org/1999/xlink">

<svg id="main" version="1.1" xmlns="http://www.w3.org/2000/svg" xmlns:xlink="http://www.w3.org/1999/xlink" xml:space="preserve">

<style type="text/css"><![CDATA[
.node, .edge {opacity: 0.7;}
.node.selected, .edge.selected {opacity: 1;}
.edge:hover path { stroke: red; }
.edge:hover polygon { stroke: red; fill: red; }
]]></style>
<script type="application/ecmascript" xlink:href="svg.min.js"/>
<svg id="graph" class="graph">
<g id="graph0" class="graph" transform="scale(1 1) rotate(0) translate(4 189)">
<title>src/events.cpp</title>
<!-- Node1 -->
<g id="Node000001" class="node">
<title>Node1</title>
<g id="a_Node000001"><a xlink:title=" ">
<polygon fill="#999999" stroke="#666666" points="126.88,-185 46.38,-185 46.38,-165.75 126.88,-165.75 126.88,-185"/>
<text text-anchor="middle" x="86.62" y="-171.5" font-family="Helvetica,sans-Serif" font-size="10.00">src/events.cpp</text>
</a>
</g>
</g>
<!-- Node2 -->
<g id="Node000002" class="node">
<title>Node2</title>
<g id="a_Node000002"><a xlink:href="events_8h.html" target="_top" xlink:title=" ">
<polygon fill="white" stroke="#666666" points="93.38,-74.5 39.88,-74.5 39.88,-55.25 93.38,-55.25 93.38,-74.5"/>
<text text-anchor="middle" x="66.62" y="-61" font-family="Helvetica,sans-Serif" font-size="10.00">events.h</text>
</a>
</g>
</g>
<!-- Node1&#45;&gt;Node2 -->
<g id="edge1_Node000001_Node000002" class="edge">
<title>Node1&#45;&gt;Node2</title>
<g id="a_edge1_Node000001_Node000002"><a xlink:title=" ">
<path fill="none" stroke="#63b8ff" d="M65.52,-165.28C51.4,-157.94 33.94,-146.13 25.62,-129.75 16.98,-112.72 31.26,-94.5 45.29,-81.9"/>
<polygon fill="#63b8ff" stroke="#63b8ff" points="47.16,-84.89 52.61,-75.8 42.68,-79.51 47.16,-84.89"/>
</a>
</g>
</g>
<!-- Node5 -->
<g id="Node000005" class="node">
<title>Node5</title>
<g id="a_Node000005"><a xlink:title=" ">
<polygon fill="#e0e0e0" stroke="#999999" points="138.12,-129.75 35.12,-129.75 35.12,-110.5 138.12,-110.5 138.12,-129.75"/>
<text text-anchor="middle" x="86.62" y="-116.25" font-family="Helvetica,sans-Serif" font-size="10.00">freeRTOS/semphr.h</text>
</a>
</g>
</g>
<!-- Node1&#45;&gt;Node5 -->
<g id="edge4_Node000001_Node000005" class="edge">
<title>Node1&#45;&gt;Node5</title>
<g id="a_edge4_Node000001_Node000005"><a xlink:title=" ">
<path fill="none" stroke="#63b8ff" d="M86.62,-165.58C86.62,-159.07 86.62,-149.92 86.62,-141.62"/>
<polygon fill="#63b8ff" stroke="#63b8ff" points="90.13,-141.62 86.63,-131.62 83.13,-141.62 90.13,-141.62"/>
</a>
</g>
</g>
<!-- Node6 -->
<g id="Node000006" class="node">
<title>Node6</title>
<g id="a_Node000006"><a xlink:href="event__loop_8h.html" target="_top" xlink:title=" ">
<polygon fill="white" stroke="#666666" points="227.38,-129.75 155.88,-129.75 155.88,-110.5 227.38,-110.5 227.38,-129.75"/>
<text text-anchor="middle" x="191.62" y="-116.25" font-family="Helvetica,sans-Serif" font-size="10.00">event_loop.h</text>
</a>
</g>
</g>
<!-- Node1&#45;&gt;Node6 -->
<g id="edge5_Node000001_Node000006" class="edge">
<title>Node1&#45;&gt;Node6</title>
<g id="a_edge5_Node000001_Node000006"><a xlink:title=" ">
<path fill="none" stroke="#63b8ff" d="M104.44,-165.34C120.65,-157.12 144.86,-144.84 163.66,-135.31"/>
<polygon fill="#63b8ff" stroke="#63b8ff" points="165.04,-138.53 172.38,-130.89 161.87,-132.29 165.04,-138.53"/>
</a>
</g>
</g>
<!-- Node3 -->
<g id="Node000003" class="node">
<title>Node3</title>
<g id="a_Node000003"><a xlink:title=" ">
<polygon fill="#e0e0e0" stroke="#999999" points="57.25,-19.25 0,-19.25 0,0 57.25,0 57.25,-19.25"/>
<text text-anchor="middle" x="28.62" y="-5.75" font-family="Helvetica,sans-Serif" font-size="10.00">Arduino.h</text>
</a>
</g>
</g>
<!-- Node2&#45;&gt;Node3 -->
<g id="edge2_Node000002_Node000003" class="edge">
<title>Node2&#45;&gt;Node3</title>
<g id="a_edge2_Node000002_Node000003"><a xlink:title=" ">
<path fill="none" stroke="#63b8ff" d="M60.35,-55.08C55.27,-47.96 47.93,-37.68 41.59,-28.8"/>
<polygon fill="#63b8ff" stroke="#63b8ff" points="44.57,-26.95 35.92,-20.84 38.88,-31.01 44.57,-26.95"/>
</a>
</g>
</g>
<!-- Node4 -->
<g id="Node000004" class="node">
<title>Node4</title>
<g id="a_Node000004"><a xlink:title=" ">
<polygon fill="#e0e0e0" stroke="#999999" points="133.62,-19.25 75.62,-19.25 75.62,0 133.62,0 133.62,-19.25"/>
<text text-anchor="middle" x="104.62" y="-5.75" font-family="Helvetica,sans-Serif" font-size="10.00">functional</text>
</a>
</g>
</g>
<!-- Node2&#45;&gt;Node4 -->
<g id="edge3_Node000002_Node000004" class="edge">
<title>Node2&#45;&gt;Node4</title>
<g id="a_edge3_Node000002_Node000004"><a xlink:title=" ">
<path fill="none" stroke="#63b8ff" d="M72.9,-55.08C77.98,-47.96 85.32,-37.68 91.66,-28.8"/>
<polygon fill="#63b8ff" stroke="#63b8ff" points="94.37,-31.01 97.33,-20.84 88.68,-26.95 94.37,-31.01"/>
</a>
</g>
</g>
<!-- Node6&#45;&gt;Node2 -->
<g id="edge7_Node000006_Node000002" class="edge">
<title>Node6&#45;&gt;Node2</title>
<g id="a_edge7_Node000006_Node000002"><a xlink:title=" ">
<path fill="none" stroke="#63b8ff" d="M170.42,-110.09C150.67,-101.68 120.95,-89.02 98.37,-79.4"/>
<polygon fill="#63b8ff" stroke="#63b8ff" points="99.9,-76.24 89.33,-75.55 97.15,-82.68 99.9,-76.24"/>
</a>
</g>
</g>
<!-- Node7 -->
<g id="Node000007" class="node">
<title>Node7</title>
<g id="a_Node000007"><a xlink:title=" ">
<polygon fill="#e0e0e0" stroke="#999999" points="212.75,-74.5 170.5,-74.5 170.5,-55.25 212.75,-55.25 212.75,-74.5"/>
<text text-anchor="middle" x="191.62" y="-61" font-family="Helvetica,sans-Serif" font-size="10.00">queue</text>
</a>
</g>
</g>
<!-- Node6&#45;&gt;Node7 -->
<g id="edge6_Node000006_Node000007" class="edge">
<title>Node6&#45;&gt;Node7</title>
<g id="a_edge6_Node000006_Node000007"><a xlink:title=" ">
<path fill="none" stroke="#63b8ff" d="M191.62,-110.33C191.62,-103.82 191.62,-94.67 191.62,-86.37"/>
<polygon fill="#63b8ff" stroke="#63b8ff" points="195.13,-86.37 191.63,-76.37 188.13,-86.37 195.13,-86.37"/>
</a>
</g>
</g>
</g>
</svg>
</svg>

<style type='text/css'>
<![CDATA[
[data-mouse-over-selected='false'] { opacity: 0.7; }
[data-mouse-over-selected='true']  { opacity: 1.0; }
]]>
</style>
<script type="application/ecmascript"><![CDATA[
document.addEventListener('DOMContentLoaded', (event) => {
  highlightEdges();
  highlightAdjacentNodes();
});
]]></script>
</svg>
