<?xml version="1.0" encoding="UTF-8" standalone="no"?>
<!DOCTYPE svg PUBLIC "-//W3C//DTD SVG 1.1//EN"
 "http://www.w3.org/Graphics/SVG/1.1/DTD/svg11.dtd">
<!-- Generated by graphviz version 12.1.2 (20240928.0832)
 -->
<!-- Title: src/events.cpp Pages: 1 -->
<svg width="268pt" height="193pt"
 viewBox="0.00 0.00 268.38 193.00" xmlns="http://www.w3.org/2000/svg" xmlns:xlink="http://www.w3.org/1999/xlink">

<svg id="main" version="1.1" xmlns="http://www.w3.org/2000/svg" xmlns:xlink="http://www.w3.org/1999/xlink" xml:space="preserve">

<style type="text/css"><![CDATA[
.node, .edge {opacity: 0.7;}
.node.selected, .edge.selected {opacity: 1;}
.edge:hover path { stroke: red; }
.edge:hover polygon { stroke: red; fill: red; }
]]></style>
<script type="application/ecmascript" xlink:href="svg.min.js"/>
<svg id="graph" class="graph">
<g id="graph0" class="graph" transform="scale(1 1) rotate(0) translate(4 189)">
<title>src/events.cpp</title>
<!-- Node1 -->
<g id="Node000001" class="node">
<title>Node1</title>
<g id="a_Node000001"><a xlink:title=" ">
<polygon fill="#999999" stroke="#666666" points="164.88,-185 84.38,-185 84.38,-165.75 164.88,-165.75 164.88,-185"/>
<text text-anchor="middle" x="124.62" y="-171.5" font-family="Helvetica,sans-Serif" font-size="10.00">src/events.cpp</text>
</a>
</g>
</g>
<!-- Node2 -->
<g id="Node000002" class="node">
<title>Node2</title>
<g id="a_Node000002"><a xlink:href="events_8h.html" target="_top" xlink:title=" ">
<polygon fill="white" stroke="#666666" points="131.38,-74.5 77.88,-74.5 77.88,-55.25 131.38,-55.25 131.38,-74.5"/>
<text text-anchor="middle" x="104.62" y="-61" font-family="Helvetica,sans-Serif" font-size="10.00">events.h</text>
</a>
</g>
</g>
<!-- Node1&#45;&gt;Node2 -->
<g id="edge1_Node000001_Node000002" class="edge">
<title>Node1&#45;&gt;Node2</title>
<g id="a_edge1_Node000001_Node000002"><a xlink:title=" ">
<path fill="none" stroke="#63b8ff" d="M106.63,-165.4C93.69,-157.86 77.24,-145.74 69.62,-129.75 61.85,-113.43 73.68,-95.41 85.64,-82.68"/>
<polygon fill="#63b8ff" stroke="#63b8ff" points="87.92,-85.35 92.62,-75.86 83.02,-80.35 87.92,-85.35"/>
</a>
</g>
</g>
<!-- Node6 -->
<g id="Node000006" class="node">
<title>Node6</title>
<g id="a_Node000006"><a xlink:title=" ">
<polygon fill="#e0e0e0" stroke="#999999" points="170.5,-129.75 78.75,-129.75 78.75,-110.5 170.5,-110.5 170.5,-129.75"/>
<text text-anchor="middle" x="124.62" y="-116.25" font-family="Helvetica,sans-Serif" font-size="10.00">freertos/semphr.h</text>
</a>
</g>
</g>
<!-- Node1&#45;&gt;Node6 -->
<g id="edge5_Node000001_Node000006" class="edge">
<title>Node1&#45;&gt;Node6</title>
<g id="a_edge5_Node000001_Node000006"><a xlink:title=" ">
<path fill="none" stroke="#63b8ff" d="M124.62,-165.58C124.62,-159.07 124.62,-149.92 124.62,-141.62"/>
<polygon fill="#63b8ff" stroke="#63b8ff" points="128.13,-141.62 124.63,-131.62 121.13,-141.62 128.13,-141.62"/>
</a>
</g>
</g>
<!-- Node7 -->
<g id="Node000007" class="node">
<title>Node7</title>
<g id="a_Node000007"><a xlink:href="event__loop_8h.html" target="_top" xlink:title=" ">
<polygon fill="white" stroke="#666666" points="260.38,-129.75 188.88,-129.75 188.88,-110.5 260.38,-110.5 260.38,-129.75"/>
<text text-anchor="middle" x="224.62" y="-116.25" font-family="Helvetica,sans-Serif" font-size="10.00">event_loop.h</text>
</a>
</g>
</g>
<!-- Node1&#45;&gt;Node7 -->
<g id="edge6_Node000001_Node000007" class="edge">
<title>Node1&#45;&gt;Node7</title>
<g id="a_edge6_Node000001_Node000007"><a xlink:title=" ">
<path fill="none" stroke="#63b8ff" d="M141.59,-165.34C156.89,-157.19 179.66,-145.07 197.49,-135.58"/>
<polygon fill="#63b8ff" stroke="#63b8ff" points="199.06,-138.7 206.24,-130.91 195.77,-132.52 199.06,-138.7"/>
</a>
</g>
</g>
<!-- Node3 -->
<g id="Node000003" class="node">
<title>Node3</title>
<g id="a_Node000003"><a xlink:title=" ">
<polygon fill="#e0e0e0" stroke="#999999" points="57.25,-19.25 0,-19.25 0,0 57.25,0 57.25,-19.25"/>
<text text-anchor="middle" x="28.62" y="-5.75" font-family="Helvetica,sans-Serif" font-size="10.00">Arduino.h</text>
</a>
</g>
</g>
<!-- Node2&#45;&gt;Node3 -->
<g id="edge2_Node000002_Node000003" class="edge">
<title>Node2&#45;&gt;Node3</title>
<g id="a_edge2_Node000002_Node000003"><a xlink:title=" ">
<path fill="none" stroke="#63b8ff" d="M91.73,-54.84C80.6,-47.04 64.25,-35.59 50.99,-26.29"/>
<polygon fill="#63b8ff" stroke="#63b8ff" points="53.02,-23.44 42.82,-20.57 49,-29.18 53.02,-23.44"/>
</a>
</g>
</g>
<!-- Node4 -->
<g id="Node000004" class="node">
<title>Node4</title>
<g id="a_Node000004"><a xlink:title=" ">
<polygon fill="#e0e0e0" stroke="#999999" points="133.62,-19.25 75.62,-19.25 75.62,0 133.62,0 133.62,-19.25"/>
<text text-anchor="middle" x="104.62" y="-5.75" font-family="Helvetica,sans-Serif" font-size="10.00">functional</text>
</a>
</g>
</g>
<!-- Node2&#45;&gt;Node4 -->
<g id="edge3_Node000002_Node000004" class="edge">
<title>Node2&#45;&gt;Node4</title>
<g id="a_edge3_Node000002_Node000004"><a xlink:title=" ">
<path fill="none" stroke="#63b8ff" d="M104.62,-55.08C104.62,-48.57 104.62,-39.42 104.62,-31.12"/>
<polygon fill="#63b8ff" stroke="#63b8ff" points="108.13,-31.12 104.63,-21.12 101.13,-31.12 108.13,-31.12"/>
</a>
</g>
</g>
<!-- Node5 -->
<g id="Node000005" class="node">
<title>Node5</title>
<g id="a_Node000005"><a xlink:title=" ">
<polygon fill="#e0e0e0" stroke="#999999" points="203.25,-19.25 152,-19.25 152,0 203.25,0 203.25,-19.25"/>
<text text-anchor="middle" x="177.62" y="-5.75" font-family="Helvetica,sans-Serif" font-size="10.00">memory</text>
</a>
</g>
</g>
<!-- Node2&#45;&gt;Node5 -->
<g id="edge4_Node000002_Node000005" class="edge">
<title>Node2&#45;&gt;Node5</title>
<g id="a_edge4_Node000002_Node000005"><a xlink:title=" ">
<path fill="none" stroke="#63b8ff" d="M117.01,-54.84C127.77,-46.99 143.6,-35.45 156.38,-26.12"/>
<polygon fill="#63b8ff" stroke="#63b8ff" points="158.19,-29.14 164.2,-20.42 154.06,-23.48 158.19,-29.14"/>
</a>
</g>
</g>
<!-- Node7&#45;&gt;Node2 -->
<g id="edge8_Node000007_Node000002" class="edge">
<title>Node7&#45;&gt;Node2</title>
<g id="a_edge8_Node000007_Node000002"><a xlink:title=" ">
<path fill="none" stroke="#63b8ff" d="M204.27,-110.09C185.39,-101.72 157.04,-89.13 135.4,-79.53"/>
<polygon fill="#63b8ff" stroke="#63b8ff" points="137.02,-76.42 126.46,-75.57 134.19,-82.82 137.02,-76.42"/>
</a>
</g>
</g>
<!-- Node8 -->
<g id="Node000008" class="node">
<title>Node8</title>
<g id="a_Node000008"><a xlink:title=" ">
<polygon fill="#e0e0e0" stroke="#999999" points="245.75,-74.5 203.5,-74.5 203.5,-55.25 245.75,-55.25 245.75,-74.5"/>
<text text-anchor="middle" x="224.62" y="-61" font-family="Helvetica,sans-Serif" font-size="10.00">queue</text>
</a>
</g>
</g>
<!-- Node7&#45;&gt;Node8 -->
<g id="edge7_Node000007_Node000008" class="edge">
<title>Node7&#45;&gt;Node8</title>
<g id="a_edge7_Node000007_Node000008"><a xlink:title=" ">
<path fill="none" stroke="#63b8ff" d="M224.62,-110.33C224.62,-103.82 224.62,-94.67 224.62,-86.37"/>
<polygon fill="#63b8ff" stroke="#63b8ff" points="228.13,-86.37 224.63,-76.37 221.13,-86.37 228.13,-86.37"/>
</a>
</g>
</g>
</g>
</svg>
</svg>

<style type='text/css'>
<![CDATA[
[data-mouse-over-selected='false'] { opacity: 0.7; }
[data-mouse-over-selected='true']  { opacity: 1.0; }
]]>
</style>
<script type="application/ecmascript"><![CDATA[
document.addEventListener('DOMContentLoaded', (event) => {
  highlightEdges();
  highlightAdjacentNodes();
});
]]></script>
</svg>
