<?xml version="1.0" encoding="UTF-8" standalone="no"?>
<!DOCTYPE svg PUBLIC "-//W3C//DTD SVG 1.1//EN"
 "http://www.w3.org/Graphics/SVG/1.1/DTD/svg11.dtd">
<!-- Generated by graphviz version 12.1.2 (20240928.0832)
 -->
<!-- Title: src/events.h Pages: 1 -->
<svg width="309pt" height="193pt"
 viewBox="0.00 0.00 309.12 193.00" xmlns="http://www.w3.org/2000/svg" xmlns:xlink="http://www.w3.org/1999/xlink">

<svg id="main" version="1.1" xmlns="http://www.w3.org/2000/svg" xmlns:xlink="http://www.w3.org/1999/xlink" xml:space="preserve">

<style type="text/css"><![CDATA[
.node, .edge {opacity: 0.7;}
.node.selected, .edge.selected {opacity: 1;}
.edge:hover path { stroke: red; }
.edge:hover polygon { stroke: red; fill: red; }
]]></style>
<script type="application/ecmascript" xlink:href="svg.min.js"/>
<svg id="graph" class="graph">
<g id="graph0" class="graph" transform="scale(1 1) rotate(0) translate(4 189)">
<title>src/events.h</title>
<!-- Node1 -->
<g id="Node000001" class="node">
<title>Node1</title>
<g id="a_Node000001"><a xlink:title=" ">
<polygon fill="#999999" stroke="#666666" points="187.88,-185 117.88,-185 117.88,-165.75 187.88,-165.75 187.88,-185"/>
<text text-anchor="middle" x="152.88" y="-171.5" font-family="Helvetica,sans-Serif" font-size="10.00">src/events.h</text>
</a>
</g>
</g>
<!-- Node2 -->
<g id="Node000002" class="node">
<title>Node2</title>
<g id="a_Node000002"><a xlink:href="_react_e_s_p_8h.html" target="_top" xlink:title=" ">
<polygon fill="white" stroke="#666666" points="85.75,-74.5 0,-74.5 0,-55.25 85.75,-55.25 85.75,-74.5"/>
<text text-anchor="middle" x="42.88" y="-61" font-family="Helvetica,sans-Serif" font-size="10.00">src/ReactESP.h</text>
</a>
</g>
</g>
<!-- Node1&#45;&gt;Node2 -->
<g id="edge1_Node000001_Node000002" class="edge">
<title>Node1&#45;&gt;Node2</title>
<g id="a_edge1_Node000001_Node000002"><a xlink:title=" ">
<path fill="none" stroke="#63b8ff" d="M132.21,-158.12C122.16,-149.93 110.07,-139.66 99.88,-129.75 80.9,-111.31 60.76,-87.63 50.24,-74.92"/>
<polygon fill="#63b8ff" stroke="#63b8ff" points="129.92,-160.78 139.91,-164.31 134.3,-155.32 129.92,-160.78"/>
</a>
</g>
</g>
<!-- Node4 -->
<g id="Node000004" class="node">
<title>Node4</title>
<g id="a_Node000004"><a xlink:href="event__loop_8h.html" target="_top" xlink:title=" ">
<polygon fill="white" stroke="#666666" points="196.88,-129.75 108.88,-129.75 108.88,-110.5 196.88,-110.5 196.88,-129.75"/>
<text text-anchor="middle" x="152.88" y="-116.25" font-family="Helvetica,sans-Serif" font-size="10.00">src/event_loop.h</text>
</a>
</g>
</g>
<!-- Node1&#45;&gt;Node4 -->
<g id="edge3_Node000001_Node000004" class="edge">
<title>Node1&#45;&gt;Node4</title>
<g id="a_edge3_Node000001_Node000004"><a xlink:title=" ">
<path fill="none" stroke="#63b8ff" d="M152.88,-154.13C152.88,-145.84 152.88,-136.67 152.88,-130.11"/>
<polygon fill="#63b8ff" stroke="#63b8ff" points="149.38,-154.07 152.88,-164.07 156.38,-154.07 149.38,-154.07"/>
</a>
</g>
</g>
<!-- Node6 -->
<g id="Node000006" class="node">
<title>Node6</title>
<g id="a_Node000006"><a xlink:href="events_8cpp.html" target="_top" xlink:title=" ">
<polygon fill="white" stroke="#666666" points="301.12,-74.5 220.62,-74.5 220.62,-55.25 301.12,-55.25 301.12,-74.5"/>
<text text-anchor="middle" x="260.88" y="-61" font-family="Helvetica,sans-Serif" font-size="10.00">src/events.cpp</text>
</a>
</g>
</g>
<!-- Node1&#45;&gt;Node6 -->
<g id="edge7_Node000001_Node000006" class="edge">
<title>Node1&#45;&gt;Node6</title>
<g id="a_edge7_Node000001_Node000006"><a xlink:title=" ">
<path fill="none" stroke="#63b8ff" d="M173.62,-158.2C183.69,-150.03 195.76,-139.75 205.88,-129.75 224.4,-111.43 243.75,-87.71 253.83,-74.95"/>
<polygon fill="#63b8ff" stroke="#63b8ff" points="171.53,-155.39 165.89,-164.36 175.89,-160.86 171.53,-155.39"/>
</a>
</g>
</g>
<!-- Node3 -->
<g id="Node000003" class="node">
<title>Node3</title>
<g id="a_Node000003"><a xlink:href="main_8cpp.html" target="_top" xlink:title=" ">
<polygon fill="white" stroke="#666666" points="79,-19.25 6.75,-19.25 6.75,0 79,0 79,-19.25"/>
<text text-anchor="middle" x="42.88" y="-5.75" font-family="Helvetica,sans-Serif" font-size="10.00">src/main.cpp</text>
</a>
</g>
</g>
<!-- Node2&#45;&gt;Node3 -->
<g id="edge2_Node000002_Node000003" class="edge">
<title>Node2&#45;&gt;Node3</title>
<g id="a_edge2_Node000002_Node000003"><a xlink:title=" ">
<path fill="none" stroke="#63b8ff" d="M42.88,-43.63C42.88,-35.34 42.88,-26.17 42.88,-19.61"/>
<polygon fill="#63b8ff" stroke="#63b8ff" points="39.38,-43.57 42.88,-53.57 46.38,-43.57 39.38,-43.57"/>
</a>
</g>
</g>
<!-- Node4&#45;&gt;Node2 -->
<g id="edge4_Node000004_Node000002" class="edge">
<title>Node4&#45;&gt;Node2</title>
<g id="a_edge4_Node000004_Node000002"><a xlink:title=" ">
<path fill="none" stroke="#63b8ff" d="M123.95,-105.12C104.25,-95.58 78.72,-83.23 61.63,-74.95"/>
<polygon fill="#63b8ff" stroke="#63b8ff" points="122.33,-108.23 132.85,-109.43 125.38,-101.92 122.33,-108.23"/>
</a>
</g>
</g>
<!-- Node5 -->
<g id="Node000005" class="node">
<title>Node5</title>
<g id="a_Node000005"><a xlink:href="event__loop_8cpp.html" target="_top" xlink:title=" ">
<polygon fill="white" stroke="#666666" points="202.12,-74.5 103.62,-74.5 103.62,-55.25 202.12,-55.25 202.12,-74.5"/>
<text text-anchor="middle" x="152.88" y="-61" font-family="Helvetica,sans-Serif" font-size="10.00">src/event_loop.cpp</text>
</a>
</g>
</g>
<!-- Node4&#45;&gt;Node5 -->
<g id="edge5_Node000004_Node000005" class="edge">
<title>Node4&#45;&gt;Node5</title>
<g id="a_edge5_Node000004_Node000005"><a xlink:title=" ">
<path fill="none" stroke="#63b8ff" d="M152.88,-98.88C152.88,-90.59 152.88,-81.42 152.88,-74.86"/>
<polygon fill="#63b8ff" stroke="#63b8ff" points="149.38,-98.82 152.88,-108.82 156.38,-98.82 149.38,-98.82"/>
</a>
</g>
</g>
<!-- Node4&#45;&gt;Node6 -->
<g id="edge6_Node000004_Node000006" class="edge">
<title>Node4&#45;&gt;Node6</title>
<g id="a_edge6_Node000004_Node000006"><a xlink:title=" ">
<path fill="none" stroke="#63b8ff" d="M181.27,-105.12C200.62,-95.58 225.68,-83.23 242.46,-74.95"/>
<polygon fill="#63b8ff" stroke="#63b8ff" points="179.97,-101.86 172.55,-109.42 183.07,-108.14 179.97,-101.86"/>
</a>
</g>
</g>
</g>
</svg>
</svg>

<style type='text/css'>
<![CDATA[
[data-mouse-over-selected='false'] { opacity: 0.7; }
[data-mouse-over-selected='true']  { opacity: 1.0; }
]]>
</style>
<script type="application/ecmascript"><![CDATA[
document.addEventListener('DOMContentLoaded', (event) => {
  highlightEdges();
  highlightAdjacentNodes();
});
]]></script>
</svg>
