<?xml version="1.0" encoding="UTF-8" standalone="no"?>
<!DOCTYPE svg PUBLIC "-//W3C//DTD SVG 1.1//EN"
 "http://www.w3.org/Graphics/SVG/1.1/DTD/svg11.dtd">
<!-- Generated by graphviz version 12.1.0 (20240811.2233)
 -->
<!-- Title: src/event_loop.cpp Pages: 1 -->
<svg width="219pt" height="193pt"
 viewBox="0.00 0.00 218.62 193.00" xmlns="http://www.w3.org/2000/svg" xmlns:xlink="http://www.w3.org/1999/xlink">

<svg id="main" version="1.1" xmlns="http://www.w3.org/2000/svg" xmlns:xlink="http://www.w3.org/1999/xlink" xml:space="preserve">

<style type="text/css"><![CDATA[
.node, .edge {opacity: 0.7;}
.node.selected, .edge.selected {opacity: 1;}
.edge:hover path { stroke: red; }
.edge:hover polygon { stroke: red; fill: red; }
]]></style>
<script type="application/ecmascript" xlink:href="svg.min.js"/>
<svg id="graph" class="graph">
<g id="graph0" class="graph" transform="scale(1 1) rotate(0) translate(4 189)">
<title>src/event_loop.cpp</title>
<!-- Node1 -->
<g id="Node000001" class="node">
<title>Node1</title>
<g id="a_Node000001"><a xlink:title=" ">
<polygon fill="#999999" stroke="#666666" points="155.38,-185 56.87,-185 56.87,-165.75 155.38,-165.75 155.38,-185"/>
<text text-anchor="middle" x="106.12" y="-171.5" font-family="Helvetica,sans-Serif" font-size="10.00">src/event_loop.cpp</text>
</a>
</g>
</g>
<!-- Node2 -->
<g id="Node000002" class="node">
<title>Node2</title>
<g id="a_Node000002"><a xlink:href="event__loop_8h.html" target="_top" xlink:title=" ">
<polygon fill="white" stroke="#666666" points="89.88,-129.75 18.38,-129.75 18.38,-110.5 89.88,-110.5 89.88,-129.75"/>
<text text-anchor="middle" x="54.12" y="-116.25" font-family="Helvetica,sans-Serif" font-size="10.00">event_loop.h</text>
</a>
</g>
</g>
<!-- Node1&#45;&gt;Node2 -->
<g id="edge1_Node000001_Node000002" class="edge">
<title>Node1&#45;&gt;Node2</title>
<g id="a_edge1_Node000001_Node000002"><a xlink:title=" ">
<path fill="none" stroke="#63b8ff" d="M97.54,-165.58C90.28,-158.15 79.67,-147.29 70.76,-138.16"/>
<polygon fill="#63b8ff" stroke="#63b8ff" points="73.45,-135.9 63.96,-131.19 68.44,-140.79 73.45,-135.9"/>
</a>
</g>
</g>
<!-- Node7 -->
<g id="Node000007" class="node">
<title>Node7</title>
<g id="a_Node000007"><a xlink:title=" ">
<polygon fill="#e0e0e0" stroke="#999999" points="210.62,-129.75 107.62,-129.75 107.62,-110.5 210.62,-110.5 210.62,-129.75"/>
<text text-anchor="middle" x="159.12" y="-116.25" font-family="Helvetica,sans-Serif" font-size="10.00">freeRTOS/semphr.h</text>
</a>
</g>
</g>
<!-- Node1&#45;&gt;Node7 -->
<g id="edge6_Node000001_Node000007" class="edge">
<title>Node1&#45;&gt;Node7</title>
<g id="a_edge6_Node000001_Node000007"><a xlink:title=" ">
<path fill="none" stroke="#63b8ff" d="M114.88,-165.58C122.27,-158.15 133.09,-147.29 142.17,-138.16"/>
<polygon fill="#63b8ff" stroke="#63b8ff" points="144.54,-140.74 149.12,-131.18 139.58,-135.8 144.54,-140.74"/>
</a>
</g>
</g>
<!-- Node3 -->
<g id="Node000003" class="node">
<title>Node3</title>
<g id="a_Node000003"><a xlink:title=" ">
<polygon fill="#e0e0e0" stroke="#999999" points="42.25,-74.5 0,-74.5 0,-55.25 42.25,-55.25 42.25,-74.5"/>
<text text-anchor="middle" x="21.12" y="-61" font-family="Helvetica,sans-Serif" font-size="10.00">queue</text>
</a>
</g>
</g>
<!-- Node2&#45;&gt;Node3 -->
<g id="edge2_Node000002_Node000003" class="edge">
<title>Node2&#45;&gt;Node3</title>
<g id="a_edge2_Node000002_Node000003"><a xlink:title=" ">
<path fill="none" stroke="#63b8ff" d="M48.68,-110.33C44.35,-103.36 38.16,-93.37 32.74,-84.62"/>
<polygon fill="#63b8ff" stroke="#63b8ff" points="35.73,-82.8 27.49,-76.15 29.78,-86.49 35.73,-82.8"/>
</a>
</g>
</g>
<!-- Node4 -->
<g id="Node000004" class="node">
<title>Node4</title>
<g id="a_Node000004"><a xlink:href="events_8h.html" target="_top" xlink:title=" ">
<polygon fill="white" stroke="#666666" points="113.88,-74.5 60.38,-74.5 60.38,-55.25 113.88,-55.25 113.88,-74.5"/>
<text text-anchor="middle" x="87.12" y="-61" font-family="Helvetica,sans-Serif" font-size="10.00">events.h</text>
</a>
</g>
</g>
<!-- Node2&#45;&gt;Node4 -->
<g id="edge3_Node000002_Node000004" class="edge">
<title>Node2&#45;&gt;Node4</title>
<g id="a_edge3_Node000002_Node000004"><a xlink:title=" ">
<path fill="none" stroke="#63b8ff" d="M59.57,-110.33C63.9,-103.36 70.09,-93.37 75.51,-84.62"/>
<polygon fill="#63b8ff" stroke="#63b8ff" points="78.47,-86.49 80.76,-76.15 72.52,-82.8 78.47,-86.49"/>
</a>
</g>
</g>
<!-- Node5 -->
<g id="Node000005" class="node">
<title>Node5</title>
<g id="a_Node000005"><a xlink:title=" ">
<polygon fill="#e0e0e0" stroke="#999999" points="77.75,-19.25 20.5,-19.25 20.5,0 77.75,0 77.75,-19.25"/>
<text text-anchor="middle" x="49.12" y="-5.75" font-family="Helvetica,sans-Serif" font-size="10.00">Arduino.h</text>
</a>
</g>
</g>
<!-- Node4&#45;&gt;Node5 -->
<g id="edge4_Node000004_Node000005" class="edge">
<title>Node4&#45;&gt;Node5</title>
<g id="a_edge4_Node000004_Node000005"><a xlink:title=" ">
<path fill="none" stroke="#63b8ff" d="M80.85,-55.08C75.77,-47.96 68.43,-37.68 62.09,-28.8"/>
<polygon fill="#63b8ff" stroke="#63b8ff" points="65.07,-26.95 56.42,-20.84 59.38,-31.01 65.07,-26.95"/>
</a>
</g>
</g>
<!-- Node6 -->
<g id="Node000006" class="node">
<title>Node6</title>
<g id="a_Node000006"><a xlink:title=" ">
<polygon fill="#e0e0e0" stroke="#999999" points="154.12,-19.25 96.12,-19.25 96.12,0 154.12,0 154.12,-19.25"/>
<text text-anchor="middle" x="125.12" y="-5.75" font-family="Helvetica,sans-Serif" font-size="10.00">functional</text>
</a>
</g>
</g>
<!-- Node4&#45;&gt;Node6 -->
<g id="edge5_Node000004_Node000006" class="edge">
<title>Node4&#45;&gt;Node6</title>
<g id="a_edge5_Node000004_Node000006"><a xlink:title=" ">
<path fill="none" stroke="#63b8ff" d="M93.4,-55.08C98.48,-47.96 105.82,-37.68 112.16,-28.8"/>
<polygon fill="#63b8ff" stroke="#63b8ff" points="114.87,-31.01 117.83,-20.84 109.18,-26.95 114.87,-31.01"/>
</a>
</g>
</g>
</g>
</svg>
</svg>

<style type='text/css'>
<![CDATA[
[data-mouse-over-selected='false'] { opacity: 0.7; }
[data-mouse-over-selected='true']  { opacity: 1.0; }
]]>
</style>
<script type="application/ecmascript"><![CDATA[
document.addEventListener('DOMContentLoaded', (event) => {
  highlightEdges();
  highlightAdjacentNodes();
});
]]></script>
</svg>
