<?xml version="1.0" encoding="UTF-8" standalone="no"?>
<!DOCTYPE svg PUBLIC "-//W3C//DTD SVG 1.1//EN"
 "http://www.w3.org/Graphics/SVG/1.1/DTD/svg11.dtd">
<!-- Generated by graphviz version 2.49.3 (20211023.0002)
 -->
<!-- Title: Graphical Class Hierarchy Pages: 1 -->
<svg width="449pt" height="142pt"
 viewBox="0.00 0.00 449.00 142.00" xmlns="http://www.w3.org/2000/svg" xmlns:xlink="http://www.w3.org/1999/xlink">
<g id="graph0" class="graph" transform="scale(1 1) rotate(0) translate(4 138)">
<title>Graphical Class Hierarchy</title>
<!-- Node0 -->
<g id="node1" class="node">
<title>Node0</title>
<g id="a_node1"><a xlink:href="classreactesp_1_1_reaction.html" target="_top" xlink:title="Reactions are code to be called when a given condition is fulfilled.">
<polygon fill="none" stroke="black" points="0,-76.5 0,-95.5 100,-95.5 100,-76.5 0,-76.5"/>
<text text-anchor="middle" x="50" y="-83.5" font-family="Helvetica,sans-Serif" font-size="10.00">reactesp::Reaction</text>
</a>
</g>
</g>
<!-- Node1 -->
<g id="node2" class="node">
<title>Node1</title>
<g id="a_node2"><a xlink:href="classreactesp_1_1_i_s_r_reaction.html" target="_top" xlink:title="Reaction that is triggered on an input pin change.">
<polygon fill="none" stroke="black" points="146,-114.5 146,-133.5 263,-133.5 263,-114.5 146,-114.5"/>
<text text-anchor="middle" x="204.5" y="-121.5" font-family="Helvetica,sans-Serif" font-size="10.00">reactesp::ISRReaction</text>
</a>
</g>
</g>
<!-- Node0&#45;&gt;Node1 -->
<g id="edge1" class="edge">
<title>Node0&#45;&gt;Node1</title>
<path fill="none" stroke="midnightblue" d="M99.32,-98.04C120.62,-103.35 145.3,-109.5 165.29,-114.48"/>
<polygon fill="midnightblue" stroke="midnightblue" points="100.03,-94.61 89.48,-95.59 98.34,-101.4 100.03,-94.61"/>
</g>
<!-- Node2 -->
<g id="node3" class="node">
<title>Node2</title>
<g id="a_node3"><a xlink:href="classreactesp_1_1_timed_reaction.html" target="_top" xlink:title="TimedReactions are called based on elapsing of time.">
<polygon fill="none" stroke="black" points="141,-76.5 141,-95.5 268,-95.5 268,-76.5 141,-76.5"/>
<text text-anchor="middle" x="204.5" y="-83.5" font-family="Helvetica,sans-Serif" font-size="10.00">reactesp::TimedReaction</text>
</a>
</g>
</g>
<!-- Node0&#45;&gt;Node2 -->
<g id="edge2" class="edge">
<title>Node0&#45;&gt;Node2</title>
<path fill="none" stroke="midnightblue" d="M110.34,-86C120.34,-86 130.75,-86 140.83,-86"/>
<polygon fill="midnightblue" stroke="midnightblue" points="110.09,-82.5 100.09,-86 110.09,-89.5 110.09,-82.5"/>
</g>
<!-- Node5 -->
<g id="node6" class="node">
<title>Node5</title>
<g id="a_node6"><a xlink:href="classreactesp_1_1_untimed_reaction.html" target="_top" xlink:title="Reactions that are triggered based on something else than time.">
<polygon fill="none" stroke="black" points="136,-38.5 136,-57.5 273,-57.5 273,-38.5 136,-38.5"/>
<text text-anchor="middle" x="204.5" y="-45.5" font-family="Helvetica,sans-Serif" font-size="10.00">reactesp::UntimedReaction</text>
</a>
</g>
</g>
<!-- Node0&#45;&gt;Node5 -->
<g id="edge5" class="edge">
<title>Node0&#45;&gt;Node5</title>
<path fill="none" stroke="midnightblue" d="M99.32,-73.96C120.62,-68.65 145.3,-62.5 165.29,-57.52"/>
<polygon fill="midnightblue" stroke="midnightblue" points="98.34,-70.6 89.48,-76.41 100.03,-77.39 98.34,-70.6"/>
</g>
<!-- Node3 -->
<g id="node4" class="node">
<title>Node3</title>
<g id="a_node4"><a xlink:href="classreactesp_1_1_delay_reaction.html" target="_top" xlink:title="Reaction that is triggered after a certain time delay.">
<polygon fill="none" stroke="black" points="312.5,-114.5 312.5,-133.5 437.5,-133.5 437.5,-114.5 312.5,-114.5"/>
<text text-anchor="middle" x="375" y="-121.5" font-family="Helvetica,sans-Serif" font-size="10.00">reactesp::DelayReaction</text>
</a>
</g>
</g>
<!-- Node2&#45;&gt;Node3 -->
<g id="edge3" class="edge">
<title>Node2&#45;&gt;Node3</title>
<path fill="none" stroke="midnightblue" d="M257.93,-97.82C281.69,-103.18 309.4,-109.43 331.79,-114.48"/>
<polygon fill="midnightblue" stroke="midnightblue" points="258.54,-94.37 248.02,-95.59 257,-101.2 258.54,-94.37"/>
</g>
<!-- Node4 -->
<g id="node5" class="node">
<title>Node4</title>
<g id="a_node5"><a xlink:href="classreactesp_1_1_repeat_reaction.html" target="_top" xlink:title="Reaction that is triggered repeatedly.">
<polygon fill="none" stroke="black" points="309,-76.5 309,-95.5 441,-95.5 441,-76.5 309,-76.5"/>
<text text-anchor="middle" x="375" y="-83.5" font-family="Helvetica,sans-Serif" font-size="10.00">reactesp::RepeatReaction</text>
</a>
</g>
</g>
<!-- Node2&#45;&gt;Node4 -->
<g id="edge4" class="edge">
<title>Node2&#45;&gt;Node4</title>
<path fill="none" stroke="midnightblue" d="M278.33,-86C288.51,-86 298.92,-86 308.95,-86"/>
<polygon fill="midnightblue" stroke="midnightblue" points="278.24,-82.5 268.24,-86 278.24,-89.5 278.24,-82.5"/>
</g>
<!-- Node6 -->
<g id="node7" class="node">
<title>Node6</title>
<g id="a_node7"><a xlink:href="classreactesp_1_1_stream_reaction.html" target="_top" xlink:title="Reaction that is triggered when there is input available at the given Arduino Stream.">
<polygon fill="none" stroke="black" points="309,-38.5 309,-57.5 441,-57.5 441,-38.5 309,-38.5"/>
<text text-anchor="middle" x="375" y="-45.5" font-family="Helvetica,sans-Serif" font-size="10.00">reactesp::StreamReaction</text>
</a>
</g>
</g>
<!-- Node5&#45;&gt;Node6 -->
<g id="edge6" class="edge">
<title>Node5&#45;&gt;Node6</title>
<path fill="none" stroke="midnightblue" d="M283.12,-48C291.73,-48 300.45,-48 308.89,-48"/>
<polygon fill="midnightblue" stroke="midnightblue" points="283.06,-44.5 273.06,-48 283.06,-51.5 283.06,-44.5"/>
</g>
<!-- Node7 -->
<g id="node8" class="node">
<title>Node7</title>
<g id="a_node8"><a xlink:href="classreactesp_1_1_tick_reaction.html" target="_top" xlink:title="Reaction that is triggered unconditionally at each execution loop.">
<polygon fill="none" stroke="black" points="316,-0.5 316,-19.5 434,-19.5 434,-0.5 316,-0.5"/>
<text text-anchor="middle" x="375" y="-7.5" font-family="Helvetica,sans-Serif" font-size="10.00">reactesp::TickReaction</text>
</a>
</g>
</g>
<!-- Node5&#45;&gt;Node7 -->
<g id="edge7" class="edge">
<title>Node5&#45;&gt;Node7</title>
<path fill="none" stroke="midnightblue" d="M257.93,-36.18C281.69,-30.82 309.4,-24.57 331.79,-19.52"/>
<polygon fill="midnightblue" stroke="midnightblue" points="257,-32.8 248.02,-38.41 258.54,-39.63 257,-32.8"/>
</g>
</g>
</svg>
