<?xml version="1.0" encoding="UTF-8" standalone="no"?>
<!DOCTYPE svg PUBLIC "-//W3C//DTD SVG 1.1//EN"
 "http://www.w3.org/Graphics/SVG/1.1/DTD/svg11.dtd">
<!-- Generated by graphviz version 2.48.0 (20210717.1556)
 -->
<!-- Title: Graphical Class Hierarchy Pages: 1 -->
<svg width="317pt" height="142pt"
 viewBox="0.00 0.00 317.00 142.00" xmlns="http://www.w3.org/2000/svg" xmlns:xlink="http://www.w3.org/1999/xlink">
<g id="graph0" class="graph" transform="scale(1 1) rotate(0) translate(4 138)">
<title>Graphical Class Hierarchy</title>
<!-- Node0 -->
<g id="node1" class="node">
<title>Node0</title>
<g id="a_node1"><a xlink:href="class_reaction.html" target="_top" xlink:title="Reactions are code to be called when a given condition is fulfilled.">
<polygon fill="none" stroke="black" points="0,-76.5 0,-95.5 56,-95.5 56,-76.5 0,-76.5"/>
<text text-anchor="middle" x="28" y="-83.5" font-family="Helvetica,sans-Serif" font-size="10.00">Reaction</text>
</a>
</g>
</g>
<!-- Node1 -->
<g id="node2" class="node">
<title>Node1</title>
<g id="a_node2"><a xlink:href="class_i_s_r_reaction.html" target="_top" xlink:title="Reaction that is triggered on an input pin change.">
<polygon fill="none" stroke="black" points="102,-114.5 102,-133.5 175,-133.5 175,-114.5 102,-114.5"/>
<text text-anchor="middle" x="138.5" y="-121.5" font-family="Helvetica,sans-Serif" font-size="10.00">ISRReaction</text>
</a>
</g>
</g>
<!-- Node0&#45;&gt;Node1 -->
<g id="edge1" class="edge">
<title>Node0&#45;&gt;Node1</title>
<path fill="none" stroke="midnightblue" d="M65.84,-98.9C80.43,-104.01 96.9,-109.78 110.37,-114.5"/>
<polygon fill="midnightblue" stroke="midnightblue" points="66.69,-95.49 56.1,-95.49 64.38,-102.1 66.69,-95.49"/>
</g>
<!-- Node2 -->
<g id="node3" class="node">
<title>Node2</title>
<g id="a_node3"><a xlink:href="class_timed_reaction.html" target="_top" xlink:title="TimedReactions are called based on elapsing of time.">
<polygon fill="none" stroke="black" points="97,-76.5 97,-95.5 180,-95.5 180,-76.5 97,-76.5"/>
<text text-anchor="middle" x="138.5" y="-83.5" font-family="Helvetica,sans-Serif" font-size="10.00">TimedReaction</text>
</a>
</g>
</g>
<!-- Node0&#45;&gt;Node2 -->
<g id="edge2" class="edge">
<title>Node0&#45;&gt;Node2</title>
<path fill="none" stroke="midnightblue" d="M66.36,-86C76.18,-86 86.83,-86 96.81,-86"/>
<polygon fill="midnightblue" stroke="midnightblue" points="66.1,-82.5 56.1,-86 66.1,-89.5 66.1,-82.5"/>
</g>
<!-- Node5 -->
<g id="node6" class="node">
<title>Node5</title>
<g id="a_node6"><a xlink:href="class_untimed_reaction.html" target="_top" xlink:title="Reactions that are triggered based on something else than time.">
<polygon fill="none" stroke="black" points="92,-38.5 92,-57.5 185,-57.5 185,-38.5 92,-38.5"/>
<text text-anchor="middle" x="138.5" y="-45.5" font-family="Helvetica,sans-Serif" font-size="10.00">UntimedReaction</text>
</a>
</g>
</g>
<!-- Node0&#45;&gt;Node5 -->
<g id="edge5" class="edge">
<title>Node0&#45;&gt;Node5</title>
<path fill="none" stroke="midnightblue" d="M65.84,-73.1C80.43,-67.99 96.9,-62.22 110.37,-57.5"/>
<polygon fill="midnightblue" stroke="midnightblue" points="64.38,-69.9 56.1,-76.51 66.69,-76.51 64.38,-69.9"/>
</g>
<!-- Node3 -->
<g id="node4" class="node">
<title>Node3</title>
<g id="a_node4"><a xlink:href="class_delay_reaction.html" target="_top" xlink:title="Reaction that is triggered after a certain time delay.">
<polygon fill="none" stroke="black" points="224,-114.5 224,-133.5 306,-133.5 306,-114.5 224,-114.5"/>
<text text-anchor="middle" x="265" y="-121.5" font-family="Helvetica,sans-Serif" font-size="10.00">DelayReaction</text>
</a>
</g>
</g>
<!-- Node2&#45;&gt;Node3 -->
<g id="edge3" class="edge">
<title>Node2&#45;&gt;Node3</title>
<path fill="none" stroke="midnightblue" d="M180.57,-98.54C197.51,-103.7 216.82,-109.6 232.59,-114.41"/>
<polygon fill="midnightblue" stroke="midnightblue" points="181.5,-95.16 170.92,-95.59 179.46,-101.86 181.5,-95.16"/>
</g>
<!-- Node4 -->
<g id="node5" class="node">
<title>Node4</title>
<g id="a_node5"><a xlink:href="class_repeat_reaction.html" target="_top" xlink:title="Reaction that is triggered repeatedly.">
<polygon fill="none" stroke="black" points="221,-76.5 221,-95.5 309,-95.5 309,-76.5 221,-76.5"/>
<text text-anchor="middle" x="265" y="-83.5" font-family="Helvetica,sans-Serif" font-size="10.00">RepeatReaction</text>
</a>
</g>
</g>
<!-- Node2&#45;&gt;Node4 -->
<g id="edge4" class="edge">
<title>Node2&#45;&gt;Node4</title>
<path fill="none" stroke="midnightblue" d="M190.48,-86C200.47,-86 210.86,-86 220.57,-86"/>
<polygon fill="midnightblue" stroke="midnightblue" points="190.27,-82.5 180.27,-86 190.27,-89.5 190.27,-82.5"/>
</g>
<!-- Node6 -->
<g id="node7" class="node">
<title>Node6</title>
<g id="a_node7"><a xlink:href="class_stream_reaction.html" target="_top" xlink:title="Reaction that is triggered when there is input available at the given Arduino Stream.">
<polygon fill="none" stroke="black" points="221,-38.5 221,-57.5 309,-57.5 309,-38.5 221,-38.5"/>
<text text-anchor="middle" x="265" y="-45.5" font-family="Helvetica,sans-Serif" font-size="10.00">StreamReaction</text>
</a>
</g>
</g>
<!-- Node5&#45;&gt;Node6 -->
<g id="edge6" class="edge">
<title>Node5&#45;&gt;Node6</title>
<path fill="none" stroke="midnightblue" d="M195.43,-48C203.96,-48 212.64,-48 220.84,-48"/>
<polygon fill="midnightblue" stroke="midnightblue" points="195.15,-44.5 185.15,-48 195.15,-51.5 195.15,-44.5"/>
</g>
<!-- Node7 -->
<g id="node8" class="node">
<title>Node7</title>
<g id="a_node8"><a xlink:href="class_tick_reaction.html" target="_top" xlink:title="Reaction that is triggered unconditionally at each execution loop.">
<polygon fill="none" stroke="black" points="228,-0.5 228,-19.5 302,-19.5 302,-0.5 228,-0.5"/>
<text text-anchor="middle" x="265" y="-7.5" font-family="Helvetica,sans-Serif" font-size="10.00">TickReaction</text>
</a>
</g>
</g>
<!-- Node5&#45;&gt;Node7 -->
<g id="edge7" class="edge">
<title>Node5&#45;&gt;Node7</title>
<path fill="none" stroke="midnightblue" d="M180.57,-35.46C197.51,-30.3 216.82,-24.4 232.59,-19.59"/>
<polygon fill="midnightblue" stroke="midnightblue" points="179.46,-32.14 170.92,-38.41 181.5,-38.84 179.46,-32.14"/>
</g>
</g>
</svg>
