<?xml version="1.0" encoding="UTF-8" standalone="no"?>
<!DOCTYPE svg PUBLIC "-//W3C//DTD SVG 1.1//EN"
 "http://www.w3.org/Graphics/SVG/1.1/DTD/svg11.dtd">
<!-- Generated by graphviz version 12.1.2 (20240928.0832)
 -->
<!-- Title: Graphical Class Hierarchy Pages: 1 -->
<svg width="563pt" height="138pt"
 viewBox="0.00 0.00 562.50 138.25" xmlns="http://www.w3.org/2000/svg" xmlns:xlink="http://www.w3.org/1999/xlink">
<g id="graph0" class="graph" transform="scale(1 1) rotate(0) translate(4 134.25)">
<title>Graphical Class Hierarchy</title>
<!-- Node0 -->
<g id="Node000000" class="node">
<title>Node0</title>
<g id="a_Node000000"><a xlink:href="structreactesp_1_1_event_interface.html" target="_top" xlink:title="EventInterface defines the interface for all events.">
<polygon fill="white" stroke="#666666" points="123.25,-93.25 0,-93.25 0,-74 123.25,-74 123.25,-93.25"/>
<text text-anchor="middle" x="61.62" y="-79.75" font-family="Helvetica,sans-Serif" font-size="10.00">reactesp::EventInterface</text>
</a>
</g>
</g>
<!-- Node1 -->
<g id="Node000001" class="node">
<title>Node1</title>
<g id="a_Node000001"><a xlink:href="classreactesp_1_1_event.html" target="_top" xlink:title="Events are code to be called when a given condition is fulfilled.">
<polygon fill="white" stroke="#666666" points="244.25,-93.25 159.25,-93.25 159.25,-74 244.25,-74 244.25,-93.25"/>
<text text-anchor="middle" x="201.75" y="-79.75" font-family="Helvetica,sans-Serif" font-size="10.00">reactesp::Event</text>
</a>
</g>
</g>
<!-- Node0&#45;&gt;Node1 -->
<g id="edge1_Node000000_Node000001" class="edge">
<title>Node0&#45;&gt;Node1</title>
<g id="a_edge1_Node000000_Node000001"><a xlink:title=" ">
<path fill="none" stroke="#63b8ff" d="M134.91,-83.62C143.2,-83.62 151.43,-83.62 159.11,-83.62"/>
<polygon fill="#63b8ff" stroke="#63b8ff" points="135.12,-80.13 125.12,-83.63 135.12,-87.13 135.12,-80.13"/>
</a>
</g>
</g>
<!-- Node2 -->
<g id="Node000002" class="node">
<title>Node2</title>
<g id="a_Node000002"><a xlink:href="classreactesp_1_1_i_s_r_event.html" target="_top" xlink:title="Event that is triggered on an input pin change.">
<polygon fill="white" stroke="#666666" points="392.25,-130.25 290,-130.25 290,-111 392.25,-111 392.25,-130.25"/>
<text text-anchor="middle" x="341.12" y="-116.75" font-family="Helvetica,sans-Serif" font-size="10.00">reactesp::ISREvent</text>
</a>
</g>
</g>
<!-- Node1&#45;&gt;Node2 -->
<g id="edge2_Node000001_Node000002" class="edge">
<title>Node1&#45;&gt;Node2</title>
<g id="a_edge2_Node000001_Node000002"><a xlink:title=" ">
<path fill="none" stroke="#63b8ff" d="M251.1,-96.65C268.01,-101.2 286.74,-106.25 302.63,-110.53"/>
<polygon fill="#63b8ff" stroke="#63b8ff" points="252.32,-93.35 241.75,-94.13 250.5,-100.11 252.32,-93.35"/>
</a>
</g>
</g>
<!-- Node3 -->
<g id="Node000003" class="node">
<title>Node3</title>
<g id="a_Node000003"><a xlink:href="classreactesp_1_1_timed_event.html" target="_top" xlink:title="TimedEvents are called based on elapsing of time.">
<polygon fill="white" stroke="#666666" points="397.12,-93.25 285.12,-93.25 285.12,-74 397.12,-74 397.12,-93.25"/>
<text text-anchor="middle" x="341.12" y="-79.75" font-family="Helvetica,sans-Serif" font-size="10.00">reactesp::TimedEvent</text>
</a>
</g>
</g>
<!-- Node1&#45;&gt;Node3 -->
<g id="edge3_Node000001_Node000003" class="edge">
<title>Node1&#45;&gt;Node3</title>
<g id="a_edge3_Node000001_Node000003"><a xlink:title=" ">
<path fill="none" stroke="#63b8ff" d="M255.97,-83.62C265.4,-83.62 275.25,-83.62 284.74,-83.62"/>
<polygon fill="#63b8ff" stroke="#63b8ff" points="256.23,-80.13 246.23,-83.63 256.23,-87.13 256.23,-80.13"/>
</a>
</g>
</g>
<!-- Node6 -->
<g id="Node000006" class="node">
<title>Node6</title>
<g id="a_Node000006"><a xlink:href="classreactesp_1_1_untimed_event.html" target="_top" xlink:title="Events that are triggered based on something else than time.">
<polygon fill="white" stroke="#666666" points="402,-56.25 280.25,-56.25 280.25,-37 402,-37 402,-56.25"/>
<text text-anchor="middle" x="341.12" y="-42.75" font-family="Helvetica,sans-Serif" font-size="10.00">reactesp::UntimedEvent</text>
</a>
</g>
</g>
<!-- Node1&#45;&gt;Node6 -->
<g id="edge6_Node000001_Node000006" class="edge">
<title>Node1&#45;&gt;Node6</title>
<g id="a_edge6_Node000001_Node000006"><a xlink:title=" ">
<path fill="none" stroke="#63b8ff" d="M251.1,-70.6C268.01,-66.05 286.74,-61 302.63,-56.72"/>
<polygon fill="#63b8ff" stroke="#63b8ff" points="250.5,-67.14 241.75,-73.12 252.32,-73.9 250.5,-67.14"/>
</a>
</g>
</g>
<!-- Node4 -->
<g id="Node000004" class="node">
<title>Node4</title>
<g id="a_Node000004"><a xlink:href="classreactesp_1_1_delay_event.html" target="_top" xlink:title="Event that is triggered after a certain time delay.">
<polygon fill="white" stroke="#666666" points="551.5,-130.25 441,-130.25 441,-111 551.5,-111 551.5,-130.25"/>
<text text-anchor="middle" x="496.25" y="-116.75" font-family="Helvetica,sans-Serif" font-size="10.00">reactesp::DelayEvent</text>
</a>
</g>
</g>
<!-- Node3&#45;&gt;Node4 -->
<g id="edge4_Node000003_Node000004" class="edge">
<title>Node3&#45;&gt;Node4</title>
<g id="a_edge4_Node000003_Node000004"><a xlink:title=" ">
<path fill="none" stroke="#63b8ff" d="M394.94,-96.39C414.07,-101.01 435.4,-106.16 453.46,-110.53"/>
<polygon fill="#63b8ff" stroke="#63b8ff" points="395.98,-93.04 385.44,-94.09 394.34,-99.84 395.98,-93.04"/>
</a>
</g>
</g>
<!-- Node5 -->
<g id="Node000005" class="node">
<title>Node5</title>
<g id="a_Node000005"><a xlink:href="classreactesp_1_1_repeat_event.html" target="_top" xlink:title="Event that is triggered repeatedly.">
<polygon fill="white" stroke="#666666" points="554.5,-93.25 438,-93.25 438,-74 554.5,-74 554.5,-93.25"/>
<text text-anchor="middle" x="496.25" y="-79.75" font-family="Helvetica,sans-Serif" font-size="10.00">reactesp::RepeatEvent</text>
</a>
</g>
</g>
<!-- Node3&#45;&gt;Node5 -->
<g id="edge5_Node000003_Node000005" class="edge">
<title>Node3&#45;&gt;Node5</title>
<g id="a_edge5_Node000003_Node000005"><a xlink:title=" ">
<path fill="none" stroke="#63b8ff" d="M408.64,-83.62C418.33,-83.62 428.24,-83.62 437.73,-83.62"/>
<polygon fill="#63b8ff" stroke="#63b8ff" points="408.92,-80.13 398.92,-83.63 408.92,-87.13 408.92,-80.13"/>
</a>
</g>
</g>
<!-- Node7 -->
<g id="Node000007" class="node">
<title>Node7</title>
<g id="a_Node000007"><a xlink:href="classreactesp_1_1_stream_event.html" target="_top" xlink:title="Event that is triggered when there is input available at the given Arduino Stream.">
<polygon fill="white" stroke="#666666" points="554.5,-56.25 438,-56.25 438,-37 554.5,-37 554.5,-56.25"/>
<text text-anchor="middle" x="496.25" y="-42.75" font-family="Helvetica,sans-Serif" font-size="10.00">reactesp::StreamEvent</text>
</a>
</g>
</g>
<!-- Node6&#45;&gt;Node7 -->
<g id="edge7_Node000006_Node000007" class="edge">
<title>Node6&#45;&gt;Node7</title>
<g id="a_edge7_Node000006_Node000007"><a xlink:title=" ">
<path fill="none" stroke="#63b8ff" d="M413.6,-46.62C421.73,-46.62 429.94,-46.62 437.85,-46.62"/>
<polygon fill="#63b8ff" stroke="#63b8ff" points="413.72,-43.13 403.72,-46.63 413.72,-50.13 413.72,-43.13"/>
</a>
</g>
</g>
<!-- Node8 -->
<g id="Node000008" class="node">
<title>Node8</title>
<g id="a_Node000008"><a xlink:href="classreactesp_1_1_tick_event.html" target="_top" xlink:title="Event that is triggered unconditionally at each execution loop.">
<polygon fill="white" stroke="#666666" points="548.12,-19.25 444.38,-19.25 444.38,0 548.12,0 548.12,-19.25"/>
<text text-anchor="middle" x="496.25" y="-5.75" font-family="Helvetica,sans-Serif" font-size="10.00">reactesp::TickEvent</text>
</a>
</g>
</g>
<!-- Node6&#45;&gt;Node8 -->
<g id="edge8_Node000006_Node000008" class="edge">
<title>Node6&#45;&gt;Node8</title>
<g id="a_edge8_Node000006_Node000008"><a xlink:title=" ">
<path fill="none" stroke="#63b8ff" d="M394.94,-33.86C414.07,-29.24 435.4,-24.09 453.46,-19.72"/>
<polygon fill="#63b8ff" stroke="#63b8ff" points="394.34,-30.41 385.44,-36.16 395.98,-37.21 394.34,-30.41"/>
</a>
</g>
</g>
</g>
</svg>
