<?xml version="1.0" encoding="UTF-8" standalone="no"?>
<!DOCTYPE svg PUBLIC "-//W3C//DTD SVG 1.1//EN"
 "http://www.w3.org/Graphics/SVG/1.1/DTD/svg11.dtd">
<!-- Generated by graphviz version 2.50.0 (20211204.2007)
 -->
<!-- Title: setup_io_pins Pages: 1 -->
<svg width="421pt" height="176pt"
 viewBox="0.00 0.00 421.00 175.50" xmlns="http://www.w3.org/2000/svg" xmlns:xlink="http://www.w3.org/1999/xlink">
<g id="graph0" class="graph" transform="scale(1 1) rotate(0) translate(4 171.5)">
<title>setup_io_pins</title>
<!-- Node1 -->
<g id="node1" class="node">
<title>Node1</title>
<g id="a_node1"><a xlink:title=" ">
<polygon fill="#bfbfbf" stroke="black" points="0,-68.5 0,-87.5 77,-87.5 77,-68.5 0,-68.5"/>
<text text-anchor="middle" x="38.5" y="-75.5" font-family="Helvetica,sans-Serif" font-size="10.00">setup_io_pins</text>
</a>
</g>
</g>
<!-- Node2 -->
<g id="node2" class="node">
<title>Node2</title>
<g id="a_node2"><a xlink:href="classreactesp_1_1_react_e_s_p.html#afa5876a2a33275dc7d0ba8214bb51ee7" target="_top" xlink:title="Create a new ISRReaction (interrupt reaction)">
<polygon fill="none" stroke="black" points="117.5,-137 117.5,-167 224.5,-167 224.5,-137 117.5,-137"/>
<text text-anchor="start" x="125.5" y="-155" font-family="Helvetica,sans-Serif" font-size="10.00">reactesp::ReactESP</text>
<text text-anchor="middle" x="171" y="-144" font-family="Helvetica,sans-Serif" font-size="10.00">::onInterrupt</text>
</a>
</g>
</g>
<!-- Node1&#45;&gt;Node2 -->
<g id="edge1" class="edge">
<title>Node1&#45;&gt;Node2</title>
<path fill="none" stroke="midnightblue" d="M52.34,-87.57C66.68,-98.01 90.8,-114.85 113,-127 116.47,-128.9 120.12,-130.77 123.82,-132.58"/>
<polygon fill="midnightblue" stroke="midnightblue" points="122.52,-135.83 133.05,-136.92 125.5,-129.5 122.52,-135.83"/>
</g>
<!-- Node4 -->
<g id="node4" class="node">
<title>Node4</title>
<g id="a_node4"><a xlink:href="classreactesp_1_1_react_e_s_p.html#a914de417d6b11c6111df8bba25d5ed75" target="_top" xlink:title="Create a new RepeatReaction.">
<polygon fill="none" stroke="black" points="117.5,-88 117.5,-118 224.5,-118 224.5,-88 117.5,-88"/>
<text text-anchor="start" x="125.5" y="-106" font-family="Helvetica,sans-Serif" font-size="10.00">reactesp::ReactESP</text>
<text text-anchor="middle" x="171" y="-95" font-family="Helvetica,sans-Serif" font-size="10.00">::onRepeat</text>
</a>
</g>
</g>
<!-- Node1&#45;&gt;Node4 -->
<g id="edge3" class="edge">
<title>Node1&#45;&gt;Node4</title>
<path fill="none" stroke="midnightblue" d="M77.25,-85.23C86.72,-87.05 97.13,-89.04 107.46,-91.02"/>
<polygon fill="midnightblue" stroke="midnightblue" points="106.81,-94.46 117.29,-92.9 108.13,-87.58 106.81,-94.46"/>
</g>
<!-- Node6 -->
<g id="node6" class="node">
<title>Node6</title>
<g id="a_node6"><a xlink:href="classreactesp_1_1_i_s_r_reaction.html#a2418f9460dcdc9686ad2404d20164555" target="_top" xlink:title=" ">
<polygon fill="none" stroke="black" points="113,-39 113,-69 229,-69 229,-39 113,-39"/>
<text text-anchor="start" x="121" y="-57" font-family="Helvetica,sans-Serif" font-size="10.00">reactesp::ISRReaction</text>
<text text-anchor="middle" x="171" y="-46" font-family="Helvetica,sans-Serif" font-size="10.00">::remove</text>
</a>
</g>
</g>
<!-- Node1&#45;&gt;Node6 -->
<g id="edge5" class="edge">
<title>Node1&#45;&gt;Node6</title>
<path fill="none" stroke="midnightblue" d="M77.25,-71.06C85.34,-69.57 94.13,-67.95 102.96,-66.33"/>
<polygon fill="midnightblue" stroke="midnightblue" points="103.71,-69.75 112.91,-64.5 102.44,-62.87 103.71,-69.75"/>
</g>
<!-- Node7 -->
<g id="node7" class="node">
<title>Node7</title>
<g id="a_node7"><a xlink:href="main_8cpp.html#a58acc222e959363ee034cea9488ef627" target="_top" xlink:title=" ">
<polygon fill="none" stroke="black" points="146,-0.5 146,-19.5 196,-19.5 196,-0.5 146,-0.5"/>
<text text-anchor="middle" x="171" y="-7.5" font-family="Helvetica,sans-Serif" font-size="10.00">reporter</text>
</a>
</g>
</g>
<!-- Node1&#45;&gt;Node7 -->
<g id="edge6" class="edge">
<title>Node1&#45;&gt;Node7</title>
<path fill="none" stroke="midnightblue" d="M51.63,-68.43C65.72,-57.68 89.99,-40.25 113,-29 120.31,-25.42 128.47,-22.26 136.26,-19.59"/>
<polygon fill="midnightblue" stroke="midnightblue" points="137.43,-22.9 145.87,-16.49 135.27,-16.24 137.43,-22.9"/>
</g>
<!-- Node3 -->
<g id="node3" class="node">
<title>Node3</title>
<g id="a_node3"><a xlink:href="classreactesp_1_1_i_s_r_reaction.html#ae6b05573701f05de4dbc9fab8fca0b1c" target="_top" xlink:title=" ">
<polygon fill="none" stroke="black" points="270,-142.5 270,-161.5 408,-161.5 408,-142.5 270,-142.5"/>
<text text-anchor="middle" x="339" y="-149.5" font-family="Helvetica,sans-Serif" font-size="10.00">reactesp::ISRReaction::add</text>
</a>
</g>
</g>
<!-- Node2&#45;&gt;Node3 -->
<g id="edge2" class="edge">
<title>Node2&#45;&gt;Node3</title>
<path fill="none" stroke="midnightblue" d="M224.52,-152C235.62,-152 247.55,-152 259.37,-152"/>
<polygon fill="midnightblue" stroke="midnightblue" points="259.7,-155.5 269.7,-152 259.7,-148.5 259.7,-155.5"/>
</g>
<!-- Node5 -->
<g id="node5" class="node">
<title>Node5</title>
<g id="a_node5"><a xlink:href="classreactesp_1_1_timed_reaction.html#ac49b0dd38ef871399aa55d27fc7b44f8" target="_top" xlink:title=" ">
<polygon fill="none" stroke="black" points="265,-93.5 265,-112.5 413,-112.5 413,-93.5 265,-93.5"/>
<text text-anchor="middle" x="339" y="-100.5" font-family="Helvetica,sans-Serif" font-size="10.00">reactesp::TimedReaction::add</text>
</a>
</g>
</g>
<!-- Node4&#45;&gt;Node5 -->
<g id="edge4" class="edge">
<title>Node4&#45;&gt;Node5</title>
<path fill="none" stroke="midnightblue" d="M224.52,-103C234.14,-103 244.39,-103 254.65,-103"/>
<polygon fill="midnightblue" stroke="midnightblue" points="254.89,-106.5 264.89,-103 254.89,-99.5 254.89,-106.5"/>
</g>
</g>
</svg>
