<?xml version="1.0" encoding="UTF-8" standalone="no"?>
<!DOCTYPE svg PUBLIC "-//W3C//DTD SVG 1.1//EN"
 "http://www.w3.org/Graphics/SVG/1.1/DTD/svg11.dtd">
<!-- Generated by graphviz version 2.50.0 (20211204.2007)
 -->
<!-- Title: setup_tick Pages: 1 -->
<svg width="407pt" height="39pt"
 viewBox="0.00 0.00 407.00 39.00" xmlns="http://www.w3.org/2000/svg" xmlns:xlink="http://www.w3.org/1999/xlink">
<g id="graph0" class="graph" transform="scale(1 1) rotate(0) translate(4 35)">
<title>setup_tick</title>
<!-- Node1 -->
<g id="node1" class="node">
<title>Node1</title>
<g id="a_node1"><a xlink:title=" ">
<polygon fill="#bfbfbf" stroke="black" points="0,-6 0,-25 62,-25 62,-6 0,-6"/>
<text text-anchor="middle" x="31" y="-13" font-family="Helvetica,sans-Serif" font-size="10.00">setup_tick</text>
</a>
</g>
</g>
<!-- Node2 -->
<g id="node2" class="node">
<title>Node2</title>
<g id="a_node2"><a xlink:href="classreactesp_1_1_react_e_s_p.html#ae442c7e1e8084f46a900646957f1f9c8" target="_top" xlink:title="Create a new TickReaction.">
<polygon fill="none" stroke="black" points="98,-0.5 98,-30.5 205,-30.5 205,-0.5 98,-0.5"/>
<text text-anchor="start" x="106" y="-18.5" font-family="Helvetica,sans-Serif" font-size="10.00">reactesp::ReactESP</text>
<text text-anchor="middle" x="151.5" y="-7.5" font-family="Helvetica,sans-Serif" font-size="10.00">::onTick</text>
</a>
</g>
</g>
<!-- Node1&#45;&gt;Node2 -->
<g id="edge1" class="edge">
<title>Node1&#45;&gt;Node2</title>
<path fill="none" stroke="midnightblue" d="M62.21,-15.5C70.08,-15.5 78.86,-15.5 87.75,-15.5"/>
<polygon fill="midnightblue" stroke="midnightblue" points="87.78,-19 97.78,-15.5 87.78,-12 87.78,-19"/>
</g>
<!-- Node3 -->
<g id="node3" class="node">
<title>Node3</title>
<g id="a_node3"><a xlink:href="classreactesp_1_1_untimed_reaction.html#aa20f4242a6ef801cb58bf124ee4e6932" target="_top" xlink:title=" ">
<polygon fill="none" stroke="black" points="241,-6 241,-25 399,-25 399,-6 241,-6"/>
<text text-anchor="middle" x="320" y="-13" font-family="Helvetica,sans-Serif" font-size="10.00">reactesp::UntimedReaction::add</text>
</a>
</g>
</g>
<!-- Node2&#45;&gt;Node3 -->
<g id="edge2" class="edge">
<title>Node2&#45;&gt;Node3</title>
<path fill="none" stroke="midnightblue" d="M205.18,-15.5C213.33,-15.5 221.93,-15.5 230.61,-15.5"/>
<polygon fill="midnightblue" stroke="midnightblue" points="230.81,-19 240.81,-15.5 230.81,-12 230.81,-19"/>
</g>
</g>
</svg>
