<?xml version="1.0" encoding="UTF-8" standalone="no"?>
<!DOCTYPE svg PUBLIC "-//W3C//DTD SVG 1.1//EN"
 "http://www.w3.org/Graphics/SVG/1.1/DTD/svg11.dtd">
<!-- Generated by graphviz version 2.49.3 (20211023.0002)
 -->
<!-- Title: setup_serial Pages: 1 -->
<svg width="416pt" height="88pt"
 viewBox="0.00 0.00 416.00 88.00" xmlns="http://www.w3.org/2000/svg" xmlns:xlink="http://www.w3.org/1999/xlink">
<g id="graph0" class="graph" transform="scale(1 1) rotate(0) translate(4 84)">
<title>setup_serial</title>
<!-- Node1 -->
<g id="node1" class="node">
<title>Node1</title>
<g id="a_node1"><a xlink:title=" ">
<polygon fill="#bfbfbf" stroke="black" points="0,-30 0,-49 70,-49 70,-30 0,-30"/>
<text text-anchor="middle" x="35" y="-37" font-family="Helvetica,sans-Serif" font-size="10.00">setup_serial</text>
</a>
</g>
</g>
<!-- Node2 -->
<g id="node2" class="node">
<title>Node2</title>
<g id="a_node2"><a xlink:href="classreactesp_1_1_react_e_s_p.html#a42c88fbcd1f1ab9842517056448de6b5" target="_top" xlink:title="Create a new StreamReaction.">
<polygon fill="none" stroke="black" points="106,-49.5 106,-79.5 213,-79.5 213,-49.5 106,-49.5"/>
<text text-anchor="start" x="114" y="-67.5" font-family="Helvetica,sans-Serif" font-size="10.00">reactesp::ReactESP</text>
<text text-anchor="middle" x="159.5" y="-56.5" font-family="Helvetica,sans-Serif" font-size="10.00">::onAvailable</text>
</a>
</g>
</g>
<!-- Node1&#45;&gt;Node2 -->
<g id="edge1" class="edge">
<title>Node1&#45;&gt;Node2</title>
<path fill="none" stroke="midnightblue" d="M70.12,-46.46C78.15,-48.1 86.95,-49.9 95.79,-51.7"/>
<polygon fill="midnightblue" stroke="midnightblue" points="95.26,-55.17 105.75,-53.74 96.66,-48.31 95.26,-55.17"/>
</g>
<!-- Node4 -->
<g id="node4" class="node">
<title>Node4</title>
<g id="a_node4"><a xlink:href="classreactesp_1_1_react_e_s_p.html#a5b25d026d1f26fb80b2c6659f3875fd8" target="_top" xlink:title="Create a new DelayReaction.">
<polygon fill="none" stroke="black" points="106,-0.5 106,-30.5 213,-30.5 213,-0.5 106,-0.5"/>
<text text-anchor="start" x="114" y="-18.5" font-family="Helvetica,sans-Serif" font-size="10.00">reactesp::ReactESP</text>
<text text-anchor="middle" x="159.5" y="-7.5" font-family="Helvetica,sans-Serif" font-size="10.00">::onDelay</text>
</a>
</g>
</g>
<!-- Node1&#45;&gt;Node4 -->
<g id="edge3" class="edge">
<title>Node1&#45;&gt;Node4</title>
<path fill="none" stroke="midnightblue" d="M70.12,-32.81C78.15,-31.24 86.95,-29.52 95.79,-27.79"/>
<polygon fill="midnightblue" stroke="midnightblue" points="96.61,-31.19 105.75,-25.83 95.27,-24.32 96.61,-31.19"/>
</g>
<!-- Node3 -->
<g id="node3" class="node">
<title>Node3</title>
<g id="a_node3"><a xlink:href="classreactesp_1_1_untimed_reaction.html#a69503862f7b8e8033a2f401c9152a283" target="_top" xlink:title=" ">
<polygon fill="none" stroke="black" points="249,-55 249,-74 408,-74 408,-55 249,-55"/>
<text text-anchor="middle" x="328.5" y="-62" font-family="Helvetica,sans-Serif" font-size="10.00">reactesp::UntimedReaction::add</text>
</a>
</g>
</g>
<!-- Node2&#45;&gt;Node3 -->
<g id="edge2" class="edge">
<title>Node2&#45;&gt;Node3</title>
<path fill="none" stroke="midnightblue" d="M213.34,-64.5C221.44,-64.5 230,-64.5 238.63,-64.5"/>
<polygon fill="midnightblue" stroke="midnightblue" points="238.77,-68 248.77,-64.5 238.77,-61 238.77,-68"/>
</g>
<!-- Node5 -->
<g id="node5" class="node">
<title>Node5</title>
<g id="a_node5"><a xlink:href="classreactesp_1_1_timed_reaction.html#ae8318817b65df5dee74911f863973063" target="_top" xlink:title=" ">
<polygon fill="none" stroke="black" points="253.5,-6 253.5,-25 403.5,-25 403.5,-6 253.5,-6"/>
<text text-anchor="middle" x="328.5" y="-13" font-family="Helvetica,sans-Serif" font-size="10.00">reactesp::TimedReaction::add</text>
</a>
</g>
</g>
<!-- Node4&#45;&gt;Node5 -->
<g id="edge4" class="edge">
<title>Node4&#45;&gt;Node5</title>
<path fill="none" stroke="midnightblue" d="M213.34,-15.5C222.87,-15.5 233.02,-15.5 243.19,-15.5"/>
<polygon fill="midnightblue" stroke="midnightblue" points="243.34,-19 253.34,-15.5 243.34,-12 243.34,-19"/>
</g>
</g>
</svg>
