<?xml version="1.0" encoding="UTF-8" standalone="no"?>
<!DOCTYPE svg PUBLIC "-//W3C//DTD SVG 1.1//EN"
 "http://www.w3.org/Graphics/SVG/1.1/DTD/svg11.dtd">
<!-- Generated by graphviz version 12.1.2 (20240928.0832)
 -->
<!-- Title: execute_task Pages: 1 -->
<!--zoomable 174 -->

<svg id="main" version="1.1" xmlns="http://www.w3.org/2000/svg" xmlns:xlink="http://www.w3.org/1999/xlink" xml:space="preserve" onload="init(evt)">

<style type="text/css"><![CDATA[
.node, .edge {opacity: 0.7;}
.node.selected, .edge.selected {opacity: 1;}
.edge:hover path { stroke: red; }
.edge:hover polygon { stroke: red; fill: red; }
]]></style>

<defs>
  <circle id="rim" cx="0" cy="0" r="7"/>
  <circle id="rim2" cx="0" cy="0" r="3.5"/>
  <g id="zoomPlus">
    <use xlink:href="#rim" fill="#404040"><set attributeName="fill" to="#808080" begin="zoomplus.mouseover" end="zoomplus.mouseout"/></use>
    <path d="M-4,0h8M0,-4v8" fill="none" stroke="white" stroke-width="1.5" pointer-events="none"/>
  </g>
  <g id="zoomMin">
    <use xlink:href="#rim" fill="#404040"><set attributeName="fill" to="#808080" begin="zoomminus.mouseover" end="zoomminus.mouseout"/></use>
    <path d="M-4,0h8" fill="none" stroke="white" stroke-width="1.5" pointer-events="none"/>
  </g>
  <g id="arrowUp" transform="translate(30 24)">
    <use xlink:href="#rim"/>
    <path pointer-events="none" fill="none" stroke="white" stroke-width="1.5" d="M0,-3.0v7 M-2.5,-0.5L0,-3.0L2.5,-0.5"/>
  </g>
  <g id="arrowRight" transform="rotate(90) translate(36 -43)">
    <use xlink:href="#rim"/>
    <path pointer-events="none" fill="none" stroke="white" stroke-width="1.5" d="M0,-3.0v7 M-2.5,-0.5L0,-3.0L2.5,-0.5"/>
  </g>
  <g id="arrowDown" transform="rotate(180) translate(-30 -48)">
    <use xlink:href="#rim"/>
    <path pointer-events="none" fill="none" stroke="white" stroke-width="1.5" d="M0,-3.0v7 M-2.5,-0.5L0,-3.0L2.5,-0.5"/>
  </g>
  <g id="arrowLeft" transform="rotate(270) translate(-36 17)">
    <use xlink:href="#rim"/>
    <path pointer-events="none" fill="none" stroke="white" stroke-width="1.5" d="M0,-3.0v7 M-2.5,-0.5L0,-3.0L2.5,-0.5"/>
  </g>
  <g id="resetDef">
    <use xlink:href="#rim2" fill="#404040"><set attributeName="fill" to="#808080" begin="reset.mouseover" end="reset.mouseout"/></use>
  </g>
</defs>
<script type="application/ecmascript">
var viewWidth = 519;
var viewHeight = 174;
var sectionId = 'dynsection-1';
</script>
<script type="application/ecmascript" xlink:href="svg.min.js"/>
<svg id="graph" class="graph">
<g id="viewport">
<title>execute_task</title>
<!-- Node1 -->
<g id="Node000001" class="node">
<title>Node1</title>
<g id="a_Node000001"><a xlink:title=" ">
<polygon fill="#999999" stroke="#666666" points="74.5,-87.88 0,-87.88 0,-68.62 74.5,-68.62 74.5,-87.88"/>
<text text-anchor="middle" x="37.25" y="-74.38" font-family="Helvetica,sans-Serif" font-size="10.00">execute_task</text>
</a>
</g>
</g>
<!-- Node2 -->
<g id="Node000002" class="node">
<title>Node2</title>
<g id="a_Node000002"><a xlink:href="classreactesp_1_1_event_loop.html#a992c498cf62081624726346edf2db28b" target="_top" xlink:title="Create a new RepeatEvent.">
<polygon fill="white" stroke="#666666" points="216.5,-118.5 110.5,-118.5 110.5,-88 216.5,-88 216.5,-118.5"/>
<text text-anchor="start" x="118.5" y="-105" font-family="Helvetica,sans-Serif" font-size="10.00">reactesp::EventLoop</text>
<text text-anchor="middle" x="163.5" y="-93.75" font-family="Helvetica,sans-Serif" font-size="10.00">::onRepeat</text>
</a>
</g>
</g>
<!-- Node1&#45;&gt;Node2 -->
<g id="edge1_Node000001_Node000002" class="edge">
<title>Node1&#45;&gt;Node2</title>
<g id="a_edge1_Node000001_Node000002"><a xlink:title=" ">
<path fill="none" stroke="#63b8ff" d="M74.86,-85.62C82.44,-87.14 90.63,-88.79 98.86,-90.44"/>
<polygon fill="#63b8ff" stroke="#63b8ff" points="98.07,-93.86 108.56,-92.4 99.45,-86.99 98.07,-93.86"/>
</a>
</g>
</g>
<!-- Node3 -->
<g id="Node000003" class="node">
<title>Node3</title>
<g id="a_Node000003"><a xlink:href="classreactesp_1_1_event_loop.html#a2c84df800a38ca6870c5a20eaa53d526" target="_top" xlink:title=" ">
<polygon fill="white" stroke="#666666" points="216.5,-69.5 110.5,-69.5 110.5,-39 216.5,-39 216.5,-69.5"/>
<text text-anchor="start" x="118.5" y="-56" font-family="Helvetica,sans-Serif" font-size="10.00">reactesp::EventLoop</text>
<text text-anchor="middle" x="163.5" y="-44.75" font-family="Helvetica,sans-Serif" font-size="10.00">::tick</text>
</a>
</g>
</g>
<!-- Node1&#45;&gt;Node3 -->
<g id="edge2_Node000001_Node000003" class="edge">
<title>Node1&#45;&gt;Node3</title>
<g id="a_edge2_Node000001_Node000003"><a xlink:title=" ">
<path fill="none" stroke="#63b8ff" d="M74.86,-71.18C82.44,-69.72 90.63,-68.13 98.86,-66.54"/>
<polygon fill="#63b8ff" stroke="#63b8ff" points="99.4,-70 108.56,-64.67 98.07,-63.13 99.4,-70"/>
</a>
</g>
</g>
<!-- Node4 -->
<g id="Node000004" class="node">
<title>Node4</title>
<g id="a_Node000004"><a xlink:href="classreactesp_1_1_event_loop.html#a001ffbb649dc0b4b0dd11a3eb68db76b" target="_top" xlink:title=" ">
<polygon fill="white" stroke="#666666" points="358.5,-94.5 252.5,-94.5 252.5,-64 358.5,-64 358.5,-94.5"/>
<text text-anchor="start" x="260.5" y="-81" font-family="Helvetica,sans-Serif" font-size="10.00">reactesp::EventLoop</text>
<text text-anchor="middle" x="305.5" y="-69.75" font-family="Helvetica,sans-Serif" font-size="10.00">::tickTimed</text>
</a>
</g>
</g>
<!-- Node3&#45;&gt;Node4 -->
<g id="edge3_Node000003_Node000004" class="edge">
<title>Node3&#45;&gt;Node4</title>
<g id="a_edge3_Node000003_Node000004"><a xlink:title=" ">
<path fill="none" stroke="#63b8ff" d="M216.63,-63.56C224.65,-64.99 233,-66.48 241.23,-67.95"/>
<polygon fill="#63b8ff" stroke="#63b8ff" points="240.38,-71.35 250.84,-69.67 241.61,-64.46 240.38,-71.35"/>
</a>
</g>
</g>
<!-- Node9 -->
<g id="Node000009" class="node">
<title>Node9</title>
<g id="a_Node000009"><a xlink:href="classreactesp_1_1_event_loop.html#a816b31c993f0c98a4b3237c87a5b9a72" target="_top" xlink:title=" ">
<polygon fill="white" stroke="#666666" points="358.5,-45.5 252.5,-45.5 252.5,-15 358.5,-15 358.5,-45.5"/>
<text text-anchor="start" x="260.5" y="-32" font-family="Helvetica,sans-Serif" font-size="10.00">reactesp::EventLoop</text>
<text text-anchor="middle" x="305.5" y="-20.75" font-family="Helvetica,sans-Serif" font-size="10.00">::tickUntimed</text>
</a>
</g>
</g>
<!-- Node3&#45;&gt;Node9 -->
<g id="edge8_Node000003_Node000009" class="edge">
<title>Node3&#45;&gt;Node9</title>
<g id="a_edge8_Node000003_Node000009"><a xlink:title=" ">
<path fill="none" stroke="#63b8ff" d="M216.63,-45.31C224.65,-43.94 233,-42.51 241.23,-41.1"/>
<polygon fill="#63b8ff" stroke="#63b8ff" points="241.57,-44.59 250.83,-39.45 240.39,-37.69 241.57,-44.59"/>
</a>
</g>
</g>
<!-- Node5 -->
<g id="Node000005" class="node">
<title>Node5</title>
<g id="a_Node000005"><a xlink:href="classreactesp_1_1_timed_event.html#a18e54ee8a5720bf8e218273ad6ce399b" target="_top" xlink:title=" ">
<polygon fill="white" stroke="#666666" points="511,-165.5 394.5,-165.5 394.5,-135 511,-135 511,-165.5"/>
<text text-anchor="start" x="402.5" y="-152" font-family="Helvetica,sans-Serif" font-size="10.00">reactesp::TimedEvent</text>
<text text-anchor="middle" x="452.75" y="-140.75" font-family="Helvetica,sans-Serif" font-size="10.00">::getTriggerTimeMicros</text>
</a>
</g>
</g>
<!-- Node4&#45;&gt;Node5 -->
<g id="edge4_Node000004_Node000005" class="edge">
<title>Node4&#45;&gt;Node5</title>
<g id="a_edge4_Node000004_Node000005"><a xlink:title=" ">
<path fill="none" stroke="#63b8ff" d="M335.18,-94.89C352.26,-104.04 374.44,-115.64 394.5,-125.25 397.78,-126.82 401.18,-128.41 404.61,-129.98"/>
<polygon fill="#63b8ff" stroke="#63b8ff" points="402.99,-133.09 413.55,-134 405.87,-126.71 402.99,-133.09"/>
</a>
</g>
</g>
<!-- Node6 -->
<g id="Node000006" class="node">
<title>Node6</title>
<g id="a_Node000006"><a xlink:href="classreactesp_1_1_timed_event.html#a813ca557a9e1918800e22b27b6a3fe26" target="_top" xlink:title=" ">
<polygon fill="white" stroke="#666666" points="508.75,-116.5 396.75,-116.5 396.75,-86 508.75,-86 508.75,-116.5"/>
<text text-anchor="start" x="404.75" y="-103" font-family="Helvetica,sans-Serif" font-size="10.00">reactesp::TimedEvent</text>
<text text-anchor="middle" x="452.75" y="-91.75" font-family="Helvetica,sans-Serif" font-size="10.00">::isEnabled</text>
</a>
</g>
</g>
<!-- Node4&#45;&gt;Node6 -->
<g id="edge5_Node000004_Node000006" class="edge">
<title>Node4&#45;&gt;Node6</title>
<g id="a_edge5_Node000004_Node000006"><a xlink:title=" ">
<path fill="none" stroke="#63b8ff" d="M358.94,-87.19C367.51,-88.49 376.49,-89.85 385.34,-91.19"/>
<polygon fill="#63b8ff" stroke="#63b8ff" points="384.54,-94.61 394.95,-92.65 385.59,-87.69 384.54,-94.61"/>
</a>
</g>
</g>
<!-- Node7 -->
<g id="Node000007" class="node">
<title>Node7</title>
<g id="a_Node000007"><a xlink:href="namespacereactesp.html#ad8ee9481c08d90d81a80eded1394f1bb" target="_top" xlink:title="Return the current time since the device restart in microseconds.">
<polygon fill="white" stroke="#666666" points="502.38,-67.88 403.12,-67.88 403.12,-48.62 502.38,-48.62 502.38,-67.88"/>
<text text-anchor="middle" x="452.75" y="-54.38" font-family="Helvetica,sans-Serif" font-size="10.00">reactesp::micros64</text>
</a>
</g>
</g>
<!-- Node4&#45;&gt;Node7 -->
<g id="edge6_Node000004_Node000007" class="edge">
<title>Node4&#45;&gt;Node7</title>
<g id="a_edge6_Node000004_Node000007"><a xlink:title=" ">
<path fill="none" stroke="#63b8ff" d="M358.94,-71.67C369.55,-70.13 380.79,-68.51 391.65,-66.94"/>
<polygon fill="#63b8ff" stroke="#63b8ff" points="391.88,-70.44 401.28,-65.55 390.88,-63.51 391.88,-70.44"/>
</a>
</g>
</g>
<!-- Node8 -->
<g id="Node000008" class="node">
<title>Node8</title>
<g id="a_Node000008"><a xlink:href="classreactesp_1_1_timed_event.html#a55884e4ff4d0368e243503def0b31e49" target="_top" xlink:title=" ">
<polygon fill="white" stroke="#666666" points="508.75,-30.5 396.75,-30.5 396.75,0 508.75,0 508.75,-30.5"/>
<text text-anchor="start" x="404.75" y="-17" font-family="Helvetica,sans-Serif" font-size="10.00">reactesp::TimedEvent</text>
<text text-anchor="middle" x="452.75" y="-5.75" font-family="Helvetica,sans-Serif" font-size="10.00">::tick</text>
</a>
</g>
</g>
<!-- Node4&#45;&gt;Node8 -->
<g id="edge7_Node000004_Node000008" class="edge">
<title>Node4&#45;&gt;Node8</title>
<g id="a_edge7_Node000004_Node000008"><a xlink:title=" ">
<path fill="none" stroke="#63b8ff" d="M340.24,-63.63C356.58,-56.14 376.51,-47.11 394.5,-39.25 397.42,-37.98 400.42,-36.68 403.46,-35.37"/>
<polygon fill="#63b8ff" stroke="#63b8ff" points="404.58,-38.7 412.41,-31.56 401.84,-32.26 404.58,-38.7"/>
</a>
</g>
</g>
</g>
</svg>

<g id="navigator" transform="translate(0 0)" fill="#404254">
  <rect fill="#f2f5e9" fill-opacity="0.5" stroke="#606060" stroke-width=".5" x="0" y="0" width="60" height="60"/>
  <use id="zoomplus" xlink:href="#zoomPlus" x="17" y="9" onmousedown="handleZoom(evt,'in')"/>
  <use id="zoomminus" xlink:href="#zoomMin" x="42" y="9" onmousedown="handleZoom(evt,'out')"/>
  <use id="reset" xlink:href="#resetDef" x="30" y="36" onmousedown="handleReset()"/>
   <use id="arrowup" xlink:href="#arrowUp" x="0" y="0" onmousedown="handlePan(0,-1)"/>
  <use id="arrowright" xlink:href="#arrowRight" x="0" y="0" onmousedown="handlePan(1,0)"/>
  <use id="arrowdown" xlink:href="#arrowDown" x="0" y="0" onmousedown="handlePan(0,1)"/>
  <use id="arrowleft" xlink:href="#arrowLeft" x="0" y="0" onmousedown="handlePan(-1,0)"/>
</g>
<svg viewBox="0 0 15 15" width="100%" height="30px" preserveAspectRatio="xMaxYMin meet">
 <g id="arrow_out" transform="scale(0.3 0.3)">
  <a xlink:href="main_8cpp_ab9032828806331e4ee839f4dde7611f2_cgraph_org.svg" target="_base">
   <rect id="button" ry="5" rx="5" y="6" x="6" height="38" width="38"
        fill="#f2f5e9" fill-opacity="0.5" stroke="#606060" stroke-width="1.0"/>
   <path id="arrow"
     d="M 11.500037,31.436501 C 11.940474,20.09759 22.043105,11.32322 32.158766,21.979434 L 37.068811,17.246167 C 37.068811,17.246167 37.088388,32 37.088388,32 L 22.160133,31.978069 C 22.160133,31.978069 26.997745,27.140456 26.997745,27.140456 C 18.528582,18.264221 13.291696,25.230495 11.500037,31.436501 z"
     style="fill:#404040;"/>
  </a>
 </g>
</svg>

<style type='text/css'>
<![CDATA[
[data-mouse-over-selected='false'] { opacity: 0.7; }
[data-mouse-over-selected='true']  { opacity: 1.0; }
]]>
</style>
<script type="application/ecmascript"><![CDATA[
document.addEventListener('DOMContentLoaded', (event) => {
  highlightEdges();
  highlightAdjacentNodes();
});
]]></script>
</svg>
