<?xml version="1.0" encoding="UTF-8" standalone="no"?>
<!DOCTYPE svg PUBLIC "-//W3C//DTD SVG 1.1//EN"
 "http://www.w3.org/Graphics/SVG/1.1/DTD/svg11.dtd">
<!-- Generated by graphviz version 2.50.0 (20211204.2007)
 -->
<!-- Title: setup_timers Pages: 1 -->
<svg width="408pt" height="78pt"
 viewBox="0.00 0.00 408.00 77.50" xmlns="http://www.w3.org/2000/svg" xmlns:xlink="http://www.w3.org/1999/xlink">
<g id="graph0" class="graph" transform="scale(1 1) rotate(0) translate(4 73.5)">
<title>setup_timers</title>
<!-- Node1 -->
<g id="node1" class="node">
<title>Node1</title>
<g id="a_node1"><a xlink:title=" ">
<polygon fill="#bfbfbf" stroke="black" points="0,-22.5 0,-41.5 73,-41.5 73,-22.5 0,-22.5"/>
<text text-anchor="middle" x="36.5" y="-29.5" font-family="Helvetica,sans-Serif" font-size="10.00">setup_timers</text>
</a>
</g>
</g>
<!-- Node2 -->
<g id="node2" class="node">
<title>Node2</title>
<g id="a_node2"><a xlink:href="classreactesp_1_1_react_e_s_p.html#a914de417d6b11c6111df8bba25d5ed75" target="_top" xlink:title="Create a new RepeatReaction.">
<polygon fill="none" stroke="black" points="109,-39 109,-69 216,-69 216,-39 109,-39"/>
<text text-anchor="start" x="117" y="-57" font-family="Helvetica,sans-Serif" font-size="10.00">reactesp::ReactESP</text>
<text text-anchor="middle" x="162.5" y="-46" font-family="Helvetica,sans-Serif" font-size="10.00">::onRepeat</text>
</a>
</g>
</g>
<!-- Node1&#45;&gt;Node2 -->
<g id="edge1" class="edge">
<title>Node1&#45;&gt;Node2</title>
<path fill="none" stroke="midnightblue" d="M73.03,-38.3C81.14,-39.74 90,-41.31 98.87,-42.89"/>
<polygon fill="midnightblue" stroke="midnightblue" points="98.4,-46.36 108.86,-44.66 99.62,-39.47 98.4,-46.36"/>
</g>
<!-- Node4 -->
<g id="node4" class="node">
<title>Node4</title>
<g id="a_node4"><a xlink:href="main_8cpp.html#a58acc222e959363ee034cea9488ef627" target="_top" xlink:title=" ">
<polygon fill="none" stroke="black" points="137.5,-0.5 137.5,-19.5 187.5,-19.5 187.5,-0.5 137.5,-0.5"/>
<text text-anchor="middle" x="162.5" y="-7.5" font-family="Helvetica,sans-Serif" font-size="10.00">reporter</text>
</a>
</g>
</g>
<!-- Node1&#45;&gt;Node4 -->
<g id="edge3" class="edge">
<title>Node1&#45;&gt;Node4</title>
<path fill="none" stroke="midnightblue" d="M73.03,-25.7C90.1,-22.67 110.46,-19.05 127.35,-16.06"/>
<polygon fill="midnightblue" stroke="midnightblue" points="128.12,-19.48 137.35,-14.28 126.89,-12.59 128.12,-19.48"/>
</g>
<!-- Node3 -->
<g id="node3" class="node">
<title>Node3</title>
<g id="a_node3"><a xlink:href="classreactesp_1_1_timed_reaction.html#ac49b0dd38ef871399aa55d27fc7b44f8" target="_top" xlink:title=" ">
<polygon fill="none" stroke="black" points="252,-44.5 252,-63.5 400,-63.5 400,-44.5 252,-44.5"/>
<text text-anchor="middle" x="326" y="-51.5" font-family="Helvetica,sans-Serif" font-size="10.00">reactesp::TimedReaction::add</text>
</a>
</g>
</g>
<!-- Node2&#45;&gt;Node3 -->
<g id="edge2" class="edge">
<title>Node2&#45;&gt;Node3</title>
<path fill="none" stroke="midnightblue" d="M216.38,-54C224.51,-54 233.08,-54 241.68,-54"/>
<polygon fill="midnightblue" stroke="midnightblue" points="241.77,-57.5 251.77,-54 241.77,-50.5 241.77,-57.5"/>
</g>
</g>
</svg>
