<?xml version="1.0" encoding="UTF-8" standalone="no"?>
<!DOCTYPE svg PUBLIC "-//W3C//DTD SVG 1.1//EN"
 "http://www.w3.org/Graphics/SVG/1.1/DTD/svg11.dtd">
<!-- Generated by graphviz version 12.1.2 (20240928.0832)
 -->
<!-- Title: setup Pages: 1 -->
<svg width="302pt" height="321pt"
 viewBox="0.00 0.00 302.00 320.50" xmlns="http://www.w3.org/2000/svg" xmlns:xlink="http://www.w3.org/1999/xlink">
<g id="graph0" class="graph" transform="scale(1 1) rotate(0) translate(4 316.5)">
<title>setup</title>
<!-- Node1 -->
<g id="Node000001" class="node">
<title>Node1</title>
<g id="a_Node000001"><a xlink:title=" ">
<polygon fill="#999999" stroke="#666666" points="40,-146.88 0,-146.88 0,-127.62 40,-127.62 40,-146.88"/>
<text text-anchor="middle" x="20" y="-133.38" font-family="Helvetica,sans-Serif" font-size="10.00">setup</text>
</a>
</g>
</g>
<!-- Node2 -->
<g id="Node000002" class="node">
<title>Node2</title>
<g id="a_Node000002"><a xlink:href="main_8cpp.html#ad991f139e8442b81f0e042d82d00bd7e" target="_top" xlink:title=" ">
<polygon fill="white" stroke="#666666" points="152,-214.88 76,-214.88 76,-195.62 152,-195.62 152,-214.88"/>
<text text-anchor="middle" x="114" y="-201.38" font-family="Helvetica,sans-Serif" font-size="10.00">setup_io_pins</text>
</a>
</g>
</g>
<!-- Node1&#45;&gt;Node2 -->
<g id="edge1_Node000001_Node000002" class="edge">
<title>Node1&#45;&gt;Node2</title>
<g id="a_edge1_Node000001_Node000002"><a xlink:title=" ">
<path fill="none" stroke="#63b8ff" d="M32.54,-147.04C43.49,-156.19 60.53,-170.09 76,-181.25 79.67,-183.9 83.61,-186.6 87.51,-189.19"/>
<polygon fill="#63b8ff" stroke="#63b8ff" points="85.36,-191.97 95.65,-194.49 89.18,-186.1 85.36,-191.97"/>
</a>
</g>
</g>
<!-- Node7 -->
<g id="Node000007" class="node">
<title>Node7</title>
<g id="a_Node000007"><a xlink:href="main_8cpp.html#a1921d9a3d419e00436d8938e6521b9f2" target="_top" xlink:title=" ">
<polygon fill="white" stroke="#666666" points="148.25,-122.88 79.75,-122.88 79.75,-103.62 148.25,-103.62 148.25,-122.88"/>
<text text-anchor="middle" x="114" y="-109.38" font-family="Helvetica,sans-Serif" font-size="10.00">setup_serial</text>
</a>
</g>
</g>
<!-- Node1&#45;&gt;Node7 -->
<g id="edge6_Node000001_Node000007" class="edge">
<title>Node1&#45;&gt;Node7</title>
<g id="a_edge6_Node000001_Node000007"><a xlink:title=" ">
<path fill="none" stroke="#63b8ff" d="M40.06,-132.28C48.32,-130.12 58.37,-127.5 68.34,-124.9"/>
<polygon fill="#63b8ff" stroke="#63b8ff" points="69.2,-128.29 77.99,-122.38 67.43,-121.52 69.2,-128.29"/>
</a>
</g>
</g>
<!-- Node10 -->
<g id="Node000010" class="node">
<title>Node10</title>
<g id="a_Node000010"><a xlink:href="main_8cpp.html#ac138bb00421f2c926d7029d0b293cc0f" target="_top" xlink:title=" ">
<polygon fill="white" stroke="#666666" points="144.5,-55.88 83.5,-55.88 83.5,-36.62 144.5,-36.62 144.5,-55.88"/>
<text text-anchor="middle" x="114" y="-42.38" font-family="Helvetica,sans-Serif" font-size="10.00">setup_tick</text>
</a>
</g>
</g>
<!-- Node1&#45;&gt;Node10 -->
<g id="edge9_Node000001_Node000010" class="edge">
<title>Node1&#45;&gt;Node10</title>
<g id="a_edge9_Node000001_Node000010"><a xlink:title=" ">
<path fill="none" stroke="#63b8ff" d="M31.2,-127.16C46.54,-111.98 75.81,-83.04 94.85,-64.2"/>
<polygon fill="#63b8ff" stroke="#63b8ff" points="97.31,-66.69 101.96,-57.17 92.39,-61.71 97.31,-66.69"/>
</a>
</g>
</g>
<!-- Node12 -->
<g id="Node000012" class="node">
<title>Node12</title>
<g id="a_Node000012"><a xlink:href="main_8cpp.html#a4ce2b9b2cc8c29c788ce0a1870b7bbe9" target="_top" xlink:title=" ">
<polygon fill="white" stroke="#666666" points="150.12,-171.88 77.88,-171.88 77.88,-152.62 150.12,-152.62 150.12,-171.88"/>
<text text-anchor="middle" x="114" y="-158.38" font-family="Helvetica,sans-Serif" font-size="10.00">setup_timers</text>
</a>
</g>
</g>
<!-- Node1&#45;&gt;Node12 -->
<g id="edge11_Node000001_Node000012" class="edge">
<title>Node1&#45;&gt;Node12</title>
<g id="a_edge11_Node000001_Node000012"><a xlink:title=" ">
<path fill="none" stroke="#63b8ff" d="M40.06,-142.43C47.86,-144.55 57.24,-147.1 66.65,-149.65"/>
<polygon fill="#63b8ff" stroke="#63b8ff" points="65.57,-152.99 76.14,-152.23 67.41,-146.23 65.57,-152.99"/>
</a>
</g>
</g>
<!-- Node3 -->
<g id="Node000003" class="node">
<title>Node3</title>
<g id="a_Node000003"><a xlink:href="classreactesp_1_1_event_loop.html#a9413f233f711816fcc9eb3c1d296e3ff" target="_top" xlink:title="Create a new ISREvent (interrupt event)">
<polygon fill="white" stroke="#666666" points="294,-263.5 188,-263.5 188,-233 294,-233 294,-263.5"/>
<text text-anchor="start" x="196" y="-250" font-family="Helvetica,sans-Serif" font-size="10.00">reactesp::EventLoop</text>
<text text-anchor="middle" x="241" y="-238.75" font-family="Helvetica,sans-Serif" font-size="10.00">::onInterrupt</text>
</a>
</g>
</g>
<!-- Node2&#45;&gt;Node3 -->
<g id="edge2_Node000002_Node000003" class="edge">
<title>Node2&#45;&gt;Node3</title>
<g id="a_edge2_Node000002_Node000003"><a xlink:title=" ">
<path fill="none" stroke="#63b8ff" d="M144.31,-215.33C156.04,-219.37 169.96,-224.16 183.51,-228.82"/>
<polygon fill="#63b8ff" stroke="#63b8ff" points="182.22,-232.07 192.81,-232.02 184.49,-225.45 182.22,-232.07"/>
</a>
</g>
</g>
<!-- Node4 -->
<g id="Node000004" class="node">
<title>Node4</title>
<g id="a_Node000004"><a xlink:href="classreactesp_1_1_event_loop.html#a992c498cf62081624726346edf2db28b" target="_top" xlink:title="Create a new RepeatEvent.">
<polygon fill="white" stroke="#666666" points="294,-177.5 188,-177.5 188,-147 294,-147 294,-177.5"/>
<text text-anchor="start" x="196" y="-164" font-family="Helvetica,sans-Serif" font-size="10.00">reactesp::EventLoop</text>
<text text-anchor="middle" x="241" y="-152.75" font-family="Helvetica,sans-Serif" font-size="10.00">::onRepeat</text>
</a>
</g>
</g>
<!-- Node2&#45;&gt;Node4 -->
<g id="edge3_Node000002_Node000004" class="edge">
<title>Node2&#45;&gt;Node4</title>
<g id="a_edge3_Node000002_Node000004"><a xlink:title=" ">
<path fill="none" stroke="#63b8ff" d="M144.31,-195.17C156.04,-191.13 169.96,-186.34 183.51,-181.68"/>
<polygon fill="#63b8ff" stroke="#63b8ff" points="184.49,-185.05 192.81,-178.48 182.22,-178.43 184.49,-185.05"/>
</a>
</g>
</g>
<!-- Node5 -->
<g id="Node000005" class="node">
<title>Node5</title>
<g id="a_Node000005"><a xlink:href="classreactesp_1_1_i_s_r_event.html#a52ff94762bb729778aef8d582bf2e3a8" target="_top" xlink:title=" ">
<polygon fill="white" stroke="#666666" points="292.12,-312.5 189.88,-312.5 189.88,-282 292.12,-282 292.12,-312.5"/>
<text text-anchor="start" x="197.88" y="-299" font-family="Helvetica,sans-Serif" font-size="10.00">reactesp::ISREvent</text>
<text text-anchor="middle" x="241" y="-287.75" font-family="Helvetica,sans-Serif" font-size="10.00">::remove</text>
</a>
</g>
</g>
<!-- Node2&#45;&gt;Node5 -->
<g id="edge4_Node000002_Node000005" class="edge">
<title>Node2&#45;&gt;Node5</title>
<g id="a_edge4_Node000002_Node000005"><a xlink:title=" ">
<path fill="none" stroke="#63b8ff" d="M124.14,-215.34C137.26,-229.39 162.65,-255.08 188,-272.25 189.83,-273.49 191.74,-274.71 193.69,-275.89"/>
<polygon fill="#63b8ff" stroke="#63b8ff" points="191.95,-278.93 202.39,-280.77 195.38,-272.82 191.95,-278.93"/>
</a>
</g>
</g>
<!-- Node6 -->
<g id="Node000006" class="node">
<title>Node6</title>
<g id="a_Node000006"><a xlink:href="main_8cpp.html#a58acc222e959363ee034cea9488ef627" target="_top" xlink:title=" ">
<polygon fill="white" stroke="#666666" points="265.5,-214.88 216.5,-214.88 216.5,-195.62 265.5,-195.62 265.5,-214.88"/>
<text text-anchor="middle" x="241" y="-201.38" font-family="Helvetica,sans-Serif" font-size="10.00">reporter</text>
</a>
</g>
</g>
<!-- Node2&#45;&gt;Node6 -->
<g id="edge5_Node000002_Node000006" class="edge">
<title>Node2&#45;&gt;Node6</title>
<g id="a_edge5_Node000002_Node000006"><a xlink:title=" ">
<path fill="none" stroke="#63b8ff" d="M152.17,-205.25C168.84,-205.25 188.42,-205.25 204.85,-205.25"/>
<polygon fill="#63b8ff" stroke="#63b8ff" points="204.66,-208.75 214.66,-205.25 204.66,-201.75 204.66,-208.75"/>
</a>
</g>
</g>
<!-- Node8 -->
<g id="Node000008" class="node">
<title>Node8</title>
<g id="a_Node000008"><a xlink:href="classreactesp_1_1_event_loop.html#a3a85d2eebfb959d5d0caa15acbda6a72" target="_top" xlink:title="Create a new StreamEvent.">
<polygon fill="white" stroke="#666666" points="294,-79.5 188,-79.5 188,-49 294,-49 294,-79.5"/>
<text text-anchor="start" x="196" y="-66" font-family="Helvetica,sans-Serif" font-size="10.00">reactesp::EventLoop</text>
<text text-anchor="middle" x="241" y="-54.75" font-family="Helvetica,sans-Serif" font-size="10.00">::onAvailable</text>
</a>
</g>
</g>
<!-- Node7&#45;&gt;Node8 -->
<g id="edge7_Node000007_Node000008" class="edge">
<title>Node7&#45;&gt;Node8</title>
<g id="a_edge7_Node000007_Node000008"><a xlink:title=" ">
<path fill="none" stroke="#63b8ff" d="M140.6,-103.22C154.79,-97.65 172.95,-90.53 189.85,-83.91"/>
<polygon fill="#63b8ff" stroke="#63b8ff" points="190.72,-87.33 198.75,-80.42 188.16,-80.81 190.72,-87.33"/>
</a>
</g>
</g>
<!-- Node9 -->
<g id="Node000009" class="node">
<title>Node9</title>
<g id="a_Node000009"><a xlink:href="classreactesp_1_1_event_loop.html#a4bae6985931b6acda6afcbab5e1086a1" target="_top" xlink:title="Create a new DelayEvent.">
<polygon fill="white" stroke="#666666" points="294,-128.5 188,-128.5 188,-98 294,-98 294,-128.5"/>
<text text-anchor="start" x="196" y="-115" font-family="Helvetica,sans-Serif" font-size="10.00">reactesp::EventLoop</text>
<text text-anchor="middle" x="241" y="-103.75" font-family="Helvetica,sans-Serif" font-size="10.00">::onDelay</text>
</a>
</g>
</g>
<!-- Node7&#45;&gt;Node9 -->
<g id="edge8_Node000007_Node000009" class="edge">
<title>Node7&#45;&gt;Node9</title>
<g id="a_edge8_Node000007_Node000009"><a xlink:title=" ">
<path fill="none" stroke="#63b8ff" d="M148.5,-113.25C157.13,-113.25 166.7,-113.25 176.32,-113.25"/>
<polygon fill="#63b8ff" stroke="#63b8ff" points="176.05,-116.75 186.05,-113.25 176.05,-109.75 176.05,-116.75"/>
</a>
</g>
</g>
<!-- Node11 -->
<g id="Node000011" class="node">
<title>Node11</title>
<g id="a_Node000011"><a xlink:href="classreactesp_1_1_event_loop.html#a4a4bfd4eea96041fb7518e6b3dbacb3e" target="_top" xlink:title="Create a new TickEvent.">
<polygon fill="white" stroke="#666666" points="294,-30.5 188,-30.5 188,0 294,0 294,-30.5"/>
<text text-anchor="start" x="196" y="-17" font-family="Helvetica,sans-Serif" font-size="10.00">reactesp::EventLoop</text>
<text text-anchor="middle" x="241" y="-5.75" font-family="Helvetica,sans-Serif" font-size="10.00">::onTick</text>
</a>
</g>
</g>
<!-- Node10&#45;&gt;Node11 -->
<g id="edge10_Node000010_Node000011" class="edge">
<title>Node10&#45;&gt;Node11</title>
<g id="a_edge10_Node000010_Node000011"><a xlink:title=" ">
<path fill="none" stroke="#63b8ff" d="M144.94,-38.82C154.58,-36.43 165.66,-33.69 176.77,-30.93"/>
<polygon fill="#63b8ff" stroke="#63b8ff" points="177.5,-34.36 186.36,-28.55 175.82,-27.56 177.5,-34.36"/>
</a>
</g>
</g>
<!-- Node12&#45;&gt;Node4 -->
<g id="edge12_Node000012_Node000004" class="edge">
<title>Node12&#45;&gt;Node4</title>
<g id="a_edge12_Node000012_Node000004"><a xlink:title=" ">
<path fill="none" stroke="#63b8ff" d="M150.49,-162.25C158.61,-162.25 167.48,-162.25 176.38,-162.25"/>
<polygon fill="#63b8ff" stroke="#63b8ff" points="176.11,-165.75 186.11,-162.25 176.11,-158.75 176.11,-165.75"/>
</a>
</g>
</g>
<!-- Node12&#45;&gt;Node6 -->
<g id="edge13_Node000012_Node000006" class="edge">
<title>Node12&#45;&gt;Node6</title>
<g id="a_edge13_Node000012_Node000006"><a xlink:title=" ">
<path fill="none" stroke="#63b8ff" d="M144.31,-172.33C162.64,-178.64 186.35,-186.8 205.58,-193.41"/>
<polygon fill="#63b8ff" stroke="#63b8ff" points="204.29,-196.67 214.88,-196.61 206.57,-190.05 204.29,-196.67"/>
</a>
</g>
</g>
</g>
</svg>
