<?xml version="1.0" encoding="UTF-8" standalone="no"?>
<!DOCTYPE svg PUBLIC "-//W3C//DTD SVG 1.1//EN"
 "http://www.w3.org/Graphics/SVG/1.1/DTD/svg11.dtd">
<!-- Generated by graphviz version 2.50.0 (20211204.2007)
 -->
<!-- Title: setup Pages: 1 -->
<svg width="508pt" height="372pt"
 viewBox="0.00 0.00 508.00 372.00" xmlns="http://www.w3.org/2000/svg" xmlns:xlink="http://www.w3.org/1999/xlink">
<g id="graph0" class="graph" transform="scale(1 1) rotate(0) translate(4 368)">
<title>setup</title>
<!-- Node1 -->
<g id="node1" class="node">
<title>Node1</title>
<g id="a_node1"><a xlink:title=" ">
<polygon fill="#bfbfbf" stroke="black" points="0,-158 0,-177 41,-177 41,-158 0,-158"/>
<text text-anchor="middle" x="20.5" y="-165" font-family="Helvetica,sans-Serif" font-size="10.00">setup</text>
</a>
</g>
</g>
<!-- Node2 -->
<g id="node2" class="node">
<title>Node2</title>
<g id="a_node2"><a xlink:href="main_8cpp.html#ab9032828806331e4ee839f4dde7611f2" target="_top" xlink:title=" ">
<polygon fill="none" stroke="black" points="78,-158 78,-177 153,-177 153,-158 78,-158"/>
<text text-anchor="middle" x="115.5" y="-165" font-family="Helvetica,sans-Serif" font-size="10.00">execute_task</text>
</a>
</g>
</g>
<!-- Node1&#45;&gt;Node2 -->
<g id="edge1" class="edge">
<title>Node1&#45;&gt;Node2</title>
<path fill="none" stroke="midnightblue" d="M41.22,-167.5C49.05,-167.5 58.42,-167.5 67.8,-167.5"/>
<polygon fill="midnightblue" stroke="midnightblue" points="67.91,-171 77.91,-167.5 67.91,-164 67.91,-171"/>
</g>
<!-- Node6 -->
<g id="node6" class="node">
<title>Node6</title>
<g id="a_node6"><a xlink:href="main_8cpp.html#aa41a4d8986ed6c03bd6ad416ba134a4e" target="_top" xlink:title=" ">
<polygon fill="none" stroke="black" points="77,-246 77,-265 154,-265 154,-246 77,-246"/>
<text text-anchor="middle" x="115.5" y="-253" font-family="Helvetica,sans-Serif" font-size="10.00">setup_io_pins</text>
</a>
</g>
</g>
<!-- Node1&#45;&gt;Node6 -->
<g id="edge5" class="edge">
<title>Node1&#45;&gt;Node6</title>
<path fill="none" stroke="midnightblue" d="M28.71,-177.17C38.7,-190.17 57.68,-213.62 77,-230.5 80.85,-233.86 85.17,-237.14 89.48,-240.15"/>
<polygon fill="midnightblue" stroke="midnightblue" points="87.88,-243.29 98.14,-245.91 91.75,-237.46 87.88,-243.29"/>
</g>
<!-- Node11 -->
<g id="node11" class="node">
<title>Node11</title>
<g id="a_node11"><a xlink:href="main_8cpp.html#aabd20f4bed5cefc2278d071d9dafb01f" target="_top" xlink:title=" ">
<polygon fill="none" stroke="black" points="81,-104 81,-123 150,-123 150,-104 81,-104"/>
<text text-anchor="middle" x="115.5" y="-111" font-family="Helvetica,sans-Serif" font-size="10.00">setup_serial</text>
</a>
</g>
</g>
<!-- Node1&#45;&gt;Node11 -->
<g id="edge11" class="edge">
<title>Node1&#45;&gt;Node11</title>
<path fill="none" stroke="midnightblue" d="M38.13,-157.85C52.28,-149.63 72.83,-137.7 89.05,-128.28"/>
<polygon fill="midnightblue" stroke="midnightblue" points="91.13,-131.12 98.02,-123.07 87.61,-125.07 91.13,-131.12"/>
</g>
<!-- Node15 -->
<g id="node15" class="node">
<title>Node15</title>
<g id="a_node15"><a xlink:href="main_8cpp.html#a4e12b91752b35a5f3a628424fcd5d73b" target="_top" xlink:title=" ">
<polygon fill="none" stroke="black" points="84.5,-36 84.5,-55 146.5,-55 146.5,-36 84.5,-36"/>
<text text-anchor="middle" x="115.5" y="-43" font-family="Helvetica,sans-Serif" font-size="10.00">setup_tick</text>
</a>
</g>
</g>
<!-- Node1&#45;&gt;Node15 -->
<g id="edge16" class="edge">
<title>Node1&#45;&gt;Node15</title>
<path fill="none" stroke="midnightblue" d="M29.03,-157.57C39.69,-143.52 59.81,-117.03 77,-94.5 84.88,-84.17 93.71,-72.64 100.82,-63.35"/>
<polygon fill="midnightblue" stroke="midnightblue" points="103.72,-65.32 107.02,-55.25 98.16,-61.06 103.72,-65.32"/>
</g>
<!-- Node17 -->
<g id="node17" class="node">
<title>Node17</title>
<g id="a_node17"><a xlink:href="main_8cpp.html#a8b0ce963bacb63827eb79b51bc74a551" target="_top" xlink:title=" ">
<polygon fill="none" stroke="black" points="79,-202 79,-221 152,-221 152,-202 79,-202"/>
<text text-anchor="middle" x="115.5" y="-209" font-family="Helvetica,sans-Serif" font-size="10.00">setup_timers</text>
</a>
</g>
</g>
<!-- Node1&#45;&gt;Node17 -->
<g id="edge19" class="edge">
<title>Node1&#45;&gt;Node17</title>
<path fill="none" stroke="midnightblue" d="M41.22,-176.83C53.87,-182.82 70.53,-190.7 84.77,-197.43"/>
<polygon fill="midnightblue" stroke="midnightblue" points="83.63,-200.77 94.16,-201.88 86.62,-194.44 83.63,-200.77"/>
</g>
<!-- Node3 -->
<g id="node3" class="node">
<title>Node3</title>
<g id="a_node3"><a xlink:href="classreactesp_1_1_react_e_s_p.html#a914de417d6b11c6111df8bba25d5ed75" target="_top" xlink:title="Create a new RepeatReaction.">
<polygon fill="none" stroke="black" points="194.5,-196.5 194.5,-226.5 301.5,-226.5 301.5,-196.5 194.5,-196.5"/>
<text text-anchor="start" x="202.5" y="-214.5" font-family="Helvetica,sans-Serif" font-size="10.00">reactesp::ReactESP</text>
<text text-anchor="middle" x="248" y="-203.5" font-family="Helvetica,sans-Serif" font-size="10.00">::onRepeat</text>
</a>
</g>
</g>
<!-- Node2&#45;&gt;Node3 -->
<g id="edge2" class="edge">
<title>Node2&#45;&gt;Node3</title>
<path fill="none" stroke="midnightblue" d="M144.82,-177.05C158.85,-181.78 176.29,-187.66 192.76,-193.21"/>
<polygon fill="midnightblue" stroke="midnightblue" points="191.72,-196.56 202.32,-196.43 193.96,-189.92 191.72,-196.56"/>
</g>
<!-- Node5 -->
<g id="node5" class="node">
<title>Node5</title>
<g id="a_node5"><a xlink:href="classreactesp_1_1_react_e_s_p.html#a683d99a3ed39a75337f01888c2240df0" target="_top" xlink:title=" ">
<polygon fill="none" stroke="black" points="194.5,-147.5 194.5,-177.5 301.5,-177.5 301.5,-147.5 194.5,-147.5"/>
<text text-anchor="start" x="202.5" y="-165.5" font-family="Helvetica,sans-Serif" font-size="10.00">reactesp::ReactESP</text>
<text text-anchor="middle" x="248" y="-154.5" font-family="Helvetica,sans-Serif" font-size="10.00">::tick</text>
</a>
</g>
</g>
<!-- Node2&#45;&gt;Node5 -->
<g id="edge4" class="edge">
<title>Node2&#45;&gt;Node5</title>
<path fill="none" stroke="midnightblue" d="M153.2,-166.09C162.8,-165.73 173.42,-165.32 183.97,-164.92"/>
<polygon fill="midnightblue" stroke="midnightblue" points="184.16,-168.41 194.02,-164.53 183.89,-161.42 184.16,-168.41"/>
</g>
<!-- Node4 -->
<g id="node4" class="node">
<title>Node4</title>
<g id="a_node4"><a xlink:href="classreactesp_1_1_timed_reaction.html#ac49b0dd38ef871399aa55d27fc7b44f8" target="_top" xlink:title=" ">
<polygon fill="none" stroke="black" points="347,-153 347,-172 495,-172 495,-153 347,-153"/>
<text text-anchor="middle" x="421" y="-160" font-family="Helvetica,sans-Serif" font-size="10.00">reactesp::TimedReaction::add</text>
</a>
</g>
</g>
<!-- Node3&#45;&gt;Node4 -->
<g id="edge3" class="edge">
<title>Node3&#45;&gt;Node4</title>
<path fill="none" stroke="midnightblue" d="M301.7,-196.4C325.89,-189.47 354.21,-181.35 377.08,-174.8"/>
<polygon fill="midnightblue" stroke="midnightblue" points="378.19,-178.12 386.84,-172 376.26,-171.39 378.19,-178.12"/>
</g>
<!-- Node6&#45;&gt;Node3 -->
<g id="edge8" class="edge">
<title>Node6&#45;&gt;Node3</title>
<path fill="none" stroke="midnightblue" d="M144.82,-245.95C158.85,-241.22 176.29,-235.34 192.76,-229.79"/>
<polygon fill="midnightblue" stroke="midnightblue" points="193.96,-233.08 202.32,-226.57 191.72,-226.44 193.96,-233.08"/>
</g>
<!-- Node7 -->
<g id="node7" class="node">
<title>Node7</title>
<g id="a_node7"><a xlink:href="classreactesp_1_1_react_e_s_p.html#afa5876a2a33275dc7d0ba8214bb51ee7" target="_top" xlink:title="Create a new ISRReaction (interrupt reaction)">
<polygon fill="none" stroke="black" points="194.5,-333.5 194.5,-363.5 301.5,-363.5 301.5,-333.5 194.5,-333.5"/>
<text text-anchor="start" x="202.5" y="-351.5" font-family="Helvetica,sans-Serif" font-size="10.00">reactesp::ReactESP</text>
<text text-anchor="middle" x="248" y="-340.5" font-family="Helvetica,sans-Serif" font-size="10.00">::onInterrupt</text>
</a>
</g>
</g>
<!-- Node6&#45;&gt;Node7 -->
<g id="edge6" class="edge">
<title>Node6&#45;&gt;Node7</title>
<path fill="none" stroke="midnightblue" d="M124.68,-265.11C137.41,-279.59 163.29,-307.15 190,-324.5 192.28,-325.98 194.68,-327.41 197.13,-328.77"/>
<polygon fill="midnightblue" stroke="midnightblue" points="195.73,-331.99 206.22,-333.44 198.92,-325.76 195.73,-331.99"/>
</g>
<!-- Node9 -->
<g id="node9" class="node">
<title>Node9</title>
<g id="a_node9"><a xlink:href="classreactesp_1_1_i_s_r_reaction.html#a2418f9460dcdc9686ad2404d20164555" target="_top" xlink:title=" ">
<polygon fill="none" stroke="black" points="190,-284.5 190,-314.5 306,-314.5 306,-284.5 190,-284.5"/>
<text text-anchor="start" x="198" y="-302.5" font-family="Helvetica,sans-Serif" font-size="10.00">reactesp::ISRReaction</text>
<text text-anchor="middle" x="248" y="-291.5" font-family="Helvetica,sans-Serif" font-size="10.00">::remove</text>
</a>
</g>
</g>
<!-- Node6&#45;&gt;Node9 -->
<g id="edge9" class="edge">
<title>Node6&#45;&gt;Node9</title>
<path fill="none" stroke="midnightblue" d="M144.82,-265.05C158.85,-269.78 176.29,-275.66 192.76,-281.21"/>
<polygon fill="midnightblue" stroke="midnightblue" points="191.72,-284.56 202.32,-284.43 193.96,-277.92 191.72,-284.56"/>
</g>
<!-- Node10 -->
<g id="node10" class="node">
<title>Node10</title>
<g id="a_node10"><a xlink:href="main_8cpp.html#a58acc222e959363ee034cea9488ef627" target="_top" xlink:title=" ">
<polygon fill="none" stroke="black" points="223,-246 223,-265 273,-265 273,-246 223,-246"/>
<text text-anchor="middle" x="248" y="-253" font-family="Helvetica,sans-Serif" font-size="10.00">reporter</text>
</a>
</g>
</g>
<!-- Node6&#45;&gt;Node10 -->
<g id="edge10" class="edge">
<title>Node6&#45;&gt;Node10</title>
<path fill="none" stroke="midnightblue" d="M154.25,-255.5C172.75,-255.5 194.86,-255.5 212.85,-255.5"/>
<polygon fill="midnightblue" stroke="midnightblue" points="212.91,-259 222.91,-255.5 212.91,-252 212.91,-259"/>
</g>
<!-- Node8 -->
<g id="node8" class="node">
<title>Node8</title>
<g id="a_node8"><a xlink:href="classreactesp_1_1_i_s_r_reaction.html#ae6b05573701f05de4dbc9fab8fca0b1c" target="_top" xlink:title=" ">
<polygon fill="none" stroke="black" points="352,-339 352,-358 490,-358 490,-339 352,-339"/>
<text text-anchor="middle" x="421" y="-346" font-family="Helvetica,sans-Serif" font-size="10.00">reactesp::ISRReaction::add</text>
</a>
</g>
</g>
<!-- Node7&#45;&gt;Node8 -->
<g id="edge7" class="edge">
<title>Node7&#45;&gt;Node8</title>
<path fill="none" stroke="midnightblue" d="M301.7,-348.5C314.29,-348.5 328,-348.5 341.48,-348.5"/>
<polygon fill="midnightblue" stroke="midnightblue" points="341.71,-352 351.71,-348.5 341.71,-345 341.71,-352"/>
</g>
<!-- Node12 -->
<g id="node12" class="node">
<title>Node12</title>
<g id="a_node12"><a xlink:href="classreactesp_1_1_react_e_s_p.html#a42c88fbcd1f1ab9842517056448de6b5" target="_top" xlink:title="Create a new StreamReaction.">
<polygon fill="none" stroke="black" points="194.5,-49.5 194.5,-79.5 301.5,-79.5 301.5,-49.5 194.5,-49.5"/>
<text text-anchor="start" x="202.5" y="-67.5" font-family="Helvetica,sans-Serif" font-size="10.00">reactesp::ReactESP</text>
<text text-anchor="middle" x="248" y="-56.5" font-family="Helvetica,sans-Serif" font-size="10.00">::onAvailable</text>
</a>
</g>
</g>
<!-- Node11&#45;&gt;Node12 -->
<g id="edge12" class="edge">
<title>Node11&#45;&gt;Node12</title>
<path fill="none" stroke="midnightblue" d="M141.97,-103.94C157.77,-98 178.6,-90.18 197.55,-83.07"/>
<polygon fill="midnightblue" stroke="midnightblue" points="198.82,-86.33 206.95,-79.54 196.36,-79.78 198.82,-86.33"/>
</g>
<!-- Node14 -->
<g id="node14" class="node">
<title>Node14</title>
<g id="a_node14"><a xlink:href="classreactesp_1_1_react_e_s_p.html#a5b25d026d1f26fb80b2c6659f3875fd8" target="_top" xlink:title="Create a new DelayReaction.">
<polygon fill="none" stroke="black" points="194.5,-98.5 194.5,-128.5 301.5,-128.5 301.5,-98.5 194.5,-98.5"/>
<text text-anchor="start" x="202.5" y="-116.5" font-family="Helvetica,sans-Serif" font-size="10.00">reactesp::ReactESP</text>
<text text-anchor="middle" x="248" y="-105.5" font-family="Helvetica,sans-Serif" font-size="10.00">::onDelay</text>
</a>
</g>
</g>
<!-- Node11&#45;&gt;Node14 -->
<g id="edge14" class="edge">
<title>Node11&#45;&gt;Node14</title>
<path fill="none" stroke="midnightblue" d="M150.11,-113.5C160.5,-113.5 172.32,-113.5 184.03,-113.5"/>
<polygon fill="midnightblue" stroke="midnightblue" points="184.26,-117 194.26,-113.5 184.26,-110 184.26,-117"/>
</g>
<!-- Node13 -->
<g id="node13" class="node">
<title>Node13</title>
<g id="a_node13"><a xlink:href="classreactesp_1_1_untimed_reaction.html#aa20f4242a6ef801cb58bf124ee4e6932" target="_top" xlink:title=" ">
<polygon fill="none" stroke="black" points="342,-31 342,-50 500,-50 500,-31 342,-31"/>
<text text-anchor="middle" x="421" y="-38" font-family="Helvetica,sans-Serif" font-size="10.00">reactesp::UntimedReaction::add</text>
</a>
</g>
</g>
<!-- Node12&#45;&gt;Node13 -->
<g id="edge13" class="edge">
<title>Node12&#45;&gt;Node13</title>
<path fill="none" stroke="midnightblue" d="M301.7,-57.1C314.37,-55.33 328.17,-53.39 341.73,-51.49"/>
<polygon fill="midnightblue" stroke="midnightblue" points="342.61,-54.9 352.02,-50.04 341.63,-47.96 342.61,-54.9"/>
</g>
<!-- Node14&#45;&gt;Node4 -->
<g id="edge15" class="edge">
<title>Node14&#45;&gt;Node4</title>
<path fill="none" stroke="midnightblue" d="M301.7,-128.6C325.89,-135.53 354.21,-143.65 377.08,-150.2"/>
<polygon fill="midnightblue" stroke="midnightblue" points="376.26,-153.61 386.84,-153 378.19,-146.88 376.26,-153.61"/>
</g>
<!-- Node16 -->
<g id="node16" class="node">
<title>Node16</title>
<g id="a_node16"><a xlink:href="classreactesp_1_1_react_e_s_p.html#ae442c7e1e8084f46a900646957f1f9c8" target="_top" xlink:title="Create a new TickReaction.">
<polygon fill="none" stroke="black" points="194.5,-0.5 194.5,-30.5 301.5,-30.5 301.5,-0.5 194.5,-0.5"/>
<text text-anchor="start" x="202.5" y="-18.5" font-family="Helvetica,sans-Serif" font-size="10.00">reactesp::ReactESP</text>
<text text-anchor="middle" x="248" y="-7.5" font-family="Helvetica,sans-Serif" font-size="10.00">::onTick</text>
</a>
</g>
</g>
<!-- Node15&#45;&gt;Node16 -->
<g id="edge17" class="edge">
<title>Node15&#45;&gt;Node16</title>
<path fill="none" stroke="midnightblue" d="M146.77,-38.54C158.05,-35.95 171.31,-32.9 184.42,-29.89"/>
<polygon fill="midnightblue" stroke="midnightblue" points="185.43,-33.25 194.39,-27.59 183.86,-26.42 185.43,-33.25"/>
</g>
<!-- Node16&#45;&gt;Node13 -->
<g id="edge18" class="edge">
<title>Node16&#45;&gt;Node13</title>
<path fill="none" stroke="midnightblue" d="M301.7,-23.2C315.34,-25.2 330.28,-27.38 344.82,-29.51"/>
<polygon fill="midnightblue" stroke="midnightblue" points="344.4,-32.98 354.8,-30.97 345.42,-26.06 344.4,-32.98"/>
</g>
<!-- Node17&#45;&gt;Node3 -->
<g id="edge20" class="edge">
<title>Node17&#45;&gt;Node3</title>
<path fill="none" stroke="midnightblue" d="M152.16,-211.5C162.1,-211.5 173.2,-211.5 184.2,-211.5"/>
<polygon fill="midnightblue" stroke="midnightblue" points="184.25,-215 194.25,-211.5 184.25,-208 184.25,-215"/>
</g>
<!-- Node17&#45;&gt;Node10 -->
<g id="edge21" class="edge">
<title>Node17&#45;&gt;Node10</title>
<path fill="none" stroke="midnightblue" d="M144.41,-221.04C158.13,-225.72 174.93,-231.42 190,-236.5 197.49,-239.02 205.54,-241.72 213.17,-244.26"/>
<polygon fill="midnightblue" stroke="midnightblue" points="212.27,-247.65 222.86,-247.49 214.48,-241.01 212.27,-247.65"/>
</g>
</g>
</svg>
