<?xml version="1.0" encoding="UTF-8" standalone="no"?>
<!DOCTYPE svg PUBLIC "-//W3C//DTD SVG 1.1//EN"
 "http://www.w3.org/Graphics/SVG/1.1/DTD/svg11.dtd">
<!-- Generated by graphviz version 12.1.2 (20240928.0832)
 -->
<!-- Title: setup_io_pins Pages: 1 -->
<svg width="226pt" height="174pt"
 viewBox="0.00 0.00 226.00 173.88" xmlns="http://www.w3.org/2000/svg" xmlns:xlink="http://www.w3.org/1999/xlink">
<g id="graph0" class="graph" transform="scale(1 1) rotate(0) translate(4 169.88)">
<title>setup_io_pins</title>
<!-- Node1 -->
<g id="Node000001" class="node">
<title>Node1</title>
<g id="a_Node000001"><a xlink:title=" ">
<polygon fill="#999999" stroke="#666666" points="76,-86.25 0,-86.25 0,-67 76,-67 76,-86.25"/>
<text text-anchor="middle" x="38" y="-72.75" font-family="Helvetica,sans-Serif" font-size="10.00">setup_io_pins</text>
</a>
</g>
</g>
<!-- Node2 -->
<g id="Node000002" class="node">
<title>Node2</title>
<g id="a_Node000002"><a xlink:href="classreactesp_1_1_event_loop.html#a9413f233f711816fcc9eb3c1d296e3ff" target="_top" xlink:title="Create a new ISREvent (interrupt event)">
<polygon fill="white" stroke="#666666" points="218,-165.88 112,-165.88 112,-135.38 218,-135.38 218,-165.88"/>
<text text-anchor="start" x="120" y="-152.38" font-family="Helvetica,sans-Serif" font-size="10.00">reactesp::EventLoop</text>
<text text-anchor="middle" x="165" y="-141.12" font-family="Helvetica,sans-Serif" font-size="10.00">::onInterrupt</text>
</a>
</g>
</g>
<!-- Node1&#45;&gt;Node2 -->
<g id="edge1_Node000001_Node000002" class="edge">
<title>Node1&#45;&gt;Node2</title>
<g id="a_edge1_Node000001_Node000002"><a xlink:title=" ">
<path fill="none" stroke="#63b8ff" d="M52.62,-86.63C67,-96.99 90.54,-113.35 112,-125.62 114.43,-127.02 116.96,-128.4 119.52,-129.77"/>
<polygon fill="#63b8ff" stroke="#63b8ff" points="117.67,-132.76 128.17,-134.21 120.87,-126.53 117.67,-132.76"/>
</a>
</g>
</g>
<!-- Node3 -->
<g id="Node000003" class="node">
<title>Node3</title>
<g id="a_Node000003"><a xlink:href="classreactesp_1_1_event_loop.html#a992c498cf62081624726346edf2db28b" target="_top" xlink:title="Create a new RepeatEvent.">
<polygon fill="white" stroke="#666666" points="218,-116.88 112,-116.88 112,-86.38 218,-86.38 218,-116.88"/>
<text text-anchor="start" x="120" y="-103.38" font-family="Helvetica,sans-Serif" font-size="10.00">reactesp::EventLoop</text>
<text text-anchor="middle" x="165" y="-92.12" font-family="Helvetica,sans-Serif" font-size="10.00">::onRepeat</text>
</a>
</g>
</g>
<!-- Node1&#45;&gt;Node3 -->
<g id="edge2_Node000001_Node000003" class="edge">
<title>Node1&#45;&gt;Node3</title>
<g id="a_edge2_Node000001_Node000003"><a xlink:title=" ">
<path fill="none" stroke="#63b8ff" d="M76.17,-84.06C83.97,-85.62 92.41,-87.31 100.87,-89"/>
<polygon fill="#63b8ff" stroke="#63b8ff" points="99.97,-92.39 110.46,-90.92 101.34,-85.52 99.97,-92.39"/>
</a>
</g>
</g>
<!-- Node4 -->
<g id="Node000004" class="node">
<title>Node4</title>
<g id="a_Node000004"><a xlink:href="classreactesp_1_1_i_s_r_event.html#a52ff94762bb729778aef8d582bf2e3a8" target="_top" xlink:title=" ">
<polygon fill="white" stroke="#666666" points="216.12,-67.88 113.88,-67.88 113.88,-37.38 216.12,-37.38 216.12,-67.88"/>
<text text-anchor="start" x="121.88" y="-54.38" font-family="Helvetica,sans-Serif" font-size="10.00">reactesp::ISREvent</text>
<text text-anchor="middle" x="165" y="-43.12" font-family="Helvetica,sans-Serif" font-size="10.00">::remove</text>
</a>
</g>
</g>
<!-- Node1&#45;&gt;Node4 -->
<g id="edge3_Node000001_Node000004" class="edge">
<title>Node1&#45;&gt;Node4</title>
<g id="a_edge3_Node000001_Node000004"><a xlink:title=" ">
<path fill="none" stroke="#63b8ff" d="M76.17,-69.49C84.56,-67.88 93.68,-66.13 102.77,-64.38"/>
<polygon fill="#63b8ff" stroke="#63b8ff" points="103.14,-67.87 112.3,-62.55 101.82,-61 103.14,-67.87"/>
</a>
</g>
</g>
<!-- Node5 -->
<g id="Node000005" class="node">
<title>Node5</title>
<g id="a_Node000005"><a xlink:href="main_8cpp.html#a58acc222e959363ee034cea9488ef627" target="_top" xlink:title=" ">
<polygon fill="white" stroke="#666666" points="189.5,-19.25 140.5,-19.25 140.5,0 189.5,0 189.5,-19.25"/>
<text text-anchor="middle" x="165" y="-5.75" font-family="Helvetica,sans-Serif" font-size="10.00">reporter</text>
</a>
</g>
</g>
<!-- Node1&#45;&gt;Node5 -->
<g id="edge4_Node000001_Node000005" class="edge">
<title>Node1&#45;&gt;Node5</title>
<g id="a_edge4_Node000001_Node000005"><a xlink:title=" ">
<path fill="none" stroke="#63b8ff" d="M52.16,-66.62C66.36,-56.16 89.91,-39.73 112,-28.62 117.58,-25.82 123.68,-23.21 129.68,-20.88"/>
<polygon fill="#63b8ff" stroke="#63b8ff" points="130.62,-24.27 138.8,-17.54 128.2,-17.7 130.62,-24.27"/>
</a>
</g>
</g>
</g>
</svg>
