<?xml version="1.0" encoding="UTF-8" standalone="no"?>
<!DOCTYPE svg PUBLIC "-//W3C//DTD SVG 1.1//EN"
 "http://www.w3.org/Graphics/SVG/1.1/DTD/svg11.dtd">
<!-- Generated by graphviz version 2.50.0 (20211204.2007)
 -->
<!-- Title: setup_serial Pages: 1 -->
<svg width="414pt" height="88pt"
 viewBox="0.00 0.00 414.00 88.00" xmlns="http://www.w3.org/2000/svg" xmlns:xlink="http://www.w3.org/1999/xlink">
<g id="graph0" class="graph" transform="scale(1 1) rotate(0) translate(4 84)">
<title>setup_serial</title>
<!-- Node1 -->
<g id="node1" class="node">
<title>Node1</title>
<g id="a_node1"><a xlink:title=" ">
<polygon fill="#bfbfbf" stroke="black" points="0,-30 0,-49 69,-49 69,-30 0,-30"/>
<text text-anchor="middle" x="34.5" y="-37" font-family="Helvetica,sans-Serif" font-size="10.00">setup_serial</text>
</a>
</g>
</g>
<!-- Node2 -->
<g id="node2" class="node">
<title>Node2</title>
<g id="a_node2"><a xlink:href="classreactesp_1_1_react_e_s_p.html#a42c88fbcd1f1ab9842517056448de6b5" target="_top" xlink:title="Create a new StreamReaction.">
<polygon fill="none" stroke="black" points="105,-49.5 105,-79.5 212,-79.5 212,-49.5 105,-49.5"/>
<text text-anchor="start" x="113" y="-67.5" font-family="Helvetica,sans-Serif" font-size="10.00">reactesp::ReactESP</text>
<text text-anchor="middle" x="158.5" y="-56.5" font-family="Helvetica,sans-Serif" font-size="10.00">::onAvailable</text>
</a>
</g>
</g>
<!-- Node1&#45;&gt;Node2 -->
<g id="edge1" class="edge">
<title>Node1&#45;&gt;Node2</title>
<path fill="none" stroke="midnightblue" d="M69.16,-46.4C77.15,-48.04 85.94,-49.84 94.77,-51.65"/>
<polygon fill="midnightblue" stroke="midnightblue" points="94.22,-55.11 104.72,-53.69 95.63,-48.25 94.22,-55.11"/>
</g>
<!-- Node4 -->
<g id="node4" class="node">
<title>Node4</title>
<g id="a_node4"><a xlink:href="classreactesp_1_1_react_e_s_p.html#a5b25d026d1f26fb80b2c6659f3875fd8" target="_top" xlink:title="Create a new DelayReaction.">
<polygon fill="none" stroke="black" points="105,-0.5 105,-30.5 212,-30.5 212,-0.5 105,-0.5"/>
<text text-anchor="start" x="113" y="-18.5" font-family="Helvetica,sans-Serif" font-size="10.00">reactesp::ReactESP</text>
<text text-anchor="middle" x="158.5" y="-7.5" font-family="Helvetica,sans-Serif" font-size="10.00">::onDelay</text>
</a>
</g>
</g>
<!-- Node1&#45;&gt;Node4 -->
<g id="edge3" class="edge">
<title>Node1&#45;&gt;Node4</title>
<path fill="none" stroke="midnightblue" d="M69.16,-32.88C77.15,-31.31 85.94,-29.58 94.77,-27.84"/>
<polygon fill="midnightblue" stroke="midnightblue" points="95.59,-31.25 104.72,-25.88 94.24,-24.38 95.59,-31.25"/>
</g>
<!-- Node3 -->
<g id="node3" class="node">
<title>Node3</title>
<g id="a_node3"><a xlink:href="classreactesp_1_1_untimed_reaction.html#aa20f4242a6ef801cb58bf124ee4e6932" target="_top" xlink:title=" ">
<polygon fill="none" stroke="black" points="248,-55 248,-74 406,-74 406,-55 248,-55"/>
<text text-anchor="middle" x="327" y="-62" font-family="Helvetica,sans-Serif" font-size="10.00">reactesp::UntimedReaction::add</text>
</a>
</g>
</g>
<!-- Node2&#45;&gt;Node3 -->
<g id="edge2" class="edge">
<title>Node2&#45;&gt;Node3</title>
<path fill="none" stroke="midnightblue" d="M212.18,-64.5C220.33,-64.5 228.93,-64.5 237.61,-64.5"/>
<polygon fill="midnightblue" stroke="midnightblue" points="237.81,-68 247.81,-64.5 237.81,-61 237.81,-68"/>
</g>
<!-- Node5 -->
<g id="node5" class="node">
<title>Node5</title>
<g id="a_node5"><a xlink:href="classreactesp_1_1_timed_reaction.html#ac49b0dd38ef871399aa55d27fc7b44f8" target="_top" xlink:title=" ">
<polygon fill="none" stroke="black" points="253,-6 253,-25 401,-25 401,-6 253,-6"/>
<text text-anchor="middle" x="327" y="-13" font-family="Helvetica,sans-Serif" font-size="10.00">reactesp::TimedReaction::add</text>
</a>
</g>
</g>
<!-- Node4&#45;&gt;Node5 -->
<g id="edge4" class="edge">
<title>Node4&#45;&gt;Node5</title>
<path fill="none" stroke="midnightblue" d="M212.18,-15.5C222,-15.5 232.48,-15.5 242.95,-15.5"/>
<polygon fill="midnightblue" stroke="midnightblue" points="242.97,-19 252.97,-15.5 242.97,-12 242.97,-19"/>
</g>
</g>
</svg>
