<?xml version="1.0" encoding="UTF-8" standalone="no"?>
<!DOCTYPE svg PUBLIC "-//W3C//DTD SVG 1.1//EN"
 "http://www.w3.org/Graphics/SVG/1.1/DTD/svg11.dtd">
<!-- Generated by graphviz version 2.49.3 (20211023.0002)
 -->
<!-- Title: setup_io_pins Pages: 1 -->
<svg width="425pt" height="176pt"
 viewBox="0.00 0.00 425.00 175.50" xmlns="http://www.w3.org/2000/svg" xmlns:xlink="http://www.w3.org/1999/xlink">
<g id="graph0" class="graph" transform="scale(1 1) rotate(0) translate(4 171.5)">
<title>setup_io_pins</title>
<!-- Node1 -->
<g id="node1" class="node">
<title>Node1</title>
<g id="a_node1"><a xlink:title=" ">
<polygon fill="#bfbfbf" stroke="black" points="0,-68.5 0,-87.5 78,-87.5 78,-68.5 0,-68.5"/>
<text text-anchor="middle" x="39" y="-75.5" font-family="Helvetica,sans-Serif" font-size="10.00">setup_io_pins</text>
</a>
</g>
</g>
<!-- Node2 -->
<g id="node2" class="node">
<title>Node2</title>
<g id="a_node2"><a xlink:href="classreactesp_1_1_react_e_s_p.html#afa5876a2a33275dc7d0ba8214bb51ee7" target="_top" xlink:title="Create a new ISRReaction (interrupt reaction)">
<polygon fill="none" stroke="black" points="119,-137 119,-167 226,-167 226,-137 119,-137"/>
<text text-anchor="start" x="127" y="-155" font-family="Helvetica,sans-Serif" font-size="10.00">reactesp::ReactESP</text>
<text text-anchor="middle" x="172.5" y="-144" font-family="Helvetica,sans-Serif" font-size="10.00">::onInterrupt</text>
</a>
</g>
</g>
<!-- Node1&#45;&gt;Node2 -->
<g id="edge1" class="edge">
<title>Node1&#45;&gt;Node2</title>
<path fill="none" stroke="midnightblue" d="M52.93,-87.57C67.38,-98.02 91.66,-114.87 114,-127 117.5,-128.9 121.18,-130.77 124.92,-132.58"/>
<polygon fill="midnightblue" stroke="midnightblue" points="123.69,-135.87 134.23,-136.93 126.65,-129.53 123.69,-135.87"/>
</g>
<!-- Node4 -->
<g id="node4" class="node">
<title>Node4</title>
<g id="a_node4"><a xlink:href="classreactesp_1_1_react_e_s_p.html#a914de417d6b11c6111df8bba25d5ed75" target="_top" xlink:title="Create a new RepeatReaction.">
<polygon fill="none" stroke="black" points="119,-88 119,-118 226,-118 226,-88 119,-88"/>
<text text-anchor="start" x="127" y="-106" font-family="Helvetica,sans-Serif" font-size="10.00">reactesp::ReactESP</text>
<text text-anchor="middle" x="172.5" y="-95" font-family="Helvetica,sans-Serif" font-size="10.00">::onRepeat</text>
</a>
</g>
</g>
<!-- Node1&#45;&gt;Node4 -->
<g id="edge3" class="edge">
<title>Node1&#45;&gt;Node4</title>
<path fill="none" stroke="midnightblue" d="M78.04,-85.23C87.69,-87.07 98.33,-89.09 108.85,-91.09"/>
<polygon fill="midnightblue" stroke="midnightblue" points="108.4,-94.57 118.88,-93 109.71,-87.69 108.4,-94.57"/>
</g>
<!-- Node6 -->
<g id="node6" class="node">
<title>Node6</title>
<g id="a_node6"><a xlink:href="classreactesp_1_1_i_s_r_reaction.html#a9ccf4abc748379340fb0e97b77c3bc4d" target="_top" xlink:title=" ">
<polygon fill="none" stroke="black" points="114,-39 114,-69 231,-69 231,-39 114,-39"/>
<text text-anchor="start" x="122" y="-57" font-family="Helvetica,sans-Serif" font-size="10.00">reactesp::ISRReaction</text>
<text text-anchor="middle" x="172.5" y="-46" font-family="Helvetica,sans-Serif" font-size="10.00">::remove</text>
</a>
</g>
</g>
<!-- Node1&#45;&gt;Node6 -->
<g id="edge5" class="edge">
<title>Node1&#45;&gt;Node6</title>
<path fill="none" stroke="midnightblue" d="M78.04,-71.06C86.19,-69.57 95.04,-67.95 103.94,-66.33"/>
<polygon fill="midnightblue" stroke="midnightblue" points="104.76,-69.74 113.97,-64.5 103.51,-62.85 104.76,-69.74"/>
</g>
<!-- Node7 -->
<g id="node7" class="node">
<title>Node7</title>
<g id="a_node7"><a xlink:href="main_8cpp.html#a58acc222e959363ee034cea9488ef627" target="_top" xlink:title=" ">
<polygon fill="none" stroke="black" points="146.5,-0.5 146.5,-19.5 198.5,-19.5 198.5,-0.5 146.5,-0.5"/>
<text text-anchor="middle" x="172.5" y="-7.5" font-family="Helvetica,sans-Serif" font-size="10.00">reporter</text>
</a>
</g>
</g>
<!-- Node1&#45;&gt;Node7 -->
<g id="edge6" class="edge">
<title>Node1&#45;&gt;Node7</title>
<path fill="none" stroke="midnightblue" d="M52.22,-68.43C66.41,-57.67 90.85,-40.24 114,-29 121.1,-25.55 128.99,-22.49 136.58,-19.89"/>
<polygon fill="midnightblue" stroke="midnightblue" points="137.87,-23.15 146.31,-16.74 135.72,-16.49 137.87,-23.15"/>
</g>
<!-- Node3 -->
<g id="node3" class="node">
<title>Node3</title>
<g id="a_node3"><a xlink:href="classreactesp_1_1_i_s_r_reaction.html#ac7b7efd14de7cd96df315e761f962d4a" target="_top" xlink:title=" ">
<polygon fill="none" stroke="black" points="272.5,-142.5 272.5,-161.5 411.5,-161.5 411.5,-142.5 272.5,-142.5"/>
<text text-anchor="middle" x="342" y="-149.5" font-family="Helvetica,sans-Serif" font-size="10.00">reactesp::ISRReaction::add</text>
</a>
</g>
</g>
<!-- Node2&#45;&gt;Node3 -->
<g id="edge2" class="edge">
<title>Node2&#45;&gt;Node3</title>
<path fill="none" stroke="midnightblue" d="M226.04,-152C237.51,-152 249.89,-152 262.13,-152"/>
<polygon fill="midnightblue" stroke="midnightblue" points="262.35,-155.5 272.35,-152 262.35,-148.5 262.35,-155.5"/>
</g>
<!-- Node5 -->
<g id="node5" class="node">
<title>Node5</title>
<g id="a_node5"><a xlink:href="classreactesp_1_1_timed_reaction.html#ae8318817b65df5dee74911f863973063" target="_top" xlink:title=" ">
<polygon fill="none" stroke="black" points="267,-93.5 267,-112.5 417,-112.5 417,-93.5 267,-93.5"/>
<text text-anchor="middle" x="342" y="-100.5" font-family="Helvetica,sans-Serif" font-size="10.00">reactesp::TimedReaction::add</text>
</a>
</g>
</g>
<!-- Node4&#45;&gt;Node5 -->
<g id="edge4" class="edge">
<title>Node4&#45;&gt;Node5</title>
<path fill="none" stroke="midnightblue" d="M226.04,-103C235.85,-103 246.34,-103 256.83,-103"/>
<polygon fill="midnightblue" stroke="midnightblue" points="256.87,-106.5 266.87,-103 256.87,-99.5 256.87,-106.5"/>
</g>
</g>
</svg>
