<?xml version="1.0" encoding="UTF-8" standalone="no"?>
<!DOCTYPE svg PUBLIC "-//W3C//DTD SVG 1.1//EN"
 "http://www.w3.org/Graphics/SVG/1.1/DTD/svg11.dtd">
<!-- Generated by graphviz version 12.1.0 (20240811.2233)
 -->
<!-- Title: loop Pages: 1 -->
<svg width="485pt" height="174pt"
 viewBox="0.00 0.00 485.25 173.50" xmlns="http://www.w3.org/2000/svg" xmlns:xlink="http://www.w3.org/1999/xlink">

<svg id="main" version="1.1" xmlns="http://www.w3.org/2000/svg" xmlns:xlink="http://www.w3.org/1999/xlink" xml:space="preserve">

<style type="text/css"><![CDATA[
.node, .edge {opacity: 0.7;}
.node.selected, .edge.selected {opacity: 1;}
.edge:hover path { stroke: red; }
.edge:hover polygon { stroke: red; fill: red; }
]]></style>
<script type="application/ecmascript" xlink:href="svg.min.js"/>
<svg id="graph" class="graph">
<g id="graph0" class="graph" transform="scale(1 1) rotate(0) translate(4 169.5)">
<title>loop</title>
<!-- Node1 -->
<g id="Node000001" class="node">
<title>Node1</title>
<g id="a_Node000001"><a xlink:title=" ">
<polygon fill="#999999" stroke="#666666" points="34,-63.88 0,-63.88 0,-44.62 34,-44.62 34,-63.88"/>
<text text-anchor="middle" x="17" y="-50.38" font-family="Helvetica,sans-Serif" font-size="10.00">loop</text>
</a>
</g>
</g>
<!-- Node2 -->
<g id="Node000002" class="node">
<title>Node2</title>
<g id="a_Node000002"><a xlink:href="classreactesp_1_1_event_loop.html#a2c84df800a38ca6870c5a20eaa53d526" target="_top" xlink:title=" ">
<polygon fill="white" stroke="#666666" points="176,-69.5 70,-69.5 70,-39 176,-39 176,-69.5"/>
<text text-anchor="start" x="78" y="-56" font-family="Helvetica,sans-Serif" font-size="10.00">reactesp::EventLoop</text>
<text text-anchor="middle" x="123" y="-44.75" font-family="Helvetica,sans-Serif" font-size="10.00">::tick</text>
</a>
</g>
</g>
<!-- Node1&#45;&gt;Node2 -->
<g id="edge1_Node000001_Node000002" class="edge">
<title>Node1&#45;&gt;Node2</title>
<g id="a_edge1_Node000001_Node000002"><a xlink:title=" ">
<path fill="none" stroke="#63b8ff" d="M34.25,-54.25C41.08,-54.25 49.5,-54.25 58.4,-54.25"/>
<polygon fill="#63b8ff" stroke="#63b8ff" points="58.33,-57.75 68.33,-54.25 58.33,-50.75 58.33,-57.75"/>
</a>
</g>
</g>
<!-- Node3 -->
<g id="Node000003" class="node">
<title>Node3</title>
<g id="a_Node000003"><a xlink:href="classreactesp_1_1_event_loop.html#a001ffbb649dc0b4b0dd11a3eb68db76b" target="_top" xlink:title=" ">
<polygon fill="white" stroke="#666666" points="318,-94.5 212,-94.5 212,-64 318,-64 318,-94.5"/>
<text text-anchor="start" x="220" y="-81" font-family="Helvetica,sans-Serif" font-size="10.00">reactesp::EventLoop</text>
<text text-anchor="middle" x="265" y="-69.75" font-family="Helvetica,sans-Serif" font-size="10.00">::tickTimed</text>
</a>
</g>
</g>
<!-- Node2&#45;&gt;Node3 -->
<g id="edge2_Node000002_Node000003" class="edge">
<title>Node2&#45;&gt;Node3</title>
<g id="a_edge2_Node000002_Node000003"><a xlink:title=" ">
<path fill="none" stroke="#63b8ff" d="M176.13,-63.56C184.15,-64.99 192.5,-66.48 200.73,-67.95"/>
<polygon fill="#63b8ff" stroke="#63b8ff" points="199.88,-71.35 210.34,-69.67 201.11,-64.46 199.88,-71.35"/>
</a>
</g>
</g>
<!-- Node8 -->
<g id="Node000008" class="node">
<title>Node8</title>
<g id="a_Node000008"><a xlink:href="classreactesp_1_1_event_loop.html#a816b31c993f0c98a4b3237c87a5b9a72" target="_top" xlink:title=" ">
<polygon fill="white" stroke="#666666" points="318,-45.5 212,-45.5 212,-15 318,-15 318,-45.5"/>
<text text-anchor="start" x="220" y="-32" font-family="Helvetica,sans-Serif" font-size="10.00">reactesp::EventLoop</text>
<text text-anchor="middle" x="265" y="-20.75" font-family="Helvetica,sans-Serif" font-size="10.00">::tickUntimed</text>
</a>
</g>
</g>
<!-- Node2&#45;&gt;Node8 -->
<g id="edge7_Node000002_Node000008" class="edge">
<title>Node2&#45;&gt;Node8</title>
<g id="a_edge7_Node000002_Node000008"><a xlink:title=" ">
<path fill="none" stroke="#63b8ff" d="M176.13,-45.31C184.15,-43.94 192.5,-42.51 200.73,-41.1"/>
<polygon fill="#63b8ff" stroke="#63b8ff" points="201.07,-44.59 210.33,-39.45 199.89,-37.69 201.07,-44.59"/>
</a>
</g>
</g>
<!-- Node4 -->
<g id="Node000004" class="node">
<title>Node4</title>
<g id="a_Node000004"><a xlink:href="classreactesp_1_1_timed_event.html#a18e54ee8a5720bf8e218273ad6ce399b" target="_top" xlink:title=" ">
<polygon fill="white" stroke="#666666" points="473.88,-165.5 357.38,-165.5 357.38,-135 473.88,-135 473.88,-165.5"/>
<text text-anchor="start" x="365.38" y="-152" font-family="Helvetica,sans-Serif" font-size="10.00">reactesp::TimedEvent</text>
<text text-anchor="middle" x="415.62" y="-140.75" font-family="Helvetica,sans-Serif" font-size="10.00">::getTriggerTimeMicros</text>
</a>
</g>
</g>
<!-- Node3&#45;&gt;Node4 -->
<g id="edge3_Node000003_Node000004" class="edge">
<title>Node3&#45;&gt;Node4</title>
<g id="a_edge3_Node000003_Node000004"><a xlink:title=" ">
<path fill="none" stroke="#63b8ff" d="M294.21,-94.83C311.31,-104.06 333.69,-115.78 354,-125.25 357.51,-126.89 361.16,-128.53 364.85,-130.15"/>
<polygon fill="#63b8ff" stroke="#63b8ff" points="363.3,-133.3 373.87,-134.03 366.07,-126.87 363.3,-133.3"/>
</a>
</g>
</g>
<!-- Node5 -->
<g id="Node000005" class="node">
<title>Node5</title>
<g id="a_Node000005"><a xlink:href="classreactesp_1_1_timed_event.html#a813ca557a9e1918800e22b27b6a3fe26" target="_top" xlink:title=" ">
<polygon fill="white" stroke="#666666" points="471.62,-116.5 359.62,-116.5 359.62,-86 471.62,-86 471.62,-116.5"/>
<text text-anchor="start" x="367.62" y="-103" font-family="Helvetica,sans-Serif" font-size="10.00">reactesp::TimedEvent</text>
<text text-anchor="middle" x="415.62" y="-91.75" font-family="Helvetica,sans-Serif" font-size="10.00">::isEnabled</text>
</a>
</g>
</g>
<!-- Node3&#45;&gt;Node5 -->
<g id="edge4_Node000003_Node000005" class="edge">
<title>Node3&#45;&gt;Node5</title>
<g id="a_edge4_Node000003_Node000005"><a xlink:title=" ">
<path fill="none" stroke="#63b8ff" d="M318.4,-87.01C327.99,-88.43 338.12,-89.93 348.06,-91.4"/>
<polygon fill="#63b8ff" stroke="#63b8ff" points="347.27,-94.82 357.67,-92.82 348.3,-87.89 347.27,-94.82"/>
</a>
</g>
</g>
<!-- Node6 -->
<g id="Node000006" class="node">
<title>Node6</title>
<g id="a_Node000006"><a xlink:href="namespacereactesp.html#ad8ee9481c08d90d81a80eded1394f1bb" target="_top" xlink:title="Return the current time since the device restart in microseconds.">
<polygon fill="white" stroke="#666666" points="465.25,-67.88 366,-67.88 366,-48.62 465.25,-48.62 465.25,-67.88"/>
<text text-anchor="middle" x="415.62" y="-54.38" font-family="Helvetica,sans-Serif" font-size="10.00">reactesp::micros64</text>
</a>
</g>
</g>
<!-- Node3&#45;&gt;Node6 -->
<g id="edge5_Node000003_Node000006" class="edge">
<title>Node3&#45;&gt;Node6</title>
<g id="a_edge5_Node000003_Node000006"><a xlink:title=" ">
<path fill="none" stroke="#63b8ff" d="M318.4,-71.85C330.05,-70.2 342.5,-68.44 354.43,-66.75"/>
<polygon fill="#63b8ff" stroke="#63b8ff" points="354.77,-70.24 364.18,-65.38 353.79,-63.31 354.77,-70.24"/>
</a>
</g>
</g>
<!-- Node7 -->
<g id="Node000007" class="node">
<title>Node7</title>
<g id="a_Node000007"><a xlink:href="structreactesp_1_1_event_interface.html#a55884e4ff4d0368e243503def0b31e49" target="_top" xlink:title=" ">
<polygon fill="white" stroke="#666666" points="477.25,-30.5 354,-30.5 354,0 477.25,0 477.25,-30.5"/>
<text text-anchor="start" x="362" y="-17" font-family="Helvetica,sans-Serif" font-size="10.00">reactesp::EventInterface</text>
<text text-anchor="middle" x="415.62" y="-5.75" font-family="Helvetica,sans-Serif" font-size="10.00">::tick</text>
</a>
</g>
</g>
<!-- Node3&#45;&gt;Node7 -->
<g id="edge6_Node000003_Node000007" class="edge">
<title>Node3&#45;&gt;Node7</title>
<g id="a_edge6_Node000003_Node000007"><a xlink:title=" ">
<path fill="none" stroke="#63b8ff" d="M299.26,-63.66C315.65,-56.1 335.77,-46.99 354,-39.25 357.13,-37.92 360.36,-36.57 363.62,-35.23"/>
<polygon fill="#63b8ff" stroke="#63b8ff" points="364.73,-38.56 372.67,-31.55 362.09,-32.07 364.73,-38.56"/>
</a>
</g>
</g>
</g>
</svg>
</svg>

<style type='text/css'>
<![CDATA[
[data-mouse-over-selected='false'] { opacity: 0.7; }
[data-mouse-over-selected='true']  { opacity: 1.0; }
]]>
</style>
<script type="application/ecmascript"><![CDATA[
document.addEventListener('DOMContentLoaded', (event) => {
  highlightEdges();
  highlightAdjacentNodes();
});
]]></script>
</svg>
