<?xml version="1.0" encoding="UTF-8" standalone="no"?>
<!DOCTYPE svg PUBLIC "-//W3C//DTD SVG 1.1//EN"
 "http://www.w3.org/Graphics/SVG/1.1/DTD/svg11.dtd">
<!-- Generated by graphviz version 12.1.0 (20240811.2233)
 -->
<!-- Title: execute_task Pages: 1 -->
<svg width="526pt" height="174pt"
 viewBox="0.00 0.00 525.75 173.50" xmlns="http://www.w3.org/2000/svg" xmlns:xlink="http://www.w3.org/1999/xlink">
<g id="graph0" class="graph" transform="scale(1 1) rotate(0) translate(4 169.5)">
<title>execute_task</title>
<!-- Node1 -->
<g id="Node000001" class="node">
<title>Node1</title>
<g id="a_Node000001"><a xlink:title=" ">
<polygon fill="#999999" stroke="#666666" points="74.5,-87.88 0,-87.88 0,-68.62 74.5,-68.62 74.5,-87.88"/>
<text text-anchor="middle" x="37.25" y="-74.38" font-family="Helvetica,sans-Serif" font-size="10.00">execute_task</text>
</a>
</g>
</g>
<!-- Node2 -->
<g id="Node000002" class="node">
<title>Node2</title>
<g id="a_Node000002"><a xlink:href="classreactesp_1_1_event_loop.html#a992c498cf62081624726346edf2db28b" target="_top" xlink:title="Create a new RepeatEvent.">
<polygon fill="white" stroke="#666666" points="216.5,-118.5 110.5,-118.5 110.5,-88 216.5,-88 216.5,-118.5"/>
<text text-anchor="start" x="118.5" y="-105" font-family="Helvetica,sans-Serif" font-size="10.00">reactesp::EventLoop</text>
<text text-anchor="middle" x="163.5" y="-93.75" font-family="Helvetica,sans-Serif" font-size="10.00">::onRepeat</text>
</a>
</g>
</g>
<!-- Node1&#45;&gt;Node2 -->
<g id="edge1_Node000001_Node000002" class="edge">
<title>Node1&#45;&gt;Node2</title>
<g id="a_edge1_Node000001_Node000002"><a xlink:title=" ">
<path fill="none" stroke="#63b8ff" d="M74.86,-85.62C82.44,-87.14 90.63,-88.79 98.86,-90.44"/>
<polygon fill="#63b8ff" stroke="#63b8ff" points="98.07,-93.86 108.56,-92.4 99.45,-86.99 98.07,-93.86"/>
</a>
</g>
</g>
<!-- Node3 -->
<g id="Node000003" class="node">
<title>Node3</title>
<g id="a_Node000003"><a xlink:href="classreactesp_1_1_event_loop.html#a2c84df800a38ca6870c5a20eaa53d526" target="_top" xlink:title=" ">
<polygon fill="white" stroke="#666666" points="216.5,-69.5 110.5,-69.5 110.5,-39 216.5,-39 216.5,-69.5"/>
<text text-anchor="start" x="118.5" y="-56" font-family="Helvetica,sans-Serif" font-size="10.00">reactesp::EventLoop</text>
<text text-anchor="middle" x="163.5" y="-44.75" font-family="Helvetica,sans-Serif" font-size="10.00">::tick</text>
</a>
</g>
</g>
<!-- Node1&#45;&gt;Node3 -->
<g id="edge2_Node000001_Node000003" class="edge">
<title>Node1&#45;&gt;Node3</title>
<g id="a_edge2_Node000001_Node000003"><a xlink:title=" ">
<path fill="none" stroke="#63b8ff" d="M74.86,-71.18C82.44,-69.72 90.63,-68.13 98.86,-66.54"/>
<polygon fill="#63b8ff" stroke="#63b8ff" points="99.4,-70 108.56,-64.67 98.07,-63.13 99.4,-70"/>
</a>
</g>
</g>
<!-- Node4 -->
<g id="Node000004" class="node">
<title>Node4</title>
<g id="a_Node000004"><a xlink:href="classreactesp_1_1_event_loop.html#a001ffbb649dc0b4b0dd11a3eb68db76b" target="_top" xlink:title=" ">
<polygon fill="white" stroke="#666666" points="358.5,-94.5 252.5,-94.5 252.5,-64 358.5,-64 358.5,-94.5"/>
<text text-anchor="start" x="260.5" y="-81" font-family="Helvetica,sans-Serif" font-size="10.00">reactesp::EventLoop</text>
<text text-anchor="middle" x="305.5" y="-69.75" font-family="Helvetica,sans-Serif" font-size="10.00">::tickTimed</text>
</a>
</g>
</g>
<!-- Node3&#45;&gt;Node4 -->
<g id="edge3_Node000003_Node000004" class="edge">
<title>Node3&#45;&gt;Node4</title>
<g id="a_edge3_Node000003_Node000004"><a xlink:title=" ">
<path fill="none" stroke="#63b8ff" d="M216.63,-63.56C224.65,-64.99 233,-66.48 241.23,-67.95"/>
<polygon fill="#63b8ff" stroke="#63b8ff" points="240.38,-71.35 250.84,-69.67 241.61,-64.46 240.38,-71.35"/>
</a>
</g>
</g>
<!-- Node9 -->
<g id="Node000009" class="node">
<title>Node9</title>
<g id="a_Node000009"><a xlink:href="classreactesp_1_1_event_loop.html#a816b31c993f0c98a4b3237c87a5b9a72" target="_top" xlink:title=" ">
<polygon fill="white" stroke="#666666" points="358.5,-45.5 252.5,-45.5 252.5,-15 358.5,-15 358.5,-45.5"/>
<text text-anchor="start" x="260.5" y="-32" font-family="Helvetica,sans-Serif" font-size="10.00">reactesp::EventLoop</text>
<text text-anchor="middle" x="305.5" y="-20.75" font-family="Helvetica,sans-Serif" font-size="10.00">::tickUntimed</text>
</a>
</g>
</g>
<!-- Node3&#45;&gt;Node9 -->
<g id="edge8_Node000003_Node000009" class="edge">
<title>Node3&#45;&gt;Node9</title>
<g id="a_edge8_Node000003_Node000009"><a xlink:title=" ">
<path fill="none" stroke="#63b8ff" d="M216.63,-45.31C224.65,-43.94 233,-42.51 241.23,-41.1"/>
<polygon fill="#63b8ff" stroke="#63b8ff" points="241.57,-44.59 250.83,-39.45 240.39,-37.69 241.57,-44.59"/>
</a>
</g>
</g>
<!-- Node5 -->
<g id="Node000005" class="node">
<title>Node5</title>
<g id="a_Node000005"><a xlink:href="classreactesp_1_1_timed_event.html#a18e54ee8a5720bf8e218273ad6ce399b" target="_top" xlink:title=" ">
<polygon fill="white" stroke="#666666" points="514.38,-165.5 397.88,-165.5 397.88,-135 514.38,-135 514.38,-165.5"/>
<text text-anchor="start" x="405.88" y="-152" font-family="Helvetica,sans-Serif" font-size="10.00">reactesp::TimedEvent</text>
<text text-anchor="middle" x="456.12" y="-140.75" font-family="Helvetica,sans-Serif" font-size="10.00">::getTriggerTimeMicros</text>
</a>
</g>
</g>
<!-- Node4&#45;&gt;Node5 -->
<g id="edge4_Node000004_Node000005" class="edge">
<title>Node4&#45;&gt;Node5</title>
<g id="a_edge4_Node000004_Node000005"><a xlink:title=" ">
<path fill="none" stroke="#63b8ff" d="M334.71,-94.83C351.81,-104.06 374.19,-115.78 394.5,-125.25 398.01,-126.89 401.66,-128.53 405.35,-130.15"/>
<polygon fill="#63b8ff" stroke="#63b8ff" points="403.8,-133.3 414.37,-134.03 406.57,-126.87 403.8,-133.3"/>
</a>
</g>
</g>
<!-- Node6 -->
<g id="Node000006" class="node">
<title>Node6</title>
<g id="a_Node000006"><a xlink:href="classreactesp_1_1_timed_event.html#a813ca557a9e1918800e22b27b6a3fe26" target="_top" xlink:title=" ">
<polygon fill="white" stroke="#666666" points="512.12,-116.5 400.12,-116.5 400.12,-86 512.12,-86 512.12,-116.5"/>
<text text-anchor="start" x="408.12" y="-103" font-family="Helvetica,sans-Serif" font-size="10.00">reactesp::TimedEvent</text>
<text text-anchor="middle" x="456.12" y="-91.75" font-family="Helvetica,sans-Serif" font-size="10.00">::isEnabled</text>
</a>
</g>
</g>
<!-- Node4&#45;&gt;Node6 -->
<g id="edge5_Node000004_Node000006" class="edge">
<title>Node4&#45;&gt;Node6</title>
<g id="a_edge5_Node000004_Node000006"><a xlink:title=" ">
<path fill="none" stroke="#63b8ff" d="M358.9,-87.01C368.49,-88.43 378.62,-89.93 388.56,-91.4"/>
<polygon fill="#63b8ff" stroke="#63b8ff" points="387.77,-94.82 398.17,-92.82 388.8,-87.89 387.77,-94.82"/>
</a>
</g>
</g>
<!-- Node7 -->
<g id="Node000007" class="node">
<title>Node7</title>
<g id="a_Node000007"><a xlink:href="namespacereactesp.html#ad8ee9481c08d90d81a80eded1394f1bb" target="_top" xlink:title="Return the current time since the device restart in microseconds.">
<polygon fill="white" stroke="#666666" points="505.75,-67.88 406.5,-67.88 406.5,-48.62 505.75,-48.62 505.75,-67.88"/>
<text text-anchor="middle" x="456.12" y="-54.38" font-family="Helvetica,sans-Serif" font-size="10.00">reactesp::micros64</text>
</a>
</g>
</g>
<!-- Node4&#45;&gt;Node7 -->
<g id="edge6_Node000004_Node000007" class="edge">
<title>Node4&#45;&gt;Node7</title>
<g id="a_edge6_Node000004_Node000007"><a xlink:title=" ">
<path fill="none" stroke="#63b8ff" d="M358.9,-71.85C370.55,-70.2 383,-68.44 394.93,-66.75"/>
<polygon fill="#63b8ff" stroke="#63b8ff" points="395.27,-70.24 404.68,-65.38 394.29,-63.31 395.27,-70.24"/>
</a>
</g>
</g>
<!-- Node8 -->
<g id="Node000008" class="node">
<title>Node8</title>
<g id="a_Node000008"><a xlink:href="structreactesp_1_1_event_interface.html#a55884e4ff4d0368e243503def0b31e49" target="_top" xlink:title=" ">
<polygon fill="white" stroke="#666666" points="517.75,-30.5 394.5,-30.5 394.5,0 517.75,0 517.75,-30.5"/>
<text text-anchor="start" x="402.5" y="-17" font-family="Helvetica,sans-Serif" font-size="10.00">reactesp::EventInterface</text>
<text text-anchor="middle" x="456.12" y="-5.75" font-family="Helvetica,sans-Serif" font-size="10.00">::tick</text>
</a>
</g>
</g>
<!-- Node4&#45;&gt;Node8 -->
<g id="edge7_Node000004_Node000008" class="edge">
<title>Node4&#45;&gt;Node8</title>
<g id="a_edge7_Node000004_Node000008"><a xlink:title=" ">
<path fill="none" stroke="#63b8ff" d="M339.76,-63.66C356.15,-56.1 376.27,-46.99 394.5,-39.25 397.63,-37.92 400.86,-36.57 404.12,-35.23"/>
<polygon fill="#63b8ff" stroke="#63b8ff" points="405.23,-38.56 413.17,-31.55 402.59,-32.07 405.23,-38.56"/>
</a>
</g>
</g>
</g>
</svg>
