<?xml version="1.0" encoding="UTF-8" standalone="no"?>
<!DOCTYPE svg PUBLIC "-//W3C//DTD SVG 1.1//EN"
 "http://www.w3.org/Graphics/SVG/1.1/DTD/svg11.dtd">
<!-- Generated by graphviz version 2.50.0 (20211204.2007)
 -->
<!-- Title: execute_task Pages: 1 -->
<svg width="410pt" height="88pt"
 viewBox="0.00 0.00 410.00 88.00" xmlns="http://www.w3.org/2000/svg" xmlns:xlink="http://www.w3.org/1999/xlink">
<g id="graph0" class="graph" transform="scale(1 1) rotate(0) translate(4 84)">
<title>execute_task</title>
<!-- Node1 -->
<g id="node1" class="node">
<title>Node1</title>
<g id="a_node1"><a xlink:title=" ">
<polygon fill="#bfbfbf" stroke="black" points="0,-30 0,-49 75,-49 75,-30 0,-30"/>
<text text-anchor="middle" x="37.5" y="-37" font-family="Helvetica,sans-Serif" font-size="10.00">execute_task</text>
</a>
</g>
</g>
<!-- Node2 -->
<g id="node2" class="node">
<title>Node2</title>
<g id="a_node2"><a xlink:href="classreactesp_1_1_react_e_s_p.html#a914de417d6b11c6111df8bba25d5ed75" target="_top" xlink:title="Create a new RepeatReaction.">
<polygon fill="none" stroke="black" points="111,-49.5 111,-79.5 218,-79.5 218,-49.5 111,-49.5"/>
<text text-anchor="start" x="119" y="-67.5" font-family="Helvetica,sans-Serif" font-size="10.00">reactesp::ReactESP</text>
<text text-anchor="middle" x="164.5" y="-56.5" font-family="Helvetica,sans-Serif" font-size="10.00">::onRepeat</text>
</a>
</g>
</g>
<!-- Node1&#45;&gt;Node2 -->
<g id="edge1" class="edge">
<title>Node1&#45;&gt;Node2</title>
<path fill="none" stroke="midnightblue" d="M75.33,-46.87C83.39,-48.48 92.13,-50.23 100.88,-51.98"/>
<polygon fill="midnightblue" stroke="midnightblue" points="100.23,-55.42 110.73,-53.95 101.61,-48.55 100.23,-55.42"/>
</g>
<!-- Node4 -->
<g id="node4" class="node">
<title>Node4</title>
<g id="a_node4"><a xlink:href="classreactesp_1_1_react_e_s_p.html#a683d99a3ed39a75337f01888c2240df0" target="_top" xlink:title=" ">
<polygon fill="none" stroke="black" points="111,-0.5 111,-30.5 218,-30.5 218,-0.5 111,-0.5"/>
<text text-anchor="start" x="119" y="-18.5" font-family="Helvetica,sans-Serif" font-size="10.00">reactesp::ReactESP</text>
<text text-anchor="middle" x="164.5" y="-7.5" font-family="Helvetica,sans-Serif" font-size="10.00">::tick</text>
</a>
</g>
</g>
<!-- Node1&#45;&gt;Node4 -->
<g id="edge3" class="edge">
<title>Node1&#45;&gt;Node4</title>
<path fill="none" stroke="midnightblue" d="M75.33,-32.43C83.39,-30.88 92.13,-29.2 100.88,-27.52"/>
<polygon fill="midnightblue" stroke="midnightblue" points="101.57,-30.96 110.73,-25.63 100.25,-24.08 101.57,-30.96"/>
</g>
<!-- Node3 -->
<g id="node3" class="node">
<title>Node3</title>
<g id="a_node3"><a xlink:href="classreactesp_1_1_timed_reaction.html#ac49b0dd38ef871399aa55d27fc7b44f8" target="_top" xlink:title=" ">
<polygon fill="none" stroke="black" points="254,-55 254,-74 402,-74 402,-55 254,-55"/>
<text text-anchor="middle" x="328" y="-62" font-family="Helvetica,sans-Serif" font-size="10.00">reactesp::TimedReaction::add</text>
</a>
</g>
</g>
<!-- Node2&#45;&gt;Node3 -->
<g id="edge2" class="edge">
<title>Node2&#45;&gt;Node3</title>
<path fill="none" stroke="midnightblue" d="M218.38,-64.5C226.51,-64.5 235.08,-64.5 243.68,-64.5"/>
<polygon fill="midnightblue" stroke="midnightblue" points="243.77,-68 253.77,-64.5 243.77,-61 243.77,-68"/>
</g>
</g>
</svg>
