<?xml version="1.0" encoding="UTF-8" standalone="no"?>
<!DOCTYPE svg PUBLIC "-//W3C//DTD SVG 1.1//EN"
 "http://www.w3.org/Graphics/SVG/1.1/DTD/svg11.dtd">
<!-- Generated by graphviz version 12.1.2 (20240928.0832)
 -->
<!-- Title: src/main.cpp Pages: 1 -->
<svg width="307pt" height="248pt"
 viewBox="0.00 0.00 307.00 248.25" xmlns="http://www.w3.org/2000/svg" xmlns:xlink="http://www.w3.org/1999/xlink">
<g id="graph0" class="graph" transform="scale(1 1) rotate(0) translate(4 244.25)">
<title>src/main.cpp</title>
<!-- Node1 -->
<g id="Node000001" class="node">
<title>Node1</title>
<g id="a_Node000001"><a xlink:title=" ">
<polygon fill="#999999" stroke="#666666" points="173.75,-240.25 101.5,-240.25 101.5,-221 173.75,-221 173.75,-240.25"/>
<text text-anchor="middle" x="137.62" y="-226.75" font-family="Helvetica,sans-Serif" font-size="10.00">src/main.cpp</text>
</a>
</g>
</g>
<!-- Node2 -->
<g id="Node000002" class="node">
<title>Node2</title>
<g id="a_Node000002"><a xlink:title=" ">
<polygon fill="#e0e0e0" stroke="#999999" points="57.25,-19.25 0,-19.25 0,0 57.25,0 57.25,-19.25"/>
<text text-anchor="middle" x="28.62" y="-5.75" font-family="Helvetica,sans-Serif" font-size="10.00">Arduino.h</text>
</a>
</g>
</g>
<!-- Node1&#45;&gt;Node2 -->
<g id="edge1_Node000001_Node000002" class="edge">
<title>Node1&#45;&gt;Node2</title>
<g id="a_edge1_Node000001_Node000002"><a xlink:title=" ">
<path fill="none" stroke="#63b8ff" d="M103.74,-220.58C84.79,-213.81 62.3,-202.62 48.62,-185 13.19,-139.33 19.29,-65.59 24.82,-30.46"/>
<polygon fill="#63b8ff" stroke="#63b8ff" points="28.22,-31.34 26.5,-20.88 21.33,-30.13 28.22,-31.34"/>
</a>
</g>
</g>
<!-- Node3 -->
<g id="Node000003" class="node">
<title>Node3</title>
<g id="a_Node000003"><a xlink:href="_react_e_s_p_8h.html" target="_top" xlink:title=" ">
<polygon fill="white" stroke="#666666" points="127.25,-185 58,-185 58,-165.75 127.25,-165.75 127.25,-185"/>
<text text-anchor="middle" x="92.62" y="-171.5" font-family="Helvetica,sans-Serif" font-size="10.00">ReactESP.h</text>
</a>
</g>
</g>
<!-- Node1&#45;&gt;Node3 -->
<g id="edge2_Node000001_Node000003" class="edge">
<title>Node1&#45;&gt;Node3</title>
<g id="a_edge2_Node000001_Node000003"><a xlink:title=" ">
<path fill="none" stroke="#63b8ff" d="M130.19,-220.83C124.04,-213.55 115.11,-202.98 107.5,-193.98"/>
<polygon fill="#63b8ff" stroke="#63b8ff" points="110.32,-191.89 101.19,-186.52 104.98,-196.41 110.32,-191.89"/>
</a>
</g>
</g>
<!-- Node9 -->
<g id="Node000009" class="node">
<title>Node9</title>
<g id="a_Node000009"><a xlink:title=" ">
<polygon fill="#e0e0e0" stroke="#999999" points="222.38,-185 144.88,-185 144.88,-165.75 222.38,-165.75 222.38,-185"/>
<text text-anchor="middle" x="183.62" y="-171.5" font-family="Helvetica,sans-Serif" font-size="10.00">esp_system.h</text>
</a>
</g>
</g>
<!-- Node1&#45;&gt;Node9 -->
<g id="edge12_Node000001_Node000009" class="edge">
<title>Node1&#45;&gt;Node9</title>
<g id="a_edge12_Node000001_Node000009"><a xlink:title=" ">
<path fill="none" stroke="#63b8ff" d="M145.22,-220.83C151.51,-213.55 160.64,-202.98 168.42,-193.98"/>
<polygon fill="#63b8ff" stroke="#63b8ff" points="170.99,-196.36 174.87,-186.5 165.69,-191.78 170.99,-196.36"/>
</a>
</g>
</g>
<!-- Node10 -->
<g id="Node000010" class="node">
<title>Node10</title>
<g id="a_Node000010"><a xlink:title=" ">
<polygon fill="#e0e0e0" stroke="#999999" points="299,-185 240.25,-185 240.25,-165.75 299,-165.75 299,-185"/>
<text text-anchor="middle" x="269.62" y="-171.5" font-family="Helvetica,sans-Serif" font-size="10.00">esp_pm.h</text>
</a>
</g>
</g>
<!-- Node1&#45;&gt;Node10 -->
<g id="edge13_Node000001_Node000010" class="edge">
<title>Node1&#45;&gt;Node10</title>
<g id="a_edge13_Node000001_Node000010"><a xlink:title=" ">
<path fill="none" stroke="#63b8ff" d="M160.02,-220.59C181.07,-212.1 212.83,-199.29 236.75,-189.64"/>
<polygon fill="#63b8ff" stroke="#63b8ff" points="237.76,-193.01 245.72,-186.02 235.14,-186.51 237.76,-193.01"/>
</a>
</g>
</g>
<!-- Node3&#45;&gt;Node2 -->
<g id="edge3_Node000003_Node000002" class="edge">
<title>Node3&#45;&gt;Node2</title>
<g id="a_edge3_Node000003_Node000002"><a xlink:title=" ">
<path fill="none" stroke="#63b8ff" d="M79.74,-165.31C69.31,-157.23 55.16,-144.44 47.62,-129.75 31.34,-98 28.32,-55.75 28.12,-31.03"/>
<polygon fill="#63b8ff" stroke="#63b8ff" points="31.61,-31.12 28.21,-21.08 24.61,-31.05 31.61,-31.12"/>
</a>
</g>
</g>
<!-- Node4 -->
<g id="Node000004" class="node">
<title>Node4</title>
<g id="a_Node000004"><a xlink:href="event__loop_8h.html" target="_top" xlink:title=" ">
<polygon fill="white" stroke="#666666" points="128.38,-129.75 56.88,-129.75 56.88,-110.5 128.38,-110.5 128.38,-129.75"/>
<text text-anchor="middle" x="92.62" y="-116.25" font-family="Helvetica,sans-Serif" font-size="10.00">event_loop.h</text>
</a>
</g>
</g>
<!-- Node3&#45;&gt;Node4 -->
<g id="edge4_Node000003_Node000004" class="edge">
<title>Node3&#45;&gt;Node4</title>
<g id="a_edge4_Node000003_Node000004"><a xlink:title=" ">
<path fill="none" stroke="#63b8ff" d="M92.62,-165.58C92.62,-159.07 92.62,-149.92 92.62,-141.62"/>
<polygon fill="#63b8ff" stroke="#63b8ff" points="96.13,-141.62 92.63,-131.62 89.13,-141.62 96.13,-141.62"/>
</a>
</g>
</g>
<!-- Node6 -->
<g id="Node000006" class="node">
<title>Node6</title>
<g id="a_Node000006"><a xlink:href="events_8h.html" target="_top" xlink:title=" ">
<polygon fill="white" stroke="#666666" points="170.38,-74.5 116.88,-74.5 116.88,-55.25 170.38,-55.25 170.38,-74.5"/>
<text text-anchor="middle" x="143.62" y="-61" font-family="Helvetica,sans-Serif" font-size="10.00">events.h</text>
</a>
</g>
</g>
<!-- Node3&#45;&gt;Node6 -->
<g id="edge10_Node000003_Node000006" class="edge">
<title>Node3&#45;&gt;Node6</title>
<g id="a_edge10_Node000003_Node000006"><a xlink:title=" ">
<path fill="none" stroke="#63b8ff" d="M105.75,-165.43C116.33,-157.43 130.57,-144.67 137.62,-129.75 144.05,-116.16 145.37,-99.14 145.18,-86.08"/>
<polygon fill="#63b8ff" stroke="#63b8ff" points="148.68,-85.96 144.69,-76.14 141.68,-86.3 148.68,-85.96"/>
</a>
</g>
</g>
<!-- Node7 -->
<g id="Node000007" class="node">
<title>Node7</title>
<g id="a_Node000007"><a xlink:title=" ">
<polygon fill="#e0e0e0" stroke="#999999" points="227.62,-19.25 169.62,-19.25 169.62,0 227.62,0 227.62,-19.25"/>
<text text-anchor="middle" x="198.62" y="-5.75" font-family="Helvetica,sans-Serif" font-size="10.00">functional</text>
</a>
</g>
</g>
<!-- Node3&#45;&gt;Node7 -->
<g id="edge11_Node000003_Node000007" class="edge">
<title>Node3&#45;&gt;Node7</title>
<g id="a_edge11_Node000003_Node000007"><a xlink:title=" ">
<path fill="none" stroke="#63b8ff" d="M109.78,-165.36C123.41,-157.48 142.19,-144.94 154.62,-129.75 178.76,-100.27 190.36,-56.31 195.35,-30.85"/>
<polygon fill="#63b8ff" stroke="#63b8ff" points="198.76,-31.64 197.08,-21.18 191.87,-30.41 198.76,-31.64"/>
</a>
</g>
</g>
<!-- Node5 -->
<g id="Node000005" class="node">
<title>Node5</title>
<g id="a_Node000005"><a xlink:title=" ">
<polygon fill="#e0e0e0" stroke="#999999" points="98.75,-74.5 56.5,-74.5 56.5,-55.25 98.75,-55.25 98.75,-74.5"/>
<text text-anchor="middle" x="77.62" y="-61" font-family="Helvetica,sans-Serif" font-size="10.00">queue</text>
</a>
</g>
</g>
<!-- Node4&#45;&gt;Node5 -->
<g id="edge5_Node000004_Node000005" class="edge">
<title>Node4&#45;&gt;Node5</title>
<g id="a_edge5_Node000004_Node000005"><a xlink:title=" ">
<path fill="none" stroke="#63b8ff" d="M90.15,-110.33C88.27,-103.67 85.62,-94.24 83.23,-85.78"/>
<polygon fill="#63b8ff" stroke="#63b8ff" points="86.65,-84.99 80.57,-76.32 79.91,-86.89 86.65,-84.99"/>
</a>
</g>
</g>
<!-- Node4&#45;&gt;Node6 -->
<g id="edge6_Node000004_Node000006" class="edge">
<title>Node4&#45;&gt;Node6</title>
<g id="a_edge6_Node000004_Node000006"><a xlink:title=" ">
<path fill="none" stroke="#63b8ff" d="M101.05,-110.33C108.16,-102.9 118.57,-92.04 127.31,-82.91"/>
<polygon fill="#63b8ff" stroke="#63b8ff" points="129.58,-85.6 133.97,-75.95 124.53,-80.75 129.58,-85.6"/>
</a>
</g>
</g>
<!-- Node6&#45;&gt;Node2 -->
<g id="edge7_Node000006_Node000002" class="edge">
<title>Node6&#45;&gt;Node2</title>
<g id="a_edge7_Node000006_Node000002"><a xlink:title=" ">
<path fill="none" stroke="#63b8ff" d="M124.12,-54.84C106.11,-46.5 79.1,-34 58.4,-24.41"/>
<polygon fill="#63b8ff" stroke="#63b8ff" points="60.15,-21.36 49.6,-20.34 57.21,-27.72 60.15,-21.36"/>
</a>
</g>
</g>
<!-- Node6&#45;&gt;Node7 -->
<g id="edge8_Node000006_Node000007" class="edge">
<title>Node6&#45;&gt;Node7</title>
<g id="a_edge8_Node000006_Node000007"><a xlink:title=" ">
<path fill="none" stroke="#63b8ff" d="M152.71,-55.08C160.46,-47.57 171.84,-36.56 181.32,-27.38"/>
<polygon fill="#63b8ff" stroke="#63b8ff" points="183.51,-30.13 188.26,-20.66 178.64,-25.1 183.51,-30.13"/>
</a>
</g>
</g>
<!-- Node8 -->
<g id="Node000008" class="node">
<title>Node8</title>
<g id="a_Node000008"><a xlink:title=" ">
<polygon fill="#e0e0e0" stroke="#999999" points="151.25,-19.25 100,-19.25 100,0 151.25,0 151.25,-19.25"/>
<text text-anchor="middle" x="125.62" y="-5.75" font-family="Helvetica,sans-Serif" font-size="10.00">memory</text>
</a>
</g>
</g>
<!-- Node6&#45;&gt;Node8 -->
<g id="edge9_Node000006_Node000008" class="edge">
<title>Node6&#45;&gt;Node8</title>
<g id="a_edge9_Node000006_Node000008"><a xlink:title=" ">
<path fill="none" stroke="#63b8ff" d="M140.65,-55.08C138.37,-48.34 135.14,-38.77 132.26,-30.24"/>
<polygon fill="#63b8ff" stroke="#63b8ff" points="135.66,-29.4 129.15,-21.04 129.03,-31.64 135.66,-29.4"/>
</a>
</g>
</g>
</g>
</svg>
