<?xml version="1.0" encoding="UTF-8" standalone="no"?>
<!DOCTYPE svg PUBLIC "-//W3C//DTD SVG 1.1//EN"
 "http://www.w3.org/Graphics/SVG/1.1/DTD/svg11.dtd">
<!-- Generated by graphviz version 12.1.2 (20240928.0832)
 -->
<!-- Title: setup_serial Pages: 1 -->
<svg width="219pt" height="88pt"
 viewBox="0.00 0.00 218.50 87.50" xmlns="http://www.w3.org/2000/svg" xmlns:xlink="http://www.w3.org/1999/xlink">
<g id="graph0" class="graph" transform="scale(1 1) rotate(0) translate(4 83.5)">
<title>setup_serial</title>
<!-- Node1 -->
<g id="Node000001" class="node">
<title>Node1</title>
<g id="a_Node000001"><a xlink:title=" ">
<polygon fill="#999999" stroke="#666666" points="68.5,-48.88 0,-48.88 0,-29.62 68.5,-29.62 68.5,-48.88"/>
<text text-anchor="middle" x="34.25" y="-35.38" font-family="Helvetica,sans-Serif" font-size="10.00">setup_serial</text>
</a>
</g>
</g>
<!-- Node2 -->
<g id="Node000002" class="node">
<title>Node2</title>
<g id="a_Node000002"><a xlink:href="classreactesp_1_1_event_loop.html#a3a85d2eebfb959d5d0caa15acbda6a72" target="_top" xlink:title="Create a new StreamEvent.">
<polygon fill="white" stroke="#666666" points="210.5,-79.5 104.5,-79.5 104.5,-49 210.5,-49 210.5,-79.5"/>
<text text-anchor="start" x="112.5" y="-66" font-family="Helvetica,sans-Serif" font-size="10.00">reactesp::EventLoop</text>
<text text-anchor="middle" x="157.5" y="-54.75" font-family="Helvetica,sans-Serif" font-size="10.00">::onAvailable</text>
</a>
</g>
</g>
<!-- Node1&#45;&gt;Node2 -->
<g id="edge1_Node000001_Node000002" class="edge">
<title>Node1&#45;&gt;Node2</title>
<g id="a_edge1_Node000001_Node000002"><a xlink:title=" ">
<path fill="none" stroke="#63b8ff" d="M68.7,-46.15C76.31,-47.72 84.63,-49.43 93.02,-51.16"/>
<polygon fill="#63b8ff" stroke="#63b8ff" points="92.06,-54.54 102.57,-53.13 93.48,-47.68 92.06,-54.54"/>
</a>
</g>
</g>
<!-- Node3 -->
<g id="Node000003" class="node">
<title>Node3</title>
<g id="a_Node000003"><a xlink:href="classreactesp_1_1_event_loop.html#a4bae6985931b6acda6afcbab5e1086a1" target="_top" xlink:title="Create a new DelayEvent.">
<polygon fill="white" stroke="#666666" points="210.5,-30.5 104.5,-30.5 104.5,0 210.5,0 210.5,-30.5"/>
<text text-anchor="start" x="112.5" y="-17" font-family="Helvetica,sans-Serif" font-size="10.00">reactesp::EventLoop</text>
<text text-anchor="middle" x="157.5" y="-5.75" font-family="Helvetica,sans-Serif" font-size="10.00">::onDelay</text>
</a>
</g>
</g>
<!-- Node1&#45;&gt;Node3 -->
<g id="edge2_Node000001_Node000003" class="edge">
<title>Node1&#45;&gt;Node3</title>
<g id="a_edge2_Node000001_Node000003"><a xlink:title=" ">
<path fill="none" stroke="#63b8ff" d="M68.7,-32.63C76.31,-31.12 84.63,-29.48 93.02,-27.81"/>
<polygon fill="#63b8ff" stroke="#63b8ff" points="93.43,-31.3 102.56,-25.93 92.07,-24.43 93.43,-31.3"/>
</a>
</g>
</g>
</g>
</svg>
