<?xml version="1.0" encoding="UTF-8" standalone="no"?>
<!DOCTYPE svg PUBLIC "-//W3C//DTD SVG 1.1//EN"
 "http://www.w3.org/Graphics/SVG/1.1/DTD/svg11.dtd">
<!-- Generated by graphviz version 2.49.3 (20211023.0002)
 -->
<!-- Title: setup Pages: 1 -->
<!--zoomable 323 -->
<svg id="main" version="1.1" xmlns="http://www.w3.org/2000/svg" xmlns:xlink="http://www.w3.org/1999/xlink" xml:space="preserve" onload="init(evt)">
<style type="text/css"><![CDATA[
.edge:hover path { stroke: red; }
.edge:hover polygon { stroke: red; fill: red; }
]]></style>
<script type="text/javascript"><![CDATA[
var edges = document.getElementsByTagName('g');
if (edges && edges.length) {
  for (var i=0;i<edges.length;i++) {
    if (edges[i].id.substr(0,4)=='edge') {
      edges[i].setAttribute('class','edge');
    }
  }
}
]]></script>
        <defs>
                <circle id="rim" cx="0" cy="0" r="7"/>
                <circle id="rim2" cx="0" cy="0" r="3.5"/>
                <g id="zoomPlus">
                        <use xlink:href="#rim" fill="#404040">
                                <set attributeName="fill" to="#808080" begin="zoomplus.mouseover" end="zoomplus.mouseout"/>
                        </use>
                        <path d="M-4,0h8M0,-4v8" fill="none" stroke="white" stroke-width="1.5" pointer-events="none"/>
                </g>
                <g id="zoomMin">
                        <use xlink:href="#rim" fill="#404040">
                                <set attributeName="fill" to="#808080" begin="zoomminus.mouseover" end="zoomminus.mouseout"/>
                        </use>
                        <path d="M-4,0h8" fill="none" stroke="white" stroke-width="1.5" pointer-events="none"/>
                </g>
                <g id="dirArrow">
                        <path fill="none" stroke="white" stroke-width="1.5" d="M0,-3.0v7 M-2.5,-0.5L0,-3.0L2.5,-0.5"/>
                </g>
               <g id="resetDef">
                       <use xlink:href="#rim2" fill="#404040">
                               <set attributeName="fill" to="#808080" begin="reset.mouseover" end="reset.mouseout"/>
                       </use>
               </g>
        </defs>

<script type="text/javascript">
var viewWidth = 511;
var viewHeight = 323;
var sectionId = 'dynsection-3';
</script>
<script xlink:href="svgpan.js"/>
<svg id="graph" class="graph">
<g id="viewport">
<title>setup</title>
<!-- Node1 -->
<g id="node1" class="node">
<title>Node1</title>
<g id="a_node1"><a xlink:title=" ">
<polygon fill="#bfbfbf" stroke="black" points="0,-128 0,-147 41,-147 41,-128 0,-128"/>
<text text-anchor="middle" x="20.5" y="-135" font-family="Helvetica,sans-Serif" font-size="10.00">setup</text>
</a>
</g>
</g>
<!-- Node2 -->
<g id="node2" class="node">
<title>Node2</title>
<g id="a_node2"><a xlink:href="main_8cpp.html#aa41a4d8986ed6c03bd6ad416ba134a4e" target="_top" xlink:title=" ">
<polygon fill="none" stroke="black" points="77,-197 77,-216 155,-216 155,-197 77,-197"/>
<text text-anchor="middle" x="116" y="-204" font-family="Helvetica,sans-Serif" font-size="10.00">setup_io_pins</text>
</a>
</g>
</g>
<!-- Node1&#45;&gt;Node2 -->
<g id="edge1" class="edge">
<title>Node1&#45;&gt;Node2</title>
<path fill="none" stroke="midnightblue" d="M33.17,-147.25C44.25,-156.38 61.46,-170.26 77,-181.5 81.45,-184.71 86.28,-188.03 90.96,-191.14"/>
<polygon fill="midnightblue" stroke="midnightblue" points="89.35,-194.27 99.63,-196.83 93.18,-188.42 89.35,-194.27"/>
</g>
<!-- Node9 -->
<g id="node9" class="node">
<title>Node9</title>
<g id="a_node9"><a xlink:href="main_8cpp.html#aabd20f4bed5cefc2278d071d9dafb01f" target="_top" xlink:title=" ">
<polygon fill="none" stroke="black" points="81,-104 81,-123 151,-123 151,-104 81,-104"/>
<text text-anchor="middle" x="116" y="-111" font-family="Helvetica,sans-Serif" font-size="10.00">setup_serial</text>
</a>
</g>
</g>
<!-- Node1&#45;&gt;Node9 -->
<g id="edge8" class="edge">
<title>Node1&#45;&gt;Node9</title>
<path fill="none" stroke="midnightblue" d="M41.33,-132.41C50.02,-130.18 60.6,-127.46 71,-124.8"/>
<polygon fill="midnightblue" stroke="midnightblue" points="72.02,-128.14 80.84,-122.27 70.28,-121.36 72.02,-128.14"/>
</g>
<!-- Node13 -->
<g id="node13" class="node">
<title>Node13</title>
<g id="a_node13"><a xlink:href="main_8cpp.html#a4e12b91752b35a5f3a628424fcd5d73b" target="_top" xlink:title=" ">
<polygon fill="none" stroke="black" points="85,-36 85,-55 147,-55 147,-36 85,-36"/>
<text text-anchor="middle" x="116" y="-43" font-family="Helvetica,sans-Serif" font-size="10.00">setup_tick</text>
</a>
</g>
</g>
<!-- Node1&#45;&gt;Node13 -->
<g id="edge13" class="edge">
<title>Node1&#45;&gt;Node13</title>
<path fill="none" stroke="midnightblue" d="M31.51,-127.65C47.32,-112.09 78.3,-81.61 97.75,-62.47"/>
<polygon fill="midnightblue" stroke="midnightblue" points="100.39,-64.78 105.07,-55.27 95.48,-59.79 100.39,-64.78"/>
</g>
<!-- Node15 -->
<g id="node15" class="node">
<title>Node15</title>
<g id="a_node15"><a xlink:href="main_8cpp.html#a8b0ce963bacb63827eb79b51bc74a551" target="_top" xlink:title=" ">
<polygon fill="none" stroke="black" points="79,-153 79,-172 153,-172 153,-153 79,-153"/>
<text text-anchor="middle" x="116" y="-160" font-family="Helvetica,sans-Serif" font-size="10.00">setup_timers</text>
</a>
</g>
</g>
<!-- Node1&#45;&gt;Node15 -->
<g id="edge16" class="edge">
<title>Node1&#45;&gt;Node15</title>
<path fill="none" stroke="midnightblue" d="M41.33,-142.8C49.61,-145.02 59.6,-147.69 69.52,-150.34"/>
<polygon fill="midnightblue" stroke="midnightblue" points="68.78,-153.76 79.34,-152.97 70.59,-147 68.78,-153.76"/>
</g>
<!-- Node3 -->
<g id="node3" class="node">
<title>Node3</title>
<g id="a_node3"><a xlink:href="classreactesp_1_1_react_e_s_p.html#afa5876a2a33275dc7d0ba8214bb51ee7" target="_top" xlink:title="Create a new ISRReaction (interrupt reaction)">
<polygon fill="none" stroke="black" points="196,-235.5 196,-265.5 303,-265.5 303,-235.5 196,-235.5"/>
<text text-anchor="start" x="204" y="-253.5" font-family="Helvetica,sans-Serif" font-size="10.00">reactesp::ReactESP</text>
<text text-anchor="middle" x="249.5" y="-242.5" font-family="Helvetica,sans-Serif" font-size="10.00">::onInterrupt</text>
</a>
</g>
</g>
<!-- Node2&#45;&gt;Node3 -->
<g id="edge2" class="edge">
<title>Node2&#45;&gt;Node3</title>
<path fill="none" stroke="midnightblue" d="M145.53,-216.05C159.68,-220.78 177.25,-226.66 193.85,-232.21"/>
<polygon fill="midnightblue" stroke="midnightblue" points="192.88,-235.58 203.48,-235.43 195.1,-228.94 192.88,-235.58"/>
</g>
<!-- Node5 -->
<g id="node5" class="node">
<title>Node5</title>
<g id="a_node5"><a xlink:href="classreactesp_1_1_react_e_s_p.html#a914de417d6b11c6111df8bba25d5ed75" target="_top" xlink:title="Create a new RepeatReaction.">
<polygon fill="none" stroke="black" points="196,-147.5 196,-177.5 303,-177.5 303,-147.5 196,-147.5"/>
<text text-anchor="start" x="204" y="-165.5" font-family="Helvetica,sans-Serif" font-size="10.00">reactesp::ReactESP</text>
<text text-anchor="middle" x="249.5" y="-154.5" font-family="Helvetica,sans-Serif" font-size="10.00">::onRepeat</text>
</a>
</g>
</g>
<!-- Node2&#45;&gt;Node5 -->
<g id="edge4" class="edge">
<title>Node2&#45;&gt;Node5</title>
<path fill="none" stroke="midnightblue" d="M145.53,-196.95C159.68,-192.22 177.25,-186.34 193.85,-180.79"/>
<polygon fill="midnightblue" stroke="midnightblue" points="195.1,-184.06 203.48,-177.57 192.88,-177.42 195.1,-184.06"/>
</g>
<!-- Node7 -->
<g id="node7" class="node">
<title>Node7</title>
<g id="a_node7"><a xlink:href="classreactesp_1_1_i_s_r_reaction.html#a9ccf4abc748379340fb0e97b77c3bc4d" target="_top" xlink:title=" ">
<polygon fill="none" stroke="black" points="191,-284.5 191,-314.5 308,-314.5 308,-284.5 191,-284.5"/>
<text text-anchor="start" x="199" y="-302.5" font-family="Helvetica,sans-Serif" font-size="10.00">reactesp::ISRReaction</text>
<text text-anchor="middle" x="249.5" y="-291.5" font-family="Helvetica,sans-Serif" font-size="10.00">::remove</text>
</a>
</g>
</g>
<!-- Node2&#45;&gt;Node7 -->
<g id="edge6" class="edge">
<title>Node2&#45;&gt;Node7</title>
<path fill="none" stroke="midnightblue" d="M125.24,-216.12C138.07,-230.61 164.14,-258.17 191,-275.5 193.39,-277.04 195.89,-278.52 198.46,-279.92"/>
<polygon fill="midnightblue" stroke="midnightblue" points="196.87,-283.05 207.37,-284.46 200.04,-276.81 196.87,-283.05"/>
</g>
<!-- Node8 -->
<g id="node8" class="node">
<title>Node8</title>
<g id="a_node8"><a xlink:href="main_8cpp.html#a58acc222e959363ee034cea9488ef627" target="_top" xlink:title=" ">
<polygon fill="none" stroke="black" points="223.5,-197 223.5,-216 275.5,-216 275.5,-197 223.5,-197"/>
<text text-anchor="middle" x="249.5" y="-204" font-family="Helvetica,sans-Serif" font-size="10.00">reporter</text>
</a>
</g>
</g>
<!-- Node2&#45;&gt;Node8 -->
<g id="edge7" class="edge">
<title>Node2&#45;&gt;Node8</title>
<path fill="none" stroke="midnightblue" d="M155.04,-206.5C173.42,-206.5 195.35,-206.5 213.35,-206.5"/>
<polygon fill="midnightblue" stroke="midnightblue" points="213.43,-210 223.43,-206.5 213.43,-203 213.43,-210"/>
</g>
<!-- Node4 -->
<g id="node4" class="node">
<title>Node4</title>
<g id="a_node4"><a xlink:href="classreactesp_1_1_i_s_r_reaction.html#ac7b7efd14de7cd96df315e761f962d4a" target="_top" xlink:title=" ">
<polygon fill="none" stroke="black" points="354,-241 354,-260 493,-260 493,-241 354,-241"/>
<text text-anchor="middle" x="423.5" y="-248" font-family="Helvetica,sans-Serif" font-size="10.00">reactesp::ISRReaction::add</text>
</a>
</g>
</g>
<!-- Node3&#45;&gt;Node4 -->
<g id="edge3" class="edge">
<title>Node3&#45;&gt;Node4</title>
<path fill="none" stroke="midnightblue" d="M303.04,-250.5C315.79,-250.5 329.71,-250.5 343.39,-250.5"/>
<polygon fill="midnightblue" stroke="midnightblue" points="343.79,-254 353.79,-250.5 343.79,-247 343.79,-254"/>
</g>
<!-- Node6 -->
<g id="node6" class="node">
<title>Node6</title>
<g id="a_node6"><a xlink:href="classreactesp_1_1_timed_reaction.html#ae8318817b65df5dee74911f863973063" target="_top" xlink:title=" ">
<polygon fill="none" stroke="black" points="348.5,-128 348.5,-147 498.5,-147 498.5,-128 348.5,-128"/>
<text text-anchor="middle" x="423.5" y="-135" font-family="Helvetica,sans-Serif" font-size="10.00">reactesp::TimedReaction::add</text>
</a>
</g>
</g>
<!-- Node5&#45;&gt;Node6 -->
<g id="edge5" class="edge">
<title>Node5&#45;&gt;Node6</title>
<path fill="none" stroke="midnightblue" d="M303.04,-154.86C316.85,-152.86 332.02,-150.65 346.78,-148.51"/>
<polygon fill="midnightblue" stroke="midnightblue" points="347.51,-151.94 356.91,-147.03 346.51,-145.01 347.51,-151.94"/>
</g>
<!-- Node10 -->
<g id="node10" class="node">
<title>Node10</title>
<g id="a_node10"><a xlink:href="classreactesp_1_1_react_e_s_p.html#a42c88fbcd1f1ab9842517056448de6b5" target="_top" xlink:title="Create a new StreamReaction.">
<polygon fill="none" stroke="black" points="196,-49.5 196,-79.5 303,-79.5 303,-49.5 196,-49.5"/>
<text text-anchor="start" x="204" y="-67.5" font-family="Helvetica,sans-Serif" font-size="10.00">reactesp::ReactESP</text>
<text text-anchor="middle" x="249.5" y="-56.5" font-family="Helvetica,sans-Serif" font-size="10.00">::onAvailable</text>
</a>
</g>
</g>
<!-- Node9&#45;&gt;Node10 -->
<g id="edge9" class="edge">
<title>Node9&#45;&gt;Node10</title>
<path fill="none" stroke="midnightblue" d="M142.67,-103.94C158.59,-98 179.58,-90.18 198.67,-83.07"/>
<polygon fill="midnightblue" stroke="midnightblue" points="200,-86.31 208.15,-79.54 197.55,-79.75 200,-86.31"/>
</g>
<!-- Node12 -->
<g id="node12" class="node">
<title>Node12</title>
<g id="a_node12"><a xlink:href="classreactesp_1_1_react_e_s_p.html#a5b25d026d1f26fb80b2c6659f3875fd8" target="_top" xlink:title="Create a new DelayReaction.">
<polygon fill="none" stroke="black" points="196,-98.5 196,-128.5 303,-128.5 303,-98.5 196,-98.5"/>
<text text-anchor="start" x="204" y="-116.5" font-family="Helvetica,sans-Serif" font-size="10.00">reactesp::ReactESP</text>
<text text-anchor="middle" x="249.5" y="-105.5" font-family="Helvetica,sans-Serif" font-size="10.00">::onDelay</text>
</a>
</g>
</g>
<!-- Node9&#45;&gt;Node12 -->
<g id="edge11" class="edge">
<title>Node9&#45;&gt;Node12</title>
<path fill="none" stroke="midnightblue" d="M151.21,-113.5C161.74,-113.5 173.69,-113.5 185.53,-113.5"/>
<polygon fill="midnightblue" stroke="midnightblue" points="185.85,-117 195.85,-113.5 185.85,-110 185.85,-117"/>
</g>
<!-- Node11 -->
<g id="node11" class="node">
<title>Node11</title>
<g id="a_node11"><a xlink:href="classreactesp_1_1_untimed_reaction.html#a69503862f7b8e8033a2f401c9152a283" target="_top" xlink:title=" ">
<polygon fill="none" stroke="black" points="344,-31 344,-50 503,-50 503,-31 344,-31"/>
<text text-anchor="middle" x="423.5" y="-38" font-family="Helvetica,sans-Serif" font-size="10.00">reactesp::UntimedReaction::add</text>
</a>
</g>
</g>
<!-- Node10&#45;&gt;Node11 -->
<g id="edge10" class="edge">
<title>Node10&#45;&gt;Node11</title>
<path fill="none" stroke="midnightblue" d="M303.04,-57.17C316.08,-55.35 330.33,-53.36 344.31,-51.41"/>
<polygon fill="midnightblue" stroke="midnightblue" points="344.99,-54.85 354.41,-50 344.03,-47.92 344.99,-54.85"/>
</g>
<!-- Node12&#45;&gt;Node6 -->
<g id="edge12" class="edge">
<title>Node12&#45;&gt;Node6</title>
<path fill="none" stroke="midnightblue" d="M303.04,-120.83C316.08,-122.65 330.33,-124.64 344.31,-126.59"/>
<polygon fill="midnightblue" stroke="midnightblue" points="344.03,-130.08 354.41,-128 344.99,-123.15 344.03,-130.08"/>
</g>
<!-- Node14 -->
<g id="node14" class="node">
<title>Node14</title>
<g id="a_node14"><a xlink:href="classreactesp_1_1_react_e_s_p.html#ae442c7e1e8084f46a900646957f1f9c8" target="_top" xlink:title="Create a new TickReaction.">
<polygon fill="none" stroke="black" points="196,-0.5 196,-30.5 303,-30.5 303,-0.5 196,-0.5"/>
<text text-anchor="start" x="204" y="-18.5" font-family="Helvetica,sans-Serif" font-size="10.00">reactesp::ReactESP</text>
<text text-anchor="middle" x="249.5" y="-7.5" font-family="Helvetica,sans-Serif" font-size="10.00">::onTick</text>
</a>
</g>
</g>
<!-- Node13&#45;&gt;Node14 -->
<g id="edge14" class="edge">
<title>Node13&#45;&gt;Node14</title>
<path fill="none" stroke="midnightblue" d="M147.17,-38.62C158.76,-35.97 172.47,-32.85 185.99,-29.76"/>
<polygon fill="midnightblue" stroke="midnightblue" points="186.8,-33.17 195.77,-27.53 185.24,-26.34 186.8,-33.17"/>
</g>
<!-- Node14&#45;&gt;Node11 -->
<g id="edge15" class="edge">
<title>Node14&#45;&gt;Node11</title>
<path fill="none" stroke="midnightblue" d="M303.04,-23.14C316.85,-25.14 332.02,-27.35 346.78,-29.49"/>
<polygon fill="midnightblue" stroke="midnightblue" points="346.51,-32.99 356.91,-30.97 347.51,-26.06 346.51,-32.99"/>
</g>
<!-- Node15&#45;&gt;Node5 -->
<g id="edge17" class="edge">
<title>Node15&#45;&gt;Node5</title>
<path fill="none" stroke="midnightblue" d="M153.28,-162.5C163.29,-162.5 174.45,-162.5 185.51,-162.5"/>
<polygon fill="midnightblue" stroke="midnightblue" points="185.6,-166 195.6,-162.5 185.6,-159 185.6,-166"/>
</g>
<!-- Node15&#45;&gt;Node8 -->
<g id="edge18" class="edge">
<title>Node15&#45;&gt;Node8</title>
<path fill="none" stroke="midnightblue" d="M145.1,-172.04C158.92,-176.72 175.82,-182.43 191,-187.5 198.35,-189.96 206.23,-192.57 213.73,-195.05"/>
<polygon fill="midnightblue" stroke="midnightblue" points="212.7,-198.4 223.3,-198.21 214.9,-191.75 212.7,-198.4"/>
</g>
</g>
</svg>
        <g id="navigator" transform="translate(0 0)" fill="#404254">
                <rect fill="#f2f5e9" fill-opacity="0.5" stroke="#606060" stroke-width=".5" x="0" y="0" width="60" height="60"/>
                <use id="zoomplus" xlink:href="#zoomPlus" x="17" y="9" onmousedown="handleZoom(evt,'in')"/>
                <use id="zoomminus" xlink:href="#zoomMin" x="42" y="9" onmousedown="handleZoom(evt,'out')"/>
                <use id="reset" xlink:href="#resetDef" x="30" y="36" onmousedown="handleReset()"/>
                <g id="arrowUp" xlink:href="#dirArrow" transform="translate(30 24)" onmousedown="handlePan(0,-1)">
                  <use xlink:href="#rim" fill="#404040">
                        <set attributeName="fill" to="#808080" begin="arrowUp.mouseover" end="arrowUp.mouseout"/>
                  </use>
                  <path fill="none" stroke="white" stroke-width="1.5" d="M0,-3.0v7 M-2.5,-0.5L0,-3.0L2.5,-0.5"/>
                </g>
                <g id="arrowRight" xlink:href="#dirArrow" transform="rotate(90) translate(36 -43)" onmousedown="handlePan(1,0)">
                  <use xlink:href="#rim" fill="#404040">
                        <set attributeName="fill" to="#808080" begin="arrowRight.mouseover" end="arrowRight.mouseout"/>
                  </use>
                  <path fill="none" stroke="white" stroke-width="1.5" d="M0,-3.0v7 M-2.5,-0.5L0,-3.0L2.5,-0.5"/>
                </g>
                <g id="arrowDown" xlink:href="#dirArrow" transform="rotate(180) translate(-30 -48)" onmousedown="handlePan(0,1)">
                  <use xlink:href="#rim" fill="#404040">
                        <set attributeName="fill" to="#808080" begin="arrowDown.mouseover" end="arrowDown.mouseout"/>
                  </use>
                  <path fill="none" stroke="white" stroke-width="1.5" d="M0,-3.0v7 M-2.5,-0.5L0,-3.0L2.5,-0.5"/>
                </g>
                <g id="arrowLeft" xlink:href="#dirArrow" transform="rotate(270) translate(-36 17)" onmousedown="handlePan(-1,0)">
                  <use xlink:href="#rim" fill="#404040">
                        <set attributeName="fill" to="#808080" begin="arrowLeft.mouseover" end="arrowLeft.mouseout"/>
                  </use>
                  <path fill="none" stroke="white" stroke-width="1.5" d="M0,-3.0v7 M-2.5,-0.5L0,-3.0L2.5,-0.5"/>
                </g>
        </g>
        <svg viewBox="0 0 15 15" width="100%" height="30px" preserveAspectRatio="xMaxYMin meet">
         <g id="arrow_out" transform="scale(0.3 0.3)">
          <a xlink:href="main_8cpp_a4fc01d736fe50cf5b977f755b675f11d_cgraph_org.svg" target="_base">
           <rect id="button" ry="5" rx="5" y="6" x="6" height="38" width="38"
                fill="#f2f5e9" fill-opacity="0.5" stroke="#606060" stroke-width="1.0"/>
           <path id="arrow"
             d="M 11.500037,31.436501 C 11.940474,20.09759 22.043105,11.32322 32.158766,21.979434 L 37.068811,17.246167 C 37.068811,17.246167 37.088388,32 37.088388,32 L 22.160133,31.978069 C 22.160133,31.978069 26.997745,27.140456 26.997745,27.140456 C 18.528582,18.264221 13.291696,25.230495 11.500037,31.436501 z"
             style="fill:#404040;"/>
          </a>
         </g>
        </svg>
</svg>
