<?xml version="1.0" encoding="UTF-8" standalone="no"?>
<!DOCTYPE svg PUBLIC "-//W3C//DTD SVG 1.1//EN"
 "http://www.w3.org/Graphics/SVG/1.1/DTD/svg11.dtd">
<!-- Generated by graphviz version 2.49.3 (20211023.0002)
 -->
<!-- Title: setup_timers Pages: 1 -->
<svg width="411pt" height="78pt"
 viewBox="0.00 0.00 411.00 77.50" xmlns="http://www.w3.org/2000/svg" xmlns:xlink="http://www.w3.org/1999/xlink">
<g id="graph0" class="graph" transform="scale(1 1) rotate(0) translate(4 73.5)">
<title>setup_timers</title>
<!-- Node1 -->
<g id="node1" class="node">
<title>Node1</title>
<g id="a_node1"><a xlink:title=" ">
<polygon fill="#bfbfbf" stroke="black" points="0,-22.5 0,-41.5 74,-41.5 74,-22.5 0,-22.5"/>
<text text-anchor="middle" x="37" y="-29.5" font-family="Helvetica,sans-Serif" font-size="10.00">setup_timers</text>
</a>
</g>
</g>
<!-- Node2 -->
<g id="node2" class="node">
<title>Node2</title>
<g id="a_node2"><a xlink:href="classreactesp_1_1_react_e_s_p.html#a914de417d6b11c6111df8bba25d5ed75" target="_top" xlink:title="Create a new RepeatReaction.">
<polygon fill="none" stroke="black" points="110,-39 110,-69 217,-69 217,-39 110,-39"/>
<text text-anchor="start" x="118" y="-57" font-family="Helvetica,sans-Serif" font-size="10.00">reactesp::ReactESP</text>
<text text-anchor="middle" x="163.5" y="-46" font-family="Helvetica,sans-Serif" font-size="10.00">::onRepeat</text>
</a>
</g>
</g>
<!-- Node1&#45;&gt;Node2 -->
<g id="edge1" class="edge">
<title>Node1&#45;&gt;Node2</title>
<path fill="none" stroke="midnightblue" d="M74.01,-38.36C82.15,-39.8 91.02,-41.37 99.9,-42.94"/>
<polygon fill="midnightblue" stroke="midnightblue" points="99.44,-46.41 109.9,-44.7 100.66,-39.52 99.44,-46.41"/>
</g>
<!-- Node4 -->
<g id="node4" class="node">
<title>Node4</title>
<g id="a_node4"><a xlink:href="main_8cpp.html#a58acc222e959363ee034cea9488ef627" target="_top" xlink:title=" ">
<polygon fill="none" stroke="black" points="137.5,-0.5 137.5,-19.5 189.5,-19.5 189.5,-0.5 137.5,-0.5"/>
<text text-anchor="middle" x="163.5" y="-7.5" font-family="Helvetica,sans-Serif" font-size="10.00">reporter</text>
</a>
</g>
</g>
<!-- Node1&#45;&gt;Node4 -->
<g id="edge3" class="edge">
<title>Node1&#45;&gt;Node4</title>
<path fill="none" stroke="midnightblue" d="M74.01,-25.64C90.78,-22.67 110.66,-19.16 127.33,-16.22"/>
<polygon fill="midnightblue" stroke="midnightblue" points="127.99,-19.65 137.23,-14.46 126.78,-12.76 127.99,-19.65"/>
</g>
<!-- Node3 -->
<g id="node3" class="node">
<title>Node3</title>
<g id="a_node3"><a xlink:href="classreactesp_1_1_timed_reaction.html#ae8318817b65df5dee74911f863973063" target="_top" xlink:title=" ">
<polygon fill="none" stroke="black" points="253,-44.5 253,-63.5 403,-63.5 403,-44.5 253,-44.5"/>
<text text-anchor="middle" x="328" y="-51.5" font-family="Helvetica,sans-Serif" font-size="10.00">reactesp::TimedReaction::add</text>
</a>
</g>
</g>
<!-- Node2&#45;&gt;Node3 -->
<g id="edge2" class="edge">
<title>Node2&#45;&gt;Node3</title>
<path fill="none" stroke="midnightblue" d="M217.26,-54C225.45,-54 234.09,-54 242.77,-54"/>
<polygon fill="midnightblue" stroke="midnightblue" points="242.96,-57.5 252.96,-54 242.96,-50.5 242.96,-57.5"/>
</g>
</g>
</svg>
