<?xml version="1.0" encoding="UTF-8" standalone="no"?>
<!DOCTYPE svg PUBLIC "-//W3C//DTD SVG 1.1//EN"
 "http://www.w3.org/Graphics/SVG/1.1/DTD/svg11.dtd">
<!-- Generated by graphviz version 12.1.2 (20240928.0832)
 -->
<!-- Title: reactesp::micros64 Pages: 1 -->
<svg width="512pt" height="247pt"
 viewBox="0.00 0.00 512.25 246.88" xmlns="http://www.w3.org/2000/svg" xmlns:xlink="http://www.w3.org/1999/xlink">
<g id="graph0" class="graph" transform="scale(1 1) rotate(0) translate(4 242.88)">
<title>reactesp::micros64</title>
<!-- Node1 -->
<g id="Node000001" class="node">
<title>Node1</title>
<g id="a_Node000001"><a xlink:title="Return the current time since the device restart in microseconds.">
<polygon fill="#999999" stroke="#666666" points="504.25,-135.25 405,-135.25 405,-116 504.25,-116 504.25,-135.25"/>
<text text-anchor="middle" x="454.62" y="-121.75" font-family="Helvetica,sans-Serif" font-size="10.00">reactesp::micros64</text>
</a>
</g>
</g>
<!-- Node2 -->
<g id="Node000002" class="node">
<title>Node2</title>
<g id="a_Node000002"><a xlink:href="classreactesp_1_1_delay_event.html#a0ea813021513248b351f55722d7b20f0" target="_top" xlink:title="Construct a new Delay Event object.">
<polygon fill="white" stroke="#666666" points="366,-238.88 255.5,-238.88 255.5,-208.38 366,-208.38 366,-238.88"/>
<text text-anchor="start" x="263.5" y="-225.38" font-family="Helvetica,sans-Serif" font-size="10.00">reactesp::DelayEvent</text>
<text text-anchor="middle" x="310.75" y="-214.12" font-family="Helvetica,sans-Serif" font-size="10.00">::DelayEvent</text>
</a>
</g>
</g>
<!-- Node1&#45;&gt;Node2 -->
<g id="edge1_Node000001_Node000002" class="edge">
<title>Node1&#45;&gt;Node2</title>
<g id="a_edge1_Node000001_Node000002"><a xlink:title=" ">
<path fill="none" stroke="#63b8ff" d="M435.93,-143.71C419.63,-159.66 394.22,-182.75 369,-198.62 363.68,-201.98 357.83,-205.09 351.96,-207.91"/>
<polygon fill="#63b8ff" stroke="#63b8ff" points="438.31,-146.29 442.92,-136.75 433.37,-141.33 438.31,-146.29"/>
</a>
</g>
</g>
<!-- Node3 -->
<g id="Node000003" class="node">
<title>Node3</title>
<g id="a_Node000003"><a xlink:href="classreactesp_1_1_delay_event.html#a62687321b5a603131eb6ddd85f2ed2e2" target="_top" xlink:title="Construct a new Delay Event object.">
<polygon fill="white" stroke="#666666" points="366,-189.88 255.5,-189.88 255.5,-159.38 366,-159.38 366,-189.88"/>
<text text-anchor="start" x="263.5" y="-176.38" font-family="Helvetica,sans-Serif" font-size="10.00">reactesp::DelayEvent</text>
<text text-anchor="middle" x="310.75" y="-165.12" font-family="Helvetica,sans-Serif" font-size="10.00">::DelayEvent</text>
</a>
</g>
</g>
<!-- Node1&#45;&gt;Node3 -->
<g id="edge2_Node000001_Node000003" class="edge">
<title>Node1&#45;&gt;Node3</title>
<g id="a_edge2_Node000001_Node000003"><a xlink:title=" ">
<path fill="none" stroke="#63b8ff" d="M413.81,-139.38C396.22,-145.45 375.44,-152.63 357.25,-158.91"/>
<polygon fill="#63b8ff" stroke="#63b8ff" points="414.83,-142.73 423.14,-136.15 412.55,-136.11 414.83,-142.73"/>
</a>
</g>
</g>
<!-- Node4 -->
<g id="Node000004" class="node">
<title>Node4</title>
<g id="a_Node000004"><a xlink:href="classreactesp_1_1_delay_event.html#aec91371781ea8c88412d188465f14d02" target="_top" xlink:title=" ">
<polygon fill="white" stroke="#666666" points="366,-140.88 255.5,-140.88 255.5,-110.38 366,-110.38 366,-140.88"/>
<text text-anchor="start" x="263.5" y="-127.38" font-family="Helvetica,sans-Serif" font-size="10.00">reactesp::DelayEvent</text>
<text text-anchor="middle" x="310.75" y="-116.12" font-family="Helvetica,sans-Serif" font-size="10.00">::tick</text>
</a>
</g>
</g>
<!-- Node1&#45;&gt;Node4 -->
<g id="edge3_Node000001_Node000004" class="edge">
<title>Node1&#45;&gt;Node4</title>
<g id="a_edge3_Node000001_Node000004"><a xlink:title=" ">
<path fill="none" stroke="#63b8ff" d="M393.44,-125.62C384.33,-125.62 374.98,-125.62 366.01,-125.62"/>
<polygon fill="#63b8ff" stroke="#63b8ff" points="393.29,-129.13 403.29,-125.63 393.29,-122.13 393.29,-129.13"/>
</a>
</g>
</g>
<!-- Node5 -->
<g id="Node000005" class="node">
<title>Node5</title>
<g id="a_Node000005"><a xlink:href="classreactesp_1_1_repeat_event.html#a33021777e9303e40009d864e9952be14" target="_top" xlink:title=" ">
<polygon fill="white" stroke="#666666" points="369,-91.88 252.5,-91.88 252.5,-61.38 369,-61.38 369,-91.88"/>
<text text-anchor="start" x="260.5" y="-78.38" font-family="Helvetica,sans-Serif" font-size="10.00">reactesp::RepeatEvent</text>
<text text-anchor="middle" x="310.75" y="-67.12" font-family="Helvetica,sans-Serif" font-size="10.00">::tick</text>
</a>
</g>
</g>
<!-- Node1&#45;&gt;Node5 -->
<g id="edge4_Node000001_Node000005" class="edge">
<title>Node1&#45;&gt;Node5</title>
<g id="a_edge4_Node000001_Node000005"><a xlink:title=" ">
<path fill="none" stroke="#63b8ff" d="M413.81,-111.87C396.22,-105.8 375.44,-98.62 357.25,-92.34"/>
<polygon fill="#63b8ff" stroke="#63b8ff" points="412.55,-115.14 423.14,-115.1 414.83,-108.52 412.55,-115.14"/>
</a>
</g>
</g>
<!-- Node6 -->
<g id="Node000006" class="node">
<title>Node6</title>
<g id="a_Node000006"><a xlink:href="classreactesp_1_1_event_loop.html#a001ffbb649dc0b4b0dd11a3eb68db76b" target="_top" xlink:title=" ">
<polygon fill="white" stroke="#666666" points="363.75,-42.88 257.75,-42.88 257.75,-12.37 363.75,-12.37 363.75,-42.88"/>
<text text-anchor="start" x="265.75" y="-29.38" font-family="Helvetica,sans-Serif" font-size="10.00">reactesp::EventLoop</text>
<text text-anchor="middle" x="310.75" y="-18.12" font-family="Helvetica,sans-Serif" font-size="10.00">::tickTimed</text>
</a>
</g>
</g>
<!-- Node1&#45;&gt;Node6 -->
<g id="edge5_Node000001_Node000006" class="edge">
<title>Node1&#45;&gt;Node6</title>
<g id="a_edge5_Node000001_Node000006"><a xlink:title=" ">
<path fill="none" stroke="#63b8ff" d="M435.93,-107.54C419.63,-91.59 394.22,-68.5 369,-52.62 363.68,-49.27 357.83,-46.16 351.96,-43.34"/>
<polygon fill="#63b8ff" stroke="#63b8ff" points="433.37,-109.92 442.92,-114.5 438.31,-104.96 433.37,-109.92"/>
</a>
</g>
</g>
<!-- Node7 -->
<g id="Node000007" class="node">
<title>Node7</title>
<g id="a_Node000007"><a xlink:href="classreactesp_1_1_event_loop.html#a2c84df800a38ca6870c5a20eaa53d526" target="_top" xlink:title=" ">
<polygon fill="white" stroke="#666666" points="216.5,-42.88 110.5,-42.88 110.5,-12.37 216.5,-12.37 216.5,-42.88"/>
<text text-anchor="start" x="118.5" y="-29.38" font-family="Helvetica,sans-Serif" font-size="10.00">reactesp::EventLoop</text>
<text text-anchor="middle" x="163.5" y="-18.12" font-family="Helvetica,sans-Serif" font-size="10.00">::tick</text>
</a>
</g>
</g>
<!-- Node6&#45;&gt;Node7 -->
<g id="edge6_Node000006_Node000007" class="edge">
<title>Node6&#45;&gt;Node7</title>
<g id="a_edge6_Node000006_Node000007"><a xlink:title=" ">
<path fill="none" stroke="#63b8ff" d="M246.02,-27.62C236.28,-27.62 226.32,-27.62 216.86,-27.62"/>
<polygon fill="#63b8ff" stroke="#63b8ff" points="245.8,-31.13 255.8,-27.63 245.8,-24.13 245.8,-31.13"/>
</a>
</g>
</g>
<!-- Node8 -->
<g id="Node000008" class="node">
<title>Node8</title>
<g id="a_Node000008"><a xlink:href="main_8cpp.html#ab9032828806331e4ee839f4dde7611f2" target="_top" xlink:title=" ">
<polygon fill="white" stroke="#666666" points="74.5,-56.25 0,-56.25 0,-37 74.5,-37 74.5,-56.25"/>
<text text-anchor="middle" x="37.25" y="-42.75" font-family="Helvetica,sans-Serif" font-size="10.00">execute_task</text>
</a>
</g>
</g>
<!-- Node7&#45;&gt;Node8 -->
<g id="edge7_Node000007_Node000008" class="edge">
<title>Node7&#45;&gt;Node8</title>
<g id="a_edge7_Node000007_Node000008"><a xlink:title=" ">
<path fill="none" stroke="#63b8ff" d="M98.89,-37.35C90.59,-38.62 82.33,-39.88 74.69,-41.05"/>
<polygon fill="#63b8ff" stroke="#63b8ff" points="99.31,-40.83 108.67,-35.86 98.26,-33.91 99.31,-40.83"/>
</a>
</g>
</g>
<!-- Node9 -->
<g id="Node000009" class="node">
<title>Node9</title>
<g id="a_Node000009"><a xlink:href="main_8cpp.html#afe461d27b9c48d5921c00d521181f12f" target="_top" xlink:title=" ">
<polygon fill="white" stroke="#666666" points="54.25,-19.25 20.25,-19.25 20.25,0 54.25,0 54.25,-19.25"/>
<text text-anchor="middle" x="37.25" y="-5.75" font-family="Helvetica,sans-Serif" font-size="10.00">loop</text>
</a>
</g>
</g>
<!-- Node7&#45;&gt;Node9 -->
<g id="edge8_Node000007_Node000009" class="edge">
<title>Node7&#45;&gt;Node9</title>
<g id="a_edge8_Node000007_Node000009"><a xlink:title=" ">
<path fill="none" stroke="#63b8ff" d="M98.81,-18.4C82.36,-16.01 66.05,-13.65 54.51,-11.98"/>
<polygon fill="#63b8ff" stroke="#63b8ff" points="98.27,-21.86 108.67,-19.83 99.27,-14.93 98.27,-21.86"/>
</a>
</g>
</g>
</g>
</svg>
